<svg width="271" height="364" viewBox="0 0 271 364" fill="none" xmlns="http://www.w3.org/2000/svg">
<path d="M89.1707 13.198C95.3427 5.70753 104.731 0.919922 115.252 0.919922C125.785 0.919922 135.181 5.71895 141.353 13.2241C141.968 13.1714 142.587 13.131 143.215 13.131C154.997 13.131 164.548 22.5926 164.548 34.2644C164.548 37.3296 162.017 39.837 158.922 39.837H74.8031C71.7094 39.837 69.1777 37.3296 69.1777 34.2644C69.1777 23.0409 78.016 13.8864 89.1707 13.198Z" fill="#EC7D3F"/>
<path d="M237.722 121.205C229.972 121.205 222.962 124.33 217.897 129.374C215.389 128.347 212.642 127.773 209.759 127.773C197.977 127.773 188.426 137.235 188.426 148.907C188.426 151.972 190.957 154.479 194.051 154.479H260.059C263.153 154.479 265.685 151.971 265.685 148.907C265.685 133.608 253.165 121.205 237.722 121.205Z" fill="#D2D2D2"/>
<path d="M50.3597 121.619C46.2771 116.664 40.0675 113.498 33.1076 113.498C26.1401 113.498 19.9253 116.673 15.8427 121.637C15.4362 121.602 15.0269 121.575 14.6109 121.575C6.81756 121.575 0.5 127.834 0.5 135.554C0.5 137.582 2.17448 139.24 4.22122 139.24H59.8636C61.9103 139.24 63.5848 137.582 63.5848 135.554C63.5843 128.13 57.7379 122.074 50.3597 121.619Z" fill="#EC7D3F"/>
<path d="M4.75672 292.959L7.57819 294.588L94.168 344.579C100.292 348.111 111.092 347.665 118.157 343.581L263.394 259.281L264.497 258.645C268.286 256.46 270.277 253.656 270.348 250.98L270.357 266.92V266.938C270.357 269.662 268.365 272.536 264.497 274.771L118.156 359.697C111.092 363.781 100.292 364.232 94.1676 360.695L4.75672 309.075C1.98806 307.472 0.632813 305.322 0.632813 303.066V286.95C0.63243 289.206 1.98806 291.356 4.75672 292.959Z" fill="#EC7D3F" stroke="#818181" stroke-miterlimit="10"/>
<path d="M6.48125 279.106L152.976 194.447C160.05 190.363 170.841 189.917 176.965 193.449L266.376 245.074C269.074 246.632 270.438 248.725 270.5 250.919V251.255C270.429 253.931 268.438 256.735 264.649 258.92L263.546 259.556L118.155 343.58C111.09 347.664 100.29 348.11 94.166 344.577L7.57624 294.587L4.75477 292.958C1.9861 291.355 0.630859 289.205 0.630859 286.948C0.630859 284.215 2.61339 281.341 6.48125 279.106Z" fill="#D2D2D2" stroke="#818181" stroke-miterlimit="10"/>
<path d="M120.324 134.686V212.404L144.867 226.57V148.856L120.324 134.686ZM135.078 149.339L141.214 152.88V191.281L135.078 187.74V149.339ZM123.982 142.933L130.113 146.473V184.874L123.982 181.334V142.933Z" fill="#818181" stroke="#9E9E9E" stroke-miterlimit="10"/>
<path d="M144.867 148.857L120.324 134.686L134.295 103.879L157.321 117.166L153.923 125.81L144.867 148.857Z" fill="white" stroke="#9E9E9E" stroke-miterlimit="10"/>
<path d="M130.114 184.875L123.982 181.335V142.934L130.114 146.474V184.875Z" fill="white" stroke="#9E9E9E" stroke-miterlimit="10"/>
<path d="M141.216 191.282L135.08 187.741V149.34L141.216 152.88V191.282Z" fill="white" stroke="#9E9E9E" stroke-miterlimit="10"/>
<path d="M144.867 148.856V226.57L169.41 212.404V134.686L144.867 148.856ZM159.621 146.473L165.753 142.933V181.334L159.621 184.874V146.473ZM148.52 152.88L154.656 149.339V187.74L148.52 191.281V152.88Z" fill="white" stroke="#9E9E9E" stroke-miterlimit="10"/>
<path d="M153.923 125.809L157.322 117.166L169.41 134.686L144.867 148.857L153.923 125.809Z" fill="#EC7D3F" stroke="#9E9E9E" stroke-miterlimit="10"/>
<path d="M154.655 187.741L148.52 191.282V152.88L154.655 149.34V187.741Z" fill="white" stroke="#9E9E9E" stroke-miterlimit="10"/>
<path d="M165.753 181.335L159.621 184.875V146.474L165.753 142.934V181.335Z" fill="white" stroke="#9E9E9E" stroke-miterlimit="10"/>
<path d="M82.3945 99.4863V254.835L116.863 274.737V274.733V119.384L82.3945 99.4863ZM86.6435 235.137L112.619 250.132V258.538L86.6435 243.543V235.137ZM86.6435 219.454L112.619 234.454V242.859L86.6435 227.864V219.454ZM86.6435 203.775L112.619 218.775V227.181L86.6435 212.185V203.775ZM86.6435 188.097L112.619 203.096V211.502L86.6435 196.506V188.097ZM86.6435 172.418L112.619 187.414V195.824L86.6435 180.824V172.418ZM86.6435 156.74L112.619 171.736V180.145L86.6435 165.146V156.74ZM86.6435 141.061L112.619 156.056V164.466L86.6435 149.467V141.061ZM86.6435 125.383L112.619 140.378V148.784L86.6435 133.788V125.383ZM86.6435 109.7L112.619 124.699V133.105L86.6435 118.11V109.7Z" fill="white" stroke="#9E9E9E" stroke-miterlimit="10"/>
<path d="M82.3945 99.4858L106.762 85.3359V101.227L116.863 107.058L126.965 101.227V85.344L151.332 99.4858L116.863 119.384L82.3945 99.4858Z" fill="white" stroke="#9E9E9E" stroke-miterlimit="10"/>
<path d="M112.618 258.538L86.6426 243.542V235.137L112.618 250.132V258.538Z" fill="white" stroke="#9E9E9E" stroke-miterlimit="10"/>
<path d="M112.618 242.86L86.6426 227.865V219.455L112.618 234.455V242.86Z" fill="white" stroke="#9E9E9E" stroke-miterlimit="10"/>
<path d="M112.618 227.181L86.6426 212.185V203.775L112.618 218.775V227.181Z" fill="white" stroke="#9E9E9E" stroke-miterlimit="10"/>
<path d="M112.618 211.501L86.6426 196.506V188.096L112.618 203.096V211.501Z" fill="white" stroke="#9E9E9E" stroke-miterlimit="10"/>
<path d="M112.618 195.824L86.6426 180.824V172.418L112.618 187.414V195.824Z" fill="white" stroke="#9E9E9E" stroke-miterlimit="10"/>
<path d="M112.618 180.145L86.6426 165.146V156.74L112.618 171.735V180.145Z" fill="white" stroke="#9E9E9E" stroke-miterlimit="10"/>
<path d="M112.618 164.466L86.6426 149.467V141.061L112.618 156.056V164.466Z" fill="white" stroke="#9E9E9E" stroke-miterlimit="10"/>
<path d="M112.618 148.784L86.6426 133.788V125.383L112.618 140.378V148.784Z" fill="white" stroke="#9E9E9E" stroke-miterlimit="10"/>
<path d="M112.618 133.106L86.6426 118.111V109.701L112.618 124.701V133.106Z" fill="white" stroke="#9E9E9E" stroke-miterlimit="10"/>
<path d="M116.863 79.4798V107.059L106.762 101.227V85.3362V71.3613L116.863 77.193V79.4798Z" fill="white" stroke="#9E9E9E" stroke-miterlimit="10"/>
<path d="M106.762 71.3607L116.867 65.4668L126.964 71.3607L116.863 77.1924L106.762 71.3607Z" fill="white" stroke="#9E9E9E" stroke-miterlimit="10"/>
<path d="M116.863 119.384V274.733L151.332 254.835V99.4863L116.863 119.384ZM121.112 250.132L147.087 235.133V243.543L121.112 258.538V250.132ZM121.112 234.454L147.087 219.454V227.864L121.112 242.86V234.454ZM121.112 218.771L147.087 203.775V212.181L121.112 227.18V218.771ZM121.112 203.092L147.087 188.097V196.502L121.112 211.502V203.092ZM121.112 187.414L147.087 172.418V180.824L121.112 195.823V187.414ZM121.112 171.735L147.087 156.739V165.145L121.112 180.145V171.735ZM121.112 156.057L147.087 141.057V149.467L121.112 164.462V156.057ZM121.112 140.378L147.088 125.378V133.788L121.112 148.784V140.378H121.112ZM121.112 124.699L147.087 109.7V118.11L121.112 133.106V124.699Z" fill="#EC7D3F" stroke="#9E9E9E" stroke-miterlimit="10"/>
<path d="M116.863 107.059V79.4798V77.193L126.964 71.3613V85.3443V101.227L116.863 107.059Z" fill="white" stroke="#9E9E9E" stroke-miterlimit="10"/>
<path d="M147.087 243.541L121.111 258.536V250.13L147.087 235.131V243.541Z" fill="white" stroke="#9E9E9E" stroke-miterlimit="10"/>
<path d="M147.087 227.865L121.111 242.86V234.455L147.087 219.455V227.865Z" fill="white" stroke="#9E9E9E" stroke-miterlimit="10"/>
<path d="M147.087 212.181L121.111 227.181V218.771L147.087 203.775V212.181Z" fill="white" stroke="#9E9E9E" stroke-miterlimit="10"/>
<path d="M147.087 196.502L121.111 211.501V203.091L147.087 188.096V196.502Z" fill="white" stroke="#9E9E9E" stroke-miterlimit="10"/>
<path d="M147.087 180.824L121.111 195.824V187.414L147.087 172.418V180.824Z" fill="white" stroke="#9E9E9E" stroke-miterlimit="10"/>
<path d="M147.087 165.146L121.111 180.145V171.735L147.087 156.74V165.146Z" fill="white" stroke="#9E9E9E" stroke-miterlimit="10"/>
<path d="M147.087 149.467L121.111 164.462V156.057L147.087 141.057V149.467Z" fill="white" stroke="#9E9E9E" stroke-miterlimit="10"/>
<path d="M147.087 133.789L121.111 148.784V140.378L147.087 125.379V133.789Z" fill="white" stroke="#9E9E9E" stroke-miterlimit="10"/>
<path d="M147.087 118.111L121.111 133.106V124.701L147.087 109.701V118.111Z" fill="white" stroke="#9E9E9E" stroke-miterlimit="10"/>
<path d="M43.4512 262.873V268.763L114.529 309.8V303.911L43.4512 262.873Z" fill="white" stroke="#9E9E9E" stroke-miterlimit="10"/>
<path d="M43.4512 259.217V262.874L114.529 303.911L138.693 289.957V286.3L114.529 300.254L43.4512 259.217Z" fill="white" stroke="#9E9E9E" stroke-miterlimit="10"/>
<path d="M114.529 293.752L43.4512 252.715V259.217L114.529 300.255V293.752Z" fill="white" stroke="#9E9E9E" stroke-miterlimit="10"/>
<path d="M43.4512 249.061V252.713L114.529 293.751L138.693 279.801V276.144L114.529 290.094L43.4512 249.061Z" fill="white" stroke="#9E9E9E" stroke-miterlimit="10"/>
<path d="M114.529 283.594V283.59L43.4512 242.557V249.059L114.529 290.092V283.594Z" fill="white" stroke="#9E9E9E" stroke-miterlimit="10"/>
<path d="M43.4512 238.902V242.559L114.529 283.593V283.597L138.693 269.643V265.986L114.529 279.94L43.4512 238.902Z" fill="white" stroke="#9E9E9E" stroke-miterlimit="10"/>
<path d="M114.529 273.436L43.4512 232.398V238.901L114.529 279.938V273.436Z" fill="white" stroke="#9E9E9E" stroke-miterlimit="10"/>
<path d="M43.4512 228.742V232.399L114.529 273.437L138.693 259.487V255.83L114.529 269.78L43.4512 228.742Z" fill="white" stroke="#9E9E9E" stroke-miterlimit="10"/>
<path d="M114.529 263.281V263.277L43.4512 222.244V228.742L114.529 269.779V263.281Z" fill="white" stroke="#9E9E9E" stroke-miterlimit="10"/>
<path d="M43.4512 218.588V222.245L114.529 263.279V263.282L138.693 249.328V245.671L114.529 259.625L43.4512 218.588Z" fill="white" stroke="#9E9E9E" stroke-miterlimit="10"/>
<path d="M114.529 253.123L43.4512 212.086V218.588L114.529 259.625V253.123Z" fill="white" stroke="#9E9E9E" stroke-miterlimit="10"/>
<path d="M43.4512 208.428V212.085L114.529 253.123L138.693 239.169V235.516L114.529 249.466L43.4512 208.428Z" fill="white" stroke="#9E9E9E" stroke-miterlimit="10"/>
<path d="M114.529 242.963L43.4512 201.93V208.427L114.529 249.465V242.963Z" fill="white" stroke="#9E9E9E" stroke-miterlimit="10"/>
<path d="M114.529 239.307L43.4512 198.273V201.931L114.529 242.964L138.693 229.014V225.357L114.529 239.311V239.307Z" fill="white" stroke="#9E9E9E" stroke-miterlimit="10"/>
<path d="M114.529 233.635L43.4512 192.598V198.271L114.529 239.304V233.635Z" fill="white" stroke="#9E9E9E" stroke-miterlimit="10"/>
<path d="M138.693 219.682L67.481 178.637L43.4512 192.599L114.529 233.637L138.693 219.682Z" fill="#EC7D3F" stroke="#9E9E9E" stroke-miterlimit="10"/>
<path d="M114.529 309.799L138.693 295.845V289.955L114.529 303.909V309.799Z" fill="#818181" stroke="#9E9E9E" stroke-miterlimit="10"/>
<path d="M114.529 300.253L138.693 286.299V279.801L114.529 293.75V300.253Z" fill="#818181" stroke="#9E9E9E" stroke-miterlimit="10"/>
<path d="M114.529 290.095L138.693 276.145V269.643L114.529 283.597V290.095Z" fill="#818181" stroke="#9E9E9E" stroke-miterlimit="10"/>
<path d="M114.529 279.94L138.693 265.987V259.488L114.529 273.438V279.94Z" fill="#818181" stroke="#9E9E9E" stroke-miterlimit="10"/>
<path d="M114.529 269.78L138.693 255.831V249.328L114.529 263.282V269.78Z" fill="#818181" stroke="#9E9E9E" stroke-miterlimit="10"/>
<path d="M114.529 259.626L138.693 245.672V239.17L114.529 253.124V259.626Z" fill="#818181" stroke="#9E9E9E" stroke-miterlimit="10"/>
<path d="M114.529 249.466L138.693 235.516V229.014L114.529 242.963V249.466Z" fill="#818181" stroke="#9E9E9E" stroke-miterlimit="10"/>
<path d="M114.529 233.636V239.305V239.309L138.693 225.355V219.682L114.529 233.636Z" fill="#818181" stroke="#9E9E9E" stroke-miterlimit="10"/>
<path d="M147.928 221.1V285.195L168.169 296.882V232.787L147.928 221.1ZM160.096 233.185L165.156 236.105V267.777L160.096 264.857V233.185ZM150.944 227.898L156.002 230.822V262.49L150.944 259.57V227.898Z" fill="#EC7D3F" stroke="#9E9E9E" stroke-miterlimit="10"/>
<path d="M168.169 232.787L147.928 221.1L157.898 206.646L160.701 213.778L168.169 232.787Z" fill="#EC7D3F" stroke="#9E9E9E" stroke-miterlimit="10"/>
<path d="M156.002 262.49L150.945 259.57V227.898L156.002 230.822V262.49Z" fill="white" stroke="#9E9E9E" stroke-miterlimit="10"/>
<path d="M165.156 267.778L160.096 264.857V233.186L165.156 236.106V267.778Z" fill="white" stroke="#9E9E9E" stroke-miterlimit="10"/>
<path d="M160.702 213.779L157.898 206.647L176.89 195.691L188.412 221.1L168.17 232.787L160.702 213.779Z" fill="white" stroke="#9E9E9E" stroke-miterlimit="10"/>
<path d="M168.17 232.787V296.882L188.412 285.195V221.1L168.17 232.787ZM180.339 230.822L185.395 227.898V259.57L180.339 262.49V230.822ZM171.183 236.106L176.244 233.186V264.857L171.183 267.777V236.106Z" fill="white" stroke="#9E9E9E" stroke-miterlimit="10"/>
<path d="M176.242 264.857L171.182 267.778V236.106L176.242 233.186V264.857Z" fill="white" stroke="#9E9E9E" stroke-miterlimit="10"/>
<path d="M185.395 259.57L180.338 262.49V230.822L185.395 227.898V259.57Z" fill="white" stroke="#9E9E9E" stroke-miterlimit="10"/>
<path d="M48.1961 239.724C49.1883 238.981 50.423 238.529 51.7547 238.529H58.5896C61.8415 238.529 64.5044 241.192 64.5044 244.445V260.317C64.5044 263.569 61.8415 266.232 58.5896 266.232H55.039H51.7547C50.4069 266.232 49.1646 265.78 48.1719 265.014C48.188 264.877 48.1961 264.739 48.1961 264.602V239.724Z" fill="#D2D2D2"/>
<path d="M13.2708 232.201H20.1056C21.4373 232.201 22.6716 232.653 23.6643 233.412C25.0925 234.477 26.0205 236.196 26.0205 238.116V253.989C26.0205 255.909 25.0925 257.628 23.6643 258.701C22.6716 259.46 21.4373 259.904 20.1056 259.904H17.903L15.4821 259.903L13.2708 259.904C10.0188 259.904 7.35547 257.241 7.35547 253.989V238.116C7.35547 234.864 10.0184 232.201 13.2708 232.201Z" fill="#D2D2D2"/>
<path d="M37.1407 262.915V257.292L43.9037 250.529C44.3768 250.055 44.3768 249.29 43.9037 248.817C43.4312 248.344 42.6652 248.344 42.1922 248.817L37.1407 253.868V245.317L43.9047 238.546C44.3768 238.073 44.3768 237.307 43.9037 236.834C43.4312 236.363 42.6643 236.362 42.1912 236.835L37.1407 241.891V236.092C37.1407 235.424 36.5987 234.882 35.9302 234.882C35.2623 234.882 34.7198 235.424 34.7198 236.092V244.816V244.817V248.01L29.6683 242.959C29.1957 242.487 28.4298 242.487 27.9568 242.959C27.4837 243.432 27.4837 244.198 27.9568 244.671L34.7198 251.433V259.99L29.6693 254.934C29.1962 254.461 28.4298 254.462 27.9568 254.933C27.4837 255.405 27.4837 256.171 27.9558 256.645L34.7193 263.417V270.517H29.587C26.327 270.517 23.6641 267.854 23.6641 264.602V258.703C25.0923 257.63 26.0203 255.911 26.0203 253.99V238.117C26.0203 236.197 25.0923 234.478 23.6641 233.413V224.343C23.6641 221.091 26.327 218.428 29.587 218.428H42.2725C45.5326 218.428 48.1955 221.091 48.1955 224.343V239.723V264.602C48.1955 264.739 48.1874 264.876 48.1712 265.014C47.9696 268.072 45.3952 270.517 42.2725 270.517H37.1402V262.917V262.915H37.1407Z" fill="#EC7D3F"/>
<path d="M17.9019 259.905V268.782C17.9019 269.888 18.3331 270.924 19.1147 271.703C19.8901 272.473 20.9185 272.898 22.0139 272.898C22.021 272.898 22.0286 272.898 22.0357 272.898C29.3432 272.867 32.9118 272.851 34.7184 272.903V270.517V263.417L27.9549 256.646C27.4828 256.173 27.4828 255.407 27.9558 254.934C28.4289 254.463 29.1953 254.462 29.6683 254.935L34.7189 259.991V251.434L27.9558 244.672C27.4828 244.198 27.4828 243.433 27.9558 242.96C28.4289 242.487 29.1948 242.487 29.6674 242.96L34.7189 248.011V244.818C34.7189 244.818 34.7189 244.817 34.7189 244.817V236.093C34.7189 235.425 35.2613 234.883 35.9293 234.883C36.5978 234.883 37.1398 235.425 37.1398 236.093V241.892L42.1903 236.835C42.6629 236.362 43.4298 236.363 43.9028 236.834C44.3759 237.307 44.3759 238.073 43.9038 238.547L37.1398 245.318V253.87L42.1913 248.818C42.6638 248.345 43.4298 248.345 43.9028 248.818C44.3759 249.291 44.3759 250.057 43.9028 250.53L37.1398 257.293V262.917V262.918V270.518V276.949H49.7121C51.9809 276.949 53.8275 275.103 53.8275 272.834V266.233H56.2484V272.834C56.2484 276.438 53.3159 279.37 49.7121 279.37H37.1398V289.74H34.7189V275.31C33.2279 275.294 29.7858 275.287 22.0476 275.32C22.0357 275.32 22.0239 275.32 22.012 275.32C20.2738 275.32 18.6402 274.646 17.4074 273.42C16.1646 272.184 15.4805 270.538 15.4805 268.783V259.906L17.9019 259.906V259.905Z" fill="#818181"/>
<path d="M119.667 266.496H121.604V282.208H119.667C116.415 282.208 113.752 279.545 113.752 276.292V272.419C113.752 269.159 116.415 266.496 119.667 266.496Z" fill="#818181"/>
<path d="M121.604 265.165C121.604 260.848 125.106 257.346 129.423 257.346H150.388C154.705 257.346 158.207 260.848 158.207 265.165V277.98V277.988C157.949 277.947 157.69 277.931 157.424 277.931H153.551C150.299 277.931 147.635 280.594 147.635 283.846V287.719C147.635 290.689 149.839 293.15 152.687 293.562L151.84 293.941H141.115V283.733L147.878 276.963C148.354 276.486 148.354 275.72 147.878 275.244C147.41 274.776 146.643 274.776 146.167 275.244L141.116 280.303V274.357C141.116 273.695 140.575 273.146 139.905 273.146C139.235 273.146 138.695 273.695 138.695 274.357V283.233V286.421L133.643 281.369C133.175 280.902 132.409 280.902 131.933 281.369C131.464 281.846 131.464 282.612 131.933 283.088L138.695 289.85V293.941H132.457H131.231H129.423C125.106 293.941 121.604 290.447 121.604 286.122V282.208V266.496V265.165Z" fill="#D2D2D2"/>
<path d="M155.488 293.637H153.552C153.261 293.637 152.971 293.612 152.688 293.564C149.84 293.153 147.637 290.691 147.637 287.722V283.848C147.637 280.597 150.3 277.934 153.552 277.934H157.425C157.692 277.934 157.95 277.95 158.208 277.99C161.105 278.37 163.349 280.863 163.349 283.848V287.722C163.349 290.675 161.162 293.137 158.322 293.556C158.031 293.612 157.733 293.636 157.426 293.636H155.488V293.637Z" fill="#818181"/>
<path d="M132.459 293.941L138.696 301.801V293.941V289.85L131.934 283.088C131.466 282.612 131.466 281.845 131.934 281.37C132.41 280.902 133.177 280.902 133.645 281.37L138.696 286.421V283.233V274.357C138.696 273.695 139.237 273.146 139.907 273.146C140.577 273.146 141.117 273.695 141.117 274.357V280.304L146.169 275.245C146.645 274.777 147.411 274.777 147.879 275.245C148.355 275.72 148.355 276.487 147.879 276.963L141.117 283.733V293.941V298.719L151.841 293.941L152.688 293.563C152.971 293.611 153.261 293.635 153.552 293.635H155.488H157.425C157.732 293.635 158.03 293.611 158.321 293.554C158.337 293.563 158.305 293.595 158.208 293.635L141.117 301.374V316.166H138.696V305.699L129.424 293.941H131.231H132.459Z" fill="#818181"/>
</svg>
