<svg width="21" height="20" viewBox="0 0 21 20" fill="none" xmlns="http://www.w3.org/2000/svg">
<path d="M11.928 0.603824C11.7424 0.412753 11.5203 0.260859 11.275 0.157153C11.0297 0.0534353 10.7663 0 10.4999 0C10.2337 0 9.9702 0.0534353 9.72492 0.157153C9.47965 0.260859 9.25765 0.412753 9.07202 0.603824L0.681527 9.53106C0.560235 9.65992 0.495049 9.83174 0.500294 10.0087C0.50555 10.1856 0.580814 10.3533 0.709529 10.4748C0.838245 10.5962 1.00986 10.6614 1.18665 10.6562C1.36343 10.6509 1.53088 10.5756 1.65217 10.4467L1.8335 10.2545V17.9978C1.83421 18.5286 2.04514 19.0374 2.42005 19.4128C2.79497 19.7881 3.30326 19.9993 3.83347 20H17.1665C17.6967 19.9993 18.2051 19.7881 18.5799 19.4128C18.9548 19.0374 19.1657 18.5286 19.1665 17.9978V10.2545L19.3478 10.4467C19.469 10.5756 19.6366 10.6509 19.8133 10.6562C19.9901 10.6614 20.1618 10.5962 20.2904 10.4748C20.4191 10.3533 20.4945 10.1856 20.4997 10.0087C20.5049 9.83174 20.4398 9.65992 20.3185 9.53106L11.928 0.603824ZM17.8332 17.9978C17.8328 18.1747 17.7625 18.3442 17.6375 18.4693C17.5126 18.5944 17.3432 18.6648 17.1665 18.6652H3.83347C3.65677 18.6648 3.4874 18.5944 3.36245 18.4693C3.23751 18.3442 3.16715 18.1747 3.16681 17.9978V8.83562L10.0427 1.51818C10.1011 1.45519 10.1718 1.40494 10.2505 1.37058C10.3292 1.33621 10.4141 1.31848 10.4999 1.31848C10.5859 1.31848 10.6707 1.33621 10.7495 1.37058C10.8282 1.40494 10.8989 1.45519 10.9574 1.51818L17.8332 8.83562V17.9978Z" fill="#EC7D3F"/>
<path d="M8.81224 12.7123C8.59766 12.7123 8.40784 12.6767 8.24278 12.6055C8.08322 12.5342 7.94567 12.4384 7.83012 12.3178C7.72008 12.1973 7.63755 12.0548 7.58253 11.8904C7.52751 11.726 7.5 11.5479 7.5 11.3562C7.5 10.9616 7.61004 10.6384 7.83012 10.3863C8.05571 10.1288 8.38308 10 8.81224 10C9.2304 10 9.54952 10.1288 9.7696 10.3863C9.99519 10.6384 10.108 10.9616 10.108 11.3562C10.108 11.5479 10.0777 11.726 10.0172 11.8904C9.96217 12.0548 9.87964 12.1973 9.7696 12.3178C9.65956 12.4384 9.52476 12.5342 9.3652 12.6055C9.20564 12.6767 9.02132 12.7123 8.81224 12.7123ZM8.17675 15.9096L11.8411 10.0986H12.782L9.11761 15.9096H8.17675ZM8.81224 10.7151C8.60316 10.7151 8.45736 10.7808 8.37483 10.9123C8.2923 11.0384 8.25103 11.1863 8.25103 11.3562C8.25103 11.5315 8.2923 11.6822 8.37483 11.8082C8.45736 11.9342 8.60316 11.9973 8.81224 11.9973C9.01032 11.9973 9.14787 11.9342 9.2249 11.8082C9.30193 11.6767 9.34044 11.526 9.34044 11.3562C9.34044 11.1863 9.30193 11.0384 9.2249 10.9123C9.14787 10.7808 9.01032 10.7151 8.81224 10.7151ZM12.196 16C11.9814 16 11.7916 15.9644 11.6265 15.8932C11.467 15.8219 11.3294 15.726 11.2139 15.6055C11.1039 15.4849 11.0213 15.3425 10.9663 15.1781C10.9113 15.0137 10.8838 14.8356 10.8838 14.6438C10.8838 14.2493 10.9938 13.926 11.2139 13.674C11.4395 13.4164 11.7668 13.2877 12.196 13.2877C12.6142 13.2877 12.936 13.4164 13.1616 13.674C13.3872 13.926 13.5 14.2493 13.5 14.6438C13.5 14.8356 13.4697 15.0137 13.4092 15.1781C13.3542 15.3425 13.2717 15.4849 13.1616 15.6055C13.0516 15.726 12.914 15.8219 12.749 15.8932C12.5894 15.9644 12.4051 16 12.196 16ZM12.1878 14.0027C11.9897 14.0027 11.8466 14.0658 11.7586 14.1918C11.6761 14.3178 11.6348 14.4685 11.6348 14.6438C11.6348 14.8192 11.6761 14.9699 11.7586 15.0959C11.8466 15.2219 11.9897 15.2849 12.1878 15.2849C12.3913 15.2849 12.5316 15.2219 12.6087 15.0959C12.6857 14.9644 12.7242 14.8137 12.7242 14.6438C12.7242 14.5562 12.716 14.474 12.6995 14.3973C12.6829 14.3205 12.6527 14.2548 12.6087 14.2C12.5702 14.1397 12.5151 14.0932 12.4436 14.0603C12.3776 14.0219 12.2923 14.0027 12.1878 14.0027Z" fill="#EC7D3F"/>
</svg>
