<svg width="16" height="16" viewBox="0 0 16 16" fill="none" xmlns="http://www.w3.org/2000/svg">
<path d="M8 0C3.5888 0 0 3.58885 0 8.00005C0 12.4112 3.5888 16 8 16C12.4112 16 16 12.4112 16 8.00005C16 3.58885 12.4112 0 8 0ZM8 14.5455C4.39079 14.5455 1.45455 11.6092 1.45455 8.00005C1.45455 4.39088 4.39079 1.45455 8 1.45455C11.6092 1.45455 14.5455 4.39088 14.5455 8.00005C14.5455 11.6092 11.6092 14.5455 8 14.5455Z" fill="#EC7D3F"/>
<path d="M7.99978 3.39453C7.46518 3.39453 7.03027 3.82973 7.03027 4.36466C7.03027 4.89911 7.46518 5.33393 7.99978 5.33393C8.53437 5.33393 8.96928 4.89911 8.96928 4.36466C8.96928 3.82973 8.53437 3.39453 7.99978 3.39453ZM7.99987 6.78847C7.59823 6.78847 7.2726 7.1141 7.2726 7.51574V11.8794C7.2726 12.281 7.59823 12.6067 7.99987 12.6067C8.40152 12.6067 8.72715 12.281 8.72715 11.8794V7.51574C8.72715 7.1141 8.40152 6.78847 7.99987 6.78847Z" fill="#EC7D3F"/>
</svg>
