<svg width="24" height="24" viewBox="0 0 24 24" fill="none" xmlns="http://www.w3.org/2000/svg">
<path d="M2.14709 2.26456L1.41165 2.11748L1.11748 3.58835L1.85291 3.73544L2.14709 2.26456ZM4.5 3.5L5.24628 3.42537L5.19108 2.87336L4.64709 2.76456L4.5 3.5ZM6 16.5L5.25534 16.5894L5.33462 17.25H6V16.5ZM19.5 16.5V17.25H20.0856L20.2276 16.6819L19.5 16.5ZM22 6.5L22.7276 6.6819L22.9606 5.75H22V6.5ZM4.8 6.5L4.05372 6.57463L4.05446 6.582L4.05534 6.58936L4.8 6.5ZM13 14.25H13.75V12.75H13V14.25ZM1.85291 3.73544L4.35291 4.23544L4.64709 2.76456L2.14709 2.26456L1.85291 3.73544ZM6 17.25H19.5V15.75H6V17.25ZM20.2276 16.6819L22.7276 6.6819L21.2724 6.3181L18.7724 16.3181L20.2276 16.6819ZM3.75372 3.57463L4.05372 6.57463L5.54628 6.42537L5.24628 3.42537L3.75372 3.57463ZM4.05534 6.58936L5.25534 16.5894L6.74466 16.4106L5.54466 6.41064L4.05534 6.58936ZM22 5.75H4.8V7.25H22V5.75ZM9 14.25H13V12.75H9V14.25ZM9.25 20C9.25 20.4142 8.91421 20.75 8.5 20.75V22.25C9.74264 22.25 10.75 21.2426 10.75 20H9.25ZM8.5 20.75C8.08579 20.75 7.75 20.4142 7.75 20H6.25C6.25 21.2426 7.25736 22.25 8.5 22.25V20.75ZM7.75 20C7.75 19.5858 8.08579 19.25 8.5 19.25V17.75C7.25736 17.75 6.25 18.7574 6.25 20H7.75ZM8.5 19.25C8.91421 19.25 9.25 19.5858 9.25 20H10.75C10.75 18.7574 9.74264 17.75 8.5 17.75V19.25ZM18.25 20C18.25 20.4142 17.9142 20.75 17.5 20.75V22.25C18.7426 22.25 19.75 21.2426 19.75 20H18.25ZM17.5 20.75C17.0858 20.75 16.75 20.4142 16.75 20H15.25C15.25 21.2426 16.2574 22.25 17.5 22.25V20.75ZM16.75 20C16.75 19.5858 17.0858 19.25 17.5 19.25V17.75C16.2574 17.75 15.25 18.7574 15.25 20H16.75ZM17.5 19.25C17.9142 19.25 18.25 19.5858 18.25 20H19.75C19.75 18.7574 18.7426 17.75 17.5 17.75V19.25Z" fill="#181817"/>
</svg>
