<svg width="42" height="42" viewBox="0 0 42 42" fill="none" xmlns="http://www.w3.org/2000/svg">
<g clip-path="url(#clip0_3018_24186)">
<path d="M40.3594 29.2949C41.2655 29.2949 42 28.5604 42 27.6543V16.0879C42 12.7407 39.2769 10.0176 35.9297 10.0176C32.5825 10.0176 29.8594 12.7407 29.8594 16.0879V35.9294C29.8594 39.2766 32.5825 41.9998 35.9297 41.9998C39.2769 41.9998 42 39.2766 42 35.9294C42 35.0233 41.2655 34.2888 40.3594 34.2888C39.4533 34.2888 38.7188 35.0233 38.7188 35.9294C38.7188 37.4674 37.4676 38.7185 35.9297 38.7185C34.3918 38.7185 33.1406 37.4674 33.1406 35.9294V16.0879C33.1406 14.55 34.3918 13.2988 35.9297 13.2988C37.4676 13.2988 38.7188 14.55 38.7188 16.0879V27.6543C38.7188 28.5604 39.4533 29.2949 40.3594 29.2949Z" fill="#EC7D3F"/>
<path d="M6.07031 15.0215C2.72311 15.0215 0 17.7446 0 21.0918V35.9294C0 39.2766 2.72311 41.9998 6.07031 41.9998C9.41752 41.9998 12.1406 39.2766 12.1406 35.9294V21.0918C12.1406 17.7446 9.41752 15.0215 6.07031 15.0215ZM8.85938 35.9294C8.85938 37.4674 7.60823 38.7185 6.07031 38.7185C4.53239 38.7185 3.28125 37.4674 3.28125 35.9294V21.0918C3.28125 19.5539 4.53239 18.3027 6.07031 18.3027C7.60823 18.3027 8.85938 19.5539 8.85938 21.0918V35.9294Z" fill="#EC7D3F"/>
<path d="M21 0C17.6528 0 14.9297 2.72311 14.9297 6.07031V35.9297C14.9297 39.2769 17.6528 42 21 42C24.3472 42 27.0703 39.2769 27.0703 35.9297V6.07031C27.0703 2.72311 24.3472 0 21 0ZM23.7891 35.9297C23.7891 37.4676 22.5379 38.7188 21 38.7188C19.4621 38.7188 18.2109 37.4676 18.2109 35.9297V6.07031C18.2109 4.53239 19.4621 3.28125 21 3.28125C22.5379 3.28125 23.7891 4.53239 23.7891 6.07031V35.9297Z" fill="#EC7D3F"/>
</g>
<defs>
<clipPath id="clip0_3018_24186">
<rect width="42" height="42" fill="white"/>
</clipPath>
</defs>
</svg>
