<svg width="62" height="62" viewBox="0 0 62 62" fill="none" xmlns="http://www.w3.org/2000/svg">
<g clip-path="url(#clip0_3451_25864)">
<path d="M22.5334 41.8886C23.1531 41.8886 23.773 41.6522 24.246 41.1793L41.1795 24.2458C42.1254 23.3 42.1254 21.7664 41.1795 20.8207C40.2336 19.8749 38.7001 19.8748 37.7544 20.8207L20.8207 37.7541C19.8749 38.6999 19.8749 40.2335 20.8207 41.1792C21.2937 41.6522 21.9136 41.8886 22.5334 41.8886Z" fill="#EC7D3F"/>
<path d="M20.7667 29.621C21.745 29.5284 22.5859 28.8187 22.8558 27.877C23.1418 26.8792 22.7388 25.7718 21.8722 25.1987C21.0153 24.632 19.8725 24.6667 19.0542 25.2903C18.2549 25.8996 17.9166 26.9813 18.2188 27.9385C18.5582 29.0135 19.6399 29.7393 20.7667 29.621Z" fill="#EC7D3F"/>
<path d="M39.0955 35.2604C39.2933 36.2268 40.0654 36.9885 41.0357 37.1692C42.0132 37.3514 43.0398 36.8866 43.5473 36.0315C44.0723 35.1471 43.979 34.0079 43.3171 33.221C42.6678 32.449 41.5591 32.1641 40.6172 32.5224C39.5261 32.9373 38.8618 34.1093 39.0955 35.2604Z" fill="#EC7D3F"/>
<path d="M52.9204 9.07961C47.0651 3.22461 39.2804 0 31 0C22.7196 0 14.9349 3.22461 9.07961 9.07961C3.22461 14.9347 0 22.7196 0 31C0 39.2804 3.22461 47.0651 9.07961 52.9204C14.9349 58.7754 22.7196 62 31 62C36.9777 62 42.7811 60.2945 47.7831 57.068C48.907 56.343 49.2304 54.844 48.5054 53.7201C47.7803 52.596 46.2815 52.2725 45.1574 52.9976C40.9399 55.7183 36.0443 57.1562 31 57.1562C16.5774 57.1562 4.84375 45.4226 4.84375 31C4.84375 16.5774 16.5774 4.84375 31 4.84375C45.4226 4.84375 57.1562 16.5774 57.1562 31C57.1562 36.0443 55.7183 40.9399 52.9976 45.1573C52.2727 46.2813 52.5961 47.7803 53.7201 48.5053C54.8438 49.2303 56.3429 48.907 57.068 47.783C60.2945 42.7811 62 36.9777 62 31C62 22.7196 58.7754 14.9347 52.9204 9.07961Z" fill="#EC7D3F"/>
</g>
<defs>
<clipPath id="clip0_3451_25864">
<rect width="62" height="62" fill="white"/>
</clipPath>
</defs>
</svg>
