<svg width="60" height="60" viewBox="0 0 60 60" fill="none" xmlns="http://www.w3.org/2000/svg">
<g clip-path="url(#clip0_3393_27381)">
<path d="M24.1743 45.088C25.2351 45.088 26.0942 44.228 26.0942 43.1681V39.3731H36.6201C37.6798 39.3731 38.54 38.514 38.54 37.4532C38.54 36.3925 37.6809 35.5323 36.6201 35.5323H26.0942V32.8855H32.4039C35.6114 32.8855 38.3164 31.9839 40.2278 30.2782C42.0093 28.689 42.9901 26.5082 42.9901 24.138C42.9901 19.6661 39.2783 14.9121 32.4028 14.9121H24.1742C23.1134 14.9121 22.2543 15.7712 22.2543 16.832V29.0459H19.8457C18.7849 29.0459 17.9258 29.905 17.9258 30.9657C17.9258 32.0265 18.7849 32.8856 19.8457 32.8856H22.2543V35.5324H19.8457C18.7849 35.5324 17.9258 36.3925 17.9258 37.4534C17.9258 38.5141 18.7849 39.3732 19.8457 39.3732H22.2543V43.1682C22.2545 44.229 23.1136 45.088 24.1743 45.088ZM26.0942 18.752H32.4029C36.8313 18.752 39.1494 21.4612 39.1494 24.1382C39.1494 25.3986 38.6241 26.5624 37.6694 27.4141C36.4734 28.4822 34.6523 29.0459 32.4028 29.0459H26.0941V18.752H26.0942Z" fill="#EC7D3F"/>
<path d="M58.0801 31.9199C59.1409 31.9199 60 31.0608 60 30C60 13.4577 46.5434 0 30 0C13.4566 0 0 13.4577 0 30C0 46.5423 13.4566 60 30 60C44.1908 60 56.5513 49.9264 59.3905 36.0445C59.6037 35.0066 58.9339 33.9905 57.895 33.7794C56.8581 33.5673 55.8409 34.236 55.6288 35.275C53.1537 47.3775 42.375 56.1604 30 56.1604C15.5752 56.1604 3.83871 44.4259 3.83871 30C3.83871 15.5752 15.5752 3.83965 30 3.83965C44.4248 3.83965 56.1604 15.5752 56.1604 30C56.1604 31.0608 57.0193 31.9199 58.0801 31.9199Z" fill="#EC7D3F"/>
<path d="M31.9196 8.16598C31.9196 7.10625 31.0605 6.24609 29.9998 6.24609C16.902 6.24609 6.24609 16.902 6.24609 29.9998C6.24609 31.0595 7.1052 31.9196 8.16598 31.9196C9.2257 31.9196 10.0848 31.0605 10.0859 29.9998C10.0859 19.0194 19.0185 10.0857 29.9999 10.0857C31.0605 10.0859 31.9196 9.22582 31.9196 8.16598ZM29.9998 53.7546C43.0965 53.7546 53.7534 43.0977 53.7534 29.9999C53.7534 28.9402 52.8943 28.08 51.8336 28.08C50.7728 28.08 49.9137 28.9391 49.9137 29.9999C49.9137 40.9802 40.9811 49.9139 29.9996 49.9139C28.9389 49.9139 28.0798 50.773 28.0798 51.8338C28.0799 52.8946 28.939 53.7546 29.9998 53.7546Z" fill="#EC7D3F"/>
</g>
<defs>
<clipPath id="clip0_3393_27381">
<rect width="60" height="60" fill="white"/>
</clipPath>
</defs>
</svg>
