<svg width="60" height="60" viewBox="0 0 60 60" fill="none" xmlns="http://www.w3.org/2000/svg">
<path d="M28.0156 27.9938H32.0094C34.6584 27.9888 37.1974 26.9343 39.0706 25.0612C40.9437 23.1881 41.9982 20.649 42.0031 18V6C42.0031 4.4087 41.371 2.88258 40.2458 1.75736C39.1205 0.632141 37.5944 0 36.0031 0L20.0094 0C19.4773 0 18.967 0.211372 18.5907 0.587617C18.2145 0.963862 18.0031 1.47416 18.0031 2.00625V6C18.0031 7.5913 18.6353 9.11742 19.7605 10.2426C20.8857 11.3679 22.4118 12 24.0031 12H38.0094V18C38.0094 19.5913 37.3772 21.1174 36.252 22.2426C35.1268 23.3679 33.6007 24 32.0094 24H28.0156C26.4243 24 24.8982 23.3679 23.773 22.2426C22.6478 21.1174 22.0156 19.5913 22.0156 18V15.9937C22.0426 15.7153 22.0111 15.4342 21.923 15.1686C21.835 14.903 21.6924 14.6588 21.5043 14.4516C21.3162 14.2444 21.0869 14.0789 20.8311 13.9656C20.5753 13.8523 20.2986 13.7938 20.0188 13.7938C19.7389 13.7938 19.4622 13.8523 19.2064 13.9656C18.9506 14.0789 18.7213 14.2444 18.5332 14.4516C18.3451 14.6588 18.2025 14.903 18.1145 15.1686C18.0264 15.4342 17.9949 15.7153 18.0219 15.9937V18C18.0268 20.649 19.0813 23.1881 20.9545 25.0612C22.8276 26.9343 25.3666 27.9888 28.0156 27.9938ZM22.0156 6V3.99375H36.0031C36.5352 3.99375 37.0455 4.20512 37.4218 4.58137C37.798 4.95761 38.0094 5.46791 38.0094 6V8.00625H24.0031C23.4743 8.00131 22.9688 7.78776 22.5966 7.41205C22.2244 7.03633 22.0156 6.52886 22.0156 6ZM45.7156 31.875C45.5025 31.6908 45.253 31.5536 44.9834 31.4722C44.7137 31.3908 44.4299 31.3671 44.1505 31.4027C43.8711 31.4382 43.6023 31.5322 43.3616 31.6785C43.1209 31.8248 42.9137 32.0202 42.7535 32.2519C42.5933 32.4836 42.4837 32.7464 42.4318 33.0232C42.3799 33.3001 42.3869 33.5848 42.4523 33.8587C42.5177 34.1327 42.6401 34.3898 42.8114 34.6134C42.9828 34.8369 43.1993 35.0219 43.4469 35.1562C44.2432 35.7049 44.8945 36.4385 45.3452 37.2941C45.7958 38.1497 46.0323 39.1017 46.0344 40.0688V54C46.0344 54.5321 45.823 55.0424 45.4468 55.4186C45.0705 55.7949 44.5602 56.0063 44.0281 56.0063H42.0031V42C42.0301 41.7215 41.9986 41.4404 41.9105 41.1749C41.8225 40.9093 41.6799 40.6651 41.4918 40.4579C41.3037 40.2507 41.0744 40.0851 40.8186 39.9718C40.5628 39.8586 40.286 39.8 40.0062 39.8C39.7264 39.8 39.4497 39.8586 39.1939 39.9718C38.9381 40.0851 38.7088 40.2507 38.5207 40.4579C38.3326 40.6651 38.19 40.9093 38.102 41.1749C38.0139 41.4404 37.9824 41.7215 38.0094 42V56.0063H27.9969C27.5007 56.0544 27.0401 56.2856 26.7051 56.6547C26.37 57.0239 26.1843 57.5046 26.1843 58.0031C26.1843 58.5017 26.37 58.9824 26.7051 59.3515C27.0401 59.7207 27.5007 59.9519 27.9969 60H43.9906C45.5819 60 47.108 59.3679 48.2333 58.2426C49.3585 57.1174 49.9906 55.5913 49.9906 54V39.9938C49.9783 38.3974 49.5837 36.8273 48.8399 35.4148C48.0962 34.0022 47.0248 32.7884 45.7156 31.875ZM20.0094 33.9937H21.1906L25.7844 38.5875C26.9116 39.705 28.4346 40.332 30.0219 40.332C31.6092 40.332 33.1322 39.705 34.2594 38.5875L39.3781 33.4125C39.6518 33.1344 39.8385 32.7825 39.9152 32.3999C39.9919 32.0173 39.9555 31.6206 39.8102 31.2584C39.6649 30.8963 39.4172 30.5843 39.0973 30.3608C38.7775 30.1373 38.3994 30.0119 38.0094 30H20.0094C17.3604 30.005 14.8213 31.0595 12.9482 32.9326C11.0751 34.8057 10.0206 37.3448 10.0156 39.9938V54C10.0156 55.5881 10.6452 57.1113 11.7663 58.236C12.8875 59.3607 14.4088 59.995 15.9969 60H19.9906C20.5227 60 21.033 59.7886 21.4093 59.4124C21.7855 59.0361 21.9969 58.5258 21.9969 57.9938V42C22.0239 41.7215 21.9924 41.4404 21.9043 41.1749C21.8162 40.9093 21.6736 40.6651 21.4855 40.4579C21.2975 40.2507 21.0682 40.0851 20.8123 39.9718C20.5565 39.8586 20.2798 39.8 20 39.8C19.7202 39.8 19.4435 39.8586 19.1877 39.9718C18.9318 40.0851 18.7025 40.2507 18.5145 40.4579C18.3264 40.6651 18.1838 40.9093 18.0957 41.1749C18.0076 41.4404 17.9761 41.7215 18.0031 42V56.0063H15.9969C15.468 56.0013 14.9625 55.7878 14.5903 55.412C14.2181 55.0363 14.0094 54.5289 14.0094 54V39.9938C14.0094 38.4025 14.6415 36.8763 15.7667 35.7511C16.892 34.6259 18.4181 33.9937 20.0094 33.9937ZM28.0344 33.9937H33.1906L31.4281 35.7562C31.0521 36.1307 30.5431 36.3409 30.0125 36.3409C29.4819 36.3409 28.9729 36.1307 28.5969 35.7562L26.8344 33.9937H28.0344Z" fill="#EC7D3F"/>
</svg>
