<svg width="42" height="42" viewBox="0 0 42 42" fill="none" xmlns="http://www.w3.org/2000/svg">
<path d="M38.6917 6.49626C36.6282 4.40668 33.7828 3.25586 30.6797 3.25586C25.2545 3.25586 22.4494 6.04738 21.0516 8.38913C21.0342 8.41817 21.017 8.44729 21 8.47633C20.983 8.44729 20.9658 8.41817 20.9484 8.38913C19.5506 6.04738 16.7455 3.25586 11.3203 3.25586C8.21715 3.25586 5.37182 4.40668 3.30832 6.49634C1.14401 8.68813 0 11.6884 0 15.1729C0 22.5719 6.57735 27.4776 12.3803 31.8058C15.2718 33.9625 18.003 35.9995 19.722 38.1352C20.0333 38.5222 20.5033 38.7472 21 38.7472C21.4967 38.7472 21.9667 38.5222 22.2781 38.1354C23.1623 37.0368 24.3913 35.8688 26.1461 34.4594C26.8524 33.892 26.9651 32.8593 26.3977 32.1528C25.8304 31.4466 24.7977 31.3337 24.0913 31.9011C22.8532 32.8955 21.8407 33.7948 21.0007 34.6494C19.1462 32.7588 16.7989 31.008 14.3421 29.1757C8.90425 25.1198 3.28125 20.9258 3.28125 15.1729C3.28125 10.0882 6.58703 6.53711 11.3203 6.53711C14.398 6.53711 16.6706 7.69498 18.0748 9.97848C19.1896 11.7911 19.363 13.6779 19.3641 13.6896C19.4299 14.5443 20.1424 15.2078 20.9996 15.2078C21.8569 15.2078 22.5693 14.5515 22.6351 13.6968C22.6369 13.6779 22.8103 11.7911 23.9251 9.97848C25.3294 7.69498 27.602 6.53711 30.6797 6.53711C35.413 6.53711 38.7188 10.0882 38.7188 15.1729C38.7188 19.9338 34.8426 23.625 30.6538 26.9047C29.9405 27.4633 29.8149 28.4945 30.3735 29.2079C30.9319 29.9213 31.9632 30.0469 32.6767 29.4882C34.6693 27.9281 37.1948 25.8198 39.0525 23.344C41.0358 20.7007 42 18.0279 42 15.1729C42 11.6884 40.856 8.68813 38.6917 6.49626Z" fill="#EC7D3F"/>
</svg>
