<svg width="20" height="20" viewBox="0 0 20 20" fill="none" xmlns="http://www.w3.org/2000/svg">
<path d="M10 2C8.41775 2 6.87103 2.46919 5.55544 3.34824C4.23985 4.22729 3.21447 5.47672 2.60897 6.93853C2.00347 8.40034 1.84504 10.0089 2.15372 11.5607C2.4624 13.1126 3.22433 14.538 4.34315 15.6569C5.46197 16.7757 6.88743 17.5376 8.43928 17.8463C9.99113 18.155 11.5997 17.9965 13.0615 17.391C14.5233 16.7855 15.7727 15.7602 16.6518 14.4446C17.5308 13.129 18 11.5822 18 10C17.9977 7.87898 17.1541 5.84549 15.6543 4.3457C14.1545 2.84591 12.121 2.00231 10 2ZM10 16.5455C8.70543 16.5455 7.43994 16.1616 6.36354 15.4423C5.28715 14.7231 4.4482 13.7009 3.95279 12.5048C3.45738 11.3088 3.32776 9.99274 3.58032 8.72304C3.83288 7.45335 4.45627 6.28706 5.37167 5.37166C6.28707 4.45627 7.45335 3.83287 8.72305 3.58031C9.99274 3.32776 11.3088 3.45738 12.5048 3.95279C13.7009 4.4482 14.7231 5.28715 15.4423 6.36354C16.1616 7.43993 16.5455 8.70543 16.5455 10C16.5435 11.7354 15.8533 13.3991 14.6262 14.6262C13.3991 15.8533 11.7354 16.5435 10 16.5455Z" fill="#EC7D3F"/>
<path d="M11.2396 10.1122V7.67863C11.2396 7.49865 11.1743 7.32604 11.0581 7.19877C10.9418 7.0715 10.7842 7 10.6198 7C10.4554 7 10.2978 7.0715 10.1815 7.19877C10.0653 7.32604 10 7.49865 10 7.67863V10.3932L10.0006 10.3966C10.0017 10.5752 10.0667 10.7462 10.1816 10.873L11.9344 12.7928C11.9916 12.8576 12.06 12.9093 12.1356 12.9449C12.2112 12.9805 12.2925 12.9992 12.3748 13C12.4571 13.0008 12.5387 12.9836 12.6149 12.9495C12.6911 12.9153 12.7603 12.865 12.8185 12.8012C12.8767 12.7375 12.9227 12.6617 12.9538 12.5783C12.985 12.4949 13.0007 12.4056 13 12.3155C12.9993 12.2254 12.9822 12.1363 12.9497 12.0535C12.9172 11.9707 12.87 11.8958 12.8108 11.8332L11.2396 10.1122Z" fill="#EC7D3F"/>
</svg>
