<svg width="20" height="20" viewBox="0 0 20 20" fill="none" xmlns="http://www.w3.org/2000/svg">
<path d="M9.5 2C7.94167 2 6.66667 3.275 6.66667 4.83333C6.66667 5.62171 7.00454 6.33287 7.53012 6.84783C7.04798 7.17319 6.65271 7.61151 6.37875 8.12461C6.1048 8.63771 5.96046 9.21002 5.95833 9.79167V13.0677L7.375 13.776V16.875H11.625V13.776L13.0417 13.0677V9.79167C13.0395 9.21002 12.8952 8.63771 12.6212 8.12461C12.3473 7.61151 11.952 7.17319 11.4699 6.84783C11.9955 6.33287 12.3333 5.62242 12.3333 4.83333C12.3333 3.275 11.0583 2 9.5 2ZM9.5 3.41667C10.2912 3.41667 10.9167 4.04212 10.9167 4.83333C10.9167 5.62454 10.2912 6.25 9.5 6.25C8.70879 6.25 8.08333 5.62454 8.08333 4.83333C8.08333 4.04212 8.70879 3.41667 9.5 3.41667ZM9.5 7.66667C10.6815 7.66667 11.625 8.61017 11.625 9.79167V12.1823L10.2083 12.8906V15.4583H8.79167V12.8906L7.375 12.1823V9.79167C7.375 8.61017 8.3185 7.66667 9.5 7.66667ZM4.54167 12.5365C2.47475 13.1145 1 14.0948 1 15.4583C1 17.7824 5.27479 19 9.5 19C13.7252 19 18 17.7824 18 15.4583C18 14.0941 16.5252 13.1145 14.4583 12.5365V14.0197C15.8056 14.4539 16.5833 15.0156 16.5833 15.4583C16.5833 16.3048 13.7585 17.5833 9.5 17.5833C5.2415 17.5833 2.41667 16.3048 2.41667 15.4583C2.41667 15.0156 3.19442 14.4539 4.54167 14.0197V12.5365Z" fill="#EC7D3F"/>
</svg>
