<svg width="24" height="24" viewBox="0 0 24 24" fill="none" xmlns="http://www.w3.org/2000/svg">
<path fill-rule="evenodd" clip-rule="evenodd" d="M3.72 16.8403L2 22L7.6 20.5266C8.96586 21.2459 10.521 21.6552 12.1724 21.6552C17.6 21.6552 22 17.2552 22 11.8276C22 6.4 17.6 2 12.1724 2C6.74483 2 2.34483 6.4 2.34483 11.8276C2.34483 13.6593 2.84724 15.3724 3.72 16.8403ZM16.3154 13.26C16.3154 13.26 17.9888 14.2407 18.4426 15.0983C18.6357 15.4628 18.5685 15.9107 18.2768 16.2031L17.6705 16.8093C15.7474 18.7324 13.5764 17.7855 11.6533 15.8624L8.13813 12.3473C6.21503 10.4241 5.26813 8.25311 7.19124 6.33001L7.79744 5.7238C8.08917 5.43208 8.5371 5.36449 8.90193 5.5576C9.75951 6.01139 10.7402 7.68484 10.7402 7.68484C10.9561 8.06346 10.9802 8.52001 10.5954 8.73622C10.5954 8.73622 9.94331 9.28001 9.84951 9.41829C9.42158 10.05 9.43813 10.6352 10.0288 11.2259L12.7743 13.9714C13.365 14.5621 13.9502 14.5786 14.5819 14.1507C14.7202 14.0569 15.264 13.4048 15.264 13.4048C15.4799 13.02 15.9368 13.0441 16.3154 13.26Z" fill="#181817"/>
</svg>
