<svg width="86" height="86" viewBox="0 0 86 86" fill="none" xmlns="http://www.w3.org/2000/svg">
<path d="M85.9997 50.5435H0V55.5791H85.9997V50.5435Z" fill="#344650"/>
<path d="M0 86H5.26297V80.2965H35.3896V60.6147H0V86ZM5.26297 65.6504H30.12V75.2675H5.26297V65.6504Z" fill="#344650"/>
<path d="M40.5322 80.2898H60.4673V85.9933H65.9576V80.2898H85.9997V60.608H40.5322V80.2898ZM65.9576 65.6437H80.7368V75.2608H65.9576V65.6437ZM45.8019 65.6437H60.4673V75.2608H45.8019V65.6437Z" fill="#344650"/>
<path d="M45.6414 0H25.4121V45.5813H45.6414V0ZM40.3584 40.5256H30.6885V5.049H40.3584V40.5256Z" fill="#344650"/>
<path d="M56.1003 15.1604L65.7702 5.049V45.5813H71.0466V15.1604L80.7165 5.05568V45.5813H85.9995V0H78.5765L71.0466 7.84732V0H63.6302L50.8105 13.2503V45.5813H56.1003V15.1604Z" fill="#344650"/>
<path d="M14.953 45.5813H20.236V0H12.8197L0 13.2503V45.5813H14.953ZM5.28303 15.1604L14.9463 5.049V40.5189H5.28303V15.1604Z" fill="#344650"/>
</svg>
