<svg width="134" height="42" viewBox="0 0 134 42" fill="none" xmlns="http://www.w3.org/2000/svg">
<path d="M27.2804 0.751587L13.6348 14.2469H27.2804V41.2484L40.9149 27.7863V0.751587H27.2804Z" fill="#D2D2D2"/>
<path d="M13.6345 41.2484L27.2802 27.7532H13.6345V0.751587L0 14.2137V41.2484H13.6345ZM54.5603 34.4953H61.7182V13.5727H72.5833V34.4953H79.7412V7.50476H54.5603V34.4953ZM124.117 17.6069H117.998V13.5727H131.621V7.4937H110.829V34.4953H124.452C129.913 34.4953 134 31.7874 134 26.0511C134 20.3148 129.913 17.6069 124.106 17.6069H124.117ZM123.425 28.7369H117.987V23.3653H123.425C125.111 23.3653 126.775 24.0284 126.775 26.0511C126.775 28.0737 125.067 28.7369 123.425 28.7369ZM97.3063 28.7369C92.527 28.7369 89.8358 25.2663 89.8358 21C89.8358 17.5627 91.79 13.2632 97.1612 13.2632C98.3649 13.2735 99.5519 13.545 100.638 14.0587C101.724 14.5725 102.683 15.3158 103.448 16.2363L107.803 11.9258C106.461 10.3362 104.781 9.05787 102.884 8.18129C100.988 7.30459 98.9199 6.8511 96.8262 6.85265C94.9401 6.80336 93.0641 7.13637 91.3132 7.83125C89.5623 8.52602 87.9732 9.56795 86.6433 10.8931C85.3145 12.218 84.2726 13.7982 83.5836 15.5363C82.8935 17.2744 82.5708 19.1338 82.6333 21C82.6099 23.9766 83.5412 26.8838 85.2944 29.3026C87.0464 31.7216 89.5299 33.5276 92.3852 34.4605C95.2416 35.3933 98.3225 35.4048 101.186 34.4934C104.049 33.582 106.546 31.7947 108.317 29.389L103.939 25.0563C103.245 26.1969 102.261 27.1382 101.085 27.7875C99.9104 28.4369 98.5849 28.7717 97.2393 28.759" fill="#818181"/>
</svg>
