<svg width="208" height="58" viewBox="0 0 208 58" fill="none" xmlns="http://www.w3.org/2000/svg">
<path d="M57.7778 47.038C57.7778 54.085 53.8778 58 46.8578 58H10.92C3.9 58 0 54.085 0 47.038V10.962C0 3.915 3.9 0 10.92 0H46.8722C53.8778 0 57.7778 3.915 57.7778 10.962V47.038Z" fill="#FFE600"/>
<path fill-rule="evenodd" clip-rule="evenodd" d="M37.1509 26.1723V20.6334L39.1435 18.6316V23.4312L40.8778 25.1707L47.8536 18.1681L49.573 19.8926C49.5582 18.5884 49.2983 14.8039 46.1059 11.6574C42.6685 8.32305 38.9416 9.82999 37.6706 11.1059L30.7082 18.095L32.4856 19.8792L28.8893 23.5176L25.2915 19.9075L27.0689 18.1249L20.1065 11.1357C18.8355 9.8598 15.1086 8.35137 11.6712 11.6857C8.4788 14.8322 8.21895 18.6167 8.2041 19.9225L9.92354 18.1964L16.8993 25.2005L18.6336 23.461V18.6615L20.6262 20.6618V26.2006L23.4281 28.9999L9.61915 42.8619L15.0804 48.3277L28.8893 34.4806L42.6967 48.3426L48.158 42.8753L34.349 28.9999L37.1509 26.1723ZM67.4133 31.422H77.8279V34.7131H71.3139V38.0922H73.4803C74.9384 38.0922 76.8167 38.2666 78.2317 39.6587C78.839 40.2669 79.5904 41.3833 79.5904 43.1809C79.5904 43.7234 79.5235 44.2436 79.3944 44.7296C79.1776 45.5404 78.7841 46.2529 78.2317 46.8059C77.8561 47.183 77.4299 47.4722 76.9622 47.6913C76.7499 47.7896 76.5286 47.8746 76.2985 47.9476C76.1856 47.9834 76.0713 48.0162 75.954 48.046C75.1047 48.2621 74.1574 48.3292 73.1477 48.3292H67.4133V31.422ZM72.8448 45.1827C73.3793 45.1827 74.3326 45.1395 74.9384 44.6461C75.0557 44.5447 75.2561 44.345 75.4031 44.0275C75.51 43.7995 75.5887 43.5103 75.5887 43.1526C75.5887 43.0244 75.5783 42.9036 75.5605 42.7904C75.5412 42.6696 75.5115 42.5578 75.4759 42.4535C75.4195 42.2895 75.3452 42.1464 75.2621 42.0227C75.1834 41.9065 75.0958 41.8081 75.0082 41.7261C74.9696 41.6903 74.931 41.6575 74.8923 41.6277L74.8374 41.586C74.2316 41.1508 73.2486 41.1374 72.8448 41.1374H71.2991V45.1976H72.8448V45.1827ZM93.7156 37.019H90.0762V38.2949C89.3739 37.3365 88.44 36.9191 87.6144 36.7492C87.2179 36.6672 86.8467 36.6419 86.5364 36.6419C84.9773 36.6419 83.6053 37.2068 82.6224 38.1935C81.583 39.2369 80.8747 40.8616 80.8747 42.7606C80.8747 44.2541 81.3365 45.7327 82.5214 46.9952C83.7642 48.3143 85.1214 48.7197 86.7398 48.7197C87.2165 48.7197 87.8178 48.6601 88.4221 48.4008C89.0057 48.1504 89.5937 47.7136 90.0762 46.9654V48.3292H93.7156V37.019ZM84.6165 42.6592C84.6165 42.1002 84.7561 41.6471 84.9447 41.2894C85.0991 40.9987 85.2847 40.7707 85.454 40.6008C85.9306 40.1223 86.6522 39.7884 87.4332 39.8033C88.097 39.8033 88.9062 40.0493 89.4541 40.5858C89.5551 40.6812 89.6486 40.7856 89.7332 40.8974C89.8298 41.0271 89.9144 41.1672 89.9872 41.3147C90.1861 41.7157 90.293 42.1777 90.293 42.6592C90.293 43.631 89.8877 44.342 89.411 44.7907C89.1735 45.0292 88.8854 45.2244 88.5647 45.3601C88.2425 45.4972 87.8876 45.5732 87.5194 45.5732C86.6522 45.5732 85.8727 45.2259 85.3664 44.6893C85.0486 44.3271 84.6165 43.6743 84.6165 42.6592ZM95.9116 37.019H99.551V40.948H103.625V37.019H107.265V48.3292H103.625V43.8919H99.551V48.3292H95.9116V37.019ZM113.085 37.019H109.446V48.3292H113.085V43.312L116.928 48.3292H121.623L116.466 42.2687L121.29 37.019H116.769L113.085 41.5145V37.019ZM73.3481 9.67199C74.8077 9.67199 76.4262 9.8747 77.7685 11.0642C79.2132 12.3252 79.4151 14.008 79.4151 15.1676C79.4151 17.2991 78.6059 18.4886 77.9704 19.1548C76.6281 20.5187 74.8656 20.6483 73.6807 20.6483H71.3124V26.5792H67.4266V9.67199H73.3481ZM71.2976 17.4586H72.6844C72.8908 17.4586 73.1536 17.4541 73.4357 17.4139C73.8886 17.3498 74.389 17.1948 74.7795 16.8206C75.1255 16.4718 75.415 15.8786 75.415 15.1527C75.415 14.8278 75.363 14.5282 75.2695 14.2658C75.1596 13.9558 74.9903 13.695 74.7795 13.4997C74.2004 12.9497 73.363 12.8618 72.6116 12.8618H71.2976V17.4586ZM92.5455 15.269H88.9062V16.5449C88.4073 15.8637 87.7911 15.4553 87.1808 15.2153C86.5186 14.9545 85.8623 14.8919 85.3664 14.8919C83.8073 14.8919 82.4353 15.4568 81.4523 16.4435C80.413 17.4869 79.7047 19.1116 79.7047 21.0105C79.7047 21.9764 79.8977 22.9363 80.355 23.8351C80.6045 24.327 80.9326 24.7995 81.3514 25.2452C82.5942 26.5643 83.9513 26.9697 85.5698 26.9697C86.0449 26.9697 86.6418 26.9116 87.2432 26.6552C87.8297 26.4048 88.4207 25.9681 88.9062 25.2154V26.5792H92.5455V15.269ZM83.4465 20.9092C83.4465 19.8941 83.9082 19.2279 84.2839 18.8508C84.7605 18.3723 85.497 18.0384 86.2632 18.0533C86.4592 18.0533 86.6671 18.0757 86.8779 18.1189C87.0012 18.1442 87.1244 18.177 87.2476 18.2188C87.6263 18.3469 87.9915 18.5497 88.284 18.8358C88.5632 19.1012 88.78 19.4336 88.9225 19.8077C88.9834 19.9672 89.0309 20.1341 89.0651 20.3055C89.0799 20.38 89.0918 20.4561 89.1007 20.5336C89.1081 20.5947 89.1126 20.6573 89.1156 20.7199C89.12 20.7825 89.123 20.8451 89.123 20.9092C89.123 21.881 88.7176 22.592 88.241 23.0407C87.9915 23.2911 87.6871 23.4938 87.3471 23.6309C87.215 23.6846 87.0769 23.7278 86.9343 23.7591L86.7769 23.7904L86.6299 23.8083C86.5379 23.8187 86.4443 23.8232 86.3493 23.8232C85.9707 23.8232 85.6084 23.7561 85.2773 23.6369C84.8526 23.4834 84.4814 23.2419 84.1963 22.9393C83.8786 22.5771 83.4465 21.9243 83.4465 20.9092ZM98.3809 15.269V21.7364L103.177 15.269H106.558V26.5792H102.917V20.0104L98.1211 26.5792H94.7416V15.269H98.3809ZM105.229 10.702C104.925 11.6142 104.319 12.3982 103.61 12.8618C102.657 13.4997 101.487 13.5727 100.65 13.5727C99.8123 13.5727 98.6556 13.4997 97.689 12.8618C97.6058 12.8081 97.5242 12.7515 97.444 12.6888C97.3534 12.6188 97.2643 12.5428 97.1782 12.4608C97.0861 12.3729 96.997 12.2804 96.9109 12.1821C96.5501 11.7647 96.2546 11.2549 96.0705 10.702L98.5977 9.71522C98.6987 10.222 98.9451 10.6289 99.248 10.8749C99.5807 11.1506 99.9994 11.325 100.635 11.325C100.791 11.325 100.933 11.3146 101.065 11.2952L101.141 11.2833L101.215 11.2684L101.315 11.243L101.414 11.2132C101.652 11.1342 101.848 11.018 102.022 10.8749C102.325 10.6289 102.571 10.222 102.672 9.71522L105.229 10.702ZM114.603 26.7536V32.2194H118.272V26.7536H118.416C120.973 26.7536 122.388 25.6938 123.038 25.0559C123.372 24.7265 123.705 24.3061 123.981 23.783C124.028 23.6935 124.074 23.6011 124.117 23.5057L124.195 23.3298C124.291 23.0958 124.376 22.8454 124.446 22.5756C124.532 22.2462 124.594 21.89 124.628 21.5039C124.637 21.3951 124.645 21.2848 124.649 21.1715C124.654 21.0702 124.655 20.9688 124.655 20.866C124.655 20.1326 124.545 19.4872 124.365 18.9238C124.207 18.423 123.991 17.9877 123.746 17.6136C123.688 17.5242 123.628 17.4377 123.565 17.3542L123.512 17.2842L123.42 17.1694C123.189 16.8877 122.946 16.6507 122.705 16.4584C121.593 15.573 119.918 15.0946 118.431 15.0946H118.257V9.67199H114.618V15.0946H114.444C112.941 15.0946 111.28 15.573 110.168 16.4584C109.229 17.2126 108.218 18.6331 108.218 20.866C108.218 22.9244 109.027 24.2733 109.836 25.0559C110.485 25.6938 111.902 26.7536 114.457 26.7536H114.603ZM113.865 18.1159C114.162 18.0503 114.472 18.0235 114.776 18.0384V23.8098C113.851 23.8381 112.984 23.4908 112.508 22.9542C112.074 22.5041 111.771 21.7648 111.771 20.8809C111.771 19.9821 112.074 19.2562 112.508 18.8209C112.842 18.4766 113.332 18.2337 113.865 18.1159ZM120.337 22.9691C119.86 23.4908 119.008 23.853 118.07 23.8247V18.0533C118.655 18.0131 119.255 18.1442 119.746 18.4051C119.969 18.5243 120.171 18.6689 120.337 18.8358C120.535 19.0341 120.705 19.2949 120.833 19.6035C120.984 19.9746 121.074 20.4128 121.074 20.8943C121.074 21.7797 120.771 22.519 120.337 22.9691ZM132.11 32.2194V26.7536H131.965C131.142 26.7536 130.438 26.6433 129.839 26.4734C129.51 26.381 129.215 26.2692 128.949 26.1484C128.189 25.8026 127.669 25.3763 127.344 25.0559C127.233 24.9486 127.121 24.8308 127.013 24.7011C126.918 24.5893 126.824 24.4686 126.735 24.3404C126.526 24.0393 126.331 23.692 126.171 23.2956C125.991 22.8529 125.855 22.3491 125.782 21.7797C125.76 21.6083 125.743 21.4294 125.734 21.2461C125.729 21.1223 125.726 20.9956 125.726 20.866C125.726 18.6331 126.737 17.2126 127.675 16.4584C128.787 15.573 130.449 15.0946 131.951 15.0946H132.125V9.67199H135.765V15.0946H135.938C136.4 15.0946 136.88 15.1408 137.355 15.2302C137.595 15.2749 137.834 15.3316 138.07 15.4001C138.278 15.4598 138.482 15.5283 138.681 15.6044C139.248 15.8235 139.774 16.1096 140.213 16.4584C141.153 17.2126 142.163 18.6331 142.163 20.866C142.163 21.6858 142.035 22.3893 141.83 22.9915C141.646 23.5311 141.399 23.9887 141.128 24.3717C140.941 24.6341 140.743 24.8606 140.546 25.0559C140.13 25.4643 139.399 26.0456 138.256 26.4108C137.952 26.5077 137.618 26.5897 137.254 26.6493C136.85 26.7163 136.407 26.7536 135.923 26.7536H135.779V32.2194H132.11ZM132.284 18.0384C131.432 17.9952 130.535 18.2843 130.015 18.8209C129.582 19.2562 129.279 19.9821 129.279 20.8809C129.279 21.7648 129.582 22.5041 130.015 22.9542C130.492 23.4908 131.359 23.8381 132.284 23.8098V18.0384ZM135.576 23.8247C136.516 23.853 137.368 23.4908 137.845 22.9691C138.075 22.7306 138.268 22.4102 138.399 22.0301C138.514 21.6932 138.581 21.3101 138.581 20.8943C138.581 20.0104 138.278 19.2711 137.845 18.8358C137.31 18.2993 136.428 17.9952 135.576 18.0533V23.8247ZM156.058 15.269H152.418V16.5449C151.378 15.1244 149.832 14.8919 148.879 14.8919C147.319 14.8919 145.947 15.4568 144.965 16.4435C143.925 17.4869 143.217 19.1116 143.217 21.0105C143.217 21.9615 143.404 22.9065 143.845 23.7934C144.097 24.3002 144.433 24.7861 144.864 25.2452C146.106 26.5643 147.464 26.9697 149.082 26.9697C150.02 26.9697 151.435 26.7387 152.418 25.2154V26.5792H156.058V15.269ZM146.959 20.9092C146.959 20.4382 147.058 20.0432 147.202 19.7168C147.368 19.3382 147.594 19.0535 147.796 18.8508C148.273 18.3723 149.009 18.0384 149.775 18.0533C150.439 18.0533 151.248 18.2993 151.796 18.8358C152.331 19.3426 152.635 20.0968 152.635 20.9092C152.635 21.881 152.23 22.592 151.753 23.0407C151.277 23.5191 150.598 23.8232 149.862 23.8232C148.994 23.8232 148.215 23.4759 147.708 22.9393C147.556 22.7649 147.376 22.522 147.23 22.2045C147.074 21.8631 146.959 21.4339 146.959 20.9092ZM161.893 15.269V21.7364L166.689 15.269H170.07V26.5792H166.429V20.0104L161.633 26.5792H158.254V15.269H161.893ZM168.741 10.702C168.6 11.1253 168.394 11.5203 168.143 11.8691C167.968 12.1135 167.77 12.3341 167.556 12.5264C167.418 12.6516 167.273 12.7634 167.123 12.8618C166.881 13.0227 166.625 13.1479 166.364 13.2463C166.064 13.3581 165.758 13.4326 165.458 13.4818C164.992 13.5578 164.542 13.5727 164.162 13.5727C163.324 13.5727 162.168 13.4997 161.201 12.8618C160.493 12.4116 159.886 11.6142 159.583 10.702L162.11 9.71522C162.211 10.222 162.457 10.6289 162.76 10.8749C162.927 11.012 163.114 11.1238 163.339 11.2013C163.565 11.2803 163.829 11.325 164.147 11.325C164.783 11.325 165.201 11.1506 165.534 10.8749C165.688 10.7497 165.828 10.5827 165.942 10.3815C166.051 10.1877 166.135 9.96414 166.184 9.71522L168.741 10.702ZM173.767 15.2973C173.16 15.5298 172.38 15.9353 171.904 16.2408L173.319 18.6913C173.681 18.3857 174.057 18.1547 174.533 17.952C175.01 17.7478 175.442 17.6464 176.021 17.6464C176.627 17.6464 176.988 17.7776 177.162 17.8506C177.423 17.9684 177.567 18.1308 177.641 18.2858C177.693 18.3976 177.711 18.5049 177.711 18.5899C177.711 18.8075 177.61 19.1399 177.176 19.3426C177.059 19.3978 176.903 19.438 176.735 19.4678C176.409 19.5275 176.038 19.5468 175.818 19.5468H174.778V22.0256H176.136C176.541 22.0256 177.147 22.0986 177.451 22.2283C177.594 22.2909 177.712 22.3699 177.802 22.4698C177.919 22.601 177.986 22.7679 177.986 22.9825C177.986 23.148 177.953 23.3641 177.803 23.5624C177.727 23.6607 177.623 23.7561 177.479 23.8381C177.119 24.0408 176.569 24.1139 176.165 24.1139C175.782 24.1139 175.363 24.0527 174.986 23.9559C174.78 23.9022 174.587 23.8381 174.418 23.7666C173.969 23.5624 173.435 23.2002 173.031 22.8529L171.485 25.2601C171.628 25.3749 171.862 25.5597 172.174 25.7624C172.32 25.8563 172.48 25.9547 172.655 26.0516C172.911 26.1917 173.197 26.3288 173.507 26.448C174.519 26.8252 175.573 26.9563 176.584 26.9563C178.462 26.9563 179.776 26.6806 180.73 25.7386C181.104 25.3614 181.352 24.959 181.505 24.5521C181.652 24.1586 181.711 23.7591 181.711 23.3745C181.711 23.2747 181.708 23.1763 181.699 23.0809C181.693 23.0198 181.687 22.9587 181.678 22.8991L181.658 22.7739C181.566 22.3028 181.35 21.8855 180.961 21.5039C180.802 21.3444 180.281 20.8943 179.444 20.6916C179.53 20.6603 179.615 20.6215 179.698 20.5783C179.768 20.5425 179.834 20.5023 179.901 20.459L179.987 20.4009C180.047 20.3592 180.105 20.3145 180.161 20.2683C180.244 20.2012 180.323 20.1281 180.397 20.0536C180.946 19.4738 181.076 18.8358 181.076 18.1249C181.076 17.9087 181.059 17.6956 181.021 17.4884C181 17.3751 180.972 17.2633 180.936 17.153C180.811 16.761 180.592 16.3914 180.238 16.0515C179.098 14.9351 177.032 14.8919 176.425 14.8919C175.558 14.8919 174.62 14.9932 173.767 15.2973ZM194.885 21.562H186.477C186.477 21.7722 186.506 22.0077 186.561 22.2462C186.665 22.6964 186.865 23.1584 187.158 23.4893C187.302 23.6503 187.462 23.777 187.63 23.8739C187.747 23.9424 187.869 23.9976 187.991 24.0408C188.351 24.1705 188.718 24.2003 189.02 24.2003C189.221 24.2003 189.425 24.1854 189.621 24.1556C189.943 24.1049 190.244 24.011 190.479 23.8664C190.522 23.8381 190.956 23.5624 191.259 22.9244L194.697 23.2732C194.191 24.8681 193.18 25.7087 192.53 26.1142C191.447 26.767 190.234 26.9548 188.963 26.9548C187.272 26.9548 185.784 26.6508 184.47 25.3316C183.488 24.3449 182.78 22.8514 182.78 20.9673C182.78 19.3426 183.358 17.6762 184.5 16.5017C185.175 15.822 185.938 15.4165 186.688 15.181C187.444 14.9425 188.187 14.877 188.818 14.877C190.075 14.877 191.894 15.1095 193.296 16.5732C194.64 17.9952 194.885 19.763 194.885 21.17V21.562ZM191.533 19.3859C191.505 19.2845 191.331 18.575 190.797 18.0667C190.648 17.9281 190.476 17.8059 190.282 17.706C190.155 17.6404 190.02 17.5853 189.875 17.5421C189.634 17.469 189.368 17.4288 189.077 17.4288C188.764 17.4288 188.495 17.4705 188.262 17.5391C187.795 17.6777 187.469 17.9266 187.229 18.1681C186.954 18.4736 186.694 18.8791 186.593 19.3859H191.533ZM200.171 15.269H196.531V26.5792H200.171V22.1419H204.245V26.5792H207.884V15.269H204.245V19.198H200.171V15.269Z" fill="#2B2D34"/>
</svg>
