<svg width="138" height="58" viewBox="0 0 138 58" fill="none" xmlns="http://www.w3.org/2000/svg">
<path d="M0 17.9932H13.5897C19.6887 28.6414 28.4963 37.4752 39.1131 43.5923V57.2223C30.0368 54.1183 21.7913 48.9679 15.0106 42.1672C8.22993 35.3664 3.09475 27.0964 0 17.9932Z" fill="#00AFAA"/>
<path d="M39.1529 17.9932H13.5901C10.3536 12.3699 7.93706 6.31066 6.41406 0H21.1735C25.9351 -1.31817e-05 30.5023 1.89442 33.8729 5.26768C37.2437 8.64092 39.1425 13.2174 39.1529 17.9932Z" fill="#00AFAA"/>
<path d="M39.0078 0C39.9839 4.43469 42.2036 8.49711 45.4055 11.7084C48.6072 14.9197 52.6576 17.146 57.0792 18.125V0H39.0078Z" fill="#00AFAA"/>
<path d="M39.1523 17.9932V43.5923C28.5355 37.4752 19.7278 28.6414 13.6289 17.9932H39.1523Z" fill="#00539B"/>
<path d="M86.8872 22.2114V40.5078H81.3015V22.2114H75.4004V17.9141H92.7884V22.1982L86.8872 22.2114ZM121.86 19.9573C123.728 18.4508 126.036 17.599 128.432 17.5319C134.885 17.5319 137.947 22.0928 137.947 28.6309C137.947 36.8959 133.321 41.1141 126.631 41.1141C119.942 41.1141 116.419 36.8959 116.419 27.1678C116.419 19.0741 118.246 13.4982 121.046 10.9146C124.252 7.93549 125.251 8.01458 129.01 7.03913C131.323 6.44595 133.558 6.07686 134.425 5.72095L136.462 10.3609C135.358 11.02 133.295 11.5078 129.181 12.3382C124.423 13.2741 122.281 14.9746 121.795 19.9178L121.86 19.9573ZM126.96 36.5664C130.653 36.5664 132.033 33.5609 132.033 29.2637C132.033 25.3882 130.89 22.2114 127.17 22.2114C125.483 22.11 123.816 22.6252 122.478 23.6614C122.301 25.4129 122.243 27.1748 122.307 28.9341C122.228 33.5609 123.727 36.5664 126.96 36.5664ZM108.954 40.521L101.436 29.9755V40.521H95.785V17.9141H101.436V27.8137L108.126 17.9141H114.343L107.062 28.1564L115.618 40.5473H109.046L108.954 40.521Z" fill="#00539B"/>
<path d="M57.0792 35.9468V50.75C50.7939 49.1894 44.759 46.7488 39.1523 43.5V17.9932C41.5048 17.9915 43.8346 18.4544 46.0086 19.3558C48.1827 20.2571 50.1584 21.579 51.8231 23.2463C53.4878 24.9134 54.8088 26.893 55.7106 29.0722C56.6124 31.2513 57.0775 33.5874 57.0792 35.9468Z" fill="#F39A00"/>
</svg>
