<svg width="112" height="40" viewBox="0 0 112 40" fill="none" xmlns="http://www.w3.org/2000/svg">
<g clip-path="url(#clip0_89_3105)">
<path fill-rule="evenodd" clip-rule="evenodd" d="M8.08127 0L6.19625 5.19165H32.3184L34.2034 0H8.08127ZM5.25315 7.78629L3.36814 12.9768H29.4903L31.3753 7.78629H5.25315ZM2.43092 15.5726L0.545898 20.7631H26.6681L28.5519 15.5726H2.43092Z" fill="#009FDF"/>
<mask id="mask0_89_3105" style="mask-type:luminance" maskUnits="userSpaceOnUse" x="39" y="7" width="73" height="33">
<path d="M39.7373 39.6881H111.244V7.88599H39.7373V39.6881Z" fill="#0A2973"/>
</mask>
<g mask="url(#mask0_89_3105)">
<path fill-rule="evenodd" clip-rule="evenodd" d="M56.0798 22.7413V22.8509C57.2736 23.2915 58.4139 24.0619 59.0114 24.5566C60.8573 26.0974 61.6722 28.1329 61.6722 30.7739C61.6722 35.1218 59.3915 38.2576 55.645 39.2482C54.5047 39.5781 53.3109 39.6888 51.0837 39.6888H39.7373V7.88599H49.7818C51.8451 7.88599 53.2563 7.99553 54.5047 8.32535C58.1431 9.31603 60.5319 11.8475 60.5319 15.8632C60.5319 18.0094 59.7716 19.8259 58.5232 21.0357C57.9804 21.5858 57.2201 22.2466 56.0798 22.7413ZM46.0353 26.0974V34.461H50.3793C51.6812 34.461 52.8762 34.3514 53.7457 33.5257C54.614 32.6999 54.9941 31.6551 54.9941 30.2792C54.9941 29.2343 54.7221 28.2436 54.1792 27.5286C53.2563 26.373 52.1159 26.0974 50.1619 26.0974H46.0353ZM45.9807 20.5951H49.5098C50.5955 20.5951 51.1383 20.5951 51.6812 20.4302C53.1482 19.9896 54.0711 18.6703 54.0711 16.8539C54.0711 14.7088 53.0935 13.7723 51.6812 13.3329C51.0837 13.168 50.4874 13.1126 49.2924 13.1126H45.9807V20.5951ZM71.1192 39.6888V13.2222H62.0523V7.88599H87.2455L85.4542 13.2222H77.4172V39.6888H71.1192ZM89.1995 39.6888V7.88599H109.615L107.824 13.2222H95.4441V20.2653H100.494C104.566 20.2653 106.684 21.2559 108.149 22.5211C109.29 23.5117 111.244 25.7122 111.244 30.0601C111.244 34.3514 109.235 36.7168 107.552 37.9277C105.598 39.3024 103.535 39.6888 99.3533 39.6888H89.1995ZM95.4441 34.3514H100.168C101.959 34.3514 103.045 33.9109 103.805 32.9202C104.185 32.4254 104.728 31.5443 104.728 29.894C104.728 28.2436 104.185 27.0881 103.1 26.2623C102.449 25.7676 101.579 25.4931 100.114 25.4931H95.4441V34.3514Z" fill="#0A2973"/>
</g>
</g>
<defs>
<clipPath id="clip0_89_3105">
<rect width="110.909" height="40" fill="white" transform="translate(0.545898)"/>
</clipPath>
</defs>
</svg>
