<svg width="160" height="56" viewBox="0 0 160 56" fill="none" xmlns="http://www.w3.org/2000/svg">
<g clip-path="url(#clip0_89_3135)">
<mask id="mask0_89_3135" style="mask-type:luminance" maskUnits="userSpaceOnUse" x="-1" y="-19" width="185" height="75">
<path d="M-0.000976562 56H183.172V-18.6376H-0.000976562V56Z" fill="white"/>
</mask>
<g mask="url(#mask0_89_3135)">
<path d="M18.0623 9.53674e-05C21.8909 9.53674e-05 23.0939 2.7335 24.1032 5.46263C24.5271 6.62154 34.4762 33.7414 34.7753 34.5555C34.8549 34.7825 34.8011 35.1553 34.4503 35.2902C34.0974 35.423 28.9281 37.4238 28.6419 37.5309C28.3557 37.6402 28.035 37.4817 27.9317 37.1968C27.8241 36.9161 25.6785 31.0037 25.4375 30.3439H10.6915C10.4591 31.0037 8.28762 36.929 8.19078 37.1968C8.09178 37.4688 7.78404 37.653 7.47844 37.5309C7.17285 37.411 1.98421 35.4102 1.67431 35.2902C1.37732 35.1745 1.24174 34.8382 1.34504 34.5555C1.7109 33.5401 11.5093 6.85504 12.0086 5.46263C12.9813 2.7742 14.2252 9.53674e-05 18.0623 9.53674e-05ZM0.557386 48.5267C0.247488 48.5267 0 48.7838 0 49.0965V55.4352C0 55.748 0.247488 56.0007 0.557386 56.0007H35.5522C35.8686 56.0007 36.116 55.748 36.116 55.4352V49.0965C36.116 48.7838 35.8686 48.5267 35.5522 48.5267H0.557386ZM18.0279 8.85583L13.0437 23.7546H23.0939L18.0925 8.85583H18.0279ZM92.8188 33.2851C92.0849 33.5315 91.6007 33.5915 91.024 33.5915C89.8317 33.5915 89.171 33.1223 89.171 31.9056C89.171 30.6374 90.0104 30.2133 91.6588 30.2133C92.0613 30.2133 92.4572 30.2711 92.6423 30.3354V31.2437C92.6423 32.2226 92.6961 32.8653 92.8188 33.2851ZM97.0562 34.7375C96.176 33.4073 95.9458 32.6232 95.9458 30.9459V27.5398C95.9458 25.7061 95.7305 25.0442 95.2442 24.3759C94.5663 23.429 93.4364 23.0177 91.3597 23.0177C89.8898 23.0177 88.463 23.1762 87.0814 23.5276L87.5807 25.9482C88.5147 25.8175 89.4939 25.7061 90.1847 25.7061C92.3905 25.7061 92.6423 26.0232 92.6423 27.6705V28.2853C92.1516 28.1546 91.6007 28.0604 90.9616 28.0604C87.6409 28.0604 85.887 29.6777 85.887 32.3554C85.887 34.8661 87.7614 36.2349 90.0448 36.2349C90.897 36.2349 91.7879 36.0785 92.4938 35.7915C92.9199 35.6073 93.105 35.498 93.656 35.1424C93.9874 35.6223 94.6524 36.1128 94.9235 36.2049L97.0562 34.7375ZM129.903 33.2851C129.165 33.5315 128.69 33.5915 128.108 33.5915C126.912 33.5915 126.243 33.1223 126.243 31.9056C126.243 30.6374 127.093 30.2133 128.745 30.2133C129.148 30.2133 129.546 30.2711 129.727 30.3354V31.2437C129.727 32.2226 129.778 32.8653 129.903 33.2851ZM134.145 34.7375C133.258 33.4073 133.032 32.6232 133.032 30.9459V27.5398C133.032 25.7061 132.813 25.0442 132.322 24.3759C131.653 23.429 130.521 23.0177 128.438 23.0177C126.97 23.0177 125.535 23.1762 124.153 23.5276L124.646 25.9482C125.582 25.8175 126.563 25.7061 127.273 25.7061C129.466 25.7061 129.727 26.0232 129.727 27.6705V28.2853C129.236 28.1546 128.69 28.0604 128.037 28.0604C124.712 28.0604 122.952 29.6777 122.952 32.3554C122.952 34.8661 124.831 36.2349 127.125 36.2349C127.988 36.2349 128.87 36.0785 129.57 35.7915C130.002 35.6073 130.181 35.498 130.732 35.1424C131.068 35.6223 131.733 36.1128 132.006 36.2049L134.145 34.7375ZM160 35.95C160 35.95 158.179 32.0877 157.734 31.2094C157.232 30.2197 156.768 29.5364 155.743 29.29V29.2343C156.43 29.1036 156.976 28.6902 157.575 27.4263C158.141 26.1946 158.308 25.9289 158.642 25.6355C158.969 25.3441 159.417 25.4491 159.417 25.4491L159.585 23.172C159.109 23.1077 158.582 23.1056 158.037 23.1355C157.133 23.1891 156.666 23.4483 156.221 23.8939C155.872 24.2345 155.636 24.7443 155.343 25.3291C155.033 25.9675 154.788 26.4816 154.465 27.1307C154.144 27.7969 153.994 28.0968 153.131 28.0968H152.569V18.0093H149.244V35.95H152.569V30.7917L153.023 30.7831C153.976 30.7831 154.144 31.0209 154.648 32.0213C155.237 33.2145 156.367 35.95 156.367 35.95H160ZM66.3333 35.95H70.1704L64.3663 18.3092C63.7551 18.1057 62.9997 17.9793 62.1927 17.9793C61.3125 17.9793 60.9983 18.095 60.3096 18.3092L54.1676 35.95H57.8498C57.8498 35.95 58.3469 34.4034 58.9323 32.4861H65.2938C65.862 34.4012 66.3333 35.95 66.3333 35.95ZM59.8663 29.5278C59.8663 29.5278 60.9294 25.9868 61.0951 25.4362C61.5169 24.0095 62.1583 21.7431 62.1583 21.7431H62.2637C62.2637 21.7431 62.8577 24.091 63.245 25.4105C63.3914 25.9354 64.4072 29.5278 64.4072 29.5278H59.8663ZM102.72 27.5099C101.548 27.5099 100.594 28.4631 100.594 29.6306C100.594 30.8067 101.548 31.7535 102.72 31.7535C103.896 31.7535 104.845 30.8067 104.845 29.6306C104.845 28.4631 103.896 27.5099 102.72 27.5099ZM74.7263 18.0093H71.3928V35.9479H74.7263V18.0093ZM140.956 25.869C142.798 25.9075 143.027 26.2867 143.027 27.8248V35.95H146.33V27.5398C146.33 25.7061 146.115 25.0442 145.624 24.3759C144.946 23.429 143.614 23.0177 141.361 23.0177C139.131 23.0177 137.711 23.2534 135.884 23.7953V35.95H139.222V26.0232C140.098 25.8968 140.253 25.869 140.956 25.869ZM82.9709 17.6901C80.8877 17.6901 79.7536 18.1014 79.0864 19.0461C78.5958 19.7166 78.3784 20.3936 78.3784 22.2315V23.7953H76.7235V26.4773H78.3784V35.95H81.684L81.6754 26.4773H84.9702V23.7953H81.6754L81.684 22.3579C81.684 20.7127 81.9358 20.3936 84.1438 20.3936C84.3827 20.3936 84.6517 20.4064 84.9379 20.4278L85.4587 17.8508C84.6431 17.7437 83.8081 17.6901 82.9709 17.6901ZM109.493 17.8572C110.627 17.7908 113.162 17.6966 114.753 17.6966C115.043 17.6966 115.345 17.6987 115.646 17.7137C118.773 17.7137 120.565 19.9801 120.565 22.6407C120.565 24.4508 119.733 25.6526 117.781 26.3681C120.077 26.8736 121.28 28.6581 121.28 30.8409C121.28 32.4433 120.826 33.7157 119.993 34.5833C118.913 35.6415 117.277 36.2349 115.099 36.2349C113.162 36.2349 110.73 36.1749 109.493 36.1021V17.8572ZM114.753 20.7963C114.202 20.7963 113.52 20.807 112.844 20.8306V25.1385H114.755C115.512 25.1385 116.121 24.9285 116.537 24.5237C116.933 24.1424 117.139 23.6025 117.139 22.962C117.139 21.5846 116.39 20.8049 114.998 20.7963H114.753ZM114.822 33.1416H114.966C116.702 33.1416 117.766 32.2226 117.779 30.3718C117.761 29.7077 117.505 29.0951 117.047 28.6516C116.545 28.1504 115.835 27.889 115.002 27.889H112.844V33.1223C113.453 33.1352 114.124 33.1373 114.822 33.1416Z" fill="#818181"/>
</g>
</g>
<defs>
<clipPath id="clip0_89_3135">
<rect width="160" height="56" fill="white"/>
</clipPath>
</defs>
</svg>
