<svg width="236" height="50" viewBox="0 0 236 50" fill="none" xmlns="http://www.w3.org/2000/svg">
<g clip-path="url(#clip0_89_3049)">
<path fill-rule="evenodd" clip-rule="evenodd" d="M0 25C0 38.8011 11.1565 50 24.9055 50C38.6544 50 49.8109 38.8011 49.8109 25C49.8109 11.1989 38.6544 0 24.9055 0C11.1565 0 0 11.1989 0 25ZM0.879561 25C0.879561 11.6636 11.6658 0.836431 24.9517 0.836431C38.2377 0.836431 49.0239 11.6636 49.0239 25C49.0239 38.29 38.2377 49.1171 24.9517 49.1171C11.6658 49.1636 0.879561 38.3364 0.879561 25Z" fill="#00487C"/>
<path fill-rule="evenodd" clip-rule="evenodd" d="M7.77684 18.1691C14.1652 13.987 21.2017 11.5241 33.1452 13.6152C33.7933 13.2435 34.1637 12.8717 34.3488 12.0817C31.3861 11.013 28.1456 10.6412 23.9793 10.6877C20.2296 10.7806 13.4708 12.1747 9.86001 14.3122L10.971 12.9182C13.5171 11.4312 20.0907 9.47952 24.9977 9.34011C28.4697 9.29365 30.2751 9.47952 34.3951 10.5948C34.0248 9.89773 33.1915 9.52599 31.9416 8.96837C27.9604 7.1561 20.461 7.01669 14.3504 9.71186C15.1374 9.20071 15.8781 8.73602 16.8965 8.27134C18.9334 7.34197 22.2202 6.45907 26.3402 6.50554C29.627 6.55201 33.5619 7.71372 35.9691 10.0836C36.3857 10.5483 36.6172 11.0594 36.7098 11.4777C38.6078 12.4535 39.7188 13.3364 40.3206 14.4052C40.552 14.9628 40.6909 15.5669 40.552 16.2174C41.339 16.6821 41.7094 17.1003 42.126 17.6115C42.4038 18.0297 42.6352 18.5409 42.6815 19.0055C42.7741 19.6096 42.8204 20.2602 42.2186 21.0501C42.8667 21.3754 43.3759 22.2583 43.4685 22.6765C43.7462 24.1171 42.8667 25.5111 41.6168 26.6264C40.228 27.881 37.1264 29.3215 34.6266 29.9721C29.627 31.2267 25.2292 31.7844 21.7109 32.4349C23.2849 32.8067 25.4143 33.3178 28.9326 33.3178C36.3857 33.3178 42.9593 29.7862 42.9593 29.7862C42.9593 29.7862 42.8204 30.2509 42.6815 30.6691C37.9597 33.5501 30.414 34.7583 27.2198 34.6189C23.933 34.4795 21.2017 33.9684 18.5167 33.1319C17.6835 33.3643 16.8965 33.5966 16.1095 33.9684C20.1833 35.8271 23.2849 36.2453 26.8031 36.5241C30.3677 36.8029 36.2468 35.92 41.2464 34.1078C41.015 34.3401 40.9224 34.7119 40.6909 34.8977C38.1448 36.2453 32.7286 37.5929 30.0436 37.6858C27.3586 37.7788 24.0719 37.6858 21.2017 37.1747C18.7482 36.71 16.7113 35.92 14.6282 34.9907C14.2578 35.2695 14.0726 35.6412 13.9801 36.0594C21.9887 40.3345 29.6733 40.4275 38.4226 37.6858L37.6356 38.4758C28.0067 42.3791 20.5073 40.8457 14.6744 38.0576C14.4893 37.9646 14.2578 37.8717 14.0726 37.7788C14.6282 38.7081 19.0723 41.9609 24.0256 42.3791C27.4512 42.658 31.6176 42.0539 34.1174 41.078L32.636 41.8215C31.4324 42.4256 28.2382 43.7732 23.7941 43.4479C17.8686 43.0297 14.5356 40.4275 13.0079 39.0334C12.3135 38.3829 11.9895 37.6394 11.758 36.71C10.4155 36.013 9.58225 35.2695 8.88786 34.2007C8.47123 33.5501 8.56382 32.8531 8.6564 32.249L8.79528 31.6914C8.14718 31.2267 7.49908 30.7156 7.22133 30.2044C6.61952 29.1357 6.98986 28.2528 7.4065 27.5093C7.03616 27.091 6.71211 26.7193 6.57323 26.3011C6.43435 25.7899 6.38806 25.3252 6.43435 24.8141C6.52694 23.9312 7.03616 23.0948 7.63796 22.3977C8.93416 20.9107 10.971 19.749 14.4893 18.5873C17.9149 17.4721 19.2574 17.2862 21.8498 16.6821C24.8588 15.9851 28.4697 15.7528 31.4787 14.684C23.0997 13.197 14.3504 14.5446 7.26762 19.4702L7.77684 18.1691ZM36.3394 12.9646C36.2468 13.3829 35.7839 13.8475 35.5061 14.1728C36.432 14.4052 37.3579 14.7304 38.2374 15.1022C38.0985 14.2658 37.1727 13.4758 36.3394 12.9646ZM10.5081 29.7862C9.9526 29.4609 9.58225 29.2751 9.16562 28.9498C8.93416 29.4609 9.39708 30.065 9.86001 30.3438C10.0452 30.158 10.2766 29.9721 10.5081 29.7862ZM38.7929 18.7732C39.3947 19.052 39.9502 19.2844 40.4595 19.6561C40.8298 18.9126 40.5983 18.4479 39.8114 17.7974C39.5336 18.1691 39.1633 18.4944 38.7929 18.7732ZM36.9875 19.8884C35.7839 20.4461 33.9785 21.0502 31.4787 21.7007C29.4418 22.2119 24.3959 22.9554 18.9797 24.1171C17.2668 24.4888 12.6376 25.6041 10.3692 27.5093C11.0173 28.0204 11.3877 28.1598 12.1284 28.5316C13.0542 27.9275 14.3504 27.3699 16.2484 26.8587C19.5815 25.9758 22.035 25.6041 25.044 25.0929C28.0067 24.6282 33.5619 23.4665 36.6635 22.3513C37.6819 21.9795 38.6078 21.5148 39.3021 20.9572C39.0707 20.7713 37.0801 19.7955 36.9875 19.8884ZM13.656 32.8531C14.1189 32.5743 14.6744 32.2955 15.2763 32.0632C14.3967 31.6914 13.5171 31.3197 12.6376 30.9015C12.2209 31.1338 11.8506 31.4126 11.5728 31.6914C12.2672 32.0632 12.9153 32.4814 13.656 32.8531ZM10.7859 33.1319C10.7859 33.6896 11.1099 34.2007 11.8506 34.8048C11.9432 34.4795 12.0821 34.2936 12.3135 34.0148C11.758 33.736 11.2951 33.4107 10.7859 33.1319ZM14.9985 22.8159C21.0628 21.0501 27.4512 20.4925 33.9322 18.7732C31.3861 18.0762 30.0436 17.7974 27.3586 18.1226C23.4701 18.5873 19.2111 19.4238 15.554 20.4925C14.1189 20.9107 6.57323 23.0483 8.74899 26.0687C8.74899 26.1152 10.0452 24.3029 14.9985 22.8159ZM37.7745 16.5892C36.8023 16.1245 35.5524 15.7063 34.21 15.3345C33.6081 15.7992 32.9601 16.2174 31.9416 16.5892C33.5619 16.868 34.8118 17.3327 36.2005 17.7509C36.4783 17.8903 37.5893 16.8215 37.7745 16.5892ZM40.7835 22.4442C40.5983 22.5836 40.4132 22.7695 40.1817 22.9089C38.7929 23.9777 36.6172 24.8141 33.6081 25.6505C27.3586 27.3234 22.822 27.6022 17.6372 28.8568C16.6187 29.0892 15.6003 29.4609 14.6282 29.8327C15.6003 30.3438 16.6187 30.762 17.6835 31.1803C19.7666 30.5762 20.7851 30.2974 23.8404 29.7862C24.9977 29.6003 28.5622 28.9498 31.1546 28.3922C35.7839 27.4628 42.5889 25.2788 40.7835 22.4442Z" fill="#00487C"/>
<path fill-rule="evenodd" clip-rule="evenodd" d="M73.6514 35.8736H78.7898L79.3917 32.1096H82.9099L83.5117 35.8736H88.6502L84.2987 13.9869H77.9103L73.6514 35.8736ZM81.1971 20.5855L82.1692 27.2769H80.2712L81.1971 20.5855Z" fill="#00487C"/>
<path fill-rule="evenodd" clip-rule="evenodd" d="M93.5573 22.4907C94.3906 22.4907 95.8719 21.9795 95.8719 20.3532C95.8719 18.4479 94.1128 18.3085 93.6499 18.3085C93.0481 18.3085 91.9833 18.4015 90.8723 18.9126L90.826 14.1729C92.5388 13.7546 93.7887 13.6152 95.2238 13.6152C99.3439 13.6152 101.242 16.5427 101.242 19.3773C101.242 22.1654 99.6216 23.8383 98.094 24.4888V24.7212C99.5753 25.1859 101.566 26.6264 101.566 29.9721C101.566 34.1078 98.6958 36.3848 95.0387 36.3848C93.0481 36.3848 91.7982 36.1059 90.2705 35.2695L90.3631 30.7156C91.7982 31.3197 92.7703 31.3662 93.7425 31.3662C95.3627 31.3662 96.0108 30.158 96.0108 29.2751C96.0108 28.0669 95.2238 27.2305 93.511 27.2305H91.4278V22.4907H93.5573Z" fill="#00487C"/>
<path fill-rule="evenodd" clip-rule="evenodd" d="M117.768 35.8736H112.676V19.2379H109.019V35.8736H103.927V13.9869H117.768V35.8736Z" fill="#00487C"/>
<path fill-rule="evenodd" clip-rule="evenodd" d="M120.639 35.8736H125.685V28.671H127.397C132.397 28.671 133.971 24.1635 133.971 21.2825C133.971 18.4479 132.212 13.9869 127.397 13.9869H120.639V35.8736ZM125.685 18.8197H126.888C128.045 18.8197 128.74 19.5167 128.74 21.3289C128.74 23.6988 127.536 23.8382 126.888 23.8382H125.685V18.8197Z" fill="#00487C"/>
<path fill-rule="evenodd" clip-rule="evenodd" d="M143.322 36.1524C149.34 36.1524 151.331 30.5298 151.331 24.9071C151.331 19.2844 149.294 13.6617 143.322 13.6617C137.304 13.6617 135.313 19.2844 135.313 24.9071C135.313 30.5298 137.35 36.1524 143.322 36.1524ZM143.322 30.8551C141.563 30.8551 140.637 28.764 140.637 24.9071C140.637 21.0502 141.563 18.9591 143.322 18.9591C145.128 18.9591 146.007 21.0502 146.007 24.9071C146.053 28.764 145.128 30.8551 143.322 30.8551Z" fill="#00487C"/>
<path fill-rule="evenodd" clip-rule="evenodd" d="M173.366 35.8736H179.431C180.727 35.8736 186.189 35.3159 186.236 28.7174C186.236 23.1412 181.977 22.1654 179.245 22.1654H178.366V19.2843H185.078V13.9869H173.413V35.8736H173.366ZM178.366 31.5055V26.5334H179.106C179.708 26.5334 181.282 26.5799 181.282 28.8104C181.282 31.1338 179.662 31.5055 179.106 31.5055H178.366Z" fill="#00487C"/>
<path fill-rule="evenodd" clip-rule="evenodd" d="M217.854 35.8736H212.947V27.1375H209.382V35.8736H204.429V13.9869H209.382V21.8866H212.947V13.9869H217.854V35.8736Z" fill="#00487C"/>
<path fill-rule="evenodd" clip-rule="evenodd" d="M235.445 13.9869L231.556 24.3959L236 35.8736H230.167L227.343 27.091H226.14V35.8736H221.187V13.9869H226.14V21.8866H227.205L230.075 13.9869H235.445Z" fill="#00487C"/>
<path fill-rule="evenodd" clip-rule="evenodd" d="M63.8838 13.9869H74.2533V19.4702H69.0223V35.8736H63.8838V13.9869Z" fill="#00487C"/>
<path fill-rule="evenodd" clip-rule="evenodd" d="M164.941 35.8736V22.5371L161.885 26.3475L158.83 22.5371V35.8736H153.784V13.9869H158.089L161.885 19.1449L165.681 13.9869H169.987V35.8736H164.941Z" fill="#00487C"/>
<path fill-rule="evenodd" clip-rule="evenodd" d="M187.207 35.9201H192.346L192.947 32.1561H196.466L197.114 35.9201H202.252L197.901 14.0334H191.512L187.207 35.9201ZM194.753 20.632L195.725 27.3234H193.827L194.753 20.632Z" fill="#00487C"/>
</g>
<defs>
<clipPath id="clip0_89_3049">
<rect width="236" height="50" fill="white"/>
</clipPath>
</defs>
</svg>
