<svg width="210" height="40" viewBox="0 0 210 40" fill="none" xmlns="http://www.w3.org/2000/svg">
<path d="M88.1541 14.0332C85.4033 14.0332 83.3457 15.0609 82.3278 16.7607H82.1078V14.5555H77.0791V37.9139H82.1078V30.5092H82.3278C83.3401 32.2089 85.4033 33.2367 88.1541 33.2367C93.3149 33.2367 97.4081 28.9815 97.4081 23.6321C97.4081 18.2884 93.3149 14.0332 88.1541 14.0332ZM87.1364 28.615C84.3305 28.615 82.1078 26.4096 82.1078 23.6321C82.1078 20.8269 84.3305 18.6494 87.1364 18.6494C90.0249 18.6494 92.22 20.8269 92.22 23.6321C92.22 26.4374 89.9972 28.615 87.1364 28.615Z" fill="#3B175C"/>
<path d="M200.627 15.4045C197.75 15.4045 195.499 16.5045 194.129 18.4153H193.903C194.277 14.9602 196.215 13.2825 200.384 12.6827L207.685 11.616V6.94434L199.901 8.06098C192.711 9.07192 189.261 12.9159 189.261 19.843C189.261 24.8535 189.579 26.4367 190.465 28.3309C191.857 31.3695 195.307 33.236 199.478 33.236C205.094 33.236 209.429 29.2142 209.429 23.9481C209.425 18.8819 205.842 15.4045 200.627 15.4045ZM199.422 28.592C196.562 28.592 194.448 26.62 194.448 23.9481C194.448 21.2484 196.533 19.2764 199.422 19.2764C202.255 19.2764 204.346 21.2484 204.346 23.9481C204.346 26.62 202.227 28.592 199.422 28.592Z" fill="#3B175C"/>
<path d="M71.807 9.07092L66.1458 20.592L58.4323 9.07092H52.4189L63.615 25.7469L63.3069 26.3802C62.8227 27.3911 62.1845 27.9355 60.7101 27.9355H56.7488V32.735H61.2712C64.7208 32.735 66.1127 31.8517 67.5543 28.9466L77.4519 9.06543H71.807V9.07092Z" fill="#3B175C"/>
<path d="M126.457 14.5752L125.599 25.8629C125.467 27.6294 124.878 28.2737 123.486 28.2737H122.254V32.8676H125.252C128.625 32.8676 130.121 31.3123 130.363 28.0682L131.024 19.2969H137.208V32.7122H142.291V14.5752H126.457Z" fill="#3B175C"/>
<path d="M155.398 18.7022C157.455 18.7022 159.09 19.8687 159.865 21.4297L164.36 19.7188C163.105 16.2691 159.546 14.0361 155.293 14.0361C149.593 14.0361 145.291 18.1856 145.291 23.6405C145.291 29.09 149.599 33.2451 155.293 33.2451C159.546 33.2451 163.105 31.0119 164.36 27.5623L159.865 25.8514C159.09 27.4068 157.455 28.5788 155.398 28.5788C152.537 28.5788 150.474 26.5291 150.474 23.6462C150.474 20.752 152.537 18.7022 155.398 18.7022Z" fill="#3B175C"/>
<path d="M180.239 14.5498L172.431 26.0818V14.5498H167.403V32.7144H172.965L180.723 21.2658V32.7144H185.751V14.5498H180.239Z" fill="#3B175C"/>
<path d="M114.679 16.7548H114.459C113.447 15.0551 111.384 14.0273 108.633 14.0273C103.472 14.0273 99.3789 18.2825 99.3789 23.6319C99.3789 28.9756 103.472 33.2363 108.633 33.2363C111.384 33.2363 113.441 32.2087 114.459 30.5088H114.679V32.7142H119.708V14.5496H114.679V16.7548ZM109.656 28.6146C106.795 28.6146 104.572 26.4371 104.572 23.6319C104.572 20.8266 106.768 18.649 109.656 18.649C112.462 18.649 114.685 20.8266 114.685 23.6319C114.679 26.4092 112.462 28.6146 109.656 28.6146Z" fill="#3B175C"/>
<path fill-rule="evenodd" clip-rule="evenodd" d="M20.0387 0.0204888C20.2947 0.0330972 20.5609 0.0504339 20.8388 0.0724987V3.9102C20.8388 20.8197 21.4773 28.1295 23.9534 39.4015C20.7896 40.2006 17.4338 40.2006 14.2755 39.3952C16.768 28.0413 17.4112 20.7315 17.4112 3.9102V0.0724987C17.7445 0.0457057 18.0591 0.026793 18.3604 0.0157606C18.6266 0.00472818 18.881 0 19.1285 0C19.4204 0 19.7217 0.00630424 20.0387 0.0204888ZM38.2445 21.4313C38.2445 14.8544 34.6959 9.0718 29.3644 5.77783L29.4363 10.2428C32.6055 12.993 34.6132 16.9931 34.6132 21.4313C34.6132 22.1704 34.5562 22.897 34.4469 23.6078C34.2564 24.8466 33.9091 26.0365 33.4306 27.1587C31.1364 24.9585 29.5018 22.3706 28.4847 19.3146C27.2576 15.6156 26.9711 11.5651 26.9274 6.6163L26.9329 4.48862C26.6027 4.3452 26.2678 4.21123 25.929 4.08515C25.1391 3.79358 24.3288 3.55244 23.5053 3.36646L23.5108 6.60999C23.6263 23.6976 26.559 30.741 30.9217 36.035C35.3836 32.6355 38.2445 27.3588 38.2445 21.4313ZM14.7392 6.61315L14.7447 3.36962C14.1139 3.51304 13.491 3.68798 12.8798 3.89287C12.3498 4.06939 11.8284 4.26955 11.3171 4.49177L11.3225 6.61945C11.2734 11.5635 10.9923 15.6187 9.76525 19.3178C8.7536 22.3737 7.11357 24.9569 4.8194 27.1618C4.52355 26.4668 4.27766 25.7465 4.08798 25.0058C3.79526 23.8615 3.63679 22.6653 3.63679 21.4344C3.63679 16.9899 5.63902 12.9962 8.8137 10.246L8.88552 5.78099C3.54859 9.06865 0 14.8512 0 21.4344C0 27.362 2.86635 32.6386 7.32277 36.0382C11.6964 30.7505 14.6237 23.7008 14.7392 6.61315Z" fill="#3B175C"/>
</svg>
