<svg width="228" height="56" viewBox="0 0 228 56" fill="none" xmlns="http://www.w3.org/2000/svg">
<path d="M14.0516 36.6218C9.23514 36.6218 5.31126 32.825 5.31126 28.1636C5.31126 23.5021 9.234 19.7042 14.0494 19.7042H14.5966V14.5601H14.0505C6.30648 14.5601 0 20.6652 0 28.1625C0 35.709 6.30648 41.8141 14.0516 41.8141H14.5977V36.6241H14.0516V36.6218Z" fill="#FF4B5F"/>
<path fill-rule="evenodd" clip-rule="evenodd" d="M16.8809 21.9166V14.851C23.3365 16.1 28.152 21.5797 28.152 28.1641C28.152 34.7988 23.3343 40.2763 16.8809 41.4794V34.4138H14.0501C10.4762 34.4138 7.59668 31.6247 7.59668 28.1663C7.59668 24.7056 10.4762 21.9166 14.0515 21.9166H16.8809ZM43.9912 34.3153C45.4549 34.3197 46.8741 33.8275 48.0118 32.9219L50.2462 35.0875C48.608 36.5269 46.4238 37.3931 43.9912 37.3931C38.7276 37.3931 34.5075 33.2106 34.5075 28.1641C34.5075 23.1175 38.7276 18.9831 43.9912 18.9831C46.3556 18.9766 48.6378 19.8341 50.3957 21.3872L48.1613 23.5485C47.0088 22.5531 45.5256 22.0063 43.9912 22.0128C40.4641 22.0128 37.6355 24.7516 37.6355 28.1641C37.6355 31.5766 40.4652 34.3153 43.9912 34.3153ZM142.054 27.8753L149.055 19.705H151.835V36.6231H149.055V24.4147L142.054 32.3925L134.954 24.2222V36.6253H132.123V19.705H134.954V19.8013L135.003 19.705L142.054 27.8753ZM61.9643 37.345C67.1775 37.345 71.4481 33.2588 71.4481 28.1641C71.4481 23.1175 67.1775 18.9831 61.9643 18.9831C56.7511 18.9831 52.482 23.1175 52.482 28.1641C52.482 33.2106 56.7021 37.345 61.9643 37.345ZM61.9153 22.0128C65.4414 22.0128 68.2708 24.7516 68.2708 28.1641C68.2708 31.5766 65.4414 34.3153 61.9153 34.3153C58.3893 34.3153 55.5599 31.5766 55.5599 28.1641C55.5599 24.7516 58.3893 22.0128 61.9153 22.0128ZM119.76 37.345C124.973 37.345 129.244 33.2588 129.244 28.1641C129.244 23.1175 125.022 18.9831 119.76 18.9831C114.547 18.9831 110.277 23.1175 110.277 28.1641C110.277 33.2106 114.497 37.345 119.76 37.345ZM119.76 22.0128C123.286 22.0128 126.115 24.7516 126.115 28.1641C126.115 31.5766 123.235 34.3153 119.76 34.3153C116.234 34.3153 113.405 31.5766 113.405 28.1641C113.405 24.7516 116.234 22.0128 119.76 22.0128ZM106.403 19.705H110.227L101.587 28.2122L110.127 36.6253H106.354L99.1535 29.5575H96.2748V36.6253H93.4944V19.705H96.2748V26.8188H99.2047L106.403 19.705ZM224.228 19.705H228L219.41 28.2122L227.901 36.6253H224.127L216.978 29.5575H214.048V36.6253H211.268V19.705H214.048V26.8188H216.978L224.228 19.705ZM189.968 36.6231H186.888L185.202 32.9722H176.164L174.477 36.6253H171.399L179.094 19.705H182.271L189.968 36.6231ZM180.683 23.1656L177.407 30.2794H183.96L180.683 23.1656ZM88.3302 28.1641C89.3427 29.0785 89.9194 30.3691 89.9194 31.721C89.9194 34.4116 87.685 36.6253 84.9035 36.6735H74.6766V19.705H84.9035C87.6655 19.7006 89.9102 21.8947 89.9194 24.6072C89.9194 26.0006 89.2731 27.2519 88.3302 28.1641ZM84.8545 22.446H77.506V26.7685H84.8545C86.0958 26.7685 87.0877 25.8081 87.0877 24.6072C87.0877 23.4041 86.0958 22.446 84.8545 22.446ZM77.506 33.9325H84.8545C86.0969 33.9325 87.0889 32.9219 87.1378 31.7231C87.1378 31.1522 86.8946 30.6163 86.4983 30.2203C86.0939 29.8178 85.5303 29.5597 84.9035 29.5597H77.506V33.9325ZM204.963 26.8188V19.7531H207.793V36.575H204.963V29.5553H194.785V36.575H191.955V19.7531H194.785V26.8188H204.963ZM165.339 26.8188C168.12 26.8188 170.405 29.0281 170.405 31.721C170.405 34.4116 168.121 36.6253 165.338 36.6713H155.16V19.705H168.716V22.4438H157.991V26.8188H165.339ZM157.992 33.9325H165.341C166.582 33.9325 167.575 32.9219 167.575 31.7231C167.575 30.5681 166.582 29.5597 165.341 29.5597H157.992V33.9325Z" fill="#003791"/>
</svg>
