<svg width="212" height="36" viewBox="0 0 212 36" fill="none" xmlns="http://www.w3.org/2000/svg">
<path d="M94.7923 10.4426L99.2098 7.07874H84.416V27.2309H99.2098V23.8643H88.6416V18.7208H97.6742V15.357H88.6416V10.4426H94.7923Z" fill="#21A038"/>
<path d="M73.2394 14.9267H68.1143V10.4426H76.3133L80.7336 7.07874H63.8887V27.2309H72.6937C77.6268 27.2309 80.4759 24.9204 80.4759 20.8972C80.4759 17.0389 77.9147 14.9267 73.2394 14.9267ZM72.5346 23.8643H68.1143V18.2906H72.5346C75.2247 18.2906 76.4723 19.2153 76.4723 21.0956C76.4723 22.9759 75.1287 23.8643 72.5346 23.8643Z" fill="#21A038"/>
<path d="M111.188 7.07874H103.15V27.2309H107.376V21.5231H111.22C116.343 21.5231 119.546 18.7543 119.546 14.3009C119.546 9.84746 116.343 7.07874 111.188 7.07874ZM111.092 18.1592H107.346V10.4426H111.092C113.815 10.4426 115.287 11.8283 115.287 14.3009C115.287 16.7735 113.815 18.1592 111.092 18.1592Z" fill="#21A038"/>
<path d="M56.6493 22.8753C55.5305 23.504 54.2801 23.8336 52.9995 23.8336C49.1879 23.8336 46.4348 21.0286 46.4348 17.1702C46.4348 13.3119 49.1879 10.5069 52.9995 10.5069C54.3761 10.4761 55.7224 10.9371 56.8412 11.7613L59.885 9.45357L59.6931 9.2552C57.9326 7.63755 55.5607 6.81335 52.8706 6.81335C49.9585 6.81335 47.2986 7.83591 45.3791 9.68266C43.4569 11.5965 42.3682 14.2674 42.4313 17.0389C42.3984 19.8412 43.4569 22.5457 45.3791 24.5237C47.3946 26.4711 50.0846 27.5607 52.8405 27.4936C55.8815 27.4936 58.5386 26.404 60.332 24.4259L57.6118 22.3473L56.6493 22.8753Z" fill="#21A038"/>
<path d="M170.369 7.11226V27.2617H174.594V19.017H183.594V27.2617H187.822V7.11226H183.594V15.3905H174.594V7.11226H170.369ZM163.099 27.2617H167.55L159.288 7.11226H154.996L146.575 27.2617H150.834L152.531 23.205H161.498L163.099 27.2617ZM153.812 19.8412L157.077 11.7613L160.151 19.8412H153.812ZM197.302 19.1175H199.926L206.395 27.2309H211.838L203.192 16.807L210.749 7.07874H205.915L199.638 15.7202H197.302V7.07874H193.074V27.2309H197.302V19.1175ZM132.612 14.9603V10.4761H143.66V7.11226H128.384V27.2617H137.192C142.122 27.2617 144.974 24.9539 144.974 20.9308C144.974 17.0724 142.413 14.9603 137.734 14.9603H132.612ZM132.612 23.8979V18.3241H137.032C139.72 18.3241 140.97 19.2489 140.97 21.1291C140.97 23.0094 139.657 23.9314 137.032 23.9314H132.612V23.8979Z" fill="#21A038"/>
<path d="M29.2065 6.94751C29.9743 7.97007 30.6159 9.09041 31.1589 10.2778L16.365 21.5232L10.1514 17.5V12.6861L16.3321 16.6758L29.2065 6.94751Z" fill="#21A038"/>
<path d="M3.84146 17.1702C3.84146 16.9383 3.84146 16.7428 3.87437 16.5109L0.128609 16.3125C0.128609 16.5779 0.0957031 16.8741 0.0957031 17.1367C0.0957031 21.755 1.92197 25.943 4.86702 28.9771L7.52415 26.2391C5.25092 23.9314 3.84146 20.7324 3.84146 17.1702Z" fill="url(#paint0_linear_89_3144)"/>
<path d="M16.3321 4.30732C16.5569 4.30732 16.7489 4.30732 16.9737 4.34084L17.1657 0.4825C16.9079 0.4825 16.62 0.448975 16.365 0.448975C11.8816 0.448975 7.81498 2.32925 4.86719 5.3634L7.52432 8.1014C9.76738 5.76013 12.9044 4.30732 16.3321 4.30732Z" fill="url(#paint1_linear_89_3144)"/>
<path d="M16.3317 30.0332C16.1068 30.0332 15.9149 30.0332 15.69 29.9997L15.498 33.858C15.7558 33.858 16.0437 33.8916 16.2988 33.8916C20.7821 33.8916 24.8515 32.0113 27.7965 28.9771L25.1394 26.2391C22.8963 28.6139 19.7895 30.0332 16.3317 30.0332Z" fill="url(#paint2_linear_89_3144)"/>
<path d="M23.3766 6.55075L26.5465 4.14243C23.7605 1.83469 20.2067 0.415405 16.332 0.415405V4.27375C18.959 4.30727 21.3913 5.13147 23.3766 6.55075Z" fill="url(#paint3_linear_89_3144)"/>
<path d="M32.6008 17.1703C32.6008 16.1477 32.5048 15.1587 32.3431 14.1697L28.8523 16.8406C28.8523 16.9384 28.8523 17.0725 28.8523 17.1703C28.8523 20.9644 27.2509 24.3617 24.7227 26.703L27.2509 29.5723C30.5195 26.5382 32.6008 22.0847 32.6008 17.1703Z" fill="#21A038"/>
<path d="M16.3317 30.0333C12.649 30.0333 9.35026 28.3849 7.07703 25.7782L4.29102 28.3849C7.26898 31.7822 11.5604 33.8916 16.3317 33.8916V30.0333Z" fill="url(#paint4_linear_89_3144)"/>
<path d="M7.97386 7.63762L5.44287 4.76831C2.14408 7.83598 0.0957031 12.2559 0.0957031 17.1703H3.84146C3.84146 13.4098 5.44287 9.98168 7.97386 7.63762Z" fill="url(#paint5_linear_89_3144)"/>
<defs>
<linearGradient id="paint0_linear_89_3144" x1="4.46758" y1="28.508" x2="0.490055" y2="17.1725" gradientUnits="userSpaceOnUse">
<stop offset="0.1444" stop-color="#F2E913"/>
<stop offset="0.3037" stop-color="#E7E518"/>
<stop offset="0.5823" stop-color="#CADB26"/>
<stop offset="0.891" stop-color="#A3CD39"/>
</linearGradient>
<linearGradient id="paint1_linear_89_3144" x1="5.93561" y1="4.92784" x2="15.7016" y2="1.25857" gradientUnits="userSpaceOnUse">
<stop offset="0.0592" stop-color="#0FA8E0"/>
<stop offset="0.5385" stop-color="#0099F9"/>
<stop offset="0.9234" stop-color="#0291EB"/>
</linearGradient>
<linearGradient id="paint2_linear_89_3144" x1="15.2792" y1="30.61" x2="26.8823" y2="28.0246" gradientUnits="userSpaceOnUse">
<stop offset="0.1226" stop-color="#A3CD39"/>
<stop offset="0.2846" stop-color="#86C339"/>
<stop offset="0.8693" stop-color="#21A038"/>
</linearGradient>
<linearGradient id="paint3_linear_89_3144" x1="15.5624" y1="2.87384" x2="25.2255" y2="5.81344" gradientUnits="userSpaceOnUse">
<stop offset="0.0566" stop-color="#0291EB"/>
<stop offset="0.79" stop-color="#0C8ACB"/>
</linearGradient>
<linearGradient id="paint4_linear_89_3144" x1="5.24351" y1="28.9953" x2="15.6388" y2="32.8248" gradientUnits="userSpaceOnUse">
<stop offset="0.1324" stop-color="#F2E913"/>
<stop offset="0.2977" stop-color="#EBE716"/>
<stop offset="0.5306" stop-color="#D9E01F"/>
<stop offset="0.8023" stop-color="#BBD62D"/>
<stop offset="0.9829" stop-color="#A3CD39"/>
</linearGradient>
<linearGradient id="paint5_linear_89_3144" x1="2.9667" y1="17.6365" x2="7.26265" y2="6.61842" gradientUnits="userSpaceOnUse">
<stop offset="0.0698" stop-color="#A3CD39"/>
<stop offset="0.2599" stop-color="#81C55F"/>
<stop offset="0.9216" stop-color="#0FA8E0"/>
</linearGradient>
</defs>
</svg>
