<svg width="20" height="20" viewBox="0 0 20 20" fill="none" xmlns="http://www.w3.org/2000/svg">
<path d="M14.8496 11.901C11.2389 11.9187 10.6549 14.0938 10.4602 15.9329L10.3717 16.7463H9.64599L9.55751 15.9329C9.36285 14.0938 8.76109 11.9187 5.27433 11.901C4.69027 10.6985 4.44248 9.72592 4.44248 8.62956C4.44248 5.88867 6.69028 3.32449 10.0177 3.32449C13.3451 3.32449 15.5575 5.87089 15.5575 8.64732C15.5575 9.72592 15.4513 10.6985 14.8496 11.901ZM9.98233 0C4.49563 0 0 4.49164 0 9.99112C0 15.5084 4.49563 20 9.98233 20C15.5221 20 20 15.5084 20 9.99112C20 4.49166 15.5221 0 9.98233 0Z" fill="#29B24A"/>
</svg>
