<svg width="22" height="22" viewBox="0 0 22 22" fill="none" xmlns="http://www.w3.org/2000/svg">
<path fill-rule="evenodd" clip-rule="evenodd" d="M11 1.69231C5.8595 1.69231 1.69231 5.8595 1.69231 11C1.69231 16.1404 5.8595 20.3077 11 20.3077C16.1404 20.3077 20.3077 16.1404 20.3077 11C20.3077 5.8595 16.1404 1.69231 11 1.69231ZM0 11C0 4.92486 4.92486 0 11 0C17.0752 0 22 4.92486 22 11C22 17.0752 17.0752 22 11 22C4.92486 22 0 17.0752 0 11ZM11 4.51282C11.4673 4.51282 11.8462 4.89166 11.8462 5.35897V14.5982L14.9145 11.5299C15.245 11.1995 15.7807 11.1995 16.1111 11.5299C16.4416 11.8604 16.4416 12.396 16.1111 12.7265L11.5983 17.2393C11.4397 17.3981 11.2244 17.4872 11 17.4872C10.7756 17.4872 10.5603 17.3981 10.4017 17.2393L5.88886 12.7265C5.55842 12.396 5.55842 11.8604 5.88886 11.5299C6.2193 11.1995 6.75506 11.1995 7.0855 11.5299L10.1538 14.5982V5.35897C10.1538 4.89166 10.5327 4.51282 11 4.51282Z" fill="#494949"/>
</svg>
