<svg width="24" height="24" viewBox="0 0 24 24" fill="none" xmlns="http://www.w3.org/2000/svg">
<path d="M11.4662 22.776C11.5357 22.8473 11.6187 22.9039 11.7104 22.9425C11.8021 22.9812 11.9006 23.0011 12.0002 23.0011C12.0997 23.0011 12.1982 22.9812 12.2899 22.9425C12.3816 22.9039 12.4647 22.8473 12.5342 22.776L22.1282 13.055C24.6192 10.532 24.6192 6.42501 22.1282 3.90101C20.9182 2.67501 19.3092 2.00001 17.5962 2.00001C15.8832 2.00001 14.2752 2.67501 13.0652 3.90001L12.0002 4.98001L10.9352 3.90101C10.345 3.29782 9.64004 2.81887 8.86187 2.49238C8.08369 2.1659 7.24804 1.99848 6.40416 2.00001C5.56011 1.99841 4.72428 2.16578 3.94594 2.49226C3.16759 2.81875 2.46248 3.29774 1.87216 3.90101C-0.618844 6.42501 -0.618844 10.532 1.87216 13.054L11.4662 22.776ZM2.93916 4.95401C3.3905 4.49302 3.92945 4.12691 4.52433 3.87721C5.11921 3.62751 5.758 3.49927 6.40316 3.50001C7.71116 3.50001 8.94116 4.01701 9.86616 4.95501L11.4652 6.57501C11.6089 6.71213 11.8 6.78863 11.9987 6.78863C12.1973 6.78863 12.3884 6.71213 12.5322 6.57501L14.1312 4.95401C14.5829 4.49321 15.122 4.12724 15.717 3.87756C16.312 3.62789 16.9509 3.49953 17.5962 3.50001C18.2413 3.49927 18.8801 3.62751 19.475 3.87721C20.0699 4.12691 20.6088 4.49302 21.0602 4.95401C22.9772 6.89701 22.9772 10.058 21.0602 12.002L12.0002 21.183L2.93916 12.001C1.02216 10.059 1.02216 6.89701 2.93916 4.95401Z" fill="#181817"/>
</svg>
