<svg width="32" height="32" viewBox="0 0 32 32" fill="none" xmlns="http://www.w3.org/2000/svg">
<path d="M8.00022 18.002C8.20822 18.002 8.41922 17.937 8.59922 17.802L12.5992 14.802L11.3992 13.202L9.08922 14.935C9.60522 11.58 12.5022 9 15.9992 9C18.4912 9 20.8152 10.343 22.0652 12.504L23.7962 11.503C22.1902 8.726 19.2022 7 15.9992 7C11.6402 7 7.99722 10.116 7.17522 14.236L5.79922 12.402L4.19922 13.602L7.19922 17.602C7.39522 17.864 7.69622 18.002 8.00022 18.002Z" fill="#EC7D3F"/>
<path d="M19.5791 18.2149L20.8181 19.7839L22.8961 18.1429C22.3471 21.4599 19.4671 23.9999 15.9981 23.9999C13.5071 23.9999 11.1831 22.6589 9.93412 20.4989L8.20312 21.5009C9.80912 24.2759 12.7951 25.9999 15.9981 25.9999C20.3961 25.9999 24.0601 22.8269 24.8391 18.6519L26.4171 20.6249L27.9791 19.3759L24.7791 15.3759C24.4351 14.9449 23.8091 14.8749 23.3791 15.2159L19.5791 18.2149Z" fill="#EC7D3F"/>
</svg>
