<svg width="20" height="20" viewBox="0 0 20 20" fill="none" xmlns="http://www.w3.org/2000/svg">
<path d="M17.9417 6.27411C17.8838 6.33226 17.815 6.3784 17.7392 6.40989C17.6634 6.44137 17.5821 6.45758 17.5 6.45758C17.418 6.45758 17.3367 6.44137 17.2609 6.40989C17.1851 6.3784 17.1163 6.33226 17.0584 6.27411L14.7917 4.00827V14.1658C14.7917 14.3315 14.7259 14.4905 14.6086 14.6077C14.4914 14.7249 14.3325 14.7908 14.1667 14.7908C14.0009 14.7908 13.842 14.7249 13.7248 14.6077C13.6075 14.4905 13.5417 14.3315 13.5417 14.1658V4.00827L11.275 6.27411C11.1566 6.38451 10.9999 6.44461 10.8379 6.44175C10.676 6.4389 10.5215 6.3733 10.407 6.25879C10.2925 6.14428 10.2269 5.98979 10.2241 5.82788C10.2212 5.66596 10.2813 5.50925 10.3917 5.39077L13.725 2.05744C13.8423 1.9406 14.0011 1.875 14.1667 1.875C14.3323 1.875 14.4911 1.9406 14.6084 2.05744L17.9417 5.39077C17.9998 5.44874 18.0458 5.51759 18.0772 5.59338C18.1087 5.66916 18.1248 5.7504 18.1248 5.83244C18.1248 5.91448 18.1087 5.99572 18.0772 6.0715C18.0458 6.14729 17.9998 6.21614 17.9417 6.27411ZM8.72503 13.7241L6.45837 15.9899V5.83244C6.45837 5.66668 6.39252 5.50771 6.27531 5.3905C6.1581 5.27329 5.99913 5.20744 5.83337 5.20744C5.66761 5.20744 5.50864 5.27329 5.39143 5.3905C5.27422 5.50771 5.20837 5.66668 5.20837 5.83244V15.9899L2.9417 13.7241C2.82322 13.6137 2.66652 13.5536 2.5046 13.5565C2.34268 13.5593 2.18819 13.6249 2.07368 13.7394C1.95917 13.8539 1.89358 14.0084 1.89072 14.1703C1.88787 14.3323 1.94797 14.489 2.05837 14.6074L5.3917 17.9408C5.509 18.0576 5.66781 18.1232 5.83337 18.1232C5.99893 18.1232 6.15774 18.0576 6.27503 17.9408L9.60837 14.6074C9.71877 14.489 9.77887 14.3323 9.77601 14.1703C9.77316 14.0084 9.70756 13.8539 9.59305 13.7394C9.47854 13.6249 9.32405 13.5593 9.16214 13.5565C9.00022 13.5536 8.84351 13.6137 8.72503 13.7241Z" fill="#EC7D3F"/>
</svg>
