<svg width="24" height="25" viewBox="0 0 24 25" fill="none" xmlns="http://www.w3.org/2000/svg">
<path d="M19.8256 8.49998C19.8256 8.04533 19.6449 7.60929 19.3235 7.2878C19.002 6.96631 18.5659 6.7857 18.1113 6.7857H15.8256V6.21428C15.8256 5.75962 15.645 5.32359 15.3235 5.0021C15.002 4.68061 14.566 4.5 14.1113 4.5H10.6827C10.2281 4.5 9.79206 4.68061 9.47057 5.0021C9.14908 5.32359 8.96847 5.75962 8.96847 6.21428V6.7857H6.68277C6.27934 6.79312 5.89146 6.9426 5.58739 7.20784C5.28333 7.47308 5.08257 7.83707 5.02044 8.23575C4.95832 8.63444 5.03882 9.04226 5.24777 9.38743C5.45672 9.73261 5.78073 9.99302 6.16277 10.1228L7.15133 19.0199C7.20803 19.4309 7.41185 19.8074 7.72498 20.0795C8.03811 20.3517 8.43931 20.5011 8.85418 20.4999H15.9399C16.3567 20.5038 16.7607 20.3557 17.0762 20.0833C17.3917 19.8109 17.5972 19.4329 17.6541 19.0199L18.6427 10.1228C18.9855 10.0111 19.2843 9.79409 19.4966 9.50274C19.709 9.21139 19.8241 8.86051 19.8256 8.49998ZM10.1113 6.21428C10.1113 6.06273 10.1715 5.91738 10.2787 5.81022C10.3859 5.70306 10.5312 5.64285 10.6827 5.64285H14.1113C14.2629 5.64285 14.4082 5.70306 14.5154 5.81022C14.6225 5.91738 14.6827 6.06273 14.6827 6.21428V6.7857H10.1113V6.21428ZM16.5056 18.8942C16.48 19.0263 16.4087 19.1451 16.3042 19.2298C16.1997 19.3144 16.0686 19.3595 15.9341 19.3571H8.85418C8.71969 19.3595 8.58865 19.3144 8.48413 19.2298C8.3796 19.1451 8.30829 19.0263 8.28276 18.8942L7.32276 10.2143H17.4713L16.5056 18.8942ZM18.1113 9.07141H6.68277C6.53121 9.07141 6.38587 9.0112 6.27871 8.90404C6.17154 8.79688 6.11134 8.65153 6.11134 8.49998C6.11134 8.34843 6.17154 8.20309 6.27871 8.09592C6.38587 7.98876 6.53121 7.92856 6.68277 7.92856H18.1113C18.2628 7.92856 18.4082 7.98876 18.5153 8.09592C18.6225 8.20309 18.6827 8.34843 18.6827 8.49998C18.6827 8.65153 18.6225 8.79688 18.5153 8.90404C18.4082 9.0112 18.2628 9.07141 18.1113 9.07141Z" fill="#9E9E9E"/>
<path d="M10.6808 17.6431C10.8324 17.6431 10.9777 17.5829 11.0849 17.4757C11.192 17.3686 11.2522 17.2232 11.2522 17.0717V11.9288C11.2522 11.7773 11.192 11.632 11.0849 11.5248C10.9777 11.4176 10.8324 11.3574 10.6808 11.3574C10.5292 11.3574 10.3839 11.4176 10.2767 11.5248C10.1696 11.632 10.1094 11.7773 10.1094 11.9288V17.0717C10.1094 17.2232 10.1696 17.3686 10.2767 17.4757C10.3839 17.5829 10.5292 17.6431 10.6808 17.6431ZM14.1094 17.6431C14.2609 17.6431 14.4063 17.5829 14.5134 17.4757C14.6206 17.3686 14.6808 17.2232 14.6808 17.0717V11.9288C14.6808 11.7773 14.6206 11.632 14.5134 11.5248C14.4063 11.4176 14.2609 11.3574 14.1094 11.3574C13.9578 11.3574 13.8125 11.4176 13.7053 11.5248C13.5981 11.632 13.5379 11.7773 13.5379 11.9288V17.0717C13.5379 17.2232 13.5981 17.3686 13.7053 17.4757C13.8125 17.5829 13.9578 17.6431 14.1094 17.6431Z" fill="#9E9E9E"/>
</svg>
