<svg width="20" height="20" viewBox="0 0 20 20" fill="none" xmlns="http://www.w3.org/2000/svg">
<path d="M15.6098 2H4.05425C3.65537 2 3.33203 2.2973 3.33203 2.66406V18.3359C3.33203 18.7027 3.65537 19 4.05425 19H15.6098C16.0087 19 16.332 18.7027 16.332 18.3359V2.66406C16.332 2.2973 16.0087 2 15.6098 2ZM11.0237 17.6719H8.64036V14.3516H11.0237V17.6719ZM14.8876 17.6719H12.4681V13.6875C12.4681 13.3207 12.1448 13.0234 11.7459 13.0234H7.91814C7.51926 13.0234 7.19592 13.3207 7.19592 13.6875V17.6719H4.77648V3.32812H14.8876V17.6719Z" fill="#EC7D3F"/>
<path d="M12.7207 9.42361H10.9151C10.5163 9.42361 10.1929 9.72091 10.1929 10.0877C10.1929 10.4544 10.5163 10.7517 10.9151 10.7517H12.7207C13.1196 10.7517 13.4429 10.4544 13.4429 10.0877C13.4429 9.72091 13.1196 9.42361 12.7207 9.42361ZM12.7207 5.60156H10.9151C10.5163 5.60156 10.1929 5.89886 10.1929 6.26563C10.1929 6.63239 10.5163 6.92969 10.9151 6.92969H12.7207C13.1196 6.92969 13.4429 6.63239 13.4429 6.26563C13.4429 5.89886 13.1196 5.60156 12.7207 5.60156ZM8.74848 9.42361H6.94293C6.54404 9.42361 6.2207 9.72091 6.2207 10.0877C6.2207 10.4544 6.54404 10.7517 6.94293 10.7517H8.74848C9.14736 10.7517 9.4707 10.4544 9.4707 10.0877C9.4707 9.72091 9.14736 9.42361 8.74848 9.42361ZM8.74848 5.60156H6.94293C6.54404 5.60156 6.2207 5.89886 6.2207 6.26563C6.2207 6.63239 6.54404 6.92969 6.94293 6.92969H8.74848C9.14736 6.92969 9.4707 6.63239 9.4707 6.26563C9.4707 5.89886 9.14736 5.60156 8.74848 5.60156Z" fill="#EC7D3F"/>
</svg>
