<svg width="74" height="74" viewBox="0 0 74 74" fill="none" xmlns="http://www.w3.org/2000/svg">
<path d="M46.6458 46.8827C45.8983 46.6024 45.1989 46.2079 44.5723 45.7133C44.0476 45.2976 43.6119 44.7807 43.291 44.1932C42.9702 43.6057 42.7708 42.9596 42.7047 42.2935C43.0795 42.0186 43.4343 41.7176 43.7667 41.3926C45.4138 39.7521 46.41 37.5697 46.5702 35.2505C47.4487 34.9998 48.222 34.4705 48.7735 33.7421C49.325 33.0138 49.6249 32.126 49.6279 31.2124V22.9186C49.6257 20.8192 48.7908 18.8065 47.3064 17.3219C45.822 15.8374 43.8093 15.0024 41.7099 15H33.179C31.8258 15.0017 30.5202 15.5 29.51 16.4004C28.4997 17.3007 27.855 18.5405 27.6981 19.8847C26.8899 20.0389 26.1606 20.47 25.6356 21.1037C25.1107 21.7374 24.823 22.5342 24.8219 23.3571V29.9279C24.8217 30.0995 24.8591 30.2691 24.9313 30.4248C25.0036 30.5804 25.109 30.7184 25.2402 30.8291C25.3714 30.9397 25.5252 31.0203 25.6908 31.0652C25.8564 31.1102 26.0299 31.1184 26.199 31.0892C26.5744 31.0251 26.9151 30.9415 27.2539 30.857V34.5502C27.2553 36.0554 27.6088 37.5394 28.2862 38.8836C28.9635 40.2278 29.9459 41.3949 31.1548 42.2917C31.0896 42.9581 30.8907 43.6045 30.5698 44.1923C30.249 44.78 29.8129 45.297 29.2876 45.7122C28.6598 46.2077 27.959 46.603 27.2101 46.8839C21.0238 49.3135 21.033 52.9805 21.0439 57.2275L21.0451 57.7811C21.0451 58.0937 21.1692 58.3935 21.3903 58.6145C21.6113 58.8355 21.9111 58.9597 22.2236 58.9597C22.5362 58.9597 22.836 58.8355 23.057 58.6145C23.278 58.3935 23.4022 58.0937 23.4022 57.7811L23.401 57.2218C23.3907 53.1577 23.3849 50.918 28.0699 49.0788C28.7575 48.8053 29.4142 48.4599 30.0291 48.0482C32.083 49.3826 34.4798 50.0927 36.9291 50.0927C39.3784 50.0927 41.7752 49.3826 43.8291 48.0482C44.4432 48.4595 45.0992 48.8046 45.786 49.0776C50.4739 50.9191 50.4681 53.1577 50.4578 57.2229L50.4566 57.7811C50.4566 58.0937 50.5808 58.3935 50.8018 58.6145C51.0228 58.8355 51.3226 58.9597 51.6352 58.9597C51.9478 58.9597 52.2475 58.8355 52.4686 58.6145C52.6896 58.3935 52.8138 58.0937 52.8138 57.7811L52.8149 57.2287C52.8258 52.9816 52.8351 49.3135 46.6458 46.8827ZM27.1791 28.4478V23.3571C27.1794 23.0451 27.3035 22.746 27.5241 22.5255C27.7448 22.3049 28.0439 22.181 28.3559 22.1808C28.7969 22.1804 29.2197 22.0051 29.5315 21.6932C29.8433 21.3814 30.0187 20.9587 30.0191 20.5177C30.0199 19.6798 30.3531 18.8765 30.9455 18.284C31.5379 17.6915 32.3412 17.3582 33.179 17.3572H41.7099C43.1843 17.359 44.5977 17.9455 45.6402 18.9881C46.6827 20.0307 47.2691 21.4442 47.2708 22.9186V31.2124C47.2708 31.4888 47.2093 31.7618 47.0906 32.0114C46.972 32.2611 46.7992 32.4812 46.5848 32.6557V29.2511C46.5835 29.0574 46.5344 28.867 46.442 28.6968C46.3496 28.5266 46.2166 28.3817 46.0548 28.2751C45.8922 28.1682 45.706 28.1025 45.5123 28.0837C45.3186 28.0648 45.1232 28.0934 44.943 28.1669C44.905 28.1842 40.8732 29.7599 34.0941 25.2435C33.8356 25.0719 33.5455 24.9537 33.2408 24.8956C32.936 24.8375 32.6228 24.8407 32.3193 24.9051C32.0193 24.968 31.7352 25.0908 31.4839 25.2662C31.2326 25.4417 31.0194 25.6661 30.857 25.926C29.9852 27.1927 28.6748 28.0912 27.1791 28.4478ZM31.8944 46.4013C32.5847 45.5616 33.0766 44.5769 33.3334 43.5206C35.6407 44.4511 38.2186 44.4523 40.5269 43.5241C40.7844 44.5788 41.2758 45.562 41.9647 46.401C40.4262 47.2619 38.6926 47.714 36.9296 47.714C35.1666 47.7141 33.433 47.2621 31.8944 46.4013ZM36.9236 41.8622C34.985 41.8601 33.1263 41.0891 31.7554 39.7183C30.3845 38.3475 29.6133 36.4888 29.611 34.5502V30.0092C30.9177 29.3995 32.0207 28.4257 32.7877 27.2047C38.1442 30.7727 42.1317 30.9937 44.2276 30.729L44.2472 34.5502C44.2471 35.5113 44.0575 36.463 43.6892 37.3509C43.321 38.2387 42.7814 39.0452 42.1012 39.7243C41.421 40.4034 40.6136 40.9418 39.7252 41.3086C38.8368 41.6755 37.8848 41.8636 36.9236 41.8622Z" fill="#D05D1D"/>
<path d="M19.1776 46.6988C19.4551 46.8397 19.7771 46.865 20.0732 46.7694C20.3694 46.6737 20.6157 46.4648 20.7584 46.1882C20.9011 45.9116 20.9286 45.5898 20.8349 45.293C20.7413 44.9962 20.534 44.7486 20.2583 44.604C19.9742 44.4602 19.7064 44.2862 19.4596 44.085C18.8154 43.5789 18.387 42.8473 18.2609 42.0379C18.4866 41.8623 18.702 41.6738 18.906 41.4734C19.5856 40.7983 20.1246 39.995 20.4916 39.1101C20.8586 38.2252 21.0463 37.2763 21.0439 36.3183L21.0249 32.5052C21.0213 32.3123 20.9705 32.1233 20.877 31.9546C20.7835 31.7859 20.6502 31.6426 20.4886 31.5372C19.9288 31.1627 19.3309 31.4962 18.7374 31.5637C17.6371 31.7076 15.2886 31.6132 11.9134 29.3642C11.6927 29.2132 11.4438 29.1081 11.1816 29.0552C10.9194 29.0024 10.6492 29.0029 10.3872 29.0567C10.1252 29.1105 9.87666 29.2166 9.65649 29.3684C9.43632 29.5203 9.24899 29.715 9.10566 29.9409C8.6489 30.6154 7.99158 31.1291 7.22672 31.4095L7.18931 31.4244C7.1496 31.4405 7.10932 31.4555 7.06904 31.4705V28.2742C7.06908 28.1361 7.12394 28.0036 7.22159 27.9058C7.31924 27.8081 7.45168 27.7531 7.58985 27.7529C7.99487 27.7525 8.38322 27.5915 8.66967 27.3052C8.95612 27.0189 9.11726 26.6306 9.11774 26.2255C9.11775 25.9692 9.16845 25.7155 9.26692 25.4788C9.36539 25.2422 9.50968 25.0274 9.6915 24.8467C9.8709 24.6674 10.0841 24.5255 10.3187 24.4291C10.5533 24.3327 10.8046 24.2837 11.0583 24.285H17.1923C17.6235 24.2816 18.0515 24.3597 18.4537 24.5152C18.7439 24.6305 19.0678 24.6259 19.3546 24.5026C19.6414 24.3793 19.8676 24.1473 19.9835 23.8575C20.0995 23.5677 20.0958 23.2437 19.9732 22.9566C19.8506 22.6695 19.6192 22.4428 19.3296 22.3261C18.6492 22.058 17.9236 21.9228 17.1923 21.9279H11.0581C10.0441 21.9276 9.06261 22.286 8.28729 22.9395C7.51196 23.5931 6.99274 24.4998 6.82145 25.4993C6.21519 25.6683 5.68086 26.031 5.29996 26.532C4.91905 27.033 4.7125 27.6449 4.71179 28.2742V32.9989C4.71176 33.1707 4.74927 33.3403 4.82168 33.496C4.8941 33.6517 4.99968 33.7897 5.13103 33.9004C5.26238 34.011 5.41633 34.0916 5.58209 34.1365C5.74784 34.1814 5.92141 34.1895 6.09064 34.1602C6.21667 34.1384 6.34212 34.1142 6.46643 34.0889V36.3183C6.46707 37.4205 6.71828 38.5082 7.20107 39.499C7.68387 40.4899 8.38561 41.358 9.25325 42.0378C9.1277 42.8499 8.69746 43.5835 8.0501 44.0896C7.62549 44.4241 7.15162 44.6908 6.64536 44.8803C1.98512 46.7103 1.99261 49.5842 2.00067 52.6274L2.00124 53.0244C2.00124 53.337 2.12542 53.6368 2.34644 53.8578C2.56747 54.0788 2.86725 54.203 3.17983 54.203C3.4924 54.203 3.79218 54.0788 4.01321 53.8578C4.23423 53.6368 4.35841 53.337 4.35841 53.0244L4.35783 52.6216C4.35034 49.7546 4.34689 48.3159 7.5057 47.0752C7.96446 46.8925 8.40548 46.6682 8.82319 46.4048C10.2991 47.3331 12.0071 47.8259 13.7506 47.8268C15.4942 47.8276 17.2026 47.3364 18.6794 46.4095C18.8402 46.5089 19.0019 46.6081 19.1776 46.6988ZM10.6431 44.7375C10.9711 44.2686 11.2226 43.7506 11.3882 43.2029C12.9207 43.7376 14.5891 43.7376 16.1214 43.2026C16.2863 43.7509 16.5378 44.2693 16.8665 44.7382C15.8973 45.2108 14.8331 45.4563 13.7548 45.4562C12.6764 45.4561 11.6123 45.2103 10.6431 44.7375ZM13.7508 41.2467C12.4443 41.2451 11.1918 40.7253 10.2681 39.8013C9.34442 38.8774 8.8249 37.6248 8.82354 36.3183V33.2579C9.63304 32.8358 10.3382 32.2386 10.8878 31.5096C13.1452 33.1549 15.8826 34.009 18.6751 33.9393L18.6866 36.3183C18.6865 36.9661 18.5586 37.6075 18.3104 38.2058C18.0622 38.8042 17.6985 39.3478 17.2401 39.8055C16.7817 40.2632 16.2376 40.6261 15.6389 40.8733C15.0401 41.1206 14.3986 41.2475 13.7508 41.2467Z" fill="#D05D1D"/>
<path d="M67.727 44.879C67.2218 44.6901 66.7489 44.4242 66.3252 44.0905C65.6786 43.5842 65.2485 42.8512 65.1219 42.0399C65.3486 41.8636 65.5649 41.6744 65.7698 41.4732C66.9543 40.2965 67.6955 38.7465 67.868 37.0858C68.5202 36.853 69.0836 36.4229 69.4803 35.8553C69.8769 35.2877 70.0869 34.6108 70.0813 33.9183V27.9599C70.0811 26.3621 69.4471 24.8297 68.3184 23.6988C67.1896 22.568 65.6584 21.931 64.0607 21.9277H57.9266C56.7788 21.9294 55.6783 22.3854 54.8657 23.1961C54.4437 23.6267 54.1175 24.1417 53.9087 24.7073C53.8543 24.8532 53.8294 25.0085 53.8354 25.1642C53.8414 25.3198 53.8782 25.4727 53.9436 25.614C54.0091 25.7553 54.1019 25.8823 54.2167 25.9875C54.3315 26.0928 54.4661 26.1742 54.6125 26.2272C54.759 26.2801 54.9145 26.3035 55.0701 26.2959C55.2257 26.2884 55.3782 26.2501 55.5189 26.1833C55.6596 26.1164 55.7856 26.0224 55.8897 25.9065C55.9938 25.7907 56.0739 25.6553 56.1254 25.5084C56.2167 25.2646 56.3576 25.0424 56.5392 24.8558C56.9086 24.4905 57.4071 24.2854 57.9267 24.2849H64.0607C65.0335 24.2875 65.9656 24.6759 66.6524 25.3648C67.3392 26.0538 67.7247 26.9871 67.7242 27.9599V31.9157C67.6325 31.7662 67.5101 31.6379 67.3651 31.5394C67.2033 31.4319 67.0178 31.3654 66.8247 31.3456C66.6315 31.3257 66.4364 31.3531 66.2561 31.4254C66.1451 31.4703 63.4662 32.4832 58.7674 29.3537C58.5459 29.205 58.2968 29.1023 58.0348 29.0515C57.7729 29.0007 57.5034 29.0028 57.2423 29.0579C56.9847 29.111 56.7403 29.2155 56.5238 29.3649C56.3073 29.5144 56.1231 29.7059 55.9821 29.928C55.5854 30.5123 55.0349 30.9756 54.3914 31.2666C54.2901 31.3173 54.1889 31.369 54.0784 31.4116C53.8562 31.4981 53.6654 31.6499 53.5312 31.8469C53.3969 32.0439 53.3255 32.2769 53.3262 32.5154L53.3302 36.3181C53.3309 37.4203 53.5821 38.5079 54.0648 39.4987C54.5475 40.4895 55.2492 41.3576 56.1167 42.0374C55.9945 42.8487 55.5641 43.5817 54.9151 44.0836C54.5035 44.4096 54.0448 44.6712 53.5547 44.8594C53.2651 44.9761 53.0337 45.2028 52.9111 45.4899C52.7885 45.777 52.7848 46.101 52.9008 46.3908C53.0167 46.6806 53.2429 46.9126 53.5297 47.0359C53.8165 47.1592 54.1404 47.1638 54.4306 47.0485C54.8672 46.8711 55.2872 46.6554 55.6857 46.4038C57.163 47.3332 58.8728 47.8264 60.6181 47.8266C62.3635 47.8267 64.0734 47.3338 65.5508 46.4047C65.968 46.6677 66.4084 46.8917 66.8667 47.0738C70.0272 48.3157 70.0237 49.7544 70.0162 52.6214L70.0157 53.0242C70.0157 53.3368 70.1398 53.6366 70.3609 53.8576C70.5819 54.0786 70.8817 54.2028 71.1943 54.2028C71.5068 54.2028 71.8066 54.0786 72.0276 53.8576C72.2487 53.6366 72.3728 53.3368 72.3728 53.0242L72.3734 52.6272C72.3815 49.5841 72.389 46.7101 67.727 44.879ZM57.5069 44.7376C57.8361 44.2693 58.0881 43.7512 58.2534 43.2031C59.7861 43.7377 61.4546 43.7373 62.987 43.2019C63.1527 43.7499 63.4041 44.2681 63.7319 44.7374C62.7626 45.2105 61.6981 45.4565 60.6194 45.4565C59.5408 45.4566 58.4763 45.2107 57.5069 44.7376ZM60.6147 41.2466C59.3082 41.2449 58.0558 40.7251 57.132 39.8012C56.2083 38.8772 55.6888 37.6246 55.6875 36.3182L55.6857 33.2532C56.4966 32.8327 57.2031 32.2361 57.7534 31.5072C60.0126 33.1449 62.746 33.9975 65.5356 33.9345L65.5506 36.3182C65.5504 36.9659 65.4225 37.6073 65.1743 38.2057C64.9261 38.8041 64.5624 39.3476 64.104 39.8053C63.6456 40.263 63.1015 40.6259 62.5028 40.8732C61.9041 41.1205 61.2625 41.2474 60.6147 41.2466Z" fill="#D05D1D"/>
</svg>
