<svg width="74" height="75" viewBox="0 0 74 75" fill="none" xmlns="http://www.w3.org/2000/svg">
<path d="M70 30.7056C70 31.1159 69.8366 31.5094 69.5457 31.7995C69.2548 32.0896 68.8603 32.2526 68.449 32.2526C68.0376 32.2526 67.6431 32.0896 67.3522 31.7995C67.0614 31.5094 66.898 31.1159 66.898 30.7056C66.898 17.9618 56.503 7.59396 43.7259 7.59396C43.3145 7.59396 42.92 7.43098 42.6291 7.14086C42.3382 6.85075 42.1748 6.45727 42.1748 6.04698C42.1748 5.6367 42.3382 5.24322 42.6291 4.9531C42.92 4.66298 43.3145 4.5 43.7259 4.5C58.2134 4.5 70 16.2558 70 30.7056ZM43.7259 15.7771C47.6941 15.7816 51.4984 17.3559 54.3044 20.1545C57.1103 22.9531 58.6887 26.7476 58.6932 30.7055C58.6932 31.1157 58.8566 31.5092 59.1475 31.7993C59.4383 32.0895 59.8329 32.2524 60.2442 32.2524C60.6556 32.2524 61.0501 32.0895 61.3409 31.7993C61.6318 31.5092 61.7952 31.1157 61.7952 30.7055C61.7952 20.7679 53.6892 12.6831 43.7259 12.6831C43.3145 12.6831 42.92 12.8461 42.6291 13.1362C42.3382 13.4264 42.1748 13.8198 42.1748 14.2301C42.1748 14.6404 42.3382 15.0339 42.6291 15.324C42.92 15.6141 43.3145 15.7771 43.7259 15.7771ZM43.7259 23.9602C45.519 23.9621 47.2383 24.6733 48.5063 25.9379C49.7744 27.2024 50.4877 28.9171 50.4897 30.7056C50.4897 30.9087 50.5298 31.1099 50.6078 31.2976C50.6857 31.4853 50.8 31.6558 50.944 31.7995C51.088 31.9431 51.259 32.0571 51.4472 32.1348C51.6354 32.2126 51.8371 32.2526 52.0407 32.2526C52.2444 32.2526 52.4461 32.2126 52.6343 32.1348C52.8225 32.0571 52.9935 31.9431 53.1375 31.7995C53.2815 31.6558 53.3957 31.4853 53.4737 31.2976C53.5516 31.1099 53.5918 30.9087 53.5918 30.7056C53.5887 28.0969 52.5484 25.596 50.699 23.7514C48.8495 21.9068 46.342 20.8692 43.7265 20.8663C43.3151 20.8663 42.9206 21.0293 42.6298 21.3194C42.3389 21.6095 42.1755 22.003 42.1755 22.4133C42.1755 22.8235 42.3389 23.217 42.6298 23.5071C42.9206 23.7973 43.3151 23.9602 43.7265 23.9602H43.7259ZM66.9582 55.3396C67.195 56.9858 66.6391 58.7725 65.4709 60.1186L58.8624 67.734C57.6903 69.0846 55.6059 70.5 52.0204 70.5C50.9631 70.4929 49.9088 70.3857 48.8717 70.1799C41.9707 68.8574 32.3768 63.3315 23.2075 55.3985C14.0467 47.4725 7.20257 38.7857 4.89969 32.1612C3.04377 26.8231 4.40544 23.6846 5.87438 21.9918L12.4829 14.3763C13.6365 13.0471 15.3757 12.2211 17.0216 12.2211C18.3249 12.2211 19.4811 12.7266 20.2774 13.6443L29.4488 24.2132C31.3832 26.4424 31.406 29.53 29.5042 31.7217L26.1997 35.5299C26.0207 35.7361 25.7892 36.0971 25.8454 36.8423C26.0104 39.021 28.4574 42.474 31.9346 45.4356C36.3162 49.1679 40.964 50.9567 42.2946 49.4239L45.5992 45.6158C47.5067 43.4175 50.5754 42.9979 53.0613 44.5957L65.0831 52.3221C66.1071 52.9802 66.7731 54.0519 66.9582 55.3396ZM63.8877 55.7789C63.8304 55.3808 63.668 55.0927 63.4029 54.9227L51.3816 47.1967C50.4065 46.57 48.9658 46.4644 47.9451 47.6408L44.6407 51.4489C43.586 52.6642 41.4999 53.8221 37.5448 52.4367C35.1706 51.6048 32.463 49.954 29.9206 47.7886C28.3264 46.431 23.0985 41.6461 22.7526 37.0758C22.6479 35.6915 23.0289 34.4572 23.8544 33.5058L27.1592 29.6976C28.1768 28.5245 27.8646 27.1153 27.1038 26.2386L17.932 15.6689C17.7282 15.4341 17.422 15.3151 17.0216 15.3151C16.2618 15.3151 15.4009 15.7413 14.8283 16.4011L8.21978 24.0166C6.86096 25.5826 6.7299 27.9817 7.8306 31.1476C9.96326 37.2827 16.4717 45.4747 25.2408 53.0614C34.0158 60.6536 43.0689 65.9172 49.4576 67.1415C52.7665 67.7758 55.1424 67.2938 56.5174 65.7093L63.1259 58.0937C63.696 57.436 63.9954 56.5274 63.8877 55.7789Z" fill="#D05D1D"/>
</svg>
