<svg width="24" height="24" viewBox="0 0 24 24" fill="none" xmlns="http://www.w3.org/2000/svg">
<path d="M17.4499 16.573C16.6981 16.573 16.0182 16.8806 15.5247 17.3736L9.14956 12.7366C9.23167 12.4782 9.278 12.2036 9.278 11.9175C9.278 11.6308 9.23145 11.3557 9.1491 11.0967L15.4254 6.52273C15.9249 7.07608 16.6471 7.42558 17.4499 7.42558C18.9539 7.42558 20.177 6.20147 20.177 4.69653C20.177 3.192 18.9537 1.96836 17.4499 1.96836C15.9452 1.96836 14.7211 3.19216 14.7211 4.69653C14.7211 4.93082 14.7526 5.15695 14.8084 5.37296L8.47436 9.98894C7.98088 9.496 7.30097 9.18841 6.54896 9.18841C5.04498 9.18841 3.82187 10.4125 3.82187 11.9172C3.82187 13.4214 5.04525 14.6448 6.54896 14.6448C7.30124 14.6448 7.9812 14.3371 8.47507 13.8437L14.8502 18.4805C14.7678 18.7396 14.7211 19.0152 14.7211 19.3023C14.7211 20.8069 15.9452 22.0304 17.4499 22.0304C18.9539 22.0304 20.177 20.8066 20.177 19.3023C20.1772 17.7975 18.9539 16.573 17.4499 16.573ZM17.4499 3.26088C18.2409 3.26088 18.8845 3.90498 18.8845 4.69653C18.8845 5.48879 18.2409 6.13306 17.4499 6.13306C16.658 6.13306 16.0136 5.48867 16.0136 4.69653C16.0136 3.90509 16.658 3.26088 17.4499 3.26088ZM6.54917 13.3524C5.75816 13.3524 5.11462 12.7087 5.11462 11.9175C5.11462 11.1254 5.75825 10.4811 6.54917 10.4811C7.34109 10.4811 7.98548 11.1255 7.98548 11.9175C7.98548 12.7086 7.34117 13.3524 6.54917 13.3524ZM17.4499 20.7383C16.658 20.7383 16.0136 20.0941 16.0136 19.3027C16.0136 18.5103 16.6581 17.8655 17.4499 17.8655C18.2408 17.8655 18.8845 18.5102 18.8845 19.3027C18.8847 20.0942 18.2409 20.7383 17.4499 20.7383Z" fill="#494949" stroke="#494949" stroke-width="0.2"/>
</svg>
