<svg width="24" height="24" viewBox="0 0 24 24" fill="none" xmlns="http://www.w3.org/2000/svg">
<path d="M11.4658 22.7642C11.5353 22.8388 11.6184 22.8982 11.7102 22.9386C11.8019 22.9791 11.9004 23 12 23C12.0996 23 12.1981 22.9791 12.2898 22.9386C12.3816 22.8982 12.4647 22.8388 12.5342 22.7642L22.1312 12.5808C24.6229 9.93783 24.6229 5.63549 22.1312 2.99143C20.9208 1.70712 19.3113 1.00001 17.5977 1.00001C15.8842 1.00001 14.2757 1.70712 13.0653 2.99039L12 4.12175L10.9347 2.99143C10.3443 2.35955 9.63914 1.85782 8.86073 1.5158C8.08231 1.17379 7.2464 0.998411 6.40225 1.00001C5.55794 0.99833 4.72185 1.17366 3.94327 1.51568C3.16468 1.85769 2.45934 2.35947 1.86883 2.99143C-0.622945 5.63549 -0.622945 9.93783 1.86883 12.5798L11.4658 22.7642Z" fill="#EC7D3F"/>
</svg>
