<svg width="24" height="24" viewBox="0 0 24 24" fill="none" xmlns="http://www.w3.org/2000/svg">
<path d="M17.4499 16.623C16.6967 16.623 16.017 16.9375 15.5301 17.4393L9.09078 12.7556C9.17837 12.4919 9.228 12.2108 9.228 11.9175C9.228 11.6237 9.17815 11.3421 9.09034 11.0777L15.4327 6.45558C15.924 7.0184 16.6458 7.37558 17.4499 7.37558C18.9263 7.37558 20.127 6.17389 20.127 4.69653C20.127 3.21959 18.926 2.01836 17.4499 2.01836C15.9728 2.01836 14.7711 3.21979 14.7711 4.69653C14.7711 4.93815 14.8052 5.17112 14.8655 5.39323L8.46899 10.0547C7.98213 9.55292 7.30235 9.23841 6.54896 9.23841C5.07262 9.23841 3.87187 10.4401 3.87187 11.9172C3.87187 13.3937 5.07287 14.5948 6.54896 14.5948C7.30259 14.5948 7.9824 14.2802 8.46967 13.778L14.909 18.4614C14.8212 18.7259 14.7711 19.008 14.7711 19.3023C14.7711 20.7792 15.9728 21.9804 17.4499 21.9804C18.9263 21.9804 20.127 20.779 20.127 19.3023C20.1272 17.8251 18.9263 16.623 17.4499 16.623ZM17.4499 3.21088C18.2686 3.21088 18.9345 3.8774 18.9345 4.69653C18.9345 5.51634 18.2685 6.18306 17.4499 6.18306C16.6304 6.18306 15.9636 5.51628 15.9636 4.69653C15.9636 3.87746 16.6304 3.21088 17.4499 3.21088ZM6.54917 13.4024C5.73053 13.4024 5.06462 12.7363 5.06462 11.9175C5.06462 11.0979 5.73058 10.4311 6.54917 10.4311C7.3687 10.4311 8.03548 11.0979 8.03548 11.9175C8.03548 12.7363 7.36874 13.4024 6.54917 13.4024ZM17.4499 20.7883C16.6304 20.7883 15.9636 20.1218 15.9636 19.3027C15.9636 18.4827 16.6304 17.8155 17.4499 17.8155C18.2685 17.8155 18.9345 18.4826 18.9345 19.3027C18.9347 20.1218 18.2686 20.7883 17.4499 20.7883Z" fill="#F4F4F1" stroke="#F4F4F1" stroke-width="0.1"/>
</svg>
