<svg width="74" height="75" viewBox="0 0 74 75" fill="none" xmlns="http://www.w3.org/2000/svg">
<path d="M4.5216 45.1349L8.15457 47.8976C8.36536 48.0583 8.61635 48.1374 8.87004 48.123C9.12373 48.1087 9.36653 48.0017 9.56218 47.818C10.553 46.8801 11.4962 45.8793 12.3872 44.8205L15.31 46.1628C15.4717 46.6348 15.7178 47.0637 16.0328 47.4226C16.6312 48.1022 17.4416 48.4883 18.2886 48.4977C18.3471 49.5144 18.7276 50.4729 19.3602 51.1966C20.0416 51.9663 20.9591 52.4084 21.9207 52.4311C21.9405 53.5411 22.3443 54.5979 23.0449 55.3735C23.7456 56.1491 24.687 56.5814 25.6662 56.5772C25.7029 56.5772 25.7376 56.5664 25.7741 56.5652C25.8342 57.5786 26.2144 58.5335 26.8448 59.255C27.5504 60.0523 28.5065 60.5 29.5026 60.5C30.4988 60.5 31.4543 60.0523 32.1599 59.255L32.9746 58.3312L35.7928 59.2759C36.2664 59.4351 36.7577 59.516 37.2517 59.516C38.064 59.5161 38.865 59.2997 39.5901 58.8845C40.3152 58.4692 40.9441 57.8666 41.4262 57.1253L41.8736 56.4345L41.8837 56.4375C43.0072 56.774 44.199 56.6561 45.2541 56.104C46.3092 55.5519 47.1617 54.6002 47.6649 53.4125L47.6798 53.3775L48.0165 53.487C48.5068 53.647 49.0146 53.7283 49.5248 53.7284C50.5956 53.7277 51.6432 53.375 52.5407 52.713C53.4383 52.0511 54.1474 51.1082 54.5821 49.9987L54.7268 49.6265C55.5048 49.5812 56.256 49.2895 56.8952 48.7846C57.5345 48.2797 58.0361 47.5819 58.3433 46.7701C58.409 46.5781 58.4632 46.3813 58.5056 46.181L61.6478 44.8135C62.498 45.8571 63.394 46.8516 64.3323 47.7932C64.5231 47.9827 64.7626 48.0974 65.0154 48.1204C65.2682 48.1434 65.5208 48.0736 65.7359 47.9211L69.4471 45.2824C69.7121 45.0941 69.9002 44.7942 69.9701 44.4487C70.0401 44.1031 69.9861 43.7402 69.82 43.4398C69.654 43.1393 69.3894 42.926 69.0847 42.8467C68.7799 42.7674 68.4598 42.8286 68.1949 43.0169L65.2369 45.1206C59.9967 39.6809 56.3969 32.5114 54.9463 24.6255L67.0589 15.9655C67.3229 15.7763 67.5099 15.4761 67.5788 15.1307C67.6477 14.7853 67.5928 14.423 67.4262 14.1235C67.2597 13.8239 66.9951 13.6116 66.6905 13.5332C66.3859 13.4548 66.0664 13.5166 65.802 13.7052L53.0328 22.835C52.8462 22.9681 52.6964 23.1579 52.6003 23.3829C52.5043 23.6079 52.4659 23.8589 52.4896 24.1074C53.4841 30.944 56.0758 37.3537 59.9951 42.6699L58.4249 43.3533C58.2406 42.7458 57.9487 42.1875 57.5671 41.7127C57.1856 41.2379 56.7224 40.8566 56.206 40.5922L45.7905 35.32C45.1233 34.9816 44.5376 34.4663 44.0829 33.8174C43.6282 33.1685 43.3178 32.4051 43.1779 31.5916L42.6889 28.7422L43.1865 28.273C43.3055 28.1608 43.4038 28.023 43.4758 27.8677C43.5478 27.7124 43.5921 27.5425 43.6062 27.3678C43.6203 27.193 43.6039 27.0168 43.558 26.8493C43.512 26.6817 43.4374 26.5261 43.3384 26.3912C43.2394 26.2563 43.118 26.1449 42.981 26.0632C42.844 25.9816 42.6942 25.9313 42.5401 25.9153C42.386 25.8993 42.2306 25.9179 42.0828 25.97C41.935 26.0221 41.7977 26.1067 41.6788 26.2189L39.4615 28.3095C38.9897 28.7437 38.6129 29.2958 38.3606 29.9225C37.5537 31.5668 36.5073 33.0444 35.2657 34.2929C35.135 34.4297 34.9705 34.5177 34.7943 34.5451C34.6181 34.5726 34.4388 34.5381 34.2804 34.4464C34.122 34.3546 33.9923 34.21 33.9086 34.0321C33.825 33.8542 33.7915 33.6514 33.8126 33.4512L34.4825 27.165C34.5458 26.5629 34.8122 26.0119 35.226 25.6277L40.3615 20.8462C40.6656 20.5638 41.0341 20.3849 41.4242 20.3304C41.8143 20.2759 42.2101 20.348 42.5656 20.5382L50.0116 24.5315C50.2943 24.6831 50.6185 24.7012 50.9129 24.5817C51.2073 24.4623 51.4478 24.2152 51.5815 23.8947C51.7152 23.5742 51.7311 23.2066 51.6258 22.8728C51.5205 22.5389 51.3025 22.2662 51.0198 22.1147L43.5732 18.1213C42.8133 17.7173 41.9682 17.5649 41.1353 17.6817C40.3023 17.7985 39.5154 18.1798 38.8653 18.7817L37.7466 19.8231L36.793 19.4355C35.6926 18.9903 34.5238 18.8042 33.3579 18.8883C32.1919 18.9724 31.0533 19.3251 30.0116 19.9249L23.1364 23.8986C22.9986 23.9783 22.8759 24.088 22.7755 24.2214C22.675 24.3548 22.5987 24.5094 22.551 24.6763C22.5032 24.8431 22.4849 25.019 22.4971 25.1939C22.5092 25.3688 22.5517 25.5393 22.622 25.6956C22.6922 25.8519 22.789 25.9909 22.9067 26.1048C23.0244 26.2187 23.1607 26.3053 23.3078 26.3594C23.455 26.4136 23.6101 26.4344 23.7644 26.4205C23.9186 26.4067 24.069 26.3586 24.2068 26.2789L31.082 22.3052C32.478 21.5149 34.0847 21.3477 35.5843 21.8365L33.7297 23.5632C32.8464 24.3829 32.2776 25.5588 32.1426 26.844L31.4727 33.1302C31.4181 33.6434 31.46 34.164 31.5956 34.6575C31.7313 35.1511 31.9576 35.6065 32.2598 35.9936C32.5619 36.3808 32.933 36.691 33.3486 36.9037C33.7641 37.1165 34.2147 37.2269 34.6706 37.2279C34.7765 37.2279 34.883 37.2214 34.9895 37.2096C35.694 37.1346 36.3565 36.7963 36.873 36.2478C38.351 34.7631 39.5833 32.9909 40.5117 31.0148C40.5478 30.9334 40.5901 30.8558 40.6381 30.7828L40.8645 32.1031C41.0768 33.3376 41.548 34.496 42.2382 35.4806C42.9283 36.4652 43.8173 37.2471 44.83 37.7603L55.245 43.0325C55.6656 43.2455 55.9991 43.6318 56.178 44.1131C56.3569 44.5943 56.3679 45.1347 56.2086 45.6248C56.0494 46.1149 55.7319 46.5181 55.3204 46.7528C54.9089 46.9875 54.4341 47.0361 53.9922 46.8888L43.8662 43.5102C43.7177 43.4607 43.5622 43.4448 43.4083 43.4634C43.2545 43.482 43.1054 43.5349 42.9695 43.6189C42.8337 43.7028 42.7138 43.8163 42.6166 43.9529C42.5195 44.0894 42.447 44.2463 42.4033 44.4146C42.3596 44.5829 42.3456 44.7593 42.362 44.9337C42.3785 45.1081 42.4251 45.2772 42.4991 45.4312C42.5732 45.5852 42.6733 45.7212 42.7937 45.8314C42.9141 45.9415 43.0525 46.0237 43.2009 46.0732L52.3331 49.1374C51.9944 49.8657 51.4453 50.44 50.7778 50.7643C50.1103 51.0885 49.3649 51.1431 48.6662 50.9188L40.4617 48.2513C40.3129 48.203 40.1573 48.1884 40.0036 48.2082C39.8498 48.2281 39.7011 48.2821 39.5658 48.3672C39.4305 48.4523 39.3113 48.5667 39.215 48.704C39.1187 48.8413 39.0472 48.9988 39.0046 49.1674C38.9619 49.3361 38.949 49.5126 38.9666 49.6869C38.9841 49.8612 39.0317 50.0298 39.1068 50.1832C39.1818 50.3367 39.2827 50.4718 39.4038 50.581C39.5249 50.6902 39.6638 50.7712 39.8125 50.8196L45.3561 52.6231C45.0506 53.1417 44.6098 53.5391 44.0953 53.7597C43.5809 53.9804 43.0185 54.0132 42.4868 53.8537L37.5134 52.362C37.3183 52.3066 37.1139 52.3094 36.92 52.3702C36.7261 52.431 36.5495 52.5476 36.4072 52.7088C36.4073 52.6943 36.4108 52.6806 36.4108 52.6661C36.4127 52.1067 36.3166 51.5524 36.1283 51.0354C35.9399 50.5184 35.6629 50.0489 35.3134 49.6541C34.8682 49.1697 34.3263 48.8145 33.7338 48.619C33.1413 48.4234 32.5159 48.3933 31.911 48.5313C31.8085 47.9605 31.6029 47.42 31.3071 46.9437C31.0113 46.4674 30.6318 46.0658 30.1924 45.7639C29.753 45.4621 29.2633 45.2667 28.7541 45.19C28.2448 45.1132 27.7271 45.1569 27.2334 45.3181C27.0075 44.2802 26.4413 43.3789 25.65 42.7976C24.8588 42.2164 23.9019 41.9988 22.9741 42.1892C22.834 41.5517 22.5448 40.9688 22.1368 40.5022C21.5251 39.8102 20.6962 39.4216 19.8321 39.4216C18.968 39.4216 18.1391 39.8102 17.5273 40.5022L16.0334 42.1961C15.7531 42.5164 15.5274 42.8927 15.3676 43.3059L14.0613 42.706C18.0231 37.4228 20.5227 30.932 21.2472 24.0461C21.2602 23.807 21.2162 23.5684 21.1198 23.3553C21.0234 23.1423 20.8781 22.9625 20.6993 22.835L7.92952 13.7053C7.66518 13.5167 7.34562 13.4548 7.04107 13.5333C6.73651 13.6117 6.47188 13.824 6.30531 14.1235C6.13875 14.4231 6.08388 14.7854 6.15277 15.1308C6.22166 15.4762 6.40866 15.7764 6.67269 15.9655L18.8169 24.649C17.667 32.5986 14.097 39.8402 8.72717 45.1153L5.83485 42.9164C5.70637 42.8186 5.56218 42.7505 5.41048 42.7159C5.25879 42.6814 5.10258 42.681 4.95076 42.7149C4.79895 42.7487 4.6545 42.8162 4.52567 42.9133C4.39684 43.0105 4.28615 43.1355 4.19992 43.2812C4.1137 43.4268 4.05362 43.5903 4.02312 43.7623C3.99262 43.9343 3.99229 44.1114 4.02217 44.2836C4.05204 44.4557 4.11152 44.6195 4.19722 44.7656C4.28291 44.9116 4.39313 45.0371 4.5216 45.1349ZM35.3135 55.6793C35.6826 55.2587 35.9692 54.7544 36.1545 54.1995C36.2232 54.3801 36.3268 54.5409 36.4576 54.6701C36.5884 54.7993 36.7432 54.8936 36.9104 54.9459L39.4105 55.6958C39.0589 56.1715 38.5928 56.521 38.0691 56.7016C37.5454 56.8822 36.9866 56.8861 36.461 56.713L34.8717 56.1804L35.3135 55.6793ZM31.6649 51.5438C31.933 51.2571 32.2875 51.0975 32.6559 51.0975C33.0243 51.0975 33.3789 51.2571 33.6469 51.5438C33.9075 51.8428 34.0537 52.2463 34.0537 52.6667C34.0537 53.0872 33.9075 53.4907 33.6469 53.7897L30.4933 57.3654C30.2305 57.6633 29.8741 57.8307 29.5025 57.8307C29.1308 57.8306 28.7744 57.6632 28.5117 57.3653C28.2489 57.0673 28.1013 56.6632 28.1013 56.2418C28.1014 55.8205 28.249 55.4164 28.5118 55.1184L31.6649 51.5438ZM27.2482 48.2787C27.5109 47.9807 27.8672 47.8132 28.2388 47.8131C28.6104 47.813 28.9669 47.9803 29.2297 48.2782C29.4925 48.576 29.6402 48.9801 29.6403 49.4014C29.6404 49.8228 29.4928 50.2269 29.2301 50.5249L26.656 53.4426C26.3883 53.7292 26.0341 53.8889 25.6659 53.8889C25.2977 53.8889 24.9435 53.7292 24.6758 53.4426C24.4152 53.1435 24.2684 52.7401 24.2684 52.3196C24.2684 51.8992 24.4146 51.4957 24.6753 51.1966L27.2482 48.2787ZM22.6179 45.255C22.7481 45.1074 22.9026 44.9904 23.0726 44.9105C23.2426 44.8307 23.4249 44.7896 23.6089 44.7896C23.7929 44.7896 23.9752 44.8307 24.1452 44.9105C24.3152 44.9904 24.4697 45.1074 24.5999 45.255C24.73 45.4025 24.8332 45.5777 24.9037 45.7705C24.9741 45.9633 25.0103 46.1699 25.0103 46.3786C25.0103 46.5873 24.9741 46.7939 24.9037 46.9867C24.8332 47.1795 24.73 47.3546 24.5999 47.5022L23.0087 49.3071C22.7458 49.6045 22.3895 49.7714 22.0181 49.7711C21.6467 49.7708 21.2906 49.6034 21.0281 49.3056C20.7655 49.0078 20.6179 48.604 20.6178 48.1829C20.6177 47.7618 20.765 47.3579 21.0273 47.0598L22.6179 45.255ZM17.6999 44.0857L19.1939 42.3918C19.3635 42.2018 19.5925 42.0955 19.831 42.0963C20.0694 42.0971 20.2979 42.2049 20.4665 42.3961C20.6351 42.5872 20.7301 42.8463 20.7309 43.1167C20.7316 43.387 20.6379 43.6467 20.4703 43.839L18.9757 45.5329C18.8034 45.7177 18.5753 45.8207 18.3381 45.8207C18.101 45.8207 17.8728 45.7177 17.7005 45.5329C17.5327 45.3401 17.4381 45.0802 17.4381 44.8093C17.4381 44.5385 17.5322 44.2785 17.6999 44.0857Z" fill="#D05D1D"/>
</svg>
