<svg width="74" height="75" viewBox="0 0 74 75" fill="none" xmlns="http://www.w3.org/2000/svg">
<path d="M66.6432 61.5445C66.8369 59.0363 66.1039 56.5442 64.5831 54.5404C65.2556 53.9217 65.7349 53.1217 65.9631 52.2368C66.7135 49.4549 65.1505 46.0717 64.4036 44.6819C64.977 43.7758 65.3641 42.7645 65.5421 41.707C65.7202 40.6495 65.6857 39.5672 65.4406 38.5232C64.9771 36.9409 64.0276 35.5445 62.7266 34.5317C63.5318 33.2754 63.9804 31.824 64.0246 30.3324C64.0688 28.8409 63.7069 27.3654 62.9775 26.0637L62.897 25.9416C59.3461 21.2367 51.4509 22.3953 45.5211 24.16C45.5551 18.9233 44.5607 13.7308 42.5943 8.87713C42.0434 7.58144 41.1242 6.47599 39.9509 5.6979C38.7775 4.9198 37.4015 4.50331 35.9935 4.50007C35.2292 4.49654 34.4694 4.61863 33.7446 4.86147C32.1975 5.37713 30.8708 6.40174 29.9808 7.76819C29.0908 9.13465 28.69 10.7623 28.8439 12.3858C29.5773 21.4988 25.933 26.5939 22.8386 29.2405C22.605 28.5399 22.1574 27.9302 21.559 27.4973C20.9605 27.0645 20.2413 26.8303 19.5028 26.8278H10.5357C9.5983 26.8289 8.69957 27.2017 8.03672 27.8646C7.37386 28.5274 7.00102 29.4261 7 30.3636V66.9643C7.00102 67.9017 7.37386 68.8004 8.03672 69.4633C8.69957 70.1261 9.5983 70.499 10.5357 70.5H19.5027C20.4402 70.499 21.3389 70.1261 22.0017 69.4633C22.6646 68.8004 23.0374 67.9017 23.0385 66.9643V66.0142C32.2857 67.4117 41.612 68.2238 50.9616 68.4456C56.1949 68.4456 60.6434 67.98 62.8301 66.6765C63.8155 66.1692 64.6716 65.4429 65.3326 64.5532C65.9936 63.6636 66.4419 62.6344 66.6432 61.5445ZM20.6813 66.9643C20.681 67.2768 20.5567 67.5764 20.3358 67.7973C20.1148 68.0183 19.8152 68.1425 19.5027 68.1429H10.5357C10.2232 68.1425 9.92364 68.0183 9.70268 67.7973C9.48172 67.5764 9.35745 67.2768 9.35714 66.9643V30.3636C9.35745 30.0511 9.48172 29.7515 9.70268 29.5306C9.92364 29.3096 10.2232 29.1853 10.5357 29.185H19.5027C19.8152 29.1853 20.1148 29.3096 20.3358 29.5306C20.5567 29.7515 20.681 30.0511 20.6813 30.3636V66.9643ZM61.624 64.652C56.5486 67.6772 33.912 65.1964 23.0385 63.6317V32.0754C26.7162 29.4679 32.1144 23.6404 31.1941 12.1965C31.0849 11.0991 31.3514 9.99711 31.95 9.07088C32.5486 8.14466 33.4438 7.44902 34.4892 7.09777C34.974 6.93545 35.4823 6.85418 35.9935 6.85721C36.9388 6.86026 37.8624 7.14047 38.65 7.66316C39.4376 8.18585 40.0547 8.92806 40.4247 9.79789C42.3625 14.5988 43.2948 19.7463 43.164 24.9219C41.5165 25.4962 40.1484 26.0577 39.2554 26.4446C38.9705 26.5697 38.7469 26.8026 38.6334 27.0922C38.52 27.3819 38.5259 27.7047 38.65 27.9899C38.7741 28.2752 39.0062 28.4996 39.2954 28.6141C39.5846 28.7286 39.9075 28.7238 40.1931 28.6007C45.5509 26.2533 57.2043 22.4875 60.9656 27.2963C61.5449 28.3521 61.7787 29.563 61.634 30.7586C61.4892 31.9542 60.9733 33.0744 60.1588 33.9615L59.0826 35.0877L60.458 35.8214C61.7433 36.5588 62.7094 37.7466 63.1697 39.1551C63.3329 40.0025 63.3171 40.8747 63.1232 41.7156C62.9294 42.5565 62.5618 43.3476 62.044 44.038L61.6481 44.663L62.0394 45.2914C62.6908 46.337 64.2561 49.5136 63.6876 51.6227C63.5954 51.9732 63.4285 52.2996 63.1982 52.5794C62.9679 52.8593 62.6798 53.086 62.3536 53.2439L61.0346 53.9442L62.0221 55.0658C62.0498 55.0969 64.7764 58.2367 64.3125 61.1911C64.1593 61.9354 63.8373 62.6345 63.3711 63.2346C62.905 63.8346 62.3072 64.3196 61.624 64.652Z" fill="#D05D1D"/>
</svg>
