<svg width="74" height="75" viewBox="0 0 74 75" fill="none" xmlns="http://www.w3.org/2000/svg">
<path d="M69.9609 11.7131C69.9082 11.5139 69.8042 11.3319 69.6593 11.1854C69.5144 11.0388 69.3336 10.9328 69.1349 10.8779L64.812 9.68784L63.6214 5.3652C63.5668 5.16651 63.4609 4.98564 63.3145 4.84066C63.168 4.69569 62.9861 4.59169 62.7869 4.53906C62.5877 4.48642 62.3781 4.487 62.1792 4.54072C61.9802 4.59445 61.7989 4.69944 61.6532 4.84521L53.9989 12.5006C53.8519 12.6476 53.7464 12.8308 53.6931 13.0318C53.6397 13.2327 53.6405 13.4441 53.6952 13.6447L54.8775 17.9583L52.1557 20.6802C51.1843 19.7667 50.1475 18.9253 49.0536 18.1629C43.1582 14.0845 35.9507 12.3587 28.8476 13.3246C21.7445 14.2905 15.2595 17.8782 10.667 23.3828C6.07458 28.8874 3.7068 35.9107 4.02905 43.0724C4.35131 50.2341 7.34028 57.0163 12.4085 62.0861C17.4768 67.1559 24.2579 70.1467 31.419 70.4706C38.5801 70.7946 45.6035 68.4284 51.1088 63.8369C56.6141 59.2454 60.2032 52.7608 61.1707 45.6575C62.1382 38.5541 60.4142 31.3457 56.3375 25.449C56.1595 25.1924 55.8868 25.017 55.5795 24.9615C55.2722 24.9059 54.9554 24.9747 54.6989 25.1528C54.4423 25.3308 54.2669 25.6035 54.2114 25.9108C54.1558 26.2181 54.2246 26.5349 54.4027 26.7915C58.1431 32.2029 59.7246 38.8177 58.8364 45.336C57.9481 51.8542 54.6543 57.8045 49.6022 62.0176C44.5501 66.2306 38.1051 68.4017 31.5338 68.1042C24.9625 67.8068 18.74 65.0622 14.0892 60.4099C9.43845 55.7576 6.69567 49.534 6.3999 42.9621C6.10414 36.3903 8.27677 29.9455 12.4908 24.8941C16.7049 19.8428 22.6557 16.5503 29.1737 15.6637C35.6918 14.777 42.3057 16.3603 47.7158 20.1025C48.6927 20.7834 49.6199 21.533 50.4902 22.3457L47.1558 25.6802C43.1843 22.1413 38.0539 20.1801 32.7345 20.1675C27.9609 20.1653 23.3208 21.7439 19.5389 24.6569C15.7569 27.57 13.0459 31.6534 11.8292 36.2697C10.6124 40.886 10.9584 45.7753 12.813 50.1742C14.6677 54.5732 17.9267 58.2341 22.0812 60.5855C26.2356 62.9369 31.0517 63.8463 35.7775 63.1718C40.5033 62.4974 44.8727 60.2769 48.2036 56.8572C51.5345 53.4375 53.6394 49.011 54.1896 44.2689C54.7399 39.5267 53.7044 34.7358 51.245 30.6442C51.1655 30.511 51.0603 30.3949 50.9358 30.3025C50.8112 30.2101 50.6695 30.1432 50.519 30.1057C50.3685 30.0682 50.2121 30.0608 50.0587 30.0839C49.9053 30.1071 49.758 30.1603 49.6252 30.2405C49.4925 30.3208 49.3769 30.4265 49.2851 30.5515C49.1933 30.6766 49.1271 30.8186 49.0904 30.9693C49.0536 31.12 49.047 31.2765 49.0709 31.4298C49.0948 31.583 49.1488 31.7301 49.2297 31.8624C51.651 35.8922 52.5146 40.6686 51.6579 45.2912C50.8011 49.9138 48.2831 54.0633 44.5785 56.9575C40.8739 59.8517 36.2386 61.2907 31.5463 61.0033C26.8541 60.7158 22.4291 58.7218 19.1054 55.397C15.7817 52.0722 13.789 47.6464 13.5028 42.9538C13.2166 38.2612 14.6567 33.626 17.5517 29.9219C20.4468 26.2178 24.5966 23.7007 29.2191 22.8451C33.8417 21.9895 38.6175 22.8544 42.6463 25.277C43.6483 25.8867 44.5914 26.5882 45.4636 27.3725L42.1208 30.7153C41.0198 29.7749 39.785 29.0038 38.4568 28.4274C36.6497 27.6493 34.7021 27.2503 32.7345 27.2551C29.8643 27.2551 27.0585 28.1063 24.672 29.701C22.2855 31.2957 20.4255 33.5624 19.3271 36.2143C18.2288 38.8662 17.9414 41.7843 18.5014 44.5996C19.0614 47.4148 20.4436 50.0008 22.4732 52.0304C24.5028 54.0601 27.0886 55.4423 29.9037 56.0022C32.7188 56.5621 35.6367 56.2746 38.2884 55.1761C40.9401 54.0776 43.2065 52.2173 44.8011 49.8306C46.3956 47.4439 47.2466 44.6379 47.2465 41.7675C47.2517 39.7995 46.8523 37.8514 46.0732 36.0442C46.0119 35.9022 45.9233 35.7737 45.8123 35.6659C45.7014 35.5581 45.5703 35.4733 45.4266 35.4162C45.2829 35.3591 45.1293 35.3309 44.9747 35.3331C44.8201 35.3354 44.6674 35.3681 44.5254 35.4293C44.3834 35.4906 44.2548 35.5792 44.1471 35.6902C44.0394 35.8011 43.9545 35.9322 43.8974 36.0759C43.8403 36.2196 43.8121 36.3732 43.8143 36.5279C43.8166 36.6825 43.8493 36.8352 43.9105 36.9772C44.5616 38.4901 44.8952 40.1205 44.8906 41.7675C44.8906 44.1718 44.1778 46.5222 42.8421 48.5214C41.5065 50.5206 39.608 52.0788 37.3868 52.9989C35.1657 53.9191 32.7216 54.1599 30.3636 53.6909C28.0055 53.2218 25.8396 52.0641 24.1395 50.364C22.4394 48.6639 21.2817 46.4978 20.8126 44.1397C20.3435 41.7815 20.5842 39.3372 21.5042 37.1159C22.4242 34.8945 23.9822 32.9959 25.9812 31.66C27.9801 30.3242 30.3303 29.6112 32.7345 29.6111C34.3809 29.6066 36.0108 29.9398 37.5233 30.5901C38.5795 31.0469 39.5659 31.6503 40.4536 32.3825L37.0792 35.757C35.8175 34.837 34.296 34.3419 32.7345 34.3433C32.4123 34.3383 32.0903 34.3619 31.7723 34.4141C30.398 34.593 29.1012 35.1532 28.029 36.0312C26.9567 36.9093 26.1517 38.0701 25.7053 39.3822C25.2588 40.6943 25.1887 42.1052 25.5029 43.4551C25.8171 44.805 26.5031 46.0399 27.483 47.0199C28.463 47.9999 29.6978 48.6859 31.0476 49.0001C32.3974 49.3144 33.8082 49.2443 35.1202 48.7978C36.4322 48.3513 37.593 47.5463 38.471 46.4739C39.349 45.4016 39.9091 44.1048 40.088 42.7304C40.1255 42.421 40.0389 42.1093 39.8471 41.8637C39.6554 41.618 39.374 41.4583 39.0648 41.4197C38.7556 41.381 38.4436 41.4665 38.1973 41.6574C37.9509 41.8483 37.7903 42.1291 37.7505 42.4382C37.6257 43.3775 37.2398 44.263 36.6368 44.9939C36.0338 45.7248 35.2379 46.2718 34.3395 46.5729C33.4411 46.874 32.4763 46.917 31.5547 46.697C30.6331 46.477 29.7916 46.0028 29.1261 45.3284C28.4605 44.654 27.9974 43.8064 27.7896 42.8819C27.5817 41.9574 27.6373 40.9932 27.9501 40.0988C28.2629 39.2043 28.8203 38.4156 29.559 37.8222C30.2977 37.2288 31.1881 36.8546 32.1289 36.742C32.3291 36.7095 32.5318 36.6953 32.7345 36.6994C33.6689 36.7019 34.584 36.9651 35.3769 37.4594L31.9017 40.9347C31.7923 41.044 31.7056 41.1739 31.6464 41.3168C31.5872 41.4597 31.5567 41.6129 31.5567 41.7676C31.5567 41.9222 31.5872 42.0754 31.6464 42.2183C31.7056 42.3612 31.7923 42.4911 31.9017 42.6004C32.0111 42.7098 32.1409 42.7966 32.2838 42.8558C32.4267 42.915 32.5799 42.9454 32.7345 42.9454C32.8892 42.9454 33.0424 42.915 33.1853 42.8558C33.3282 42.7966 33.458 42.7098 33.5674 42.6004L56.5435 19.6238L60.8549 20.8059C61.0554 20.861 61.267 20.8619 61.468 20.8087C61.669 20.7555 61.8524 20.6499 61.9994 20.5028L69.6548 12.8469C69.8006 12.7013 69.9056 12.5199 69.9593 12.3209C70.013 12.122 70.0136 11.9124 69.9609 11.7131ZM60.8181 18.3527L57.1531 17.3479L56.1489 13.6821L61.8879 7.94269L62.7184 10.9591C62.7726 11.1557 62.8769 11.3349 63.021 11.4792C63.1652 11.6234 63.3443 11.7278 63.5409 11.7822L66.5582 12.6122L60.8181 18.3527Z" fill="#D05D1D"/>
</svg>
