<svg width="24" height="24" viewBox="0 0 24 24" fill="none" xmlns="http://www.w3.org/2000/svg">
<g clip-path="url(#clip0_3275_24765)">
<path d="M23.8083 11.3456L18.0894 7.1595C17.6258 6.82012 16.9689 7.14984 16.9689 7.72092V9.81394H15.5626V2.09302C15.5626 0.938953 14.6163 0 13.4532 0H2.20313C1.04222 0 0.0937512 0.938766 0.0937512 2.09302V18.1835C0.0933753 18.5282 0.178952 18.8675 0.342852 19.1714C0.506752 19.4753 0.743882 19.7342 1.0331 19.925L6.65814 23.646C8.05847 24.5723 9.93764 23.5723 9.93764 21.9045V21.0233H13.4533C14.6164 21.0233 15.5627 20.0844 15.5627 18.9303V14.0001H16.969V16.0931C16.969 16.6682 17.6294 16.9912 18.0895 16.6545L23.8083 12.4684C24.1889 12.1898 24.1889 11.6242 23.8083 11.3456ZM7.43819 22.4849L1.81315 18.764C1.71674 18.7003 1.6377 18.6141 1.58307 18.5128C1.52843 18.4115 1.49991 18.2983 1.50003 18.1835V2.09297C1.50003 2.007 1.51652 1.92502 1.54529 1.84894L8.02545 5.06391C8.25622 5.17837 8.53131 5.38969 8.53131 5.74608V21.9044C8.53131 22.4622 7.90621 22.7946 7.43819 22.4849ZM14.1564 18.9303C14.1564 19.315 13.841 19.628 13.4533 19.628H9.93764V5.74612C9.93764 4.92408 9.4699 4.22053 8.65442 3.81591L3.77542 1.39537H13.4533C13.841 1.39537 14.1564 1.70836 14.1564 2.09306V9.81403H12.047C11.6587 9.81403 11.3439 10.1264 11.3439 10.5117V13.3024C11.3439 13.6877 11.6587 14.0001 12.047 14.0001H14.1564V18.9303ZM18.3752 14.7114V13.3024C18.3752 12.9171 18.0604 12.6047 17.6721 12.6047H12.7502V11.2093H17.6721C18.0604 11.2093 18.3752 10.8969 18.3752 10.5116V9.10266L22.2064 11.907L18.3752 14.7114Z" fill="#EC7D3F"/>
<path d="M6.42189 9.81445C6.03357 9.81445 5.71875 10.1268 5.71875 10.5121V13.3028C5.71875 13.6882 6.03357 14.0005 6.42189 14.0005C6.81022 14.0005 7.12503 13.6882 7.12503 13.3028V10.5121C7.12499 10.1268 6.81017 9.81445 6.42189 9.81445Z" fill="#EC7D3F"/>
</g>
<defs>
<clipPath id="clip0_3275_24765">
<rect width="24" height="24" fill="white"/>
</clipPath>
</defs>
</svg>
