<svg width="24" height="24" viewBox="0 0 24 24" fill="none" xmlns="http://www.w3.org/2000/svg">
<g clip-path="url(#clip0_2249_20790)">
<path d="M23.6326 2.57922C23.3396 2.21959 22.9 2.02148 22.3945 2.02148C22.1217 2.02148 21.8328 2.07858 21.5357 2.19113L1.21672 9.8897C0.136357 10.2991 -0.00905496 10.9154 0.000414145 11.2463C0.00983637 11.5756 0.188484 12.1781 1.27593 12.526L5.58507 14.1051L7.85611 19.3036C8.0844 20.0226 8.56142 20.527 9.17025 20.6906C9.3106 20.7283 9.45391 20.7469 9.59824 20.7469C10.0927 20.7469 10.599 20.5291 11.0362 20.1185L12.9177 18.3508L17.5086 21.5106C17.922 21.8162 18.3719 21.9775 18.8106 21.9775C19.701 21.9774 20.4111 21.3257 20.6198 20.317L23.9429 4.24466C24.0794 3.58412 23.9692 2.99268 23.6326 2.57922ZM7.01317 13.8611L12.877 10.7166L8.79032 14.4652C8.64481 14.5987 8.56376 14.7867 8.56353 14.9827C8.56325 14.9899 8.56236 14.9969 8.56231 15.0041L8.5482 17.3748L7.01317 13.8611ZM10.0733 19.0935C10.03 19.1342 9.98652 19.17 9.94358 19.2012L9.96078 16.3154L11.7323 17.5348L10.0733 19.0935ZM22.5657 3.95988L19.2426 20.0321C19.2091 20.1942 19.0999 20.5712 18.8105 20.5712C18.6754 20.5712 18.5077 20.5016 18.3385 20.3752C18.3312 20.3698 18.3239 20.3645 18.3164 20.3594L13.2552 16.8758C13.2545 16.8753 13.2538 16.8748 13.2531 16.8744L10.3916 14.9048L17.9507 7.97094C18.2119 7.73135 18.2539 7.33482 18.0488 7.04578C17.8436 6.75674 17.4554 6.66561 17.143 6.8331L6.05464 12.7794L1.7454 11.2003C1.74226 11.1991 1.73912 11.198 1.73593 11.1969L22.034 3.50621C22.205 3.44138 22.3244 3.42779 22.3945 3.42779C22.4292 3.42779 22.5131 3.43163 22.5421 3.46726C22.5793 3.51287 22.626 3.66798 22.5657 3.95988Z" fill="#EC7D3F"/>
</g>
<defs>
<clipPath id="clip0_2249_20790">
<rect width="24" height="24" fill="white"/>
</clipPath>
</defs>
</svg>
