<svg width="24" height="24" viewBox="0 0 24 24" fill="none" xmlns="http://www.w3.org/2000/svg">
<g clip-path="url(#clip0_290_21672)">
<path d="M1.75586 20.3312V19.3279C2.1698 19.3279 2.50841 18.9893 2.50841 18.5753V7.28713C2.50841 6.18329 3.41161 5.28027 4.51526 5.28027H19.5662V6.28361H4.51526C3.96334 6.28361 3.51193 6.73521 3.51193 7.28713V18.5753C3.51193 19.541 2.72171 20.3312 1.75586 20.3312Z" fill="#EC7D3F"/>
<path d="M9.53233 20.3309H1.75588C0.790212 20.3309 0 19.5407 0 18.575V2.7715C0 1.66767 0.903021 0.764648 2.00686 0.764648H5.60644C6.00789 0.764648 6.38416 0.921368 6.67261 1.20357L8.59165 3.12885C8.68572 3.22292 8.81726 3.27308 8.949 3.27308H18.0736C19.1775 3.27308 20.0742 4.17628 20.0742 5.27993H20.5758C21.6797 5.27993 22.5827 6.18295 22.5827 7.28679V11.8021H21.5793V7.28679C21.5793 6.73487 21.1277 6.28327 20.5758 6.28327H19.0707V5.27993C19.0707 4.72802 18.6256 4.2766 18.0736 4.2766H8.94275C8.54149 4.2766 8.16522 4.1197 7.87658 3.83749L5.95773 1.91239C5.86366 1.81833 5.73193 1.76798 5.6002 1.76798H2.00686C1.45494 1.76798 1.00334 2.21959 1.00334 2.7715V18.575C1.00334 18.9889 1.34213 19.3276 1.75588 19.3276H9.53233V20.3309Z" fill="#EC7D3F"/>
<path d="M20.7889 23.26L16.0541 20.5008L11.3194 23.26L12.4984 17.9233L8.1084 14.2421L13.8091 13.5397L16.0541 8.26562L18.2992 13.5397L23.9997 14.2421L19.6099 17.9233L20.7889 23.26ZM16.0541 19.3405L19.309 21.2406L18.4936 17.547L21.5854 14.957L17.6031 14.4677L16.0541 10.8305L14.5051 14.4677L10.5229 14.957L13.6145 17.547L12.7993 21.2406L16.0541 19.3405Z" fill="#EC7D3F"/>
</g>
<defs>
<clipPath id="clip0_290_21672">
<rect width="24" height="24" fill="white"/>
</clipPath>
</defs>
</svg>
