<svg width="24" height="24" viewBox="0 0 24 24" fill="none" xmlns="http://www.w3.org/2000/svg">
<path d="M8.34266 13.3422C8.2887 12.704 8.00552 12.1069 7.54548 11.6612C7.27571 11.3755 6.93863 11.0196 6.04546 11.0196C5.87451 11.0143 5.70482 11.0506 5.55104 11.1255C5.39726 11.2004 5.26401 11.3115 5.16278 11.4494C4.83177 11.8973 4.86101 12.545 4.96141 12.8705C5.0061 13.0156 5.09878 13.3174 6.3191 13.6666C6.5337 13.7284 7.18358 13.9022 7.65141 13.9022C8.0613 13.9209 8.37356 13.6875 8.34266 13.3422ZM5.73652 12.5594C5.70122 12.3293 5.70839 11.8295 6.04546 11.8471C6.58335 11.8471 6.72679 11.9994 6.94305 12.2289C7.18392 12.4583 7.36044 12.7469 7.45501 13.0658C6.9425 13.0046 5.99692 12.737 5.73652 12.5594ZM14.9082 12.4214H8.97378C8.86405 12.4214 8.75881 12.465 8.68121 12.5426C8.60362 12.6202 8.56002 12.7255 8.56002 12.8352C8.56002 12.9449 8.60362 13.0502 8.68121 13.1278C8.75881 13.2054 8.86405 13.249 8.97378 13.249H14.9082C15.4538 13.2308 15.4571 12.443 14.9082 12.4214ZM14.2412 13.7549H9.64077C9.09405 13.7736 9.08909 14.5631 9.64077 14.5824H14.2412C14.7874 14.5642 14.7902 13.7742 14.2412 13.7549Z" fill="#EC7D3F"/>
<path d="M4.32098 10.4282C4.43378 10.4301 4.54658 10.4244 4.65861 10.4111C4.4478 10.8468 4.19327 11.2599 3.89895 11.6441C3.7236 11.866 3.59627 12.1219 3.52505 12.3956C3.45382 12.6693 3.44025 12.9549 3.48519 13.2341C3.68545 14.4406 3.70586 15.592 3.70917 16.5762C3.70992 16.7857 3.77693 16.9896 3.9006 17.1587C3.9006 17.1587 3.9006 18.5622 3.9006 18.5628C3.90075 18.7956 3.99325 19.0188 4.15781 19.1834C4.32237 19.3481 4.54553 19.4407 4.77833 19.441H6.29435C6.52714 19.4407 6.7503 19.3481 6.91486 19.1834C7.07942 19.0188 7.17192 18.7956 7.17207 18.5628V17.5736H16.7112V18.5628C16.7113 18.7956 16.8038 19.0188 16.9684 19.1834C17.1329 19.3481 17.3561 19.4407 17.5889 19.441H19.1044C19.3372 19.4407 19.5604 19.3481 19.7251 19.1835C19.8897 19.0188 19.9824 18.7956 19.9826 18.5628C19.9826 18.5628 19.9826 17.1598 19.9826 17.1593C20.1062 16.9903 20.1732 16.7866 20.1741 16.5773C20.1785 15.5191 20.2083 14.3821 20.3986 13.2341C20.4435 12.9548 20.4298 12.6693 20.3585 12.3956C20.2872 12.1219 20.1597 11.866 19.9843 11.6441C19.6903 11.2598 19.436 10.8467 19.2252 10.4111C21.3641 10.6671 21.7585 8.43998 19.5623 8.35447C19.0834 8.35447 18.7347 8.57514 18.5643 8.96131L17.3622 6.46055C17.0974 5.90887 16.4072 5.72957 16.2036 5.68819C15.1201 5.46752 14.0223 5.44104 11.9436 5.44104C9.86482 5.44104 8.76698 5.46531 7.68348 5.68819C7.47825 5.73012 6.78865 5.90887 6.52495 6.46055L5.32284 8.96131C5.15457 8.57845 4.8037 8.35447 4.32429 8.35447C2.37134 8.37433 2.3719 10.4089 4.32098 10.4282ZM6.34455 18.5628C6.34455 18.5761 6.33928 18.589 6.32988 18.5985C6.32048 18.608 6.30771 18.6134 6.29435 18.6135H4.77833C4.76496 18.6134 4.75219 18.608 4.74279 18.5985C4.7334 18.589 4.72812 18.5761 4.72812 18.5628V17.5736H6.34455V18.5628ZM6.94092 16.7461C7.30061 16.3472 7.52349 16.1155 7.88981 16.1194H15.9934C16.3598 16.1155 16.5832 16.3472 16.9423 16.7461H6.94092ZM19.1044 18.6135H17.5889C17.5755 18.6134 17.5628 18.608 17.5534 18.5985C17.544 18.589 17.5387 18.5761 17.5387 18.5628V17.5736H19.1551V18.5628C19.1551 18.5762 19.1498 18.5891 19.1403 18.5987C19.1307 18.6082 19.1178 18.6135 19.1044 18.6135ZM19.5816 13.0967C19.3819 14.3021 19.3504 15.4794 19.346 16.5723C19.3462 16.595 19.3418 16.6176 19.3332 16.6386C19.3247 16.6596 19.312 16.6788 19.296 16.6949C19.28 16.7111 19.261 16.7239 19.24 16.7327C19.2191 16.7415 19.1966 16.746 19.1739 16.7461H18.1158C17.4228 16.1867 17.0852 15.3156 15.9934 15.2919H7.88981C6.79748 15.3156 6.4604 16.1867 5.76749 16.7461H4.71047C4.66457 16.7461 4.62054 16.7279 4.58798 16.6956C4.55542 16.6632 4.53698 16.6193 4.53669 16.5734C4.53283 15.4822 4.50194 14.306 4.30168 13.0978C4.27542 12.932 4.28394 12.7626 4.32668 12.6003C4.36941 12.438 4.44544 12.2863 4.54993 12.155C4.9841 11.6033 5.38407 10.8861 5.76749 9.97144H18.1152C18.5014 10.8856 18.8986 11.6017 19.3333 12.1544C19.4379 12.2861 19.5139 12.438 19.5566 12.6006C19.5994 12.7632 19.6079 12.9329 19.5816 13.0989V13.0967ZM19.5617 9.17978C19.9369 9.17978 20.1586 9.32156 20.1995 9.38942C20.0891 9.55492 19.6158 9.64374 19.2815 9.5792C19.2666 9.23219 19.3775 9.17095 19.5601 9.18199L19.5617 9.17978ZM7.26751 6.81583C7.65865 6.21229 10.2466 6.28566 11.9413 6.26415C13.6339 6.28511 16.224 6.20898 16.6157 6.81583L17.7345 9.14282H6.14925L7.26751 6.81583ZM4.32098 9.17978C4.5058 9.16875 4.61668 9.22998 4.60124 9.5792C4.26582 9.64429 3.79358 9.55492 3.68379 9.38942C3.72682 9.32377 3.9475 9.18199 4.32098 9.18199V9.17978Z" fill="#EC7D3F"/>
<path d="M17.8363 11.0196C16.8846 11.0301 16.606 11.3832 16.2822 11.7192C15.8523 12.1566 15.5893 12.7309 15.5391 13.3422C15.5093 13.687 15.8199 13.9209 16.2303 13.9022C16.6976 13.9022 17.3475 13.7284 17.5621 13.6666C17.9582 13.5535 18.783 13.3174 18.9203 12.8705C19.1349 12.176 18.8757 11.0114 17.8363 11.0196ZM18.1458 12.5594C17.8848 12.737 16.9398 13.0046 16.4273 13.0658C16.5219 12.747 16.6982 12.4585 16.9387 12.2289C17.1555 11.9994 17.2989 11.8472 17.8363 11.8472C18.1739 11.8295 18.1805 12.3293 18.1458 12.5594Z" fill="#EC7D3F"/>
</svg>
