<svg width="32" height="32" viewBox="0 0 32 32" fill="none" xmlns="http://www.w3.org/2000/svg">
<path d="M9.42624 20.5886C9.42624 20.0572 9.05749 19.7402 8.40685 19.7402C8.14117 19.7402 7.96124 19.7665 7.86713 19.7915V21.4966C7.97856 21.5217 8.11555 21.5301 8.30438 21.5301C8.99789 21.5301 9.42624 21.1797 9.42624 20.5886ZM13.454 19.7581C13.1626 19.7581 12.9743 19.7832 12.8629 19.8093V23.5856C12.9744 23.6117 13.1543 23.6117 13.317 23.6117C14.499 23.6201 15.2699 22.9694 15.2699 21.5908C15.2782 20.3919 14.5758 19.7581 13.454 19.7581Z" fill="#EC7D3F"/>
<path d="M20.9372 0H8.0847C6.20707 0 4.67888 1.52925 4.67888 3.40582V15.9999H4.34623C3.58841 15.9999 2.97382 16.6139 2.97382 17.3724V25.6956C2.97382 26.454 3.58834 27.0679 4.34623 27.0679H4.67888V28.5941C4.67888 30.4727 6.20707 31.9999 8.0847 31.9999H25.6214C27.4978 31.9999 29.0262 30.4727 29.0262 28.5941V8.06066L20.9372 0ZM6.57423 18.8745C6.97644 18.8065 7.54178 18.7552 8.3383 18.7552C9.14324 18.7552 9.71695 18.9089 10.1024 19.2175C10.4707 19.5084 10.7192 19.9884 10.7192 20.5534C10.7192 21.1182 10.5309 21.5984 10.1883 21.9237C9.74264 22.3431 9.08364 22.5314 8.31275 22.5314C8.14118 22.5314 7.9874 22.5229 7.86713 22.5063V24.5701H6.57423V18.8745ZM25.6214 29.9142H8.0847C7.35767 29.9142 6.76564 29.3221 6.76564 28.5941V27.0679H23.1134C23.8714 27.0679 24.4859 26.454 24.4859 25.6956V17.3724C24.4859 16.6139 23.8714 15.9999 23.1134 15.9999H6.76564V3.40582C6.76564 2.67985 7.35774 2.08783 8.0847 2.08783L20.1569 2.07521V6.53752C20.1569 7.84091 21.2144 8.89946 22.5188 8.89946L26.8901 8.88691L26.9393 28.5941C26.9393 29.3221 26.3483 29.9142 25.6214 29.9142ZM11.5528 24.544V18.8745C12.0324 18.7981 12.6574 18.7552 13.317 18.7552C14.4131 18.7552 15.124 18.9519 15.681 19.3713C16.2804 19.8169 16.6569 20.5272 16.6569 21.547C16.6569 22.6516 16.2547 23.4142 15.6976 23.8848C15.0899 24.3901 14.1647 24.6297 13.0345 24.6297C12.3576 24.6297 11.8781 24.5868 11.5528 24.544ZM20.8996 21.1873V22.2489H18.8269V24.5701H17.5167V18.7981H21.045V19.8682H18.8269V21.1873H20.8996Z" fill="#EC7D3F"/>
</svg>
