<svg width="86" height="86" viewBox="0 0 86 86" fill="none" xmlns="http://www.w3.org/2000/svg">
<mask id="path-1-outside-1_2243_20654" maskUnits="userSpaceOnUse" x="17.5137" y="2.71875" width="66" height="66" fill="black">
<rect fill="white" x="17.5137" y="2.71875" width="66" height="66"/>
<path d="M21.5137 41.648C21.5137 41.648 41.5752 21.5865 50.9342 12.2276C54.4614 8.70026 59.2453 6.71875 64.2335 6.71875H79.2813V21.7664C79.2814 26.7547 77.2998 31.5388 73.7726 35.0661L44.352 64.4862"/>
</mask>
<path d="M18.6852 38.8196C17.1231 40.3817 17.1231 42.9144 18.6852 44.4765C20.2473 46.0386 22.78 46.0386 24.3421 44.4765L18.6852 38.8196ZM50.9342 12.2276L53.7626 15.056L53.7627 15.056L50.9342 12.2276ZM79.2813 6.71875H83.2813C83.2813 4.50961 81.4905 2.71875 79.2813 2.71875V6.71875ZM79.2813 21.7664L75.2813 21.7664L75.2813 21.7664L79.2813 21.7664ZM73.7726 35.0661L76.601 37.8945L76.6011 37.8945L73.7726 35.0661ZM41.5236 61.6578C39.9615 63.2199 39.9615 65.7525 41.5236 67.3146C43.0857 68.8767 45.6183 68.8768 47.1805 67.3147L41.5236 61.6578ZM21.5137 41.648C24.3421 44.4765 24.3422 44.4764 24.3423 44.4762C24.3425 44.4761 24.3427 44.4759 24.343 44.4756C24.3436 44.4749 24.3445 44.474 24.3458 44.4728C24.3482 44.4704 24.3518 44.4667 24.3567 44.4619C24.3664 44.4522 24.3808 44.4378 24.3999 44.4186C24.4382 44.3804 24.4951 44.3235 24.5697 44.2489C24.7189 44.0997 24.939 43.8796 25.2224 43.5962C25.7892 43.0293 26.6094 42.2091 27.6229 41.1956C29.6499 39.1686 32.4501 36.3685 35.5427 33.2759C41.728 27.0906 49.0831 19.7355 53.7626 15.056L48.1058 9.39916C43.4263 14.0786 36.0711 21.4338 29.8859 27.619C26.7932 30.7116 23.9931 33.5118 21.9661 35.5388C20.9526 36.5523 20.1324 37.3725 19.5655 37.9393C19.2821 38.2227 19.062 38.4428 18.9128 38.592C18.8382 38.6666 18.7813 38.7235 18.7431 38.7618C18.724 38.7809 18.7095 38.7954 18.6998 38.805C18.695 38.8099 18.6913 38.8135 18.6889 38.816C18.6877 38.8172 18.6868 38.8181 18.6862 38.8187C18.6859 38.819 18.6856 38.8192 18.6855 38.8194C18.6853 38.8195 18.6852 38.8196 21.5137 41.648ZM53.7627 15.056C56.5397 12.2788 60.3061 10.7188 64.2335 10.7188V2.71875C58.1844 2.71875 52.3831 5.12167 48.1057 9.39924L53.7627 15.056ZM64.2335 10.7188H79.2813V2.71875H64.2335V10.7188ZM75.2813 6.71875V21.7664H83.2813V6.71875H75.2813ZM75.2813 21.7664C75.2814 25.6938 73.7212 29.4605 70.9441 32.2377L76.6011 37.8945C80.8784 33.617 83.2814 27.8155 83.2813 21.7664L75.2813 21.7664ZM70.9442 32.2377L41.5236 61.6578L47.1805 67.3147L76.601 37.8945L70.9442 32.2377Z" fill="#EC7D3F" mask="url(#path-1-outside-1_2243_20654)"/>
<mask id="path-3-outside-2_2243_20654" maskUnits="userSpaceOnUse" x="10.7812" y="49.7637" width="26" height="26" fill="black">
<rect fill="white" x="10.7812" y="49.7637" width="26" height="26"/>
<path d="M32.2364 61.8262L28.6895 65.3732C26.6229 67.4399 24.0335 68.9059 21.1982 69.6147L14.7812 71.219L16.3855 64.802C17.0943 61.9668 18.5603 59.3776 20.6269 57.311L24.1739 53.7637"/>
</mask>
<path d="M35.0649 64.6546C36.627 63.0924 36.6269 60.5598 35.0648 58.9977C33.5027 57.4356 30.97 57.4357 29.408 58.9978L35.0649 64.6546ZM28.6895 65.3732L25.861 62.5448L25.861 62.5448L28.6895 65.3732ZM21.1982 69.6147L22.1683 73.4953L22.1683 73.4953L21.1982 69.6147ZM14.7812 71.219L10.9007 70.2488C10.5599 71.6119 10.9593 73.0539 11.9528 74.0474C12.9463 75.0409 14.3883 75.4403 15.7514 75.0995L14.7812 71.219ZM16.3855 64.802L20.2661 65.7722L20.2661 65.7722L16.3855 64.802ZM20.6269 57.311L23.4553 60.1394L23.4554 60.1393L20.6269 57.311ZM27.0025 56.592C28.5645 55.0298 28.5644 52.4972 27.0022 50.9351C25.4401 49.3731 22.9074 49.3732 21.3454 50.9354L27.0025 56.592ZM29.408 58.9978L25.861 62.5448L31.5179 68.2016L35.0649 64.6546L29.408 58.9978ZM25.861 62.5448C24.3071 64.0988 22.3601 65.2011 20.228 65.7342L22.1683 73.4953C25.7069 72.6106 28.9387 70.781 31.518 68.2016L25.861 62.5448ZM20.228 65.7342L13.8111 67.3384L15.7514 75.0995L22.1683 73.4953L20.228 65.7342ZM18.6618 72.1891L20.2661 65.7722L12.505 63.8319L10.9007 70.2488L18.6618 72.1891ZM20.2661 65.7722C20.7991 63.6403 21.9014 61.6934 23.4553 60.1394L17.7984 54.4826C15.2193 57.0618 13.3896 60.2933 12.5049 63.8319L20.2661 65.7722ZM23.4554 60.1393L27.0025 56.592L21.3454 50.9354L17.7983 54.4827L23.4554 60.1393Z" fill="#EC7D3F" mask="url(#path-3-outside-2_2243_20654)"/>
<mask id="path-5-outside-3_2243_20654" maskUnits="userSpaceOnUse" x="1.71875" y="22.875" width="62" height="61" fill="black">
<rect fill="white" x="1.71875" y="22.875" width="62" height="61"/>
<path d="M36.2814 26.875L23.4887 26.8753C22.4295 26.8753 21.3807 27.084 20.4022 27.4895C19.4237 27.8949 18.5347 28.4892 17.786 29.2384L6.71875 40.3125H10.7502C15.3382 40.3125 19.8814 41.2163 24.1202 42.9721C28.359 44.7279 32.2105 47.3012 35.4547 50.5455C38.699 53.7897 41.2725 57.6413 43.0282 61.8801C44.784 66.1189 45.6877 70.6619 45.6877 75.25V79.2812L56.7619 68.214C57.5111 67.4653 58.1055 66.5766 58.511 65.598C58.9165 64.6195 59.1252 63.5705 59.1252 62.5113L59.1252 49.7188"/>
</mask>
<path d="M23.4887 26.8753L23.4887 30.8753L23.4888 30.8753L23.4887 26.8753ZM17.786 29.2384L14.9567 26.4108L14.9567 26.4108L17.786 29.2384ZM6.71875 40.3125L3.88944 37.485C2.74597 38.6291 2.4042 40.3494 3.02347 41.8438C3.64274 43.3382 5.10113 44.3125 6.71875 44.3125V40.3125ZM10.7502 40.3125V36.3125V40.3125ZM45.6877 75.25L41.6877 75.25V75.25H45.6877ZM45.6877 79.2812H41.6877C41.6877 80.8989 42.662 82.3573 44.1564 82.9765C45.6508 83.5958 47.371 83.254 48.5152 82.1106L45.6877 79.2812ZM56.7619 68.214L53.9344 65.3847L53.9344 65.3847L56.7619 68.214ZM59.1252 62.5113L63.1252 62.5113L63.1252 62.5113L59.1252 62.5113ZM36.2813 22.875L23.4886 22.8753L23.4888 30.8753L36.2815 30.875L36.2813 22.875ZM23.4886 22.8753C21.9041 22.8753 20.335 23.1875 18.8709 23.7942L21.9335 31.1848C22.4264 30.9805 22.9549 30.8753 23.4887 30.8753L23.4886 22.8753ZM18.8709 23.7942C17.407 24.4008 16.077 25.2899 14.9567 26.4108L20.6152 32.066C20.9925 31.6885 21.4404 31.3891 21.9335 31.1848L18.8709 23.7942ZM14.9567 26.4108L3.88944 37.485L9.54806 43.14L20.6153 32.0659L14.9567 26.4108ZM6.71875 44.3125H10.7502V36.3125H6.71875V44.3125ZM10.7502 44.3125C14.8129 44.3125 18.8359 45.1128 22.5895 46.6676L25.6509 39.2766C20.9269 37.3198 15.8636 36.3125 10.7502 36.3125L10.7502 44.3125ZM22.5895 46.6676C26.343 48.2224 29.7535 50.5011 32.6263 53.3739L38.2832 47.717C34.6674 44.1013 30.375 41.2334 25.6509 39.2766L22.5895 46.6676ZM32.6263 53.3739C35.4991 56.2467 37.7779 59.6573 39.3327 63.4108L46.7237 60.3493C44.767 55.6253 41.8989 51.3327 38.2832 47.717L32.6263 53.3739ZM39.3327 63.4108C40.8875 67.1643 41.6877 71.1872 41.6877 75.25L49.6877 75.25C49.6877 70.1366 48.6805 65.0735 46.7237 60.3493L39.3327 63.4108ZM41.6877 75.25V79.2812H49.6877V75.25H41.6877ZM48.5152 82.1106L59.5894 71.0433L53.9344 65.3847L42.8601 76.4519L48.5152 82.1106ZM59.5894 71.0433C60.71 69.9235 61.5994 68.5938 62.2063 67.1294L54.8157 64.0667C54.6116 64.5593 54.3122 65.0071 53.9344 65.3847L59.5894 71.0433ZM62.2063 67.1294C62.813 65.6653 63.1252 64.0959 63.1252 62.5113L55.1252 62.5113C55.1252 63.0451 55.02 63.5737 54.8157 64.0667L62.2063 67.1294ZM63.1252 62.5113L63.1252 49.7187L55.1252 49.7188L55.1252 62.5113L63.1252 62.5113Z" fill="#EC7D3F" mask="url(#path-5-outside-3_2243_20654)"/>
<path d="M60.8653 39.3653C62.7524 37.4782 63.8125 34.9187 63.8125 32.25C63.8125 29.5813 62.7524 27.0218 60.8653 25.1347C58.9782 23.2476 56.4187 22.1875 53.75 22.1875C51.0813 22.1875 48.5218 23.2476 46.6347 25.1347C44.7476 27.0218 43.6875 29.5813 43.6875 32.25C43.6875 34.9187 44.7476 37.4782 46.6347 39.3653C48.5218 41.2524 51.0813 42.3125 53.75 42.3125C56.4187 42.3125 58.9782 41.2524 60.8653 39.3653Z" stroke="#EC7D3F" stroke-width="4"/>
</svg>
