<svg width="1280" height="220" viewBox="0 0 1280 220" fill="none" xmlns="http://www.w3.org/2000/svg">
<path d="M26.5535 62.8816C35.9427 64.2755 39.3902 64.5689 43.2229 60.7264C47.0648 56.884 46.7714 53.4449 45.3777 44.0542C43.7639 33.2237 41.3341 16.8449 54.2625 3.92351C67.191 -9.00709 83.5578 -6.5677 94.3865 -4.96284C103.776 -3.5689 107.223 -3.27545 111.056 -7.11794C114.898 -10.9604 114.614 -14.3994 113.211 -23.7993C111.606 -34.6299 109.167 -51.0086 122.096 -63.9301C135.024 -76.8607 151.391 -74.4213 162.22 -72.8164C171.609 -71.4225 175.056 -71.129 178.889 -74.9715C182.731 -78.814 182.447 -82.253 181.044 -91.6529C179.43 -102.483 177 -118.862 189.929 -131.784C202.857 -144.714 219.224 -142.275 230.053 -140.67C239.442 -139.276 242.889 -138.983 246.731 -142.825C250.573 -146.668 250.28 -150.107 248.886 -159.506C247.272 -170.337 244.842 -186.716 257.771 -199.637C270.699 -212.568 287.066 -210.128 297.895 -208.524C307.284 -207.13 310.732 -206.845 314.573 -210.679C318.415 -214.521 318.131 -217.969 316.728 -227.36C315.114 -238.191 312.685 -254.569 325.613 -267.491C338.542 -280.421 354.908 -277.991 365.746 -276.377C375.135 -274.983 378.583 -274.699 382.425 -278.532C386.267 -282.366 385.982 -285.814 384.58 -295.214C382.966 -306.044 380.536 -322.423 393.464 -335.344C406.393 -348.275 422.76 -345.845 433.598 -344.231C442.987 -342.837 446.434 -342.552 450.276 -346.386C453.944 -350.054 453.843 -353.374 452.614 -361.829L369.487 -361.829C369.056 -361.435 368.635 -361.031 368.204 -360.609C355.275 -347.688 357.714 -331.309 359.319 -320.479C360.712 -311.088 361.006 -307.64 357.164 -303.797C353.322 -299.955 349.875 -300.239 340.485 -301.642C329.657 -303.256 313.281 -305.686 300.352 -292.756C287.424 -279.825 289.863 -263.456 291.467 -252.616C292.861 -243.225 293.145 -239.777 289.313 -235.935C285.471 -232.092 282.032 -232.385 272.634 -233.779C261.805 -235.393 245.429 -237.824 232.51 -224.893C219.582 -211.962 222.021 -195.593 223.625 -184.753C225.019 -175.362 225.312 -171.914 221.47 -168.081C217.628 -164.239 214.19 -164.532 204.792 -165.926C193.963 -167.54 177.587 -169.97 164.668 -157.04C151.739 -144.109 154.178 -127.739 155.783 -116.909C157.177 -107.518 157.47 -104.07 153.628 -100.227C149.786 -96.3849 146.348 -96.6784 136.959 -98.0723C126.13 -99.6772 109.754 -102.117 96.8347 -89.186C83.9062 -76.2646 86.3452 -59.8858 87.9498 -49.0553C89.3435 -39.6645 89.6278 -36.2164 85.7951 -32.3739C81.9532 -28.5314 78.5148 -28.8248 69.1165 -30.2188C58.2878 -31.8328 41.9117 -34.263 28.9925 -21.3324C16.064 -8.411 18.503 7.96777 20.1076 18.7983C21.5013 28.189 21.7947 31.6372 17.9529 35.4705C14.111 39.313 10.6726 39.0195 1.28343 37.6256C0.861651 37.5614 0.439872 37.4972 -0.0002453 37.433L-0.000244159 63.4226C9.53563 60.3688 19.2824 61.8086 26.5443 62.8907L26.5535 62.8816Z" fill="#FAEFDB"/>
<path d="M25.92 179.109C29.7618 175.266 29.4776 171.827 28.0747 162.427C26.4609 151.597 24.0311 135.218 36.9596 122.296C49.888 109.366 66.2548 111.805 77.0836 113.419C86.4727 114.813 89.9203 115.107 93.753 111.264C97.5949 107.422 97.3014 103.983 95.9077 94.5919C94.294 83.7614 91.8642 67.3826 104.783 54.4612C117.712 41.5306 134.079 43.97 144.907 45.5748C154.297 46.9688 157.744 47.2622 161.586 43.4197C165.428 39.5772 165.144 36.1383 163.741 26.7383C162.136 15.9078 159.697 -0.470945 172.626 -13.3924C185.554 -26.323 201.921 -23.8836 212.75 -22.2787C222.139 -20.8848 225.586 -20.5913 229.419 -24.4338C233.261 -28.2763 232.977 -31.7153 231.574 -41.1152C229.96 -51.9549 227.53 -68.3245 240.459 -81.2551C253.387 -94.1765 269.754 -91.7463 280.583 -90.1415C289.972 -88.7475 293.419 -88.4541 297.261 -92.2966C301.103 -96.1391 300.81 -99.578 299.416 -108.978C297.802 -119.808 295.372 -136.187 308.301 -149.109C321.229 -162.039 337.596 -159.6 348.425 -157.995C357.814 -156.601 361.262 -156.317 365.104 -160.15C368.945 -163.983 368.661 -167.432 367.258 -176.832C365.644 -187.671 363.215 -204.041 376.143 -216.971C389.072 -229.902 405.438 -227.472 416.276 -225.858C425.665 -224.464 429.113 -224.18 432.955 -228.013C436.797 -231.846 436.513 -235.294 435.11 -244.694C433.496 -255.525 431.066 -271.904 443.995 -284.825C456.923 -297.756 473.29 -295.325 484.128 -293.711C493.517 -292.317 496.964 -292.033 500.806 -295.866C504.648 -299.709 504.364 -303.157 502.961 -312.548C501.356 -323.378 498.917 -339.757 511.846 -352.678C517.017 -357.851 522.73 -360.556 528.424 -361.849L477.526 -361.849C475.426 -353.137 476.71 -344.443 477.7 -337.813C479.094 -328.422 479.387 -324.974 475.545 -321.131C471.704 -317.289 468.265 -317.573 458.867 -318.976C448.038 -320.59 431.662 -323.021 418.734 -310.09C405.814 -297.169 408.244 -280.79 409.849 -269.959C411.242 -260.569 411.536 -257.12 407.694 -253.278C403.852 -249.435 400.405 -249.72 391.015 -251.114C380.187 -252.728 363.811 -255.158 350.882 -242.227C337.954 -229.297 340.393 -212.927 341.997 -202.087C343.391 -192.697 343.684 -189.249 339.843 -185.406C336.001 -181.564 332.562 -181.857 323.164 -183.251C312.335 -184.865 295.959 -187.295 283.04 -174.365C270.112 -161.434 272.551 -145.064 274.155 -134.225C275.549 -124.834 275.842 -121.386 272 -117.552C268.159 -113.71 264.72 -113.994 255.322 -115.397C244.493 -117.011 228.117 -119.442 215.198 -106.511C202.269 -93.5804 204.708 -77.2108 206.313 -66.3803C207.707 -56.9896 207.991 -53.5414 204.158 -49.6989C200.316 -45.8564 196.878 -46.1499 187.489 -47.5438C176.66 -49.1579 160.284 -51.5881 147.365 -38.6575C134.436 -25.736 136.875 -9.3573 138.48 1.47322C139.874 10.864 140.158 14.3121 136.325 18.1546C132.483 21.9971 129.045 21.7037 119.647 20.3097C108.818 18.6957 92.4418 16.2655 79.5225 29.1961C66.5941 42.1267 69.0331 58.4963 70.6377 69.3268C72.0314 78.7175 72.3248 82.1657 68.4829 85.999C64.6411 89.8415 61.2027 89.5481 51.8135 88.1541C40.9848 86.5401 24.6088 84.1099 11.6895 97.0405C-1.23895 109.971 1.20004 126.341 2.80463 137.171C4.19834 146.562 4.48258 150.01 0.649893 153.853C0.429834 154.073 0.218945 154.265 0.00805542 154.458L0.00805655 180.154C3.34561 180.402 6.48145 180.869 9.24135 181.282C18.6305 182.676 22.0781 182.969 25.92 179.127L25.92 179.109Z" fill="#FAEFDB"/>
<path d="M8.60866 297.503C12.4505 293.661 12.1663 290.222 10.7634 280.822C9.14964 269.992 6.71982 253.613 19.6483 240.691C32.5767 227.761 48.9436 230.2 59.7814 231.805C69.1706 233.199 72.6182 233.492 76.4509 229.65C80.2927 225.807 80.0085 222.368 78.6056 212.968C76.9918 202.138 74.562 185.759 87.4905 172.838C100.419 159.916 116.786 162.347 127.614 163.961C137.004 165.355 140.451 165.648 144.284 161.805C148.126 157.963 147.832 154.524 146.439 145.133C144.825 134.303 142.395 117.924 155.314 105.003C168.243 92.072 184.61 94.5114 195.438 96.1162C204.827 97.5102 208.275 97.8036 212.117 93.9611C215.959 90.1186 215.675 86.6796 214.272 77.2797C212.658 66.4492 210.228 50.0704 223.157 37.149C236.085 24.2184 252.452 26.6578 263.29 28.2627C272.679 29.6566 276.126 29.9501 279.959 26.1076C283.792 22.2651 283.517 18.8261 282.114 9.42617C280.5 -1.40436 278.07 -17.7831 290.999 -30.7046C303.927 -43.6352 320.294 -41.1958 331.123 -39.5909C340.512 -38.197 343.959 -37.9035 347.801 -41.746C351.643 -45.5885 351.35 -49.0275 349.956 -58.4274C348.342 -69.2579 345.912 -85.6367 358.841 -98.5581C371.769 -111.489 388.136 -109.049 398.974 -107.444C408.363 -106.051 411.811 -105.766 415.653 -109.6C419.495 -113.442 419.21 -116.881 417.807 -126.281C416.203 -137.111 413.764 -153.49 426.692 -166.421C439.621 -179.351 455.988 -176.912 466.825 -175.307C476.215 -173.913 479.662 -173.629 483.504 -177.462C487.346 -181.305 487.062 -184.744 485.659 -194.144C484.045 -204.974 481.615 -221.353 494.544 -234.274C507.472 -247.205 523.839 -244.775 534.677 -243.161C544.066 -241.767 547.514 -241.473 551.355 -245.316C555.197 -249.158 554.913 -252.606 553.51 -261.997C551.896 -272.828 549.467 -289.206 562.395 -302.128C575.323 -315.059 591.69 -312.619 602.528 -311.014C611.917 -309.62 615.365 -309.327 619.207 -313.169C623.049 -317.012 622.764 -320.46 621.362 -329.851C620.078 -338.508 618.272 -350.696 624.186 -361.838L595.202 -361.838C595.459 -359.444 595.789 -357.179 596.101 -355.125C597.494 -345.734 597.779 -342.286 593.946 -338.444C590.104 -334.601 586.666 -334.885 577.267 -336.289C566.439 -337.903 550.063 -340.333 537.134 -327.402C524.206 -314.472 526.645 -298.102 528.249 -287.271C529.643 -277.881 529.936 -274.433 526.095 -270.59C522.253 -266.748 518.814 -267.041 509.416 -268.435C498.587 -270.049 482.211 -272.479 469.283 -259.549C456.354 -246.627 458.793 -230.248 460.398 -219.418C461.792 -210.027 462.085 -206.579 458.243 -202.737C454.401 -198.894 450.954 -199.178 441.565 -200.572C430.736 -202.186 414.36 -204.617 401.431 -191.686C388.503 -178.755 390.942 -162.386 392.547 -151.546C393.94 -142.155 394.234 -138.707 390.392 -134.865C386.55 -131.022 383.112 -131.306 373.713 -132.71C362.885 -134.324 346.508 -136.754 333.589 -123.823C320.661 -110.893 323.1 -94.523 324.704 -83.6833C326.098 -74.2926 326.391 -70.8444 322.55 -67.0111C318.708 -63.1686 315.269 -63.4621 305.871 -64.856C295.042 -66.47 278.666 -68.9002 265.747 -55.9696C252.819 -43.039 255.258 -26.6695 256.862 -15.8298C258.256 -6.43904 258.54 -2.99088 254.707 0.851616C250.866 4.69411 247.427 4.40066 238.038 3.00672C227.209 1.39269 210.833 -1.03753 197.905 11.8931C184.976 24.8237 187.415 41.1932 189.02 52.0238C190.414 61.4145 190.698 64.8627 186.865 68.7052C183.023 72.5477 179.585 72.2542 170.187 70.8603C159.358 69.2462 142.982 66.816 130.063 79.7466C117.134 92.6772 119.573 109.047 121.187 119.877C122.581 129.268 122.874 132.716 119.032 136.55C115.19 140.392 111.752 140.099 102.363 138.705C91.534 137.091 75.158 134.66 62.2388 147.582C49.3103 160.512 51.7493 176.882 53.3539 187.713C54.7476 197.103 55.0318 200.551 51.1992 204.394C47.3573 208.236 43.9189 207.952 34.5205 206.549C25.2047 205.164 11.8087 203.183 0.017208 210.859L0.0172119 300.594C3.84073 300.731 6.15134 299.97 8.61783 297.503L8.60866 297.503Z" fill="#FAEFDB"/>
<path d="M42.461 350.207C51.8501 351.601 55.2977 351.895 59.1396 348.052C62.9814 344.21 62.688 340.771 61.2943 331.371C59.6806 320.54 57.2507 304.162 70.1792 291.231C83.1076 278.3 99.4745 280.74 110.312 282.345C119.702 283.739 123.149 284.032 126.982 280.19C130.824 276.347 130.53 272.908 129.137 263.508C127.523 252.678 125.093 236.299 138.021 223.368C150.95 210.438 167.317 212.877 178.145 214.491C187.535 215.885 190.982 216.179 194.815 212.336C198.648 208.494 198.363 205.055 196.97 195.664C195.356 184.833 192.926 168.455 205.845 155.533C218.765 142.612 235.141 145.042 245.969 146.647C255.358 148.041 258.806 148.334 262.648 144.492C266.49 140.649 266.205 137.201 264.803 127.81C263.189 116.98 260.759 100.601 273.687 87.6704C286.616 74.7398 302.983 77.1792 313.821 78.784C323.21 80.178 326.657 80.4714 330.49 76.6289C334.332 72.7864 334.039 69.3475 332.645 59.9475C331.031 49.117 328.601 32.7383 341.53 19.8168C354.458 6.88623 370.825 9.32562 381.663 10.9305C391.052 12.3244 394.5 12.6179 398.341 8.7754C402.183 4.9329 401.89 1.49391 400.496 -7.90599C398.882 -18.7365 396.453 -35.1153 409.381 -48.0367C422.3 -60.9673 438.676 -58.5279 449.505 -56.9231C458.894 -55.5291 462.342 -55.2448 466.184 -59.0782C470.026 -62.9207 469.741 -66.3688 468.348 -75.7596C466.734 -86.5901 464.304 -102.969 477.232 -115.899C490.161 -128.83 506.528 -126.391 517.366 -124.786C526.755 -123.392 530.202 -123.108 534.044 -126.941C537.886 -130.783 537.593 -134.222 536.199 -143.622C534.585 -154.453 532.155 -170.832 545.084 -183.753C558.012 -196.684 574.379 -194.244 585.217 -192.639C594.606 -191.245 598.054 -190.961 601.896 -194.794C605.737 -198.637 605.453 -202.085 604.05 -211.476C602.437 -222.306 600.007 -238.685 612.935 -251.607C625.864 -264.537 642.23 -262.098 653.068 -260.493C662.457 -259.099 665.905 -258.805 669.747 -262.648C673.589 -266.49 673.304 -269.939 671.911 -279.329C670.297 -290.16 667.867 -306.539 680.796 -319.469C693.724 -332.4 710.091 -329.96 720.929 -328.356C727.127 -327.439 730.731 -327.008 733.573 -327.915L733.573 -361.856L715.363 -361.856C715.106 -359.435 714.217 -357.656 712.347 -355.776C708.505 -351.933 705.057 -352.227 695.668 -353.621C684.83 -355.226 668.463 -357.665 655.535 -344.734C642.606 -331.804 645.045 -315.434 646.65 -304.604C648.044 -295.213 648.328 -291.765 644.486 -287.922C640.644 -284.08 637.206 -284.364 627.807 -285.767C616.979 -287.381 600.603 -289.811 587.674 -276.881C574.746 -263.95 577.185 -247.581 578.789 -236.741C580.183 -227.35 580.467 -223.902 576.635 -220.06C572.793 -216.217 569.354 -216.51 559.956 -217.904C549.127 -219.518 532.751 -221.949 519.823 -209.018C506.894 -196.097 509.333 -179.718 510.938 -168.887C512.332 -159.497 512.625 -156.049 508.783 -152.206C504.941 -148.364 501.494 -148.648 492.105 -150.042C481.276 -151.656 464.9 -154.086 451.972 -141.155C439.043 -128.225 441.482 -111.855 443.087 -101.015C444.48 -91.6248 444.765 -88.1766 440.932 -84.3341C437.09 -80.4916 433.642 -80.7851 424.253 -82.179C413.425 -83.793 397.049 -86.2232 384.129 -73.2926C371.201 -60.3621 373.64 -43.9924 375.244 -33.1528C376.638 -23.762 376.922 -20.3139 373.09 -16.4805C369.248 -12.638 365.809 -12.9315 356.411 -14.3254C345.582 -15.9395 329.206 -18.3697 316.287 -5.43908C303.359 7.49152 305.798 23.8611 307.402 34.6916C308.796 44.0823 309.08 47.5305 305.248 51.373C301.406 55.2155 297.967 54.922 288.578 53.5281C277.74 51.9141 261.373 49.4839 248.454 62.4145C235.526 75.3451 237.965 91.7146 239.569 102.554C240.963 111.945 241.256 115.393 237.414 119.236C233.573 123.078 230.134 122.785 220.736 121.391C209.907 119.777 193.531 117.347 180.612 130.277C167.683 143.208 170.122 159.577 171.736 170.408C173.13 179.799 173.423 183.247 169.581 187.08C165.74 190.923 162.301 190.629 152.912 189.235C142.083 187.621 125.707 185.191 112.788 198.122C99.8596 211.052 102.299 227.422 103.903 238.252C105.297 247.643 105.59 251.091 101.748 254.934C97.9066 258.776 94.4681 258.483 85.0698 257.089C74.2411 255.475 57.8651 253.044 44.9366 265.975C32.0082 278.906 34.4472 295.275 36.0518 306.106C37.4455 315.497 37.7389 318.945 33.897 322.787C30.0552 326.63 26.6168 326.336 17.2184 324.942C12.3405 324.218 6.33471 323.328 0.0263655 323.75L0.0263672 361.652C0.741557 360.781 1.51176 359.928 2.35532 359.085C15.2838 346.154 31.6506 348.593 42.4793 350.198L42.461 350.207Z" fill="#FAEFDB"/>
<path d="M161.528 332.289C170.917 333.683 174.365 333.977 178.206 330.134C182.048 326.292 181.755 322.853 180.361 313.453C178.747 302.622 176.318 286.244 189.246 273.313C202.174 260.382 218.541 262.822 229.379 264.427C238.768 265.821 242.216 266.114 246.049 262.272C249.89 258.429 249.597 254.99 248.203 245.59C246.59 234.76 244.16 218.381 257.088 205.45C270.017 192.52 286.383 194.959 297.212 196.573C306.601 197.967 310.049 198.261 313.882 194.418C317.714 190.576 317.43 187.137 316.036 177.746C314.423 166.915 311.993 150.537 324.912 137.615C337.831 124.694 354.207 127.124 365.036 128.729C374.425 130.123 377.873 130.416 381.715 126.574C385.556 122.731 385.272 119.283 383.869 109.892C382.256 99.0618 379.826 82.683 392.754 69.7524C405.683 56.8218 422.05 59.2612 432.887 60.8661C442.277 62.26 445.724 62.5535 449.557 58.711C453.399 54.8685 453.105 51.4295 451.712 42.0296C450.098 31.1991 447.668 14.8203 460.596 1.89886C473.525 -11.0317 489.892 -8.59235 500.73 -6.98749C510.119 -5.59355 513.566 -5.30007 517.408 -9.14257C521.25 -12.9851 520.957 -16.4241 519.563 -25.824C517.949 -36.6545 515.519 -53.0332 528.448 -65.9547C541.367 -78.8853 557.743 -76.4459 568.572 -74.841C577.961 -73.4471 581.409 -73.1628 585.25 -76.9961C589.092 -80.8386 588.808 -84.2868 587.414 -93.6775C585.801 -104.508 583.371 -120.887 596.299 -133.817C609.228 -146.748 625.594 -144.309 636.432 -142.704C645.821 -141.31 649.269 -141.025 653.111 -144.859C656.953 -148.701 656.659 -152.14 655.266 -161.54C653.652 -172.371 651.222 -188.75 664.15 -201.671C677.079 -214.602 693.446 -212.162 704.284 -210.557C713.673 -209.163 717.12 -208.879 720.962 -212.712C724.804 -216.555 724.52 -220.003 723.117 -229.394C721.503 -240.224 719.073 -256.603 732.002 -269.524C744.93 -282.455 761.297 -280.016 772.135 -278.411C781.524 -277.017 784.972 -276.723 788.814 -280.566C792.656 -284.408 792.371 -287.857 790.978 -297.247C789.364 -308.078 786.934 -324.457 799.862 -337.387C812.791 -350.318 829.158 -347.878 839.996 -346.274C846.194 -345.356 849.797 -344.925 852.64 -345.833L852.64 -379.774L834.43 -379.774C834.173 -377.353 833.284 -375.574 831.413 -373.694C827.571 -369.851 824.124 -370.145 814.735 -371.539C803.897 -373.144 787.53 -375.583 774.602 -362.652C761.673 -349.722 764.112 -333.352 765.717 -322.522C767.11 -313.131 767.395 -309.683 763.553 -305.84C759.711 -301.998 756.273 -302.282 746.874 -303.685C736.045 -305.299 719.669 -307.729 706.741 -294.799C693.813 -281.868 696.252 -265.499 697.856 -254.659C699.25 -245.268 699.534 -241.82 695.701 -237.978C691.86 -234.135 688.421 -234.428 679.023 -235.822C668.194 -237.436 651.818 -239.867 638.89 -226.936C625.961 -214.015 628.4 -197.636 630.005 -186.805C631.398 -177.415 631.692 -173.966 627.85 -170.124C624.008 -166.281 620.561 -166.566 611.171 -167.96C600.343 -169.574 583.967 -172.004 571.038 -159.073C558.11 -146.143 560.549 -129.773 562.153 -118.933C563.547 -109.543 563.831 -106.095 559.999 -102.252C556.157 -98.4096 552.709 -98.703 543.32 -100.097C532.491 -101.711 516.115 -104.141 503.196 -91.2106C490.268 -78.28 492.707 -61.9104 494.311 -51.0707C495.705 -41.68 495.989 -38.2318 492.157 -34.3985C488.315 -30.556 484.876 -30.8495 475.478 -32.2434C464.649 -33.8574 448.273 -36.2877 435.354 -23.3571C422.425 -10.4265 424.864 5.94311 426.469 16.7736C427.863 26.1644 428.147 29.6125 424.314 33.455C420.472 37.2975 417.034 37.0041 407.645 35.6101C396.807 33.9961 380.44 31.5659 367.521 44.4965C354.592 57.4271 357.031 73.7967 358.636 84.6364C360.03 94.0271 360.323 97.4752 356.481 101.318C352.639 105.16 349.201 104.867 339.803 103.473C328.974 101.859 312.598 99.4286 299.679 112.359C286.75 125.29 289.189 141.659 290.803 152.49C292.197 161.881 292.49 165.329 288.648 169.162C284.806 173.005 281.368 172.711 271.979 171.317C261.15 169.703 244.774 167.273 231.855 180.204C218.926 193.134 221.365 209.504 222.97 220.334C224.364 229.725 224.657 233.173 220.815 237.016C216.973 240.858 213.535 240.565 204.137 239.171C193.308 237.557 176.932 235.127 164.003 248.057C151.075 260.988 153.514 277.357 155.119 288.188C156.512 297.579 156.806 301.027 152.964 304.869C149.122 308.712 145.684 308.418 136.285 307.024C131.407 306.3 125.401 305.41 119.093 305.832L119.093 343.734C119.808 342.863 120.579 342.01 121.422 341.167C134.351 328.236 150.717 330.675 161.546 332.28L161.528 332.289Z" fill="#FAEFDB"/>
<path d="M281.622 313.873C291.011 315.267 294.458 315.561 298.3 311.718C302.142 307.876 301.849 304.437 300.455 295.037C298.841 284.206 296.411 267.828 309.34 254.897C322.268 241.966 338.635 244.406 349.473 246.011C358.862 247.405 362.31 247.698 366.142 243.856C369.984 240.013 369.691 236.574 368.297 227.174C366.683 216.344 364.254 199.965 377.182 187.034C390.11 174.104 406.477 176.543 417.306 178.157C426.695 179.551 430.143 179.845 433.975 176.002C437.808 172.16 437.524 168.721 436.13 159.33C434.516 148.499 432.087 132.121 445.006 119.199C457.925 106.278 474.301 108.708 485.13 110.313C494.519 111.707 497.967 112 501.809 108.158C505.65 104.315 505.366 100.867 503.963 91.4763C502.349 80.6458 499.92 64.267 512.848 51.3364C525.777 38.4058 542.143 40.8452 552.981 42.4501C562.37 43.844 565.818 44.1375 569.651 40.295C573.493 36.4525 573.199 33.0135 571.805 23.6136C570.192 12.783 567.762 -3.59573 580.69 -16.5172C593.619 -29.4478 609.986 -27.0084 620.823 -25.4035C630.213 -24.0096 633.66 -23.7161 637.502 -27.5586C641.344 -31.4011 641.051 -34.8401 639.657 -44.24C638.043 -55.0705 635.613 -71.4493 648.542 -84.3707C661.461 -97.3013 677.837 -94.8619 688.666 -93.257C698.055 -91.8631 701.502 -91.5788 705.344 -95.4122C709.186 -99.2546 708.902 -102.703 707.508 -112.094C705.894 -122.924 703.465 -139.303 716.393 -152.233C729.321 -165.164 745.688 -162.725 756.526 -161.12C765.915 -159.726 769.363 -159.442 773.205 -163.275C777.047 -167.117 776.753 -170.556 775.36 -179.956C773.746 -190.787 771.316 -207.166 784.244 -220.087C797.173 -233.018 813.54 -230.578 824.378 -228.973C833.767 -227.579 837.214 -227.295 841.056 -231.128C844.898 -234.971 844.614 -238.419 843.211 -247.81C841.597 -258.64 839.167 -275.019 852.096 -287.94C865.024 -300.871 881.391 -298.432 892.229 -296.827C901.618 -295.433 905.066 -295.139 908.908 -298.982C912.749 -302.824 912.465 -306.273 911.071 -315.663C909.458 -326.494 907.028 -342.873 919.956 -355.803C932.885 -368.734 949.252 -366.294 960.089 -364.69C966.288 -363.772 969.891 -363.341 972.734 -364.249L972.734 -398.19L954.524 -398.19C954.267 -395.769 953.378 -393.99 951.507 -392.11C947.665 -388.267 944.218 -388.561 934.829 -389.955C923.991 -391.56 907.624 -393.999 894.695 -381.068C881.767 -368.138 884.206 -351.768 885.811 -340.938C887.204 -331.547 887.489 -328.099 883.647 -324.256C879.805 -320.414 876.366 -320.698 866.968 -322.101C856.139 -323.715 839.763 -326.145 826.835 -313.215C813.906 -300.284 816.345 -283.915 817.95 -273.075C819.344 -263.684 819.628 -260.236 815.795 -256.394C811.953 -252.551 808.515 -252.844 799.117 -254.238C788.288 -255.852 771.912 -258.283 758.983 -245.352C746.055 -232.431 748.494 -216.052 750.099 -205.221C751.492 -195.831 751.786 -192.382 747.944 -188.54C744.102 -184.697 740.654 -184.982 731.265 -186.376C720.437 -187.99 704.061 -190.42 691.132 -177.489C678.204 -164.559 680.643 -148.189 682.247 -137.349C683.641 -127.959 683.925 -124.511 680.093 -120.668C676.251 -116.826 672.803 -117.119 663.414 -118.513C652.585 -120.127 636.209 -122.557 623.29 -109.627C610.362 -96.696 612.801 -80.3264 614.405 -69.4867C615.799 -60.096 616.083 -56.6479 612.25 -52.8145C608.409 -48.972 604.97 -49.2655 595.572 -50.6594C584.743 -52.2735 568.367 -54.7037 555.448 -41.7731C542.519 -28.8425 544.958 -12.4729 546.563 -1.64238C547.957 7.74835 548.241 11.1965 544.408 15.039C540.566 18.8815 537.128 18.5881 527.739 17.1941C516.901 15.5801 500.534 13.1499 487.615 26.0805C474.686 39.0111 477.125 55.3806 478.73 66.2203C480.124 75.6111 480.417 79.0592 476.575 82.9017C472.733 86.7442 469.295 86.4508 459.897 85.0568C449.068 83.4428 432.692 81.0126 419.773 93.9432C406.844 106.874 409.283 123.243 410.897 134.074C412.291 143.465 412.584 146.913 408.742 150.746C404.9 154.589 401.462 154.295 392.073 152.901C381.244 151.287 364.868 148.857 351.949 161.788C339.02 174.718 341.459 191.088 343.064 201.918C344.457 211.309 344.751 214.757 340.909 218.6C337.067 222.442 333.629 222.149 324.23 220.755C313.402 219.141 297.026 216.71 284.097 229.641C271.169 242.572 273.608 258.941 275.212 269.772C276.606 279.163 276.9 282.611 273.058 286.453C269.216 290.296 265.777 290.002 256.379 288.608C251.501 287.884 245.495 286.994 239.187 287.416L239.187 325.318C239.902 324.447 240.672 323.594 241.516 322.751C254.444 309.82 270.811 312.259 281.64 313.864L281.622 313.873Z" fill="#FAEFDB"/>
<path d="M403.717 298.942C413.106 300.336 416.554 300.629 420.396 296.787C424.238 292.944 423.944 289.505 422.55 280.105C420.937 269.275 418.507 252.896 431.435 239.965C444.364 227.035 460.731 229.474 471.568 231.079C480.958 232.473 484.405 232.766 488.238 228.924C492.08 225.081 491.786 221.642 490.393 212.243C488.779 201.412 486.349 185.033 499.277 172.103C512.206 159.172 528.573 161.611 539.401 163.225C548.791 164.619 552.238 164.913 556.071 161.07C559.904 157.228 559.619 153.789 558.226 144.398C556.612 133.568 554.182 117.189 567.101 104.267C580.021 91.346 596.397 93.7762 607.225 95.3811C616.615 96.775 620.062 97.0685 623.904 93.226C627.746 89.3835 627.462 85.9354 626.059 76.5446C624.445 65.7141 622.015 49.3354 634.944 36.4048C647.872 23.4742 664.239 25.9136 675.077 27.5184C684.466 28.9124 687.913 29.2058 691.746 25.3633C695.588 21.5208 695.295 18.0818 693.901 8.68192C692.287 -2.1486 689.857 -18.5274 702.786 -31.4488C715.714 -44.3794 732.081 -41.94 742.919 -40.3351C752.308 -38.9412 755.756 -38.6477 759.598 -42.4902C763.439 -46.3327 763.146 -49.7717 761.752 -59.1716C760.139 -70.0021 757.709 -86.3809 770.637 -99.3023C783.556 -112.233 799.932 -109.794 810.761 -108.189C820.15 -106.795 823.598 -106.51 827.44 -110.344C831.282 -114.186 830.997 -117.634 829.604 -127.025C827.99 -137.856 825.56 -154.234 838.488 -167.165C851.417 -180.096 867.784 -177.656 878.622 -176.051C888.011 -174.657 891.458 -174.373 895.3 -178.206C899.142 -182.049 898.849 -185.488 897.455 -194.888C895.841 -205.718 893.411 -222.097 906.34 -235.019C919.268 -247.949 935.635 -245.51 946.473 -243.905C955.862 -242.511 959.31 -242.227 963.152 -246.06C966.993 -249.903 966.709 -253.351 965.306 -262.741C963.693 -273.572 961.263 -289.951 974.191 -302.872C987.12 -315.803 1003.49 -313.363 1014.32 -311.758C1023.71 -310.365 1027.16 -310.071 1031 -313.914C1034.84 -317.756 1034.56 -321.204 1033.17 -330.595C1031.55 -341.426 1029.12 -357.804 1042.05 -370.735C1054.98 -383.665 1071.35 -381.226 1082.18 -379.621C1088.38 -378.704 1091.99 -378.273 1094.83 -379.181L1094.83 -413.122L1076.62 -413.122C1076.36 -410.701 1075.47 -408.921 1073.6 -407.041C1069.76 -403.199 1066.31 -403.492 1056.92 -404.886C1046.09 -406.491 1029.72 -408.931 1016.79 -396C1003.86 -383.069 1006.3 -366.7 1007.91 -355.869C1009.3 -346.479 1009.58 -343.03 1005.74 -339.188C1001.9 -335.345 998.462 -335.63 989.064 -337.033C978.235 -338.647 961.859 -341.077 948.93 -328.146C936.002 -315.216 938.441 -298.846 940.045 -288.007C941.439 -278.616 941.723 -275.168 937.891 -271.325C934.049 -267.483 930.61 -267.776 921.212 -269.17C910.383 -270.784 894.007 -273.214 881.079 -260.284C868.151 -247.362 870.59 -230.984 872.194 -220.153C873.588 -210.762 873.881 -207.314 870.039 -203.472C866.198 -199.629 862.75 -199.913 853.361 -201.307C842.532 -202.921 826.156 -205.352 813.228 -192.421C800.299 -179.49 802.738 -163.121 804.343 -152.281C805.736 -142.89 806.021 -139.442 802.188 -135.6C798.346 -131.757 794.899 -132.051 785.509 -133.445C774.681 -135.059 758.305 -137.489 745.385 -124.558C732.457 -111.628 734.896 -95.2581 736.501 -84.4184C737.894 -75.0276 738.179 -71.5795 734.346 -67.7462C730.504 -63.9037 727.066 -64.1971 717.667 -65.5911C706.839 -67.2051 690.462 -69.6353 677.543 -56.7047C664.615 -43.7741 667.054 -27.4045 668.658 -16.574C670.052 -7.18329 670.336 -3.73513 666.504 0.107372C662.662 3.94987 659.223 3.65641 649.834 2.26248C638.996 0.648447 622.629 -1.78177 609.71 11.1488C596.782 24.0794 599.221 40.449 600.825 51.2887C602.219 60.6794 602.512 64.1276 598.671 67.9701C594.829 71.8126 591.39 71.5191 581.992 70.1252C571.163 68.5112 554.787 66.0809 541.868 79.0115C528.94 91.9421 531.379 108.312 532.992 119.142C534.386 128.533 534.679 131.981 530.838 135.814C526.996 139.657 523.557 139.363 514.168 137.97C503.339 136.356 486.963 133.925 474.044 146.856C461.116 159.787 463.555 176.156 465.159 186.987C466.553 196.377 466.846 199.826 463.005 203.668C459.163 207.511 455.724 207.217 446.326 205.823C435.497 204.209 419.121 201.779 406.193 214.709C393.264 227.64 395.703 244.01 397.308 254.84C398.702 264.231 398.995 267.679 395.153 271.522C391.311 275.364 387.873 275.071 378.475 273.677C373.597 272.952 367.591 272.063 361.282 272.484L361.282 310.387C361.998 309.516 362.768 308.663 363.611 307.819C376.54 294.888 392.907 297.328 403.735 298.933L403.717 298.942Z" fill="#FAEFDB"/>
<path d="M524.812 283.014C534.201 284.408 537.648 284.701 541.49 280.859C545.332 277.016 545.039 273.577 543.645 264.178C542.031 253.347 539.601 236.968 552.53 224.038C565.458 211.107 581.825 213.546 592.663 215.151C602.052 216.545 605.5 216.839 609.332 212.996C613.174 209.154 612.881 205.715 611.487 196.315C609.873 185.484 607.444 169.106 620.372 156.175C633.3 143.244 649.667 145.684 660.496 147.298C669.885 148.692 673.333 148.985 677.165 145.143C680.998 141.3 680.714 137.861 679.32 128.47C677.706 117.64 675.277 101.261 688.196 88.3397C701.115 75.4183 717.491 77.8485 728.32 79.4534C737.709 80.8473 741.157 81.1408 744.998 77.2983C748.84 73.4558 748.556 70.0076 747.153 60.6169C745.539 49.7864 743.11 33.4076 756.038 20.477C768.966 7.54644 785.333 9.98582 796.171 11.5907C805.56 12.9846 809.008 13.2781 812.841 9.43558C816.683 5.59308 816.389 2.15409 814.995 -7.24581C813.382 -18.0763 810.952 -34.4551 823.88 -47.3765C836.809 -60.3071 853.176 -57.8677 864.013 -56.2629C873.403 -54.8689 876.85 -54.5755 880.692 -58.418C884.534 -62.2605 884.24 -65.6994 882.847 -75.0994C881.233 -85.9299 878.803 -102.309 891.732 -115.23C904.651 -128.161 921.027 -125.721 931.856 -124.116C941.245 -122.722 944.692 -122.438 948.534 -126.272C952.376 -130.114 952.092 -133.562 950.698 -142.953C949.084 -153.783 946.655 -170.162 959.583 -183.093C972.511 -196.023 988.878 -193.584 999.716 -191.979C1009.11 -190.585 1012.55 -190.301 1016.39 -194.134C1020.24 -197.977 1019.94 -201.416 1018.55 -210.816C1016.94 -221.646 1014.51 -238.025 1027.43 -250.946C1040.36 -263.877 1056.73 -261.438 1067.57 -259.833C1076.96 -258.439 1080.4 -258.154 1084.25 -261.988C1088.09 -265.83 1087.8 -269.278 1086.4 -278.669C1084.79 -289.5 1082.36 -305.878 1095.29 -318.8C1108.21 -331.73 1124.58 -329.291 1135.42 -327.686C1144.81 -326.292 1148.26 -325.999 1152.1 -329.841C1155.94 -333.684 1155.66 -337.132 1154.26 -346.523C1152.65 -357.353 1150.22 -373.732 1163.15 -386.663C1176.07 -399.593 1192.44 -397.154 1203.28 -395.549C1209.48 -394.632 1213.08 -394.201 1215.92 -395.109L1215.92 -429.049L1197.71 -429.049C1197.46 -426.628 1196.57 -424.849 1194.7 -422.969C1190.86 -419.127 1187.41 -419.42 1178.02 -420.814C1167.18 -422.419 1150.81 -424.858 1137.89 -411.928C1124.96 -398.997 1127.4 -382.628 1129 -371.797C1130.39 -362.406 1130.68 -358.958 1126.84 -355.116C1122.99 -351.273 1119.56 -351.557 1110.16 -352.96C1099.33 -354.575 1082.95 -357.005 1070.02 -344.074C1057.1 -331.144 1059.54 -314.774 1061.14 -303.934C1062.53 -294.544 1062.82 -291.095 1058.99 -287.253C1055.14 -283.41 1051.7 -283.704 1042.31 -285.098C1031.48 -286.712 1015.1 -289.142 1002.17 -276.211C989.245 -263.29 991.684 -246.911 993.289 -236.081C994.682 -226.69 994.976 -223.242 991.134 -219.399C987.292 -215.557 983.844 -215.841 974.455 -217.235C963.627 -218.849 947.251 -221.279 934.322 -208.349C921.394 -195.418 923.833 -179.049 925.437 -168.209C926.831 -158.818 927.115 -155.37 923.283 -151.527C919.441 -147.685 915.993 -147.978 906.604 -149.372C895.775 -150.986 879.399 -153.417 866.48 -140.486C853.551 -127.555 855.99 -111.186 857.595 -100.346C858.989 -90.9554 859.273 -87.5072 855.44 -83.6739C851.598 -79.8314 848.16 -80.1249 838.762 -81.5188C827.933 -83.1328 811.557 -85.563 798.638 -72.6324C785.709 -59.7018 788.148 -43.3323 789.753 -32.5018C791.147 -23.111 791.431 -19.6629 787.598 -15.8204C783.756 -11.9779 780.318 -12.2713 770.929 -13.6653C760.091 -15.2793 743.724 -17.7095 730.805 -4.7789C717.876 8.15169 720.315 24.5213 721.92 35.361C723.314 44.7517 723.607 48.1999 719.765 52.0424C715.923 55.8849 712.485 55.5914 703.086 54.1975C692.258 52.5834 675.882 50.1532 662.962 63.0838C650.034 76.0144 652.473 92.384 654.087 103.215C655.48 112.605 655.774 116.053 651.932 119.887C648.09 123.729 644.652 123.436 635.263 122.042C624.434 120.428 608.058 117.998 595.139 130.928C582.21 143.859 584.649 160.228 586.254 171.059C587.647 180.45 587.941 183.898 584.099 187.74C580.257 191.583 576.819 191.289 567.42 189.895C556.592 188.281 540.216 185.851 527.287 198.782C514.359 211.712 516.798 228.082 518.402 238.912C519.796 248.303 520.089 251.751 516.248 255.594C512.406 259.436 508.967 259.143 499.569 257.749C494.691 257.024 488.685 256.135 482.377 256.557L482.377 294.459C483.092 293.588 483.862 292.735 484.706 291.891C497.634 278.961 514.001 281.4 524.83 283.005L524.812 283.014Z" fill="#FAEFDB"/>
<path d="M645.906 267.086C655.295 268.48 658.743 268.774 662.585 264.931C666.427 261.089 666.133 257.65 664.739 248.25C663.126 237.419 660.696 221.041 673.624 208.11C686.553 195.179 702.92 197.619 713.757 199.224C723.147 200.618 726.594 200.911 730.427 197.068C734.269 193.226 733.975 189.787 732.582 180.387C730.968 169.557 728.538 153.178 741.466 140.247C754.395 127.317 770.762 129.756 781.59 131.37C790.98 132.764 794.427 133.057 798.26 129.215C802.093 125.372 801.808 121.933 800.415 112.543C798.801 101.712 796.371 85.3334 809.29 72.412C822.21 59.4906 838.586 61.9208 849.414 63.5256C858.803 64.9196 862.251 65.2131 866.093 61.3706C869.935 57.5281 869.651 54.0799 868.248 44.6892C866.634 33.8586 864.204 17.4799 877.133 4.5493C890.061 -8.3813 906.428 -5.94191 917.266 -4.33705C926.655 -2.94311 930.102 -2.64966 933.935 -6.49216C937.777 -10.3347 937.484 -13.7736 936.09 -23.1735C934.476 -34.0041 932.046 -50.3828 944.975 -63.3043C957.903 -76.2349 974.27 -73.7955 985.108 -72.1906C994.497 -70.7967 997.945 -70.5032 1001.79 -74.3457C1005.63 -78.1882 1005.33 -81.6272 1003.94 -91.0271C1002.33 -101.858 999.898 -118.236 1012.83 -131.158C1025.75 -144.088 1042.12 -141.649 1052.95 -140.044C1062.34 -138.65 1065.79 -138.366 1069.63 -142.199C1073.47 -146.042 1073.19 -149.49 1071.79 -158.881C1070.18 -169.711 1067.75 -186.09 1080.68 -199.021C1093.61 -211.951 1109.97 -209.512 1120.81 -207.907C1130.2 -206.513 1133.65 -206.229 1137.49 -210.062C1141.33 -213.904 1141.04 -217.343 1139.64 -226.743C1138.03 -237.574 1135.6 -253.953 1148.53 -266.874C1161.46 -279.805 1177.82 -277.365 1188.66 -275.76C1198.05 -274.366 1201.5 -274.082 1205.34 -277.916C1209.18 -281.758 1208.9 -285.206 1207.5 -294.597C1205.88 -305.427 1203.45 -321.806 1216.38 -334.728C1229.31 -347.658 1245.68 -345.219 1256.51 -343.614C1265.9 -342.22 1269.35 -341.927 1273.19 -345.769C1277.03 -349.612 1276.75 -353.06 1275.36 -362.45C1273.74 -373.281 1271.31 -389.66 1284.24 -402.59C1297.17 -415.521 1313.54 -413.082 1324.37 -411.477C1330.57 -410.56 1334.18 -410.129 1337.02 -411.036L1337.02 -444.977L1318.81 -444.977C1318.55 -442.556 1317.66 -440.777 1315.79 -438.897C1311.95 -435.054 1308.5 -435.348 1299.11 -436.742C1288.28 -438.347 1271.91 -440.786 1258.98 -427.855C1246.05 -414.925 1248.49 -398.555 1250.09 -387.725C1251.49 -378.334 1251.77 -374.886 1247.93 -371.043C1244.09 -367.201 1240.65 -367.485 1231.25 -368.888C1220.42 -370.502 1204.05 -372.932 1191.12 -360.002C1178.19 -347.071 1180.63 -330.702 1182.23 -319.862C1183.63 -310.471 1183.91 -307.023 1180.08 -303.181C1176.24 -299.338 1172.8 -299.632 1163.4 -301.026C1152.57 -302.64 1136.2 -305.07 1123.27 -292.139C1110.34 -279.218 1112.78 -262.839 1114.38 -252.008C1115.78 -242.618 1116.07 -239.17 1112.23 -235.327C1108.39 -231.485 1104.94 -231.769 1095.55 -233.163C1084.72 -234.777 1068.35 -237.207 1055.42 -224.276C1042.49 -211.346 1044.93 -194.976 1046.53 -184.137C1047.93 -174.746 1048.21 -171.298 1044.38 -167.455C1040.54 -163.613 1037.09 -163.906 1027.7 -165.3C1016.87 -166.914 1000.49 -169.344 987.574 -156.414C974.646 -143.483 977.085 -127.114 978.69 -116.274C980.083 -106.883 980.367 -103.435 976.535 -99.6016C972.693 -95.7591 969.255 -96.0526 959.856 -97.4465C949.027 -99.0606 932.651 -101.491 919.732 -88.5602C906.804 -75.6296 909.243 -59.26 910.847 -48.4295C912.241 -39.0388 912.525 -35.5906 908.693 -31.7481C904.851 -27.9056 901.412 -28.1991 892.023 -29.593C881.185 -31.207 864.818 -33.6372 851.899 -20.7066C838.971 -7.77604 841.41 8.59354 843.014 19.4332C844.408 28.824 844.701 32.2721 840.86 36.1146C837.018 39.9571 833.579 39.6637 824.181 38.2697C813.352 36.6557 796.976 34.2255 784.057 47.1561C771.129 60.0867 773.567 76.4562 775.181 87.2868C776.575 96.6775 776.868 100.126 773.027 103.959C769.185 107.802 765.746 107.508 756.357 106.114C745.528 104.5 729.152 102.07 716.233 115C703.305 127.931 705.744 144.301 707.348 155.131C708.742 164.522 709.035 167.97 705.193 171.813C701.352 175.655 697.913 175.362 688.515 173.968C677.686 172.354 661.31 169.923 648.382 182.854C635.453 195.785 637.892 212.154 639.497 222.985C640.891 232.375 641.184 235.824 637.342 239.666C633.5 243.509 630.062 243.215 620.664 241.821C615.786 241.097 609.78 240.207 603.471 240.629L603.471 278.531C604.187 277.66 604.957 276.807 605.8 275.963C618.729 263.033 635.096 265.472 645.924 267.077L645.906 267.086Z" fill="#FAEFDB"/>
<path d="M699.948 317.856C709.337 319.25 712.785 319.543 716.627 315.701C720.469 311.858 720.175 308.419 718.782 299.019C717.168 288.189 714.738 271.81 727.666 258.879C740.595 245.949 756.962 248.388 767.8 249.993C777.189 251.387 780.636 251.681 784.469 247.838C788.311 243.996 788.018 240.557 786.624 231.157C785.01 220.326 782.58 203.947 795.509 191.017C808.437 178.086 824.804 180.526 835.633 182.14C845.022 183.533 848.469 183.827 852.302 179.984C856.135 176.142 855.851 172.703 854.457 163.312C852.843 152.482 850.413 136.103 863.333 123.182C876.252 110.26 892.628 112.69 903.457 114.295C912.846 115.689 916.293 115.983 920.135 112.14C923.977 108.298 923.693 104.849 922.29 95.4587C920.676 84.6282 918.246 68.2494 931.175 55.3188C944.103 42.3882 960.47 44.8276 971.308 46.4325C980.697 47.8264 984.145 48.1199 987.977 44.2774C991.819 40.4349 991.526 36.9959 990.132 27.596C988.518 16.7655 986.089 0.386696 999.017 -12.5347C1011.95 -25.4653 1028.31 -23.0259 1039.15 -21.4211C1048.54 -20.0271 1051.99 -19.7337 1055.83 -23.5762C1059.67 -27.4187 1059.38 -30.8577 1057.98 -40.2576C1056.37 -51.0881 1053.94 -67.4668 1066.87 -80.3883C1079.79 -93.3189 1096.16 -90.8795 1106.99 -89.2746C1116.38 -87.8807 1119.83 -87.5964 1123.67 -91.4297C1127.51 -95.2722 1127.23 -98.7204 1125.83 -108.111C1124.22 -118.942 1121.79 -135.32 1134.72 -148.251C1147.65 -161.182 1164.01 -158.742 1174.85 -157.137C1184.24 -155.743 1187.69 -155.459 1191.53 -159.292C1195.37 -163.135 1195.08 -166.574 1193.69 -175.974C1192.07 -186.804 1189.64 -203.183 1202.57 -216.105C1215.5 -229.035 1231.87 -226.596 1242.7 -224.991C1252.09 -223.597 1255.54 -223.313 1259.38 -227.146C1263.22 -230.989 1262.94 -234.437 1261.54 -243.827C1259.92 -254.658 1257.49 -271.037 1270.42 -283.958C1283.35 -296.889 1299.72 -294.449 1310.56 -292.844C1319.94 -291.45 1323.39 -291.157 1327.23 -295C1331.08 -298.842 1330.79 -302.29 1329.4 -311.681C1327.78 -322.511 1325.35 -338.89 1338.28 -351.821C1351.21 -364.751 1367.58 -362.312 1378.42 -360.707C1384.61 -359.79 1388.22 -359.359 1391.06 -360.267L1391.06 -394.207L1372.85 -394.207C1372.59 -391.786 1371.7 -390.007 1369.83 -388.127C1365.99 -384.285 1362.54 -384.578 1353.16 -385.972C1342.32 -387.577 1325.95 -390.017 1313.02 -377.086C1300.09 -364.155 1302.53 -347.786 1304.14 -336.955C1305.53 -327.564 1305.82 -324.116 1301.97 -320.274C1298.13 -316.431 1294.69 -316.716 1285.29 -318.119C1274.47 -319.733 1258.09 -322.163 1245.16 -309.232C1232.23 -296.302 1234.67 -279.932 1236.28 -269.092C1237.67 -259.702 1237.95 -256.254 1234.12 -252.411C1230.28 -248.569 1226.84 -248.862 1217.44 -250.256C1206.61 -251.87 1190.24 -254.3 1177.31 -241.37C1164.38 -228.448 1166.82 -212.069 1168.43 -201.239C1169.82 -191.848 1170.11 -188.4 1166.27 -184.558C1162.43 -180.715 1158.98 -180.999 1149.59 -182.393C1138.76 -184.007 1122.39 -186.438 1109.46 -173.507C1096.53 -160.576 1098.97 -144.207 1100.57 -133.367C1101.97 -123.976 1102.25 -120.528 1098.42 -116.686C1094.58 -112.843 1091.13 -113.137 1081.74 -114.531C1070.91 -116.145 1054.54 -118.575 1041.62 -105.644C1028.69 -92.7136 1031.13 -76.344 1032.73 -65.5043C1034.13 -56.1136 1034.41 -52.6654 1030.58 -48.8321C1026.74 -44.9896 1023.3 -45.2831 1013.9 -46.677C1003.07 -48.291 986.694 -50.7212 973.774 -37.7906C960.846 -24.86 963.285 -8.49048 964.89 2.34004C966.283 11.7308 966.568 15.1789 962.735 19.0214C958.893 22.8639 955.455 22.5705 946.065 21.1765C935.228 19.5625 918.861 17.1323 905.941 30.0629C893.013 42.9935 895.452 59.3631 897.057 70.2028C898.45 79.5935 898.744 83.0417 894.902 86.8842C891.06 90.7266 887.622 90.4332 878.223 89.0393C867.394 87.4252 851.018 84.995 838.099 97.9256C825.171 110.856 827.61 127.226 829.223 138.056C830.617 147.447 830.911 150.895 827.069 154.729C823.227 158.571 819.788 158.278 810.399 156.884C799.571 155.27 783.195 152.839 770.275 165.77C757.347 178.701 759.786 195.07 761.39 205.901C762.784 215.291 763.078 218.74 759.236 222.582C755.394 226.425 751.955 226.131 742.557 224.737C731.728 223.123 715.352 220.693 702.424 233.624C689.496 246.554 691.934 262.924 693.539 273.754C694.933 283.145 695.226 286.593 691.384 290.436C687.542 294.278 684.104 293.985 674.706 292.591C669.828 291.866 663.822 290.977 657.514 291.399L657.514 329.301C658.229 328.43 658.999 327.577 659.843 326.733C672.771 313.802 689.138 316.242 699.967 317.847L699.948 317.856Z" fill="#FAEFDB"/>
<path d="M753.991 366.635C763.38 368.029 766.827 368.323 770.669 364.48C774.511 360.638 774.218 357.199 772.824 347.799C771.21 336.968 768.78 320.589 781.709 307.659C794.637 294.728 811.004 297.168 821.842 298.772C831.231 300.166 834.679 300.46 838.511 296.617C842.353 292.775 842.06 289.336 840.666 279.936C839.052 269.105 836.622 252.727 849.551 239.796C862.479 226.865 878.846 229.305 889.675 230.919C899.064 232.313 902.512 232.606 906.344 228.764C910.177 224.921 909.893 221.482 908.499 212.092C906.885 201.261 904.456 184.882 917.375 171.961C930.294 159.039 946.67 161.47 957.499 163.074C966.888 164.468 970.336 164.762 974.177 160.919C978.019 157.077 977.735 153.629 976.332 144.238C974.718 133.407 972.289 117.029 985.217 104.098C998.145 91.1675 1014.51 93.6069 1025.35 95.2118C1034.74 96.6057 1038.19 96.8992 1042.02 93.0567C1045.86 89.2142 1045.57 85.7752 1044.17 76.3753C1042.56 65.5448 1040.13 49.166 1053.06 36.2446C1065.99 23.314 1082.35 25.7534 1093.19 27.3582C1102.58 28.7521 1106.03 29.0456 1109.87 25.2031C1113.71 21.3606 1113.42 17.9216 1112.03 8.52174C1110.41 -2.30878 1107.98 -18.6875 1120.91 -31.609C1133.83 -44.5396 1150.21 -42.1002 1161.03 -40.4953C1170.42 -39.1014 1173.87 -38.8171 1177.71 -42.6504C1181.56 -46.4929 1181.27 -49.9411 1179.88 -59.3318C1178.26 -70.1623 1175.83 -86.5411 1188.76 -99.4717C1201.69 -112.402 1218.06 -109.963 1228.9 -108.358C1238.28 -106.964 1241.73 -106.68 1245.57 -110.513C1249.42 -114.356 1249.12 -117.795 1247.73 -127.195C1246.11 -138.025 1243.68 -154.404 1256.61 -167.325C1269.54 -180.256 1285.91 -177.816 1296.75 -176.212C1306.14 -174.818 1309.58 -174.533 1313.43 -178.367C1317.27 -182.209 1316.98 -185.657 1315.58 -195.048C1313.97 -205.879 1311.54 -222.257 1324.46 -235.179C1337.39 -248.109 1353.76 -245.67 1364.6 -244.065C1373.99 -242.671 1377.43 -242.378 1381.28 -246.22C1385.12 -250.063 1384.83 -253.511 1383.44 -262.902C1381.83 -273.732 1379.4 -290.111 1392.33 -303.041C1405.25 -315.972 1421.62 -313.533 1432.46 -311.928C1438.66 -311.011 1442.26 -310.58 1445.1 -311.488L1445.1 -345.428L1426.89 -345.428C1426.64 -343.007 1425.75 -341.228 1423.88 -339.348C1420.03 -335.506 1416.59 -335.799 1407.2 -337.193C1396.36 -338.798 1379.99 -341.237 1367.06 -328.307C1354.14 -315.376 1356.57 -299.006 1358.18 -288.176C1359.57 -278.785 1359.86 -275.337 1356.02 -271.495C1352.17 -267.652 1348.74 -267.936 1339.34 -269.339C1328.51 -270.953 1312.13 -273.384 1299.2 -260.453C1286.28 -247.522 1288.71 -231.153 1290.32 -220.313C1291.71 -210.922 1292 -207.474 1288.16 -203.632C1284.32 -199.789 1280.88 -200.083 1271.49 -201.477C1260.66 -203.091 1244.28 -205.521 1231.35 -192.59C1218.42 -179.669 1220.86 -163.29 1222.47 -152.46C1223.86 -143.069 1224.15 -139.621 1220.31 -135.778C1216.47 -131.936 1213.02 -132.22 1203.63 -133.614C1192.81 -135.228 1176.43 -137.658 1163.5 -124.728C1150.57 -111.797 1153.01 -95.4275 1154.62 -84.5878C1156.01 -75.197 1156.29 -71.7489 1152.46 -67.9064C1148.62 -64.0639 1145.17 -64.3573 1135.78 -65.7513C1124.95 -67.3653 1108.58 -69.7955 1095.66 -56.8649C1082.73 -43.9343 1085.17 -27.5647 1086.77 -16.725C1088.17 -7.33429 1088.45 -3.88613 1084.62 -0.0528066C1080.78 3.78969 1077.34 3.49624 1067.94 2.1023C1057.11 0.488268 1040.74 -1.94195 1027.82 10.9887C1014.89 23.9193 1017.33 40.2888 1018.93 51.1193C1020.33 60.5101 1020.61 63.9582 1016.78 67.8007C1012.94 71.6432 1009.5 71.3498 1000.11 69.9558C989.27 68.3418 972.903 65.9116 959.984 78.8422C947.055 91.7728 949.494 108.142 951.099 118.982C952.492 128.373 952.786 131.821 948.944 135.663C945.102 139.506 941.664 139.212 932.265 137.819C921.437 136.205 905.061 133.774 892.141 146.705C879.213 159.636 881.652 176.005 883.266 186.836C884.659 196.226 884.953 199.675 881.111 203.508C877.269 207.35 873.831 207.057 864.442 205.663C853.613 204.049 837.237 201.619 824.318 214.549C811.389 227.48 813.828 243.849 815.433 254.68C816.826 264.071 817.12 267.519 813.278 271.361C809.436 275.204 805.998 274.91 796.599 273.516C785.771 271.902 769.395 269.472 756.466 282.403C743.538 295.333 745.977 311.703 747.581 322.534C748.975 331.924 749.268 335.372 745.427 339.215C741.585 343.057 738.146 342.764 728.748 341.37C723.87 340.646 717.864 339.756 711.556 340.178L711.556 378.08C712.271 377.209 713.041 376.356 713.885 375.512C726.813 362.582 743.18 365.021 754.009 366.626L753.991 366.635Z" fill="#FAEFDB"/>
<path d="M807.032 417.403C816.421 418.797 819.869 419.09 823.711 415.248C827.552 411.405 827.259 407.966 825.865 398.566C824.252 387.736 821.822 371.357 834.75 358.426C847.679 345.496 864.046 347.935 874.883 349.54C884.273 350.934 887.72 351.227 891.553 347.385C895.395 343.542 895.101 340.103 893.708 330.703C892.094 319.873 889.664 303.494 902.592 290.564C915.521 277.633 931.888 280.072 942.716 281.686C952.106 283.08 955.553 283.374 959.386 279.531C963.219 275.689 962.934 272.25 961.541 262.859C959.927 252.029 957.497 235.65 970.416 222.728C983.336 209.807 999.712 212.237 1010.54 213.842C1019.93 215.236 1023.38 215.529 1027.22 211.687C1031.06 207.844 1030.78 204.396 1029.37 195.006C1027.76 184.175 1025.33 167.796 1038.26 154.866C1051.19 141.935 1067.55 144.374 1078.39 145.979C1087.78 147.373 1091.23 147.667 1095.06 143.824C1098.9 139.982 1098.61 136.543 1097.22 127.143C1095.6 116.312 1093.17 99.9336 1106.1 87.0121C1119.03 74.0815 1135.4 76.5209 1146.23 78.1258C1155.62 79.5197 1159.07 79.8132 1162.91 75.9707C1166.75 72.1282 1166.46 68.6892 1165.07 59.2893C1163.45 48.4588 1161.02 32.08 1173.95 19.1586C1186.87 6.228 1203.25 8.66739 1214.08 10.2723C1223.47 11.6662 1226.91 11.9505 1230.75 8.11715C1234.6 4.27465 1234.31 0.826488 1232.92 -8.56424C1231.3 -19.3948 1228.87 -35.7735 1241.8 -48.7041C1254.73 -61.6347 1271.1 -59.1953 1281.94 -57.5905C1291.33 -56.1965 1294.77 -55.9122 1298.62 -59.7455C1302.46 -63.588 1302.16 -67.027 1300.77 -76.4269C1299.16 -87.2575 1296.73 -103.636 1309.65 -116.558C1322.58 -129.488 1338.95 -127.049 1349.79 -125.444C1359.18 -124.05 1362.62 -123.766 1366.47 -127.599C1370.31 -131.442 1370.02 -134.89 1368.62 -144.281C1367.01 -155.111 1364.58 -171.49 1377.51 -184.411C1390.43 -197.342 1406.8 -194.902 1417.64 -193.298C1427.03 -191.904 1430.48 -191.61 1434.32 -195.453C1438.16 -199.295 1437.88 -202.743 1436.48 -212.134C1434.87 -222.965 1432.44 -239.343 1445.37 -252.274C1458.3 -265.205 1474.66 -262.765 1485.5 -261.16C1491.7 -260.243 1495.3 -259.812 1498.14 -260.72L1498.14 -294.661L1479.93 -294.661C1479.68 -292.24 1478.79 -290.46 1476.92 -288.58C1473.08 -284.738 1469.63 -285.031 1460.24 -286.425C1449.4 -288.03 1433.03 -290.47 1420.11 -277.539C1407.18 -264.608 1409.62 -248.239 1411.22 -237.408C1412.61 -228.018 1412.9 -224.569 1409.06 -220.727C1405.22 -216.884 1401.78 -217.169 1392.38 -218.572C1381.55 -220.186 1365.17 -222.616 1352.25 -209.685C1339.32 -196.755 1341.76 -180.385 1343.36 -169.546C1344.75 -160.155 1345.04 -156.707 1341.21 -152.864C1337.36 -149.022 1333.93 -149.315 1324.53 -150.709C1313.7 -152.323 1297.32 -154.753 1284.39 -141.823C1271.47 -128.901 1273.9 -112.523 1275.51 -101.692C1276.9 -92.3014 1277.2 -88.8532 1273.35 -85.0107C1269.51 -81.1682 1266.06 -81.4524 1256.68 -82.8464C1245.85 -84.4604 1229.47 -86.8906 1216.54 -73.96C1203.61 -61.0294 1206.05 -44.6599 1207.66 -33.8202C1209.05 -24.4295 1209.34 -20.9813 1205.5 -17.1388C1201.66 -13.2963 1198.21 -13.5898 1188.82 -14.9837C1178 -16.5977 1161.62 -19.0279 1148.7 -6.09734C1135.77 6.83326 1138.21 23.2029 1139.82 34.0426C1141.21 43.4333 1141.49 46.8814 1137.66 50.7148C1133.82 54.5573 1130.38 54.2638 1120.98 52.8699C1110.15 51.2558 1093.78 48.8256 1080.86 61.7562C1067.93 74.6868 1070.37 91.0564 1071.97 101.887C1073.37 111.278 1073.65 114.726 1069.82 118.568C1065.98 122.411 1062.54 122.117 1053.15 120.723C1042.31 119.109 1025.94 116.679 1013.03 129.61C1000.1 142.54 1002.54 158.91 1004.14 169.75C1005.53 179.14 1005.83 182.589 1001.99 186.431C998.144 190.274 994.705 189.98 985.307 188.586C974.478 186.972 958.102 184.542 945.183 197.472C932.254 210.403 934.693 226.773 936.307 237.603C937.701 246.994 937.994 250.442 934.152 254.275C930.311 258.118 926.872 257.824 917.483 256.43C906.654 254.816 890.278 252.386 877.359 265.317C864.431 278.247 866.87 294.617 868.474 305.448C869.868 314.838 870.161 318.286 866.319 322.129C862.478 325.971 859.039 325.678 849.641 324.284C838.812 322.67 822.436 320.24 809.508 333.17C796.579 346.101 799.018 362.471 800.623 373.301C802.017 382.692 802.31 386.14 798.468 389.982C794.626 393.825 791.188 393.532 781.789 392.138C776.912 391.413 770.906 390.524 764.597 390.945L764.597 428.848C765.313 427.976 766.083 427.124 766.926 426.28C779.855 413.349 796.222 415.789 807.05 417.394L807.032 417.403Z" fill="#FAEFDB"/>
<path d="M859.073 467.178C868.462 468.572 871.91 468.865 875.751 465.023C879.593 461.18 879.3 457.742 877.906 448.342C876.292 437.511 873.863 421.132 886.791 408.202C899.719 395.271 916.086 397.711 926.924 399.315C936.313 400.709 939.761 401.003 943.594 397.16C947.435 393.318 947.142 389.879 945.748 380.479C944.135 369.648 941.705 353.27 954.633 340.339C967.562 327.408 983.928 329.848 994.757 331.462C1004.15 332.856 1007.59 333.149 1011.43 329.307C1015.26 325.464 1014.98 322.025 1013.58 312.635C1011.97 301.804 1009.54 285.425 1022.46 272.504C1035.38 259.582 1051.75 262.013 1062.58 263.617C1071.97 265.011 1075.42 265.305 1079.26 261.462C1083.1 257.62 1082.82 254.172 1081.41 244.781C1079.8 233.95 1077.37 217.572 1090.3 204.641C1103.23 191.71 1119.59 194.15 1130.43 195.755C1139.82 197.149 1143.27 197.442 1147.1 193.6C1150.94 189.757 1150.65 186.318 1149.26 176.918C1147.64 166.088 1145.21 149.709 1158.14 136.788C1171.07 123.857 1187.44 126.296 1198.27 127.901C1207.66 129.295 1211.11 129.589 1214.95 125.746C1218.8 121.904 1218.5 118.465 1217.11 109.065C1215.49 98.2342 1213.06 81.8554 1225.99 68.934C1238.91 56.0034 1255.29 58.4428 1266.12 60.0476C1275.51 61.4416 1278.95 61.7259 1282.8 57.8925C1286.64 54.05 1286.35 50.6019 1284.96 41.2111C1283.35 30.3806 1280.92 14.0019 1293.84 1.07128C1306.77 -11.8593 1323.14 -9.41994 1333.98 -7.81507C1343.37 -6.42114 1346.81 -6.13683 1350.66 -9.97015C1354.5 -13.8126 1354.2 -17.2516 1352.81 -26.6515C1351.2 -37.4821 1348.77 -53.8608 1361.7 -66.7823C1374.62 -79.7129 1390.99 -77.2735 1401.83 -75.6686C1411.22 -74.2747 1414.67 -73.9904 1418.51 -77.8237C1422.35 -81.6662 1422.06 -85.1144 1420.66 -94.5051C1419.05 -105.336 1416.62 -121.714 1429.55 -134.636C1442.48 -147.566 1458.84 -145.127 1469.68 -143.522C1479.07 -142.128 1482.52 -141.835 1486.36 -145.677C1490.2 -149.52 1489.92 -152.968 1488.52 -162.359C1486.91 -173.189 1484.48 -189.568 1497.41 -202.499C1510.34 -215.429 1526.7 -212.99 1537.54 -211.385C1543.74 -210.468 1547.34 -210.037 1550.18 -210.945L1550.18 -244.885L1531.97 -244.885C1531.72 -242.464 1530.83 -240.685 1528.96 -238.805C1525.12 -234.963 1521.67 -235.256 1512.28 -236.65C1501.44 -238.255 1485.08 -240.694 1472.15 -227.764C1459.22 -214.833 1461.66 -198.463 1463.26 -187.633C1464.66 -178.242 1464.94 -174.794 1461.1 -170.952C1457.26 -167.109 1453.82 -167.393 1444.42 -168.796C1433.59 -170.41 1417.21 -172.841 1404.29 -159.91C1391.36 -146.979 1393.8 -130.61 1395.4 -119.77C1396.79 -110.379 1397.08 -106.931 1393.25 -103.089C1389.4 -99.2463 1385.97 -99.5398 1376.57 -100.934C1365.74 -102.548 1349.36 -104.978 1336.43 -92.0474C1323.51 -79.1259 1325.95 -62.7472 1327.55 -51.9167C1328.94 -42.526 1329.24 -39.0778 1325.4 -35.2353C1321.55 -31.3928 1318.11 -31.6771 1308.72 -33.071C1297.89 -34.685 1281.51 -37.1152 1268.58 -24.1846C1255.65 -11.254 1258.09 5.11551 1259.7 15.9552C1261.09 25.3459 1261.38 28.7941 1257.54 32.6366C1253.7 36.4791 1250.25 36.1856 1240.87 34.7917C1230.04 33.1777 1213.66 30.7475 1200.74 43.6781C1187.81 56.6087 1190.25 72.9783 1191.86 83.818C1193.25 93.2087 1193.53 96.6568 1189.7 100.49C1185.86 104.333 1182.42 104.039 1173.02 102.645C1162.19 101.031 1145.82 98.601 1132.9 111.532C1119.97 124.462 1122.41 140.832 1124.01 151.662C1125.41 161.053 1125.69 164.501 1121.86 168.344C1118.02 172.186 1114.58 171.893 1105.19 170.499C1094.35 168.885 1077.99 166.455 1065.07 179.385C1052.14 192.316 1054.58 208.685 1056.18 219.525C1057.57 228.916 1057.87 232.364 1054.03 236.206C1050.18 240.049 1046.75 239.755 1037.35 238.362C1026.52 236.747 1010.14 234.317 997.224 247.248C984.295 260.178 986.734 276.548 988.348 287.379C989.742 296.769 990.035 300.217 986.193 304.051C982.351 307.893 978.913 307.6 969.524 306.206C958.695 304.592 942.319 302.162 929.4 315.092C916.471 328.023 918.91 344.392 920.515 355.223C921.909 364.614 922.202 368.062 918.36 371.904C914.518 375.747 911.08 375.453 901.682 374.059C890.853 372.445 874.477 370.015 861.548 382.946C848.62 395.876 851.059 412.246 852.664 423.076C854.057 432.467 854.351 435.915 850.509 439.758C846.667 443.6 843.229 443.307 833.83 441.913C828.952 441.189 822.947 440.299 816.638 440.721L816.638 478.623C817.353 477.752 818.124 476.899 818.967 476.055C831.896 463.125 848.262 465.564 859.091 467.169L859.073 467.178Z" fill="#FAEFDB"/>
<path d="M937.153 460.005C950.082 447.074 966.449 449.513 977.287 451.118C986.676 452.512 990.123 452.806 993.956 448.963C997.798 445.121 997.505 441.673 996.111 432.282C994.497 421.451 992.067 405.073 1005 392.151C1017.92 379.22 1034.29 381.66 1045.12 383.265C1054.51 384.659 1057.96 384.952 1061.79 381.11C1065.63 377.267 1065.34 373.828 1063.94 364.437C1062.33 353.607 1059.9 337.228 1072.82 324.307C1085.75 311.376 1102.11 313.815 1112.94 315.43C1122.33 316.823 1125.78 317.117 1129.61 313.274C1133.45 309.432 1133.17 305.984 1131.77 296.593C1130.15 285.763 1127.72 269.384 1140.65 256.453C1153.58 243.523 1169.95 245.962 1180.79 247.567C1190.17 248.961 1193.62 249.254 1197.46 245.412C1201.3 241.569 1201 238.121 1199.61 228.73C1198.01 217.9 1195.57 201.521 1208.49 188.6C1221.42 175.669 1237.79 178.108 1248.63 179.713C1258.02 181.107 1261.46 181.401 1265.31 177.558C1269.15 173.716 1268.86 170.277 1267.46 160.877C1265.85 150.046 1263.42 133.667 1276.35 120.737C1289.27 107.806 1305.64 110.246 1316.47 111.851C1325.86 113.244 1329.31 113.529 1333.15 109.695C1336.99 105.853 1336.71 102.405 1335.31 93.0141C1333.71 82.1744 1331.27 65.8048 1344.2 52.8742C1357.13 39.9436 1373.49 42.383 1384.33 43.9878C1393.72 45.3818 1397.17 45.6661 1401.01 41.8327C1404.85 37.9902 1404.56 34.5513 1403.16 25.1514C1401.55 14.3208 1399.12 -2.05794 1412.05 -14.9794C1424.98 -27.9008 1441.34 -25.4706 1452.18 -23.8657C1461.57 -22.4718 1465.02 -22.1875 1468.86 -26.0208C1472.7 -29.8633 1472.42 -33.3115 1471.02 -42.7022C1469.4 -53.5327 1466.97 -69.9115 1479.9 -82.8329C1492.83 -95.7635 1509.2 -93.3241 1520.03 -91.7193C1529.42 -90.3253 1532.87 -90.0318 1536.71 -93.8743C1540.55 -97.7168 1540.27 -101.165 1538.88 -110.556C1537.26 -121.386 1534.83 -137.765 1547.76 -150.696C1548.49 -151.429 1549.25 -152.108 1550 -152.75L1550 -186.14C1541.05 -186.333 1531.02 -184.499 1522.49 -175.97C1509.56 -163.039 1512 -146.67 1513.61 -135.839C1515 -126.448 1515.28 -123 1511.44 -119.158C1507.6 -115.315 1504.16 -115.6 1494.76 -117.003C1483.93 -118.617 1467.56 -121.047 1454.63 -108.116C1441.7 -95.1858 1444.14 -78.8162 1445.75 -67.9856C1447.14 -58.5949 1447.43 -55.1467 1443.58 -51.3042C1439.74 -47.4617 1436.3 -47.7461 1426.9 -49.14C1416.07 -50.754 1399.7 -53.1842 1386.77 -40.2536C1373.84 -27.323 1376.28 -10.9534 1377.88 -0.122919C1379.28 9.26781 1379.56 12.716 1375.73 16.5585C1371.89 20.401 1368.45 20.1167 1359.05 18.7227C1348.22 17.1087 1331.85 14.6785 1318.92 27.6091C1305.99 40.5397 1308.43 56.9093 1310.03 67.749C1311.43 77.1397 1311.71 80.5878 1307.88 84.4303C1304.04 88.2728 1300.59 87.9794 1291.2 86.5854C1280.37 84.9714 1264 82.5412 1251.08 95.4718C1238.15 108.402 1240.59 124.772 1242.19 135.612C1243.58 145.002 1243.87 148.451 1240.04 152.284C1236.19 156.126 1232.76 155.833 1223.37 154.439C1212.54 152.825 1196.16 150.395 1183.23 163.325C1170.31 176.256 1172.74 192.626 1174.35 203.456C1175.74 212.847 1176.03 216.295 1172.19 220.137C1168.35 223.98 1164.91 223.686 1155.52 222.293C1144.7 220.679 1128.32 218.248 1115.4 231.179C1102.47 244.11 1104.91 260.479 1106.52 271.31C1107.91 280.7 1108.19 284.148 1104.36 287.991C1100.52 291.833 1097.08 291.54 1087.69 290.146C1076.86 288.532 1060.49 286.102 1047.57 299.032C1034.64 311.963 1037.08 328.333 1038.68 339.163C1040.08 348.554 1040.37 352.002 1036.53 355.835C1032.69 359.678 1029.25 359.384 1019.86 357.99C1009.03 356.376 992.654 353.946 979.735 366.877C966.806 379.807 969.245 396.177 970.85 407.008C972.244 416.398 972.528 419.846 968.695 423.689C964.853 427.531 961.415 427.247 952.017 425.844C941.188 424.23 924.812 421.8 911.893 434.73C898.964 447.661 901.403 464.031 903.008 474.861C904.218 483.014 904.594 486.691 902.155 490.029L927.086 490.029C926.49 480.483 927.81 469.34 937.153 459.995L937.153 460.005Z" fill="#FAEFDB"/>
<path d="M1055.53 442.691C1068.45 429.76 1084.82 432.2 1095.65 433.814C1105.04 435.208 1108.49 435.501 1112.32 431.659C1116.16 427.816 1115.87 424.377 1114.47 414.987C1112.86 404.156 1110.43 387.777 1123.35 374.856C1136.28 361.925 1152.65 364.365 1163.47 365.97C1172.86 367.363 1176.31 367.657 1180.14 363.814C1183.99 359.972 1183.7 356.533 1182.3 347.133C1180.68 336.293 1178.25 319.924 1191.18 306.993C1204.11 294.063 1220.48 296.502 1231.31 298.107C1240.7 299.501 1244.14 299.794 1247.99 295.952C1251.83 292.109 1251.54 288.661 1250.14 279.27C1248.53 268.44 1246.1 252.061 1259.03 239.14C1271.94 226.209 1288.32 228.648 1299.15 230.253C1308.54 231.647 1311.99 231.941 1315.83 228.098C1319.67 224.256 1319.38 220.817 1317.98 211.426C1316.37 200.586 1313.94 184.217 1326.87 171.286C1339.79 158.355 1356.16 160.795 1367 162.4C1376.39 163.794 1379.84 164.078 1383.67 160.245C1387.51 156.402 1387.23 152.954 1385.83 143.563C1384.22 132.723 1381.79 116.354 1394.72 103.423C1407.65 90.4927 1424.01 92.9229 1434.85 94.537C1444.24 95.9309 1447.69 96.2152 1451.53 92.3727C1455.37 88.5302 1455.08 85.0912 1453.69 75.6913C1452.07 64.8608 1449.64 48.482 1462.57 35.5606C1475.5 22.63 1491.87 25.0602 1502.7 26.6742C1512.09 28.0682 1515.54 28.3616 1519.38 24.5191C1523.22 20.6766 1522.94 17.2285 1521.55 7.83774C1519.93 -3.00196 1517.5 -19.3716 1530.43 -32.293C1536.5 -38.3639 1543.33 -41.0417 1549.99 -42.0138L1549.99 -65.7933C1548.6 -65.9584 1547.05 -66.1785 1545.29 -66.4444C1534.47 -68.0585 1518.09 -70.4887 1505.16 -57.5581C1492.23 -44.6275 1494.67 -28.2579 1496.28 -17.4274C1497.67 -8.03662 1497.95 -4.58846 1494.11 -0.745964C1490.27 3.09653 1486.83 2.80305 1477.43 1.40911C1466.61 -0.204918 1450.23 -2.63513 1437.3 10.2955C1424.37 23.2261 1426.81 39.5957 1428.42 50.4262C1429.81 59.8169 1430.1 63.2651 1426.26 67.1076C1422.42 70.9501 1418.97 70.6658 1409.58 69.2718C1398.75 67.6578 1382.38 65.2276 1369.45 78.1582C1356.52 91.0888 1358.96 107.458 1360.56 118.289C1361.96 127.68 1362.25 131.128 1358.41 134.97C1354.57 138.813 1351.13 138.519 1341.73 137.125C1330.9 135.511 1314.53 133.081 1301.61 146.012C1288.68 158.942 1291.12 175.312 1292.72 186.152C1294.12 195.542 1294.41 198.991 1290.57 202.833C1286.73 206.676 1283.29 206.382 1273.89 204.988C1263.06 203.374 1246.68 200.944 1233.76 213.874C1220.84 226.805 1223.28 243.175 1224.88 254.005C1226.27 263.396 1226.56 266.844 1222.73 270.687C1218.88 274.529 1215.44 274.236 1206.06 272.842C1195.23 271.228 1178.85 268.797 1165.93 281.728C1153 294.659 1155.44 311.028 1157.05 321.859C1158.44 331.249 1158.72 334.698 1154.89 338.54C1151.06 342.383 1147.61 342.089 1138.21 340.695C1127.38 339.081 1111.01 336.651 1098.09 349.582C1085.16 362.512 1087.6 378.882 1089.21 389.712C1090.61 399.103 1090.9 402.551 1087.06 406.384C1083.22 410.227 1079.78 409.934 1070.39 408.54C1059.56 406.926 1043.18 404.495 1030.27 417.426C1017.34 430.357 1019.78 446.726 1021.38 457.557C1022.77 466.947 1023.07 470.396 1019.23 474.238C1015.38 478.081 1011.95 477.787 1002.55 476.393C991.719 474.779 975.343 472.349 962.423 485.28C960.883 486.82 959.563 488.416 958.435 490.039L1047.54 490.039C1047.41 488.086 1047.08 485.738 1046.65 482.831C1045.04 472 1042.61 455.622 1055.54 442.691L1055.53 442.691Z" fill="#FAEFDB"/>
<path d="M1146.18 484.352C1155.57 485.746 1159.02 486.039 1162.85 482.197C1166.69 478.354 1166.4 474.915 1165.01 465.525C1163.39 454.694 1160.96 438.315 1173.88 425.394C1186.81 412.463 1203.18 414.903 1214.01 416.517C1223.4 417.911 1226.84 418.204 1230.68 414.362C1234.52 410.519 1234.23 407.08 1232.83 397.68C1231.23 386.85 1228.79 370.471 1241.72 357.54C1254.64 344.61 1271.01 347.049 1281.84 348.654C1291.23 350.048 1294.68 350.342 1298.51 346.499C1302.35 342.657 1302.07 339.218 1300.66 329.818C1299.05 318.987 1296.62 302.608 1309.55 289.678C1322.47 276.747 1338.84 279.187 1349.67 280.791C1359.06 282.185 1362.51 282.47 1366.35 278.636C1370.19 274.794 1369.9 271.355 1368.51 261.964C1366.89 251.134 1364.46 234.755 1377.39 221.824C1390.32 208.894 1406.69 211.333 1417.52 212.938C1426.91 214.332 1430.36 214.616 1434.19 210.783C1438.04 206.94 1437.75 203.492 1436.36 194.101C1434.75 183.271 1432.31 166.892 1445.24 153.961C1458.17 141.031 1474.54 143.47 1485.38 145.075C1494.76 146.469 1498.21 146.753 1502.05 142.911C1505.9 139.068 1505.6 135.629 1504.21 126.229C1502.59 115.399 1500.17 99.0202 1513.09 86.0896C1524.78 74.397 1539.28 75.2682 1549.96 76.7355L1549.96 0.463397C1543.63 11.78 1545.48 24.2795 1546.79 33.1016C1548.18 42.4924 1548.47 45.9405 1544.63 49.783C1540.78 53.6255 1537.35 53.3321 1527.95 51.9381C1517.12 50.3241 1500.74 47.8939 1487.81 60.8245C1474.9 73.7551 1477.32 90.1247 1478.93 100.955C1480.32 110.346 1480.61 113.794 1476.77 117.637C1472.93 121.479 1469.49 121.195 1460.1 119.792C1449.27 118.178 1432.89 115.747 1419.96 128.678C1407.03 141.609 1409.47 157.978 1411.08 168.818C1412.47 178.209 1412.76 181.657 1408.92 185.499C1405.08 189.342 1401.64 189.058 1392.24 187.654C1381.42 186.04 1365.04 183.61 1352.12 196.541C1339.19 209.471 1341.63 225.841 1343.24 236.671C1344.63 246.062 1344.91 249.51 1341.08 253.353C1337.24 257.195 1333.8 256.902 1324.41 255.508C1313.58 253.894 1297.21 251.464 1284.29 264.394C1271.36 277.325 1273.8 293.695 1275.4 304.525C1276.8 313.916 1277.08 317.364 1273.25 321.206C1269.41 325.049 1265.97 324.755 1256.58 323.362C1245.75 321.747 1229.37 319.317 1216.45 332.248C1203.54 345.178 1205.97 361.548 1207.57 372.379C1208.96 381.769 1209.25 385.217 1205.42 389.06C1201.57 392.902 1198.13 392.609 1188.74 391.215C1177.91 389.601 1161.53 387.171 1148.61 400.101C1135.68 413.032 1138.12 429.402 1139.74 440.232C1141.13 449.623 1141.42 453.071 1137.58 456.904C1133.74 460.747 1130.3 460.453 1120.91 459.059C1110.08 457.445 1093.71 455.015 1080.79 467.946C1073.95 474.787 1071.42 482.582 1070.78 490.02L1109.71 490.02C1121.95 480.73 1136.34 482.876 1146.17 484.334L1146.18 484.352Z" fill="#FAEFDB"/>
<path d="M1264.56 467.046C1273.94 468.44 1277.39 468.734 1281.23 464.891C1285.07 461.049 1284.78 457.61 1283.38 448.21C1281.78 437.379 1279.34 421.001 1292.26 408.07C1305.19 395.14 1321.56 397.579 1332.4 399.184C1341.79 400.578 1345.23 400.871 1349.07 397.029C1352.91 393.186 1352.62 389.747 1351.22 380.347C1349.61 369.517 1347.18 353.138 1360.11 340.207C1373.04 327.277 1389.4 329.716 1400.23 331.321C1409.62 332.715 1413.07 332.999 1416.91 329.166C1420.75 325.323 1420.46 321.884 1419.06 312.485C1417.45 301.654 1415.02 285.275 1427.95 272.345C1440.88 259.423 1457.24 261.853 1468.08 263.458C1477.47 264.852 1480.92 265.137 1484.75 261.303C1488.59 257.461 1488.31 254.013 1486.92 244.622C1485.31 233.782 1482.87 217.413 1495.8 204.482C1508.73 191.551 1525.1 193.991 1535.93 195.596C1543.2 196.678 1546.9 197.081 1549.99 195.431L1549.99 103.697C1545.98 105.265 1542.04 107.686 1538.38 111.345C1525.46 124.276 1527.89 140.645 1529.5 151.485C1530.89 160.876 1531.17 164.324 1527.34 168.166C1523.5 172.009 1520.05 171.724 1510.66 170.321C1499.83 168.707 1483.46 166.277 1470.53 179.208C1457.6 192.138 1460.04 208.508 1461.65 219.348C1463.04 228.738 1463.33 232.186 1459.49 236.029C1455.65 239.871 1452.2 239.578 1442.81 238.184C1431.98 236.57 1415.61 234.14 1402.69 247.07C1389.76 260.001 1392.2 276.371 1393.8 287.201C1395.2 296.592 1395.49 300.04 1391.65 303.882C1387.81 307.725 1384.37 307.432 1374.97 306.038C1364.14 304.424 1347.77 301.993 1334.85 314.924C1321.92 327.855 1324.36 344.224 1325.96 355.055C1327.35 364.445 1327.64 367.894 1323.81 371.736C1319.96 375.579 1316.53 375.285 1307.13 373.891C1296.3 372.277 1279.92 369.847 1267 382.777C1254.08 395.708 1256.51 412.078 1258.12 422.908C1259.51 432.299 1259.81 435.747 1255.96 439.59C1252.12 443.432 1248.68 443.139 1239.29 441.745C1228.46 440.131 1212.08 437.7 1199.16 450.631C1186.54 463.259 1188.57 479.179 1190.17 490.01L1215.9 490.01C1217.38 485.14 1220 480.316 1224.42 475.896C1237.35 462.966 1253.72 465.405 1264.55 467.019L1264.56 467.046Z" fill="#FAEFDB"/>
</svg>
