<svg width="29" height="28" viewBox="0 0 29 28" fill="none" xmlns="http://www.w3.org/2000/svg">
<path d="M21.9003 1.16797H6.15038C5.60672 1.16797 5.16602 1.60867 5.16602 2.15235V25.3836C5.16602 25.9273 5.60672 26.368 6.15038 26.368H21.9003C22.4441 26.368 22.8848 25.9273 22.8848 25.3836V2.15235C22.8848 1.60867 22.4441 1.16797 21.9003 1.16797ZM15.6496 24.3992H12.4012V19.4773H15.6496V24.3992ZM20.916 24.3992H17.6183V18.493C17.6183 17.9492 17.1776 17.5087 16.634 17.5087H11.4168C10.8731 17.5087 10.4324 17.9492 10.4324 18.493V24.3992H7.13477V3.13671H20.916V24.3992Z" fill="#F4F4F1"/>
<path d="M17.9628 12.1715H15.5019C14.9583 12.1715 14.5176 12.6122 14.5176 13.1559C14.5176 13.6995 14.9583 14.1402 15.5019 14.1402H17.9628C18.5066 14.1402 18.9473 13.6995 18.9473 13.1559C18.9473 12.6122 18.5066 12.1715 17.9628 12.1715ZM17.9628 6.50586H15.5019C14.9583 6.50586 14.5176 6.94657 14.5176 7.49024C14.5176 8.03392 14.9583 8.47461 15.5019 8.47461H17.9628C18.5066 8.47461 18.9473 8.03392 18.9473 7.49024C18.9473 6.94657 18.5066 6.50586 17.9628 6.50586ZM12.5488 12.1715H10.0879C9.54422 12.1715 9.10352 12.6122 9.10352 13.1559C9.10352 13.6995 9.54422 14.1402 10.0879 14.1402H12.5488C13.0925 14.1402 13.5332 13.6995 13.5332 13.1559C13.5332 12.6122 13.0925 12.1715 12.5488 12.1715ZM12.5488 6.50586H10.0879C9.54422 6.50586 9.10352 6.94657 9.10352 7.49024C9.10352 8.03392 9.54422 8.47461 10.0879 8.47461H12.5488C13.0925 8.47461 13.5332 8.03392 13.5332 7.49024C13.5332 6.94657 13.0925 6.50586 12.5488 6.50586Z" fill="#F4F4F1"/>
</svg>
