<svg width="20" height="20" viewBox="0 0 20 20" fill="none" xmlns="http://www.w3.org/2000/svg">
<path d="M11.1468 2.01325C10.9978 1.85084 10.8195 1.72173 10.6226 1.63358C10.4257 1.54542 10.2142 1.5 10.0004 1.5C9.7867 1.5 9.57513 1.54542 9.37823 1.63358C9.18133 1.72173 9.00311 1.85084 8.85409 2.01325L2.11838 9.6014C2.02101 9.71093 1.96868 9.85698 1.97289 10.0074C1.97711 10.1578 2.03753 10.3003 2.14086 10.4036C2.24419 10.5068 2.38196 10.5622 2.52388 10.5578C2.6658 10.5533 2.80022 10.4893 2.89759 10.3797L3.04316 10.2163V16.7981C3.04373 17.2493 3.21306 17.6818 3.51403 18.0009C3.81501 18.3199 4.22305 18.4994 4.64869 18.5H15.3522C15.7778 18.4994 16.1859 18.3199 16.4868 18.0009C16.7878 17.6818 16.9571 17.2493 16.9577 16.7981V10.2163L17.1033 10.3797C17.2006 10.4893 17.3351 10.5533 17.477 10.5578C17.6189 10.5622 17.7567 10.5068 17.86 10.4036C17.9633 10.3003 18.0238 10.1578 18.028 10.0074C18.0322 9.85698 17.9799 9.71093 17.8825 9.6014L11.1468 2.01325ZM15.8874 16.7981C15.8871 16.9485 15.8306 17.0926 15.7303 17.1989C15.63 17.3052 15.494 17.3651 15.3522 17.3654H4.64869C4.50684 17.3651 4.37088 17.3052 4.27057 17.1989C4.17027 17.0926 4.11379 16.9485 4.11351 16.7981V9.01028L9.6333 2.79045C9.68019 2.73691 9.737 2.6942 9.80017 2.66499C9.86334 2.63578 9.93152 2.62071 10.0004 2.62071C10.0694 2.62071 10.1375 2.63578 10.2007 2.66499C10.2639 2.6942 10.3207 2.73691 10.3676 2.79045L15.8874 9.01028V16.7981Z" fill="#EC7D3F"/>
<path d="M12.7939 13.75H6.79395C6.66134 13.75 6.53416 13.8158 6.44039 13.9331C6.34662 14.0503 6.29395 14.2092 6.29395 14.375C6.29395 14.5408 6.34662 14.6997 6.44039 14.8169C6.53416 14.9342 6.66134 15 6.79395 15H12.7939C12.9266 15 13.0537 14.9342 13.1475 14.8169C13.2413 14.6997 13.2939 14.5408 13.2939 14.375C13.2939 14.2092 13.2413 14.0503 13.1475 13.9331C13.0537 13.8158 12.9266 13.75 12.7939 13.75Z" fill="#EC7D3F"/>
</svg>
