<svg width="16" height="16" viewBox="0 0 16 16" fill="none" xmlns="http://www.w3.org/2000/svg">
<g clip-path="url(#clip0_3275_25004)">
<path d="M8 0C3.58881 0 0 3.58881 0 8C0 12.4108 3.59006 16 8 16C12.4187 16 16 12.4018 16 8C16 3.58881 12.4112 0 8 0ZM8 14.9565C6.37087 14.9565 4.87097 14.3934 3.68409 13.4519C4.41894 11.7377 6.11097 10.6087 8 10.6087C9.88931 10.6087 11.5817 11.7374 12.3166 13.4513C11.1297 14.3932 9.62947 14.9565 8 14.9565ZM5.39131 6.95653C5.39131 5.51809 6.56156 4.34784 8 4.34784C9.43844 4.34784 10.6087 5.51809 10.6087 6.95653C10.6087 8.39497 9.43844 9.56522 8 9.56522C6.56156 9.56522 5.39131 8.39497 5.39131 6.95653ZM13.1193 12.7049C12.4745 11.434 11.3843 10.462 10.082 9.95537C11.0303 9.295 11.6522 8.19712 11.6522 6.95653C11.6522 4.94272 10.0138 3.30434 8 3.30434C5.98619 3.30434 4.34781 4.94272 4.34781 6.95653C4.34781 8.19719 4.96978 9.29513 5.91819 9.9555C4.61606 10.4623 3.52609 11.4345 2.88131 12.7056C1.74094 11.4661 1.04347 9.81303 1.04347 8C1.04347 4.16419 4.16416 1.04347 8 1.04347C11.8358 1.04347 14.9565 4.16419 14.9565 8C14.9565 9.81272 14.2593 11.4655 13.1193 12.7049Z" fill="#181817"/>
</g>
<defs>
<clipPath id="clip0_3275_25004">
<rect width="16" height="16" fill="white"/>
</clipPath>
</defs>
</svg>
