<svg width="50" height="50" viewBox="0 0 50 50" fill="none" xmlns="http://www.w3.org/2000/svg">
<path fill-rule="evenodd" clip-rule="evenodd" d="M29.6875 42.1875H40.625C41.0394 42.1875 41.4368 42.0229 41.7299 41.7299C42.0229 41.4368 42.1875 41.0394 42.1875 40.625C42.1875 40.2106 42.0229 39.8132 41.7299 39.5201C41.4368 39.2271 41.0394 39.0625 40.625 39.0625H29.6875C29.2731 39.0625 28.8757 39.2271 28.5827 39.5201C28.2896 39.8132 28.125 40.2106 28.125 40.625C28.125 41.0394 28.2896 41.4368 28.5827 41.7299C28.8757 42.0229 29.2731 42.1875 29.6875 42.1875ZM15.6422 7.8125H15.6078C15.3581 7.81525 15.1127 7.87795 14.8922 7.99531L14.8719 8.00625C14.8077 8.0414 14.7461 8.08109 14.6875 8.125L8.43751 12.8125C8.10599 13.0611 7.88682 13.4313 7.82821 13.8415C7.76961 14.2518 7.87637 14.6685 8.12501 15C8.37365 15.3315 8.7438 15.5507 9.15404 15.6093C9.56427 15.6679 9.98099 15.5611 10.3125 15.3125L14.0625 12.5V37.5L10.3125 34.6875C10.1484 34.5644 9.96156 34.4748 9.76279 34.4239C9.56402 34.373 9.35716 34.3617 9.15404 34.3907C8.7438 34.4493 8.37365 34.6685 8.12501 35C7.87637 35.3315 7.76961 35.7482 7.82821 36.1585C7.88682 36.5687 8.10599 36.9389 8.43751 37.1875L14.6875 41.875C14.7461 41.9189 14.8077 41.9586 14.8719 41.9937L14.8922 42.0047C15.1127 42.1221 15.3581 42.1847 15.6078 42.1875H15.6422C15.8919 42.1847 16.1374 42.1221 16.3578 42.0047L16.3781 41.9937C16.4423 41.9586 16.5039 41.9189 16.5625 41.875L22.8125 37.1875C23.144 36.9389 23.3632 36.5687 23.4218 36.1585C23.4804 35.7482 23.3736 35.3315 23.125 35C22.8764 34.6685 22.5062 34.4493 22.096 34.3907C21.6857 34.3321 21.269 34.4389 20.9375 34.6875L17.1875 37.5V12.5L20.9375 15.3125C21.269 15.5611 21.6857 15.6679 22.096 15.6093C22.5062 15.5507 22.8764 15.3315 23.125 15C23.3736 14.6685 23.4804 14.2518 23.4218 13.8415C23.3632 13.4313 23.144 13.0611 22.8125 12.8125L16.5625 8.125C16.5039 8.08109 16.4423 8.0414 16.3781 8.00625L16.3578 7.99531C16.1374 7.87795 15.8919 7.81525 15.6422 7.8125ZM29.6875 34.375H40.625C41.0394 34.375 41.4368 34.2104 41.7299 33.9174C42.0229 33.6243 42.1875 33.2269 42.1875 32.8125C42.1875 32.3981 42.0229 32.0007 41.7299 31.7076C41.4368 31.4146 41.0394 31.25 40.625 31.25H29.6875C29.2731 31.25 28.8757 31.4146 28.5827 31.7076C28.2896 32.0007 28.125 32.3981 28.125 32.8125C28.125 33.2269 28.2896 33.6243 28.5827 33.9174C28.8757 34.2104 29.2731 34.375 29.6875 34.375ZM29.6875 26.5625H40.625C41.0394 26.5625 41.4368 26.3979 41.7299 26.1049C42.0229 25.8118 42.1875 25.4144 42.1875 25C42.1875 24.5856 42.0229 24.1882 41.7299 23.8951C41.4368 23.6021 41.0394 23.4375 40.625 23.4375H29.6875C29.2731 23.4375 28.8757 23.6021 28.5827 23.8951C28.2896 24.1882 28.125 24.5856 28.125 25C28.125 25.4144 28.2896 25.8118 28.5827 26.1049C28.8757 26.3979 29.2731 26.5625 29.6875 26.5625ZM29.6875 18.75H40.625C41.0394 18.75 41.4368 18.5854 41.7299 18.2924C42.0229 17.9993 42.1875 17.6019 42.1875 17.1875C42.1875 16.7731 42.0229 16.3757 41.7299 16.0826C41.4368 15.7896 41.0394 15.625 40.625 15.625H29.6875C29.2731 15.625 28.8757 15.7896 28.5827 16.0826C28.2896 16.3757 28.125 16.7731 28.125 17.1875C28.125 17.6019 28.2896 17.9993 28.5827 18.2924C28.8757 18.5854 29.2731 18.75 29.6875 18.75ZM29.6875 10.9375H40.625C41.0394 10.9375 41.4368 10.7729 41.7299 10.4799C42.0229 10.1868 42.1875 9.7894 42.1875 9.375C42.1875 8.9606 42.0229 8.56317 41.7299 8.27015C41.4368 7.97712 41.0394 7.8125 40.625 7.8125H29.6875C29.2731 7.8125 28.8757 7.97712 28.5827 8.27015C28.2896 8.56317 28.125 8.9606 28.125 9.375C28.125 9.7894 28.2896 10.1868 28.5827 10.4799C28.8757 10.7729 29.2731 10.9375 29.6875 10.9375Z" fill="#EC7D3F"/>
</svg>
