<svg width="50" height="50" viewBox="0 0 50 50" fill="none" xmlns="http://www.w3.org/2000/svg">
<path d="M40.2031 0H8.95312C7.87441 0 7 0.874414 7 1.95312V48.0469C7 49.1256 7.87441 50 8.95312 50H40.2031C41.2818 50 42.1562 49.1256 42.1562 48.0469V1.95312C42.1562 0.874414 41.2818 0 40.2031 0ZM27.8008 46.0938H21.3555V36.3281H27.8008V46.0938ZM38.25 46.0938H31.707V34.375C31.707 33.2963 30.8326 32.4219 29.7539 32.4219H19.4023C18.3236 32.4219 17.4492 33.2963 17.4492 34.375V46.0938H10.9062V3.90625H38.25V46.0938Z" fill="#EC7D3F"/>
<path d="M32.3906 24.6094H27.5078C26.4291 24.6094 25.5547 25.4838 25.5547 26.5625C25.5547 27.6412 26.4291 28.5156 27.5078 28.5156H32.3906C33.4693 28.5156 34.3438 27.6412 34.3438 26.5625C34.3438 25.4838 33.4693 24.6094 32.3906 24.6094ZM32.3906 7.8125H27.5078C26.4291 7.8125 25.5547 8.68691 25.5547 9.76562C25.5547 10.8443 26.4291 11.7188 27.5078 11.7188H32.3906C33.4693 11.7188 34.3438 10.8443 34.3438 9.76562C34.3438 8.68691 33.4693 7.8125 32.3906 7.8125ZM32.3906 16.2109H27.5078C26.4291 16.2109 25.5547 17.0854 25.5547 18.1641C25.5547 19.2428 26.4291 20.1172 27.5078 20.1172H32.3906C33.4693 20.1172 34.3438 19.2428 34.3438 18.1641C34.3438 17.0854 33.4693 16.2109 32.3906 16.2109ZM21.6484 24.6094H16.7656C15.6869 24.6094 14.8125 25.4838 14.8125 26.5625C14.8125 27.6412 15.6869 28.5156 16.7656 28.5156H21.6484C22.7271 28.5156 23.6016 27.6412 23.6016 26.5625C23.6016 25.4838 22.7271 24.6094 21.6484 24.6094ZM21.6484 7.8125H16.7656C15.6869 7.8125 14.8125 8.68691 14.8125 9.76562C14.8125 10.8443 15.6869 11.7188 16.7656 11.7188H21.6484C22.7271 11.7188 23.6016 10.8443 23.6016 9.76562C23.6016 8.68691 22.7271 7.8125 21.6484 7.8125ZM21.6484 16.2109H16.7656C15.6869 16.2109 14.8125 17.0854 14.8125 18.1641C14.8125 19.2428 15.6869 20.1172 16.7656 20.1172H21.6484C22.7271 20.1172 23.6016 19.2428 23.6016 18.1641C23.6016 17.0854 22.7271 16.2109 21.6484 16.2109Z" fill="#EC7D3F"/>
</svg>
