<svg width="50" height="50" viewBox="0 0 50 50" fill="none" xmlns="http://www.w3.org/2000/svg">
<g clip-path="url(#clip0_2852_22361)">
<path d="M43.1797 12.127H36.5879C34.3857 12.127 32.5939 13.9186 32.5939 16.121V22.713C32.5939 23.2977 32.1182 23.7734 31.5336 23.7734L24.9414 23.7738C22.7393 23.7739 20.9477 25.5657 20.9477 27.7679V34.3599C20.9477 34.9445 20.4719 35.4203 19.8872 35.4203H13.2954C11.0932 35.4203 9.30139 37.2119 9.30139 39.4144V46.0061C9.30139 48.2084 11.093 50.0002 13.2954 50.0002H39.7023C43.822 50.0002 47.1737 46.6485 47.1737 42.5288V16.121C47.1738 13.9188 45.3821 12.127 43.1797 12.127ZM44.2401 42.5286C44.2401 45.0308 42.2044 47.0664 39.7023 47.0664H13.2954C12.7108 47.0664 12.2351 46.5908 12.2351 46.0061V39.4143C12.2351 38.8296 12.7107 38.3538 13.2954 38.3538H19.8872C22.0895 38.3538 23.8813 36.5621 23.8813 34.3598V27.7678C23.8813 27.1831 24.357 26.7074 24.9416 26.7073L31.5338 26.7069C33.736 26.7068 35.5276 24.915 35.5276 22.7129V16.1209C35.5276 15.5362 36.0033 15.0604 36.5879 15.0604H43.1797C43.7644 15.0604 44.2402 15.536 44.2402 16.1209V42.5286H44.2401Z" fill="#EC7D3F"/>
<path d="M33.9526 0.429639C33.3798 -0.143213 32.451 -0.143213 31.8783 0.429639L4.42085 27.887C3.39272 28.9151 2.82642 30.2821 2.82642 31.7362V48.5332C2.82642 49.3432 3.48315 50 4.29321 50C5.10327 50 5.76001 49.3432 5.76001 48.5332V31.7362C5.76001 31.0658 6.02114 30.4354 6.49517 29.9614L33.9526 2.50405C34.5254 1.9312 34.5254 1.00239 33.9526 0.429639Z" fill="#EC7D3F"/>
</g>
<defs>
<clipPath id="clip0_2852_22361">
<rect width="50" height="50" fill="white"/>
</clipPath>
</defs>
</svg>
