<svg width="50" height="50" viewBox="0 0 50 50" fill="none" xmlns="http://www.w3.org/2000/svg">
<path d="M24.9998 2.60352C20.5704 2.60352 16.2404 3.91701 12.5574 6.37789C8.87441 8.83878 6.00388 12.3365 4.3088 16.4288C2.61371 20.5211 2.1702 25.0242 3.03434 29.3686C3.89849 33.7129 6.03149 37.7035 9.1636 40.8356C12.2957 43.9677 16.2863 46.1007 20.6306 46.9649C24.975 47.829 29.4781 47.3855 33.5704 45.6904C37.6627 43.9953 41.1604 41.1248 43.6213 37.4418C46.0822 33.7588 47.3957 29.4288 47.3957 24.9993C47.3891 19.0616 45.0274 13.369 40.8288 9.17041C36.6302 4.97181 30.9376 2.61013 24.9998 2.60352ZM24.9998 44.2702C21.1884 44.2702 17.4626 43.14 14.2935 41.0225C11.1245 38.905 8.65448 35.8953 7.19592 32.374C5.73735 28.8527 5.35573 24.978 6.0993 21.2398C6.84287 17.5016 8.67824 14.0679 11.3733 11.3728C14.0684 8.67774 17.5021 6.84237 21.2403 6.0988C24.9785 5.35523 28.8532 5.73686 32.3745 7.19542C35.8958 8.65398 38.9055 11.124 41.023 14.293C43.1405 17.4621 44.2707 21.1879 44.2707 24.9993C44.2652 30.1086 42.2331 35.007 38.6203 38.6198C35.0075 42.2326 30.1091 44.2647 24.9998 44.2702ZM27.0832 15.1035H20.8332C20.4188 15.1035 20.0214 15.2681 19.7283 15.5612C19.4353 15.8542 19.2707 16.2516 19.2707 16.666V33.3327C19.2707 33.7471 19.4353 34.1445 19.7283 34.4375C20.0214 34.7306 20.4188 34.8952 20.8332 34.8952C21.2476 34.8952 21.645 34.7306 21.938 34.4375C22.2311 34.1445 22.3957 33.7471 22.3957 33.3327V26.5618H27.0832C28.6026 26.5618 30.0599 25.9582 31.1343 24.8838C32.2087 23.8094 32.8123 22.3522 32.8123 20.8327C32.8123 19.3132 32.2087 17.856 31.1343 16.7815C30.0599 15.7071 28.6026 15.1035 27.0832 15.1035ZM27.0832 23.4368H22.3957V18.2285H27.0832C27.7738 18.2285 28.4362 18.5029 28.9246 18.9913C29.413 19.4796 29.6873 20.142 29.6873 20.8327C29.6873 21.5233 29.413 22.1857 28.9246 22.6741C28.4362 23.1625 27.7738 23.4368 27.0832 23.4368Z" fill="#EC7D3F"/>
</svg>
