<svg width="50" height="50" viewBox="0 0 50 50" fill="none" xmlns="http://www.w3.org/2000/svg">
<g clip-path="url(#clip0_2852_22352)">
<path d="M4.41172 0H45.5882C48.0248 0 50 1.9752 50 4.41172V45.5882C50 48.0247 48.0248 49.9999 45.5883 49.9999H4.41172C1.9752 50 0 48.0248 0 45.5883V4.41172C0 1.9752 1.9752 0 4.41172 0ZM32.3529 16.1765H26.4706C25.6584 16.1765 25 15.5181 25 14.7059C25 13.8937 25.6584 13.2353 26.4706 13.2353H47.0589V4.41172C47.0589 3.59951 46.4005 2.94111 45.5883 2.94111H17.6471V14.7059C17.6471 15.5181 16.9887 16.1765 16.1765 16.1765C15.3643 16.1765 14.7059 15.5181 14.7059 14.7059V2.94121H4.41172C3.59951 2.94121 2.94111 3.59961 2.94111 4.41182V25H14.7059V23.5294C14.7059 22.7172 15.3643 22.0588 16.1765 22.0588C16.9887 22.0588 17.6471 22.7172 17.6471 23.5294V29.4117C17.6471 30.2239 16.9887 30.8823 16.1765 30.8823C15.3643 30.8823 14.7059 30.2239 14.7059 29.4117V27.9411H2.94121V45.5882C2.94121 46.4004 3.59961 47.0588 4.41182 47.0588H14.706V38.2353C14.706 37.423 15.3644 36.7646 16.1766 36.7646C16.9888 36.7646 17.6472 37.423 17.6472 38.2353V47.0588H32.353V39.7059H26.4707C25.6585 39.7059 25.0001 39.0475 25.0001 38.2353C25.0001 37.423 25.6585 36.7646 26.4707 36.7646H32.353V32.3529C32.353 31.5407 33.0114 30.8823 33.8236 30.8823C34.6358 30.8823 35.2942 31.5407 35.2942 32.3529V47.0588H45.5884C46.4006 47.0588 47.059 46.4004 47.059 45.5882V16.1765H35.2941V23.5294C35.2941 24.3416 34.6357 25 33.8235 25C33.0113 25 32.3529 24.3416 32.3529 23.5294V16.1765Z" fill="#EC7D3F"/>
</g>
<defs>
<clipPath id="clip0_2852_22352">
<rect width="50" height="50" fill="white"/>
</clipPath>
</defs>
</svg>
