<svg width="24" height="24" viewBox="0 0 24 24" fill="none" xmlns="http://www.w3.org/2000/svg">
<path d="M16.4746 0H7.52542C5.53022 0.00222905 3.61735 0.823619 2.20652 2.28395C0.7957 3.74427 0.00215349 5.72426 0 7.78947L0 12C0.00431789 13.7339 0.566498 15.4169 1.59777 16.7832C2.62904 18.1495 4.07063 19.1214 5.69491 19.5453V22.9474C5.69474 23.1298 5.74039 23.3092 5.82739 23.4679C5.91439 23.6266 6.03976 23.7592 6.19119 23.8526C6.34906 23.9486 6.52876 23.9995 6.71186 24C6.88085 24.0002 7.04722 23.9568 7.19593 23.8737L14.4569 19.7895H16.4908C18.4832 19.7828 20.3919 18.9594 21.7992 17.4996C23.2065 16.0397 23.9979 14.0623 24 12V7.78947C23.9978 5.72426 23.2043 3.74427 21.7935 2.28395C20.3827 0.823619 18.4698 0.00222905 16.4746 0ZM7.32203 10.9474H6.50847C6.23876 10.9474 5.9801 10.8365 5.78938 10.6391C5.59867 10.4417 5.49153 10.1739 5.49153 9.89474C5.49153 9.61556 5.59867 9.34782 5.78938 9.15041C5.9801 8.95301 6.23876 8.8421 6.50847 8.8421H7.32203C7.59175 8.8421 7.85041 8.95301 8.04113 9.15041C8.23184 9.34782 8.33898 9.61556 8.33898 9.89474C8.33898 10.1739 8.23184 10.4417 8.04113 10.6391C7.85041 10.8365 7.59175 10.9474 7.32203 10.9474ZM12.4068 10.9474H11.5932C11.3235 10.9474 11.0648 10.8365 10.8741 10.6391C10.6834 10.4417 10.5763 10.1739 10.5763 9.89474C10.5763 9.61556 10.6834 9.34782 10.8741 9.15041C11.0648 8.95301 11.3235 8.8421 11.5932 8.8421H12.4068C12.6765 8.8421 12.9352 8.95301 13.1259 9.15041C13.3166 9.34782 13.4237 9.61556 13.4237 9.89474C13.4237 10.1739 13.3166 10.4417 13.1259 10.6391C12.9352 10.8365 12.6765 10.9474 12.4068 10.9474ZM17.4915 10.9474H16.678C16.4083 10.9474 16.1496 10.8365 15.9589 10.6391C15.7682 10.4417 15.661 10.1739 15.661 9.89474C15.661 9.61556 15.7682 9.34782 15.9589 9.15041C16.1496 8.95301 16.4083 8.8421 16.678 8.8421H17.4915C17.7612 8.8421 18.0199 8.95301 18.2106 9.15041C18.4013 9.34782 18.5085 9.61556 18.5085 9.89474C18.5085 10.1739 18.4013 10.4417 18.2106 10.6391C18.0199 10.8365 17.7612 10.9474 17.4915 10.9474Z" fill="#F4F4F1"/>
</svg>
