<svg width="18" height="18" viewBox="0 0 18 18" fill="none" xmlns="http://www.w3.org/2000/svg">
<path d="M4.625 10.25H0.875C0.70924 10.25 0.550268 10.3158 0.433058 10.4331C0.315848 10.5503 0.25 10.7092 0.25 10.875V17.125C0.25 17.2908 0.315848 17.4497 0.433058 17.5669C0.550268 17.6842 0.70924 17.75 0.875 17.75H4.625C4.79076 17.75 4.94973 17.6842 5.06694 17.5669C5.18415 17.4497 5.25 17.2908 5.25 17.125V10.875C5.25 10.7092 5.18415 10.5503 5.06694 10.4331C4.94973 10.3158 4.79076 10.25 4.625 10.25ZM4 16.5H1.5V11.5H4V16.5ZM17.125 5.25H13.375C13.2092 5.25 13.0503 5.31585 12.9331 5.43306C12.8158 5.55027 12.75 5.70924 12.75 5.875V17.125C12.75 17.2908 12.8158 17.4497 12.9331 17.5669C13.0503 17.6842 13.2092 17.75 13.375 17.75H17.125C17.2908 17.75 17.4497 17.6842 17.5669 17.5669C17.6842 17.4497 17.75 17.2908 17.75 17.125V5.875C17.75 5.70924 17.6842 5.55027 17.5669 5.43306C17.4497 5.31585 17.2908 5.25 17.125 5.25ZM16.5 16.5H14V6.5H16.5V16.5ZM10.875 0.25H7.125C6.95924 0.25 6.80027 0.315848 6.68306 0.433058C6.56585 0.550268 6.5 0.70924 6.5 0.875V17.125C6.5 17.2908 6.56585 17.4497 6.68306 17.5669C6.80027 17.6842 6.95924 17.75 7.125 17.75H10.875C11.0408 17.75 11.1997 17.6842 11.3169 17.5669C11.4342 17.4497 11.5 17.2908 11.5 17.125V0.875C11.5 0.70924 11.4342 0.550268 11.3169 0.433058C11.1997 0.315848 11.0408 0.25 10.875 0.25ZM10.25 16.5H7.75V1.5H10.25V16.5Z" fill="#F4F4F1"/>
</svg>
