<svg width="24" height="24" viewBox="0 0 24 24" fill="none" xmlns="http://www.w3.org/2000/svg">
<path d="M11.4658 22.7642C11.5353 22.8388 11.6184 22.8982 11.7102 22.9386C11.8019 22.9791 11.9004 23 12 23C12.0996 23 12.1981 22.9791 12.2898 22.9386C12.3816 22.8982 12.4647 22.8388 12.5342 22.7642L22.1312 12.5808C24.6229 9.93783 24.6229 5.63549 22.1312 2.99143C20.9208 1.70712 19.3113 1.00001 17.5977 1.00001C15.8842 1.00001 14.2757 1.70712 13.0653 2.99039L12 4.12175L10.9347 2.99143C10.3443 2.35955 9.63914 1.85782 8.86073 1.5158C8.08231 1.17379 7.2464 0.998411 6.40225 1.00001C5.55794 0.99833 4.72185 1.17366 3.94327 1.51568C3.16468 1.85769 2.45934 2.35947 1.86883 2.99143C-0.622945 5.63549 -0.622945 9.93783 1.86883 12.5798L11.4658 22.7642ZM2.93617 4.09452C3.38765 3.6116 3.92677 3.22807 4.52184 2.9665C5.1169 2.70493 5.75589 2.57058 6.40125 2.57136C7.70966 2.57136 8.94004 3.11295 9.86533 4.09557L11.4648 5.79262C11.6087 5.93626 11.7998 6.0164 11.9985 6.0164C12.1972 6.0164 12.3883 5.93626 12.5322 5.79262L14.1317 4.09452C14.5835 3.6118 15.1228 3.22842 15.718 2.96687C16.3132 2.70532 16.9523 2.57085 17.5977 2.57136C18.2431 2.57058 18.8821 2.70493 19.4772 2.9665C20.0722 3.22807 20.6113 3.6116 21.0628 4.09452C22.9804 6.12994 22.9804 9.44129 21.0628 11.4778L12 21.0954L2.93617 11.4767C1.01857 9.44234 1.01857 6.12994 2.93617 4.09452Z" fill="#181817"/>
</svg>
