<svg width="24" height="24" viewBox="0 0 24 24" fill="none" xmlns="http://www.w3.org/2000/svg">
<path d="M23.6476 21.9508L17.1726 15.4759C18.4858 13.7986 19.1994 11.7298 19.1993 9.59966C19.1993 4.30665 14.8927 0 9.59966 0C4.30665 0 0 4.30665 0 9.59966C0 14.8927 4.30665 19.1993 9.59966 19.1993C11.7296 19.1993 13.7983 18.4862 15.4759 17.1738L21.9508 23.6488C22.176 23.8738 22.4813 24.0001 22.7996 24C23.1179 23.9999 23.4232 23.8733 23.6482 23.6482C23.8732 23.423 23.9995 23.1177 23.9994 22.7994C23.9993 22.4811 23.8727 22.1758 23.6476 21.9508ZM2.39992 9.59966C2.39992 5.629 5.629 2.39992 9.59966 2.39992C13.5703 2.39992 16.7994 5.629 16.7994 9.59966C16.7994 13.5703 13.5703 16.7994 9.59966 16.7994C5.629 16.7994 2.39992 13.5703 2.39992 9.59966Z" fill="#494949"/>
</svg>
