<svg width="24" height="24" viewBox="0 0 24 24" fill="none" xmlns="http://www.w3.org/2000/svg">
<path d="M10.881 13.8695C10.7825 13.8697 10.6849 13.8504 10.5939 13.8127C10.5029 13.7749 10.4203 13.7194 10.351 13.6495C9.55144 12.861 9.06329 11.8105 8.97622 10.691C8.88914 9.57147 9.20897 8.45812 9.87696 7.5555C10.015 7.35127 10.1735 7.16162 10.35 6.9895L13.71 3.6295C14.1468 3.19005 14.666 2.84112 15.2379 2.60273C15.8099 2.36433 16.4232 2.24115 17.0428 2.24024C17.6624 2.23933 18.2761 2.36071 18.8488 2.59743C19.4214 2.83415 19.9416 3.18155 20.3797 3.61972C20.8178 4.05789 21.1652 4.57821 21.4018 5.15086C21.6384 5.72351 21.7597 6.33723 21.7587 6.95685C21.7577 7.57646 21.6344 8.18979 21.396 8.76167C21.1575 9.33355 20.8085 9.85275 20.369 10.2895L18.529 12.1295C18.4603 12.2032 18.3775 12.2623 18.2855 12.3033C18.1935 12.3443 18.0942 12.3663 17.9935 12.3681C17.8928 12.3699 17.7928 12.3513 17.6994 12.3136C17.606 12.2759 17.5211 12.2198 17.4499 12.1485C17.3787 12.0773 17.3226 11.9925 17.2848 11.8991C17.2471 11.8057 17.2286 11.7057 17.2304 11.605C17.2321 11.5043 17.2542 11.405 17.2952 11.313C17.3362 11.221 17.3953 11.1382 17.469 11.0695L19.309 9.2295C19.9098 8.62684 20.2473 7.81053 20.2473 6.9595C20.2473 6.10847 19.9098 5.29215 19.309 4.6895C18.6978 4.10572 17.8851 3.77997 17.04 3.77997C16.1948 3.77997 15.3821 4.10572 14.771 4.6895L11.411 8.0495C11.2997 8.15896 11.1993 8.27885 11.111 8.4075C10.6471 9.02312 10.4219 9.7859 10.4771 10.5547C10.5322 11.3236 10.864 12.0464 11.411 12.5895C11.5157 12.6944 11.587 12.828 11.6159 12.9734C11.6448 13.1188 11.63 13.2695 11.5732 13.4064C11.5165 13.5434 11.4205 13.6605 11.2973 13.7429C11.1741 13.8253 11.0292 13.8694 10.881 13.8695ZM6.96196 21.7495C6.03064 21.7491 5.12033 21.4726 4.3461 20.955C3.57187 20.4374 2.96848 19.7018 2.61219 18.8413C2.2559 17.9809 2.16272 17.0341 2.34441 16.1206C2.5261 15.2072 2.97451 14.3681 3.63296 13.7095L5.47296 11.8695C5.54163 11.7958 5.62443 11.7367 5.71642 11.6957C5.80842 11.6547 5.90774 11.6327 6.00844 11.6309C6.10914 11.6291 6.20917 11.6477 6.30256 11.6854C6.39595 11.7231 6.48078 11.7792 6.552 11.8505C6.62322 11.9217 6.67936 12.0065 6.71709 12.0999C6.75481 12.1933 6.77333 12.2933 6.77155 12.394C6.76978 12.4947 6.74774 12.594 6.70674 12.686C6.66575 12.778 6.60665 12.8608 6.53296 12.9295L4.69296 14.7695C4.09208 15.3722 3.75465 16.1885 3.75465 17.0395C3.75465 17.8905 4.09208 18.7068 4.69296 19.3095C5.30413 19.8933 6.11679 20.219 6.96196 20.219C7.80714 20.219 8.61979 19.8933 9.23096 19.3095L12.591 15.9495C12.9284 15.6162 13.1847 15.2097 13.34 14.7615C13.5499 14.1898 13.5908 13.5698 13.458 12.9754C13.3252 12.3811 13.0242 11.8375 12.591 11.4095C12.5173 11.3408 12.4582 11.258 12.4172 11.166C12.3762 11.074 12.3541 10.9747 12.3524 10.874C12.3506 10.7733 12.3691 10.6733 12.4068 10.5799C12.4446 10.4865 12.5007 10.4017 12.5719 10.3305C12.6431 10.2592 12.728 10.2031 12.8214 10.1654C12.9148 10.1277 13.0148 10.1091 13.1155 10.1109C13.2162 10.1127 13.3155 10.1347 13.4075 10.1757C13.4995 10.2167 13.5823 10.2758 13.651 10.3495C14.2786 10.9789 14.7155 11.7729 14.9112 12.6399C15.1069 13.5069 15.0534 14.4116 14.757 15.2495C14.5284 15.9133 14.1499 16.5156 13.651 17.0095L10.292 20.3695C9.85575 20.8083 9.33682 21.1562 8.76522 21.3931C8.19362 21.63 7.5807 21.7511 6.96196 21.7495Z" fill="#EC7D3F"/>
</svg>
