<svg width="18" height="18" viewBox="0 0 18 18" fill="none" xmlns="http://www.w3.org/2000/svg">
<path d="M6.7772 13.9329C6.94587 13.9329 7.0983 13.8723 7.21772 13.7754L7.224 13.7815L12.6048 8.63614C13.2146 8.05117 13.4646 7.48046 13.4678 6.66574C13.4678 6.02854 13.2224 5.45531 12.777 5.0517C12.317 4.63501 11.6781 4.41475 10.9291 4.41489H10.9134C10.1338 4.41824 9.40426 4.71258 8.8599 5.24296L2.61639 11.2324C1.03507 12.7499 0.993587 14.9126 2.5177 16.3752C3.27364 17.1005 4.28012 17.5 5.35178 17.5C6.4234 17.5 7.42959 17.1005 8.18498 16.3752L16.0048 8.87279C17.9984 6.95983 17.9984 3.84711 16.0048 1.93415C15.0406 1.00926 13.7567 0.5 12.3896 0.5C11.0225 0.5 9.73846 1.00923 8.77388 1.93429L0.678427 9.72969C0.678427 9.72969 0.5 9.89796 0.5 10.1818C0.5 10.5455 0.807333 10.8404 1.18634 10.8404C1.36645 10.8404 1.52915 10.7723 1.65163 10.6633L1.65372 10.6653L9.74932 2.86973C10.4535 2.19446 11.3912 1.82253 12.3897 1.82253C13.3883 1.82253 14.3259 2.19446 15.0298 2.86973C16.4857 4.26729 16.4857 6.54046 15.0298 7.93706L7.20994 15.4393C6.71443 15.9148 6.05453 16.1766 5.35178 16.1766C4.64899 16.1766 3.98868 15.9147 3.49276 15.4393C2.99821 14.9648 2.74963 14.4011 2.77371 13.8088C2.79749 13.226 3.08019 12.6586 3.59145 12.1681L9.84804 6.16595C10.1341 5.89111 10.5143 5.73912 10.9183 5.7382C11.6866 5.7382 12.0886 6.20271 12.0886 6.66094C12.087 7.04813 11.9288 7.41289 11.6428 7.68775L6.24888 12.8456L6.25502 12.8515C6.15409 12.9661 6.09089 13.1123 6.09089 13.2742C6.09083 13.6382 6.39819 13.9329 6.7772 13.9329Z" fill="#494949"/>
</svg>
