<svg width="62" height="62" viewBox="0 0 62 62" fill="none" xmlns="http://www.w3.org/2000/svg">
<path d="M16.5334 33.0657C13.1066 33.0657 10.3334 35.8414 10.3334 39.2657C10.3334 42.6887 13.1066 45.4657 16.5334 45.4657C19.9564 45.4657 22.7334 42.6887 22.7334 39.2657C22.7334 35.8414 19.9564 33.0657 16.5334 33.0657ZM16.5334 41.3328C15.9853 41.3328 15.4597 41.115 15.0722 40.7275C14.6846 40.34 14.4669 39.8144 14.4669 39.2663C14.4669 38.7182 14.6846 38.1926 15.0722 37.8051C15.4597 37.4176 15.9853 37.1998 16.5334 37.1998C17.0814 37.1998 17.607 37.4176 17.9946 37.8051C18.3821 38.1926 18.5998 38.7182 18.5998 39.2663C18.5998 39.8144 18.3821 40.34 17.9946 40.7275C17.607 41.115 17.0814 41.3328 16.5334 41.3328ZM10.3334 51.6657H22.7334V55.7992H26.8669V51.6657C26.8669 49.3934 25.0063 47.5328 22.7334 47.5328H10.3334C8.06046 47.5328 6.19984 49.3934 6.19984 51.6657V55.7992H10.3334V51.6657ZM45.4657 6.19922C42.0389 6.19922 39.2657 8.97434 39.2657 12.3992C39.2657 15.8222 42.0389 18.5992 45.4657 18.5992C48.8887 18.5992 51.6657 15.8222 51.6657 12.3992C51.6657 8.97434 48.8887 6.19922 45.4657 6.19922ZM45.4657 14.4657C44.9175 14.4657 44.3918 14.2479 44.0043 13.8603C43.6167 13.4727 43.3989 12.9471 43.3989 12.3989C43.3989 11.8508 43.6167 11.3251 44.0043 10.9375C44.3918 10.5499 44.9175 10.3321 45.4657 10.3321C46.0138 10.3321 46.5395 10.5499 46.9271 10.9375C47.3147 11.3251 47.5324 11.8508 47.5324 12.3989C47.5324 12.9471 47.3147 13.4727 46.9271 13.8603C46.5395 14.2479 46.0138 14.4657 45.4657 14.4657ZM39.2657 24.7992H51.6657V28.9328H55.7992V24.7992C55.7992 22.5263 53.9386 20.6657 51.6657 20.6657H39.2657C36.9934 20.6657 35.1328 22.5263 35.1328 24.7992V28.9328H39.2657V24.7992ZM51.6136 32.0328C51.0723 42.9634 42.0631 51.6657 30.9992 51.6657C30.6502 51.6657 30.311 51.6316 29.9657 51.6136V55.7465C30.311 55.7608 30.6502 55.7992 30.9992 55.7992C44.3453 55.7992 55.2015 45.2462 55.7465 32.0328H51.6136ZM30.9992 6.19922C17.3034 6.19922 6.19922 17.3034 6.19922 30.9992C6.19922 31.3464 6.22526 31.6893 6.23952 32.0328H10.4084C10.3917 31.6849 10.3328 31.3501 10.3328 30.9992C10.3328 19.5863 19.5863 10.3328 30.9992 10.3328C32.7873 10.3328 34.5109 10.5832 36.1657 11.0098V6.74668C34.4673 6.38441 32.7358 6.20093 30.9992 6.19922Z" fill="#EC7D3F"/>
</svg>
