<svg width="42" height="42" viewBox="0 0 42 42" fill="none" xmlns="http://www.w3.org/2000/svg">
<path d="M36.8147 16.53C36.7391 16.4582 36.6555 16.3926 36.5642 16.3345C33.1446 14.1591 28.2351 11.5719 25.5113 10.1728C24.7506 8.43552 23.0147 7.21875 21 7.21875C18.9853 7.21875 17.2494 8.43552 16.4887 10.1728C13.7649 11.5719 8.85536 14.1591 5.4358 16.3345C5.3445 16.3926 5.26091 16.4582 5.18528 16.53C2.105 18.1516 0 21.3854 0 25.1016C0 30.4389 4.34232 34.7812 9.67969 34.7812C15.0171 34.7812 19.3594 30.4389 19.3594 25.1016C19.3594 24.1969 20.0954 23.4609 21 23.4609C21.9046 23.4609 22.6406 24.1969 22.6406 25.1016C22.6406 30.4389 26.9829 34.7812 32.3203 34.7812C34.3987 34.7812 36.3801 34.1321 38.0504 32.9037C38.7803 32.3669 38.9369 31.34 38.4001 30.61C37.8632 29.88 36.8364 29.7235 36.1064 30.2603C35.0036 31.0713 33.6943 31.5 32.3203 31.5C28.7922 31.5 25.9219 28.6297 25.9219 25.1016C25.9219 21.5734 28.7922 18.7031 32.3203 18.7031C35.8484 18.7031 38.7188 21.5734 38.7188 25.1016C38.7188 26.0077 39.4533 26.7422 40.3594 26.7422C41.2655 26.7422 42 26.0077 42 25.1016C42 21.3854 39.895 18.1516 36.8147 16.53ZM21 10.5C21.9046 10.5 22.6406 11.236 22.6406 12.1406C22.6406 13.0453 21.9046 13.7812 21 13.7812C20.0954 13.7812 19.3594 13.0453 19.3594 12.1406C19.3594 11.236 20.0954 10.5 21 10.5ZM9.67969 31.5C6.15161 31.5 3.28125 28.6297 3.28125 25.1016C3.28125 21.5734 6.15161 18.7031 9.67969 18.7031C13.2078 18.7031 16.0781 21.5734 16.0781 25.1016C16.0781 28.6297 13.2078 31.5 9.67969 31.5ZM23.5918 20.9189C22.8386 20.4505 21.9503 20.1797 21 20.1797C20.0497 20.1797 19.1614 20.4505 18.4082 20.9189C17.2724 18.5583 15.2066 16.7262 12.6889 15.9007C14.0059 15.1777 15.2919 14.4941 16.4072 13.9108C17.1196 15.7527 18.9098 17.0625 21 17.0625C23.0902 17.0625 24.8804 15.7527 25.5927 13.9108C26.7081 14.4941 27.994 15.1777 29.311 15.9007C26.7934 16.7261 24.7276 18.5582 23.5918 20.9189Z" fill="#EC7D3F"/>
</svg>
