<svg width="42" height="42" viewBox="0 0 42 42" fill="none" xmlns="http://www.w3.org/2000/svg">
<g clip-path="url(#clip0_3018_24156)">
<path d="M35.8493 6.1507C31.8828 2.18441 26.6093 0 21 0C15.3907 0 10.1172 2.18441 6.1507 6.1507C2.18441 10.1172 0 15.3907 0 21C0 26.6093 2.18441 31.8828 6.1507 35.8493C10.1172 39.8156 15.3907 42 21 42C24.8401 42 28.5975 40.9534 31.866 38.9736C32.641 38.5041 32.8887 37.4953 32.4192 36.7203C31.9497 35.9452 30.9409 35.6975 30.1659 36.1671C27.4102 37.8364 24.2406 38.7188 21 38.7188C11.2298 38.7188 3.28125 30.7702 3.28125 21C3.28125 11.2298 11.2298 3.28125 21 3.28125C30.7702 3.28125 38.7188 11.2298 38.7188 21C38.7188 24.4936 37.6798 27.8942 35.7143 30.8342C35.2107 31.5874 35.4131 32.6064 36.1663 33.1099C36.9196 33.6136 37.9385 33.4112 38.442 32.658C40.7697 29.1764 42 25.145 42 21C42 15.3907 39.8156 10.1172 35.8493 6.1507Z" fill="#EC7D3F"/>
<path d="M27.1523 24.0352C26.2462 24.0352 25.5117 24.7697 25.5117 25.6758C25.5117 28.1635 23.4878 30.1875 21 30.1875C18.5122 30.1875 16.4883 28.1635 16.4883 25.6758C16.4883 24.7697 15.7538 24.0352 14.8477 24.0352C13.9415 24.0352 13.207 24.7697 13.207 25.6758C13.207 29.9728 16.703 33.4688 21 33.4688C25.297 33.4688 28.793 29.9728 28.793 25.6758C28.793 24.7697 28.0585 24.0352 27.1523 24.0352Z" fill="#EC7D3F"/>
<path d="M28.3008 12.3867C26.0392 12.3867 24.1992 14.2267 24.1992 16.4883C24.1992 17.3944 24.9337 18.1289 25.8398 18.1289C26.746 18.1289 27.4805 17.3944 27.4805 16.4883C27.4805 16.036 27.8485 15.668 28.3008 15.668C28.7531 15.668 29.1211 16.036 29.1211 16.4883C29.1211 17.3944 29.8556 18.1289 30.7617 18.1289C31.6678 18.1289 32.4023 17.3944 32.4023 16.4883C32.4023 14.2267 30.5624 12.3867 28.3008 12.3867Z" fill="#EC7D3F"/>
<path d="M13.7812 12.3867C11.5196 12.3867 9.67969 14.2267 9.67969 16.4883C9.67969 17.3944 10.4142 18.1289 11.3203 18.1289C12.2264 18.1289 12.9609 17.3944 12.9609 16.4883C12.9609 16.036 13.3289 15.668 13.7812 15.668C14.2336 15.668 14.6016 16.036 14.6016 16.4883C14.6016 17.3944 15.3361 18.1289 16.2422 18.1289C17.1483 18.1289 17.8828 17.3944 17.8828 16.4883C17.8828 14.2267 16.0429 12.3867 13.7812 12.3867Z" fill="#EC7D3F"/>
</g>
<defs>
<clipPath id="clip0_3018_24156">
<rect width="42" height="42" fill="white"/>
</clipPath>
</defs>
</svg>
