<svg width="28" height="28" viewBox="0 0 28 28" fill="none" xmlns="http://www.w3.org/2000/svg">
<g clip-path="url(#clip0_3057_27332)">
<path d="M2.47056 0H25.5294C26.8939 0 28 1.10611 28 2.47056V25.5294C28 26.8938 26.8939 27.9999 25.5294 27.9999H2.47056C1.10611 28 0 26.8939 0 25.5294V2.47056C0 1.10611 1.10611 0 2.47056 0ZM18.1176 9.05882H14.8235C14.3687 9.05882 14 8.69012 14 8.23528C14 7.78044 14.3687 7.41174 14.8235 7.41174H26.353V2.47056C26.353 2.01573 25.9843 1.64702 25.5294 1.64702H9.88236V8.23528C9.88236 8.69012 9.51366 9.05882 9.05882 9.05882C8.60398 9.05882 8.23528 8.69012 8.23528 8.23528V1.64708H2.47056C2.01573 1.64708 1.64702 2.01578 1.64702 2.47062V14H8.23528V13.1765C8.23528 12.7216 8.60398 12.3529 9.05882 12.3529C9.51366 12.3529 9.88236 12.7216 9.88236 13.1765V16.4706C9.88236 16.9254 9.51366 17.2941 9.05882 17.2941C8.60398 17.2941 8.23528 16.9254 8.23528 16.4706V15.647H1.64708V25.5294C1.64708 25.9842 2.01578 26.3529 2.47062 26.3529H8.23534V21.4117C8.23534 20.9569 8.60404 20.5882 9.05888 20.5882C9.51371 20.5882 9.88241 20.9569 9.88241 21.4117V26.3529H18.1177V22.2353H14.8236C14.3688 22.2353 14.0001 21.8666 14.0001 21.4117C14.0001 20.9569 14.3688 20.5882 14.8236 20.5882H18.1177V18.1176C18.1177 17.6628 18.4864 17.2941 18.9412 17.2941C19.3961 17.2941 19.7648 17.6628 19.7648 18.1176V26.3529H25.5295C25.9843 26.3529 26.353 25.9842 26.353 25.5294V9.05882H19.7647V13.1765C19.7647 13.6313 19.396 14 18.9412 14C18.4863 14 18.1176 13.6313 18.1176 13.1765V9.05882Z" fill="#F4F4F1"/>
</g>
<defs>
<clipPath id="clip0_3057_27332">
<rect width="28" height="28" fill="white"/>
</clipPath>
</defs>
</svg>
