<svg width="24" height="24" viewBox="0 0 24 24" fill="none" xmlns="http://www.w3.org/2000/svg">
<path d="M19.1628 23.0004H4.83721C3.81993 22.999 2.84471 22.5943 2.12539 21.875C1.40606 21.1557 1.00135 20.1804 1 19.1632V6.88408C1.00135 5.86681 1.40606 4.89159 2.12539 4.17226C2.84471 3.45294 3.81993 3.04823 4.83721 3.04688H19.1628C20.1801 3.04823 21.1553 3.45294 21.8746 4.17226C22.5939 4.89159 22.9986 5.86681 23 6.88408V19.1632C22.9986 20.1804 22.5939 21.1557 21.8746 21.875C21.1553 22.5943 20.1801 22.999 19.1628 23.0004ZM4.83721 4.58176C4.22684 4.58257 3.64171 4.8254 3.21012 5.25699C2.77852 5.68859 2.5357 6.27372 2.53488 6.88408V19.1632C2.5357 19.7735 2.77852 20.3587 3.21012 20.7902C3.64171 21.2218 4.22684 21.4647 4.83721 21.4655H19.1628C19.7732 21.4647 20.3583 21.2218 20.7899 20.7902C21.2215 20.3587 21.4643 19.7735 21.4651 19.1632V6.88408C21.4643 6.27372 21.2215 5.68859 20.7899 5.25699C20.3583 4.8254 19.7732 4.58257 19.1628 4.58176H4.83721Z" fill="#818181"/>
<path d="M22.2326 9.69804H1.76744C1.5639 9.69804 1.3687 9.61718 1.22478 9.47326C1.08086 9.32934 1 9.13413 1 8.9306V6.88408C1.00135 5.86681 1.40606 4.89159 2.12539 4.17226C2.84471 3.45294 3.81993 3.04823 4.83721 3.04688H19.1628C20.1801 3.04823 21.1553 3.45294 21.8746 4.17226C22.5939 4.89159 22.9986 5.86681 23 6.88408V8.9306C23 9.13413 22.9191 9.32934 22.7752 9.47326C22.6313 9.61718 22.4361 9.69804 22.2326 9.69804ZM2.53488 8.16315H21.4651V6.88408C21.4643 6.27372 21.2215 5.68859 20.7899 5.25699C20.3583 4.8254 19.7732 4.58257 19.1628 4.58176H4.83721C4.22684 4.58257 3.64171 4.8254 3.21012 5.25699C2.77852 5.68859 2.5357 6.27372 2.53488 6.88408V8.16315Z" fill="#818181"/>
<path d="M16.0931 6.62791C15.8896 6.62791 15.6944 6.54705 15.5505 6.40313C15.4066 6.25921 15.3257 6.064 15.3257 5.86047V1.76744C15.3257 1.5639 15.4066 1.3687 15.5505 1.22478C15.6944 1.08086 15.8896 1 16.0931 1C16.2967 1 16.4919 1.08086 16.6358 1.22478C16.7797 1.3687 16.8606 1.5639 16.8606 1.76744V5.86047C16.8606 6.064 16.7797 6.25921 16.6358 6.40313C16.4919 6.54705 16.2967 6.62791 16.0931 6.62791ZM7.90709 6.62791C7.70355 6.62791 7.50835 6.54705 7.36443 6.40313C7.2205 6.25921 7.13965 6.064 7.13965 5.86047V1.76744C7.13965 1.5639 7.2205 1.3687 7.36443 1.22478C7.50835 1.08086 7.70355 1 7.90709 1C8.11063 1 8.30583 1.08086 8.44975 1.22478C8.59368 1.3687 8.67453 1.5639 8.67453 1.76744V5.86047C8.67453 6.064 8.59368 6.25921 8.44975 6.40313C8.30583 6.54705 8.11063 6.62791 7.90709 6.62791Z" fill="#818181"/>
</svg>
