<svg width="20" height="20" viewBox="0 0 20 20" fill="none" xmlns="http://www.w3.org/2000/svg">
<path d="M19.7913 6.99994C19.7913 5.99994 18.958 5.16661 17.958 5.16661H17.208L14.6663 0.999941C14.458 0.624941 14.083 0.374941 13.6663 0.249941C13.2497 0.166608 12.7913 0.208274 12.4163 0.458274L4.70801 5.16661H2.04134C1.04134 5.16661 0.208008 5.99994 0.208008 6.99994V17.9999C0.208008 18.9999 1.04134 19.8333 2.04134 19.8333H17.958C18.958 19.8333 19.7913 18.9999 19.7913 17.9999V9.99994V6.99994ZM18.5413 13.6249H13.458C12.6247 13.6249 11.958 12.9583 11.958 12.1249C11.958 11.2916 12.6247 10.6249 13.458 10.6249H18.5413V13.6249ZM13.083 1.49994C13.1663 1.45827 13.2913 1.41661 13.3747 1.45827C13.458 1.49994 13.5413 1.54161 13.6247 1.62494L15.7497 5.12494H7.08301L13.083 1.49994ZM17.958 18.5416H2.04134C1.70801 18.5416 1.45801 18.2916 1.45801 17.9583V6.99994C1.45801 6.66661 1.70801 6.41661 2.04134 6.41661H17.958C18.2913 6.41661 18.5413 6.66661 18.5413 6.99994V9.37494H13.458C11.958 9.37494 10.708 10.6249 10.708 12.1249C10.708 13.6249 11.958 14.8749 13.458 14.8749H18.5413V17.9583C18.5413 18.2916 18.2913 18.5416 17.958 18.5416Z" fill="#818181"/>
<path d="M13.041 12.1243C13.041 12.3743 13.2493 12.5827 13.4993 12.5827C13.7493 12.5827 13.9577 12.3743 13.9577 12.1243C13.9577 11.8743 13.7493 11.666 13.4993 11.666C13.2493 11.666 13.041 11.8743 13.041 12.1243Z" fill="#818181"/>
</svg>
