<svg width="18" height="18" viewBox="0 0 18 18" fill="none" xmlns="http://www.w3.org/2000/svg">
<path d="M16.9417 5.27411C16.8838 5.33226 16.815 5.3784 16.7392 5.40989C16.6634 5.44137 16.5821 5.45758 16.5 5.45758C16.418 5.45758 16.3367 5.44137 16.2609 5.40989C16.1851 5.3784 16.1163 5.33226 16.0584 5.27411L13.7917 3.00827V13.1658C13.7917 13.3315 13.7259 13.4905 13.6086 13.6077C13.4914 13.7249 13.3325 13.7908 13.1667 13.7908C13.0009 13.7908 12.842 13.7249 12.7248 13.6077C12.6075 13.4905 12.5417 13.3315 12.5417 13.1658V3.00827L10.275 5.27411C10.1566 5.38451 9.99985 5.44461 9.83793 5.44175C9.67601 5.4389 9.52153 5.3733 9.40702 5.25879C9.29251 5.14428 9.22691 4.98979 9.22406 4.82788C9.2212 4.66596 9.2813 4.50925 9.3917 4.39077L12.725 1.05744C12.8423 0.940601 13.0011 0.875 13.1667 0.875C13.3323 0.875 13.4911 0.940601 13.6084 1.05744L16.9417 4.39077C16.9998 4.44874 17.0458 4.51759 17.0772 4.59338C17.1087 4.66916 17.1248 4.7504 17.1248 4.83244C17.1248 4.91448 17.1087 4.99572 17.0772 5.0715C17.0458 5.14729 16.9998 5.21614 16.9417 5.27411ZM7.72503 12.7241L5.45837 14.9899V4.83244C5.45837 4.66668 5.39252 4.50771 5.27531 4.3905C5.1581 4.27329 4.99913 4.20744 4.83337 4.20744C4.66761 4.20744 4.50864 4.27329 4.39143 4.3905C4.27422 4.50771 4.20837 4.66668 4.20837 4.83244V14.9899L1.9417 12.7241C1.82322 12.6137 1.66652 12.5536 1.5046 12.5565C1.34268 12.5593 1.18819 12.6249 1.07368 12.7394C0.959173 12.8539 0.893579 13.0084 0.890722 13.1703C0.887866 13.3323 0.947968 13.489 1.05837 13.6074L4.3917 16.9408C4.509 17.0576 4.66781 17.1232 4.83337 17.1232C4.99893 17.1232 5.15774 17.0576 5.27503 16.9408L8.60837 13.6074C8.71877 13.489 8.77887 13.3323 8.77601 13.1703C8.77316 13.0084 8.70756 12.8539 8.59305 12.7394C8.47854 12.6249 8.32405 12.5593 8.16214 12.5565C8.00022 12.5536 7.84351 12.6137 7.72503 12.7241Z" fill="#EC7D3F"/>
</svg>
