<svg width="26" height="24" viewBox="0 0 26 24" fill="none" xmlns="http://www.w3.org/2000/svg">
<path d="M22.6667 10.8667C22.313 10.8667 21.9739 11.0071 21.7239 11.2572C21.4738 11.5072 21.3333 11.8464 21.3333 12.2V18.6667C21.3333 19.3739 21.0524 20.0522 20.5523 20.5523C20.0522 21.0524 19.3739 21.3333 18.6667 21.3333H5.33333C4.62609 21.3333 3.94781 21.0524 3.44772 20.5523C2.94762 20.0522 2.66667 19.3739 2.66667 18.6667V5.33333C2.66667 4.62609 2.94762 3.94781 3.44772 3.44772C3.94781 2.94762 4.62609 2.66667 5.33333 2.66667H12C12.3536 2.66667 12.6928 2.52619 12.9428 2.27614C13.1929 2.02609 13.3333 1.68696 13.3333 1.33333C13.3333 0.979711 13.1929 0.640573 12.9428 0.390524C12.6928 0.140476 12.3536 0 12 0H5.33333C3.91885 0 2.56229 0.561903 1.5621 1.5621C0.561903 2.56229 0 3.91885 0 5.33333V18.6667C0 20.0812 0.561903 21.4377 1.5621 22.4379C2.56229 23.4381 3.91885 24 5.33333 24H18.6667C20.0812 24 21.4377 23.4381 22.4379 22.4379C23.4381 21.4377 24 20.0812 24 18.6667V12.2C24 11.8464 23.8595 11.5072 23.6095 11.2572C23.3594 11.0071 23.0203 10.8667 22.6667 10.8667Z" fill="#EC7D3F"/>
<path d="M24.9467 1.71975C24.6968 1.47142 24.3589 1.33203 24.0067 1.33203C23.6544 1.33203 23.3165 1.47142 23.0667 1.71975L12 12.7864L7.61333 8.38642C7.35826 8.16799 7.03016 8.05384 6.69459 8.06681C6.35902 8.07977 6.0407 8.21888 5.80324 8.45634C5.56578 8.6938 5.42668 9.01211 5.41371 9.34768C5.40075 9.68325 5.51489 10.0114 5.73333 10.2664L11.0667 15.5998C11.3165 15.8481 11.6544 15.9875 12.0067 15.9875C12.3589 15.9875 12.6968 15.8481 12.9467 15.5998L24.9467 3.59975C25.195 3.34994 25.3344 3.012 25.3344 2.65975C25.3344 2.30751 25.195 1.96957 24.9467 1.71975Z" fill="#EC7D3F"/>
</svg>
