<svg width="74" height="74" viewBox="0 0 74 74" fill="none" xmlns="http://www.w3.org/2000/svg">
<path d="M66.4643 14.159H61.1538V12.3571C61.1531 11.7322 60.9045 11.1331 60.4626 10.6912C60.0207 10.2493 59.4216 10.0007 58.7967 10H52.7127C52.0878 10.0007 51.4886 10.2493 51.0468 10.6912C50.6049 11.1331 50.3563 11.7322 50.3556 12.3571V43.5369H42.399V22.1523C42.3983 21.5274 42.1498 20.9282 41.7079 20.4863C41.266 20.0444 40.6668 19.7959 40.0419 19.7952H33.9581C33.3332 19.7959 32.734 20.0444 32.2921 20.4863C31.8502 20.9282 31.6017 21.5274 31.601 22.1523V43.5369H23.6444V31.9469C23.6437 31.3219 23.3951 30.7228 22.9532 30.2809C22.5114 29.839 21.9122 29.5904 21.2873 29.5897H15.2033C14.5784 29.5904 13.9793 29.839 13.5374 30.2809C13.0955 30.7228 12.8469 31.3219 12.8462 31.9469V43.5369H6.35714V17.6947C6.35745 17.3822 6.48173 17.0826 6.70268 16.8616C6.92364 16.6407 7.22323 16.5164 7.53571 16.5161H27.1571C27.4697 16.5161 27.7694 16.3919 27.9905 16.1709C28.2115 15.9499 28.3357 15.6501 28.3357 15.3375C28.3357 15.025 28.2115 14.7252 27.9905 14.5042C27.7694 14.2831 27.4697 14.159 27.1571 14.159H7.53571C6.5983 14.16 5.69957 14.5328 5.03672 15.1957C4.37386 15.8585 4.00102 16.7573 4 17.6947V50.6389C4.00102 51.5763 4.37386 52.475 5.03672 53.1378C5.69957 53.8007 6.5983 54.1735 7.53571 54.1746H28.2149L26.2349 62.161H24.1876C23.8751 62.161 23.5753 62.2852 23.3543 62.5062C23.1332 62.7272 23.0091 63.027 23.0091 63.3396C23.0091 63.6522 23.1332 63.9519 23.3543 64.173C23.5753 64.394 23.8751 64.5181 24.1876 64.5181H49.8124C50.1249 64.5181 50.4247 64.394 50.6457 64.173C50.8668 63.9519 50.9909 63.6522 50.9909 63.3396C50.9909 63.027 50.8668 62.7272 50.6457 62.5062C50.4247 62.2852 50.1249 62.161 49.8124 62.161H47.7651L45.7851 54.1746H66.4643C67.4017 54.1735 68.3004 53.8007 68.9633 53.1378C69.6261 52.475 69.999 51.5763 70 50.6389V17.6947C69.999 16.7573 69.6261 15.8585 68.9633 15.1957C68.3004 14.5328 67.4017 14.16 66.4643 14.159ZM52.7127 12.3571H58.7966V43.5369H52.7127V12.3571ZM33.9581 22.1523H40.042V43.5369H33.9581V22.1523ZM15.2033 31.9469H21.2873V43.5369H15.2033V31.9469ZM28.6637 62.161L30.6364 54.2028H43.3636L45.3363 62.161H28.6637ZM67.6429 50.6389C67.6425 50.9513 67.5183 51.2509 67.2973 51.4719C67.0764 51.6928 66.7768 51.8171 66.4643 51.8174H7.53571C7.22323 51.8171 6.92364 51.6928 6.70268 51.4719C6.48173 51.2509 6.35745 50.9513 6.35714 50.6389V45.8941H67.6429V50.6389ZM67.6429 43.5369H61.1538V16.5161H66.4643C66.7768 16.5164 67.0764 16.6407 67.2973 16.8616C67.5183 17.0826 67.6425 17.3822 67.6429 17.6947V43.5369Z" fill="#D05D1D"/>
<path d="M36.9989 50.0349C37.6498 50.0349 38.1775 49.5072 38.1775 48.8563C38.1775 48.2054 37.6498 47.6777 36.9989 47.6777C36.348 47.6777 35.8203 48.2054 35.8203 48.8563C35.8203 49.5072 36.348 50.0349 36.9989 50.0349Z" fill="#D05D1D"/>
</svg>
