<svg width="24" height="24" viewBox="0 0 24 24" fill="none" xmlns="http://www.w3.org/2000/svg">
<path d="M6.75 13.5H2.25C2.05109 13.5 1.86032 13.579 1.71967 13.7197C1.57902 13.8603 1.5 14.0511 1.5 14.25V21.75C1.5 21.9489 1.57902 22.1397 1.71967 22.2803C1.86032 22.421 2.05109 22.5 2.25 22.5H6.75C6.94891 22.5 7.13968 22.421 7.28033 22.2803C7.42098 22.1397 7.5 21.9489 7.5 21.75V14.25C7.5 14.0511 7.42098 13.8603 7.28033 13.7197C7.13968 13.579 6.94891 13.5 6.75 13.5ZM6 21H3V15H6V21ZM21.75 7.5H17.25C17.0511 7.5 16.8603 7.57902 16.7197 7.71967C16.579 7.86032 16.5 8.05109 16.5 8.25V21.75C16.5 21.9489 16.579 22.1397 16.7197 22.2803C16.8603 22.421 17.0511 22.5 17.25 22.5H21.75C21.9489 22.5 22.1397 22.421 22.2803 22.2803C22.421 22.1397 22.5 21.9489 22.5 21.75V8.25C22.5 8.05109 22.421 7.86032 22.2803 7.71967C22.1397 7.57902 21.9489 7.5 21.75 7.5ZM21 21H18V9H21V21ZM14.25 1.5H9.75C9.55109 1.5 9.36032 1.57902 9.21967 1.71967C9.07902 1.86032 9 2.05109 9 2.25V21.75C9 21.9489 9.07902 22.1397 9.21967 22.2803C9.36032 22.421 9.55109 22.5 9.75 22.5H14.25C14.4489 22.5 14.6397 22.421 14.7803 22.2803C14.921 22.1397 15 21.9489 15 21.75V2.25C15 2.05109 14.921 1.86032 14.7803 1.71967C14.6397 1.57902 14.4489 1.5 14.25 1.5ZM13.5 21H10.5V3H13.5V21Z" fill="#181817"/>
</svg>
