<svg width="60" height="60" viewBox="0 0 60 60" fill="none" xmlns="http://www.w3.org/2000/svg">
<g clip-path="url(#clip0_3393_27415)">
<path d="M59.3189 27.7056L34.8982 3.12397C34.8669 3.09233 34.8344 3.06163 34.8014 3.03186C32.1348 0.637604 28.1053 0.629049 25.4285 3.01206C25.3952 3.04171 25.3629 3.07229 25.3314 3.1037L0.688112 27.6984C-0.22806 28.613 -0.229584 30.0969 0.68483 31.0131C1.59936 31.9292 3.08331 31.9307 3.99936 31.0164L5.85936 29.16V49.3964C5.85936 54.5658 10.065 58.7714 15.2344 58.7714H23.6719C24.9663 58.7714 26.0156 57.7221 26.0156 56.4276V37.3261H34.2187V56.4276C34.2187 57.7221 35.268 58.7714 36.5625 58.7714H44.7656C49.935 58.7714 54.1406 54.5658 54.1406 49.3964C54.1406 48.1019 53.0913 47.0526 51.7969 47.0526C50.5024 47.0526 49.4531 48.1019 49.4531 49.3964C49.4531 51.9811 47.3503 54.0839 44.7656 54.0839H38.9062V34.9823C38.9062 33.6879 37.8569 32.6386 36.5625 32.6386H23.6719C22.3774 32.6386 21.3281 33.6879 21.3281 34.9823V54.0839H15.2344C12.6497 54.0839 10.5469 51.9811 10.5469 49.3964V24.5526C10.5469 24.5292 10.5465 24.5059 10.5458 24.4827L28.5874 6.47671C29.0121 6.11578 29.5516 5.91815 30.1089 5.91933C30.6663 5.92052 31.2049 6.12043 31.6281 6.48315L49.4531 24.4257V37.6776C49.4531 38.9721 50.5024 40.0214 51.7969 40.0214C53.0913 40.0214 54.1406 38.9721 54.1406 37.6776V29.1441L55.9936 31.0093C56.2112 31.2289 56.4701 31.4032 56.7556 31.5219C57.041 31.6407 57.3471 31.7016 57.6562 31.7012C58.2753 31.702 58.8695 31.457 59.3081 31.0201C60.2264 30.1078 60.2313 28.6239 59.3189 27.7056Z" fill="#EC7D3F"/>
</g>
<defs>
<clipPath id="clip0_3393_27415">
<rect width="60" height="60" fill="white"/>
</clipPath>
</defs>
</svg>
