<svg width="50" height="50" viewBox="0 0 50 50" fill="none" xmlns="http://www.w3.org/2000/svg">
<g clip-path="url(#clip0_2852_22365)">
<path d="M46.1796 0.195312H4.21106C1.99649 0.195312 0.195312 1.99649 0.195312 4.21106V46.1894C0.195312 48.3941 1.99649 50.1953 4.21106 50.1953H46.1894C48.404 50.1953 50.2052 48.3941 50.2052 46.1796V4.21106C50.1953 1.99649 48.3941 0.195312 46.1796 0.195312ZM23.8075 47.4197H4.21106C3.53193 47.4197 2.98075 46.8685 2.98075 46.1894V4.21106C2.98075 3.53193 3.53193 2.98075 4.21106 2.98075H23.8075V47.4197ZM47.4197 46.1796C47.4197 46.8587 46.8685 47.4099 46.1894 47.4099H26.5831V2.9709H46.1796C46.8587 2.9709 47.4099 3.52208 47.4099 4.20122V46.1796H47.4197Z" fill="#EC7D3F"/>
<path d="M12.4098 32.6251C12.6854 32.9007 13.0397 33.0287 13.394 33.0287C13.7484 33.0287 14.1027 32.8909 14.3783 32.6251L18.768 28.2354C19.3094 27.694 19.3094 26.818 18.768 26.2669C18.2267 25.7255 17.3507 25.7255 16.7995 26.2669L14.7818 28.2846V18.7472C14.7818 17.9795 14.1617 17.3594 13.394 17.3594C12.6263 17.3594 12.0062 17.9795 12.0062 18.7472V28.2846L9.98852 26.2767C9.44718 25.7354 8.5712 25.7354 8.02002 26.2767C7.47868 26.818 7.47868 27.694 8.02002 28.2452L12.4098 32.6251ZM37.9806 17.7629C37.7051 17.4873 37.3507 17.3594 36.9964 17.3594C36.6421 17.3594 36.2877 17.4972 36.0121 17.7629L31.6224 22.1527C31.081 22.694 31.081 23.57 31.6224 24.1212C32.1637 24.6625 33.0397 24.6625 33.5909 24.1212L35.6086 22.1035V31.6409C35.6086 32.4086 36.2287 33.0287 36.9964 33.0287C37.7641 33.0287 38.3842 32.4086 38.3842 31.6409V22.1035L40.4019 24.1212C40.9432 24.6625 41.8192 24.6625 42.3704 24.1212C42.9117 23.5798 42.9117 22.7039 42.3704 22.1527L37.9806 17.7629Z" fill="#EC7D3F"/>
</g>
<defs>
<clipPath id="clip0_2852_22365">
<rect width="50" height="50" fill="white"/>
</clipPath>
</defs>
</svg>
