<svg width="24" height="24" viewBox="0 0 24 24" fill="none" xmlns="http://www.w3.org/2000/svg">
<path d="M19.9308 7.63816L14.4757 2.18309C14.4176 2.12504 14.3487 2.079 14.2729 2.04759C14.1971 2.01617 14.1158 2 14.0337 2H5.88709C4.78381 2 3.88623 2.89758 3.88623 4.00086V19.9991C3.88623 21.1024 4.78381 22 5.88709 22H18.1129C19.2162 22 20.1138 21.1024 20.1138 19.9991V8.08008C20.1138 7.99801 20.0976 7.91674 20.0662 7.84092C20.0348 7.76509 19.9888 7.6962 19.9308 7.63816ZM14.6587 4.13391L17.9799 7.45512H14.6587V4.13391ZM18.1129 20.75H5.88709C5.47307 20.75 5.13623 20.4132 5.13623 19.9991V4.00086C5.13623 3.58684 5.47307 3.25 5.88709 3.25H13.4087V8.08008C13.4087 8.42523 13.6886 8.70508 14.0337 8.70508H18.8638V19.9991C18.8638 20.4132 18.527 20.75 18.1129 20.75ZM16.4688 12.3838C16.4688 12.729 16.1889 13.0088 15.8438 13.0088H8.15627C7.81111 13.0088 7.53127 12.729 7.53127 12.3838C7.53127 12.0387 7.81111 11.7588 8.15627 11.7588H15.8438C16.189 11.7588 16.4688 12.0386 16.4688 12.3838ZM16.4688 16.6494C16.4688 16.9946 16.1889 17.2744 15.8438 17.2744H8.15627C7.81111 17.2744 7.53127 16.9946 7.53127 16.6494C7.53127 16.3043 7.81111 16.0244 8.15627 16.0244H15.8438C16.189 16.0244 16.4688 16.3043 16.4688 16.6494Z" fill="#EC7D3F"/>
</svg>
