<svg width="24" height="24" viewBox="0 0 24 24" fill="none" xmlns="http://www.w3.org/2000/svg">
<path d="M20.0632 8.37833C19.9098 8.20582 19.7215 8.06775 19.5109 7.97318C19.3003 7.87861 19.0721 7.82969 18.8412 7.82964C18.441 7.82954 18.0547 7.97648 17.7557 8.24252L16.4004 9.44726L15.3256 8.37239C16.3823 8.21655 17.1961 7.30391 17.1961 6.20451C17.1961 4.99609 16.213 4.01294 15.0045 4.01294C13.7961 4.01294 12.813 4.99606 12.813 6.20451C12.813 6.84846 13.0922 7.42832 13.5358 7.82964H8.81304C8.37646 7.82964 7.966 7.99961 7.65735 8.30833L5.70729 10.2584C5.39861 10.567 5.22853 10.9775 5.22853 11.4141C5.22853 11.8506 5.39854 12.2611 5.70729 12.5698C6.01598 12.8785 6.42644 13.0486 6.86301 13.0486C7.29959 13.0486 7.71005 12.8785 8.01873 12.5698L9.49003 11.0986H10.16L7.85743 13.4011H4.63448C3.73324 13.4011 3 14.1343 3 15.0355C3 15.9368 3.73324 16.67 4.63448 16.67H8.53449C8.97107 16.67 9.38153 16.5 9.69018 16.1913L10.7655 15.116L11.2415 15.5941L10.8223 18.1096C10.7505 18.5403 10.8507 18.9731 11.1045 19.3284C11.3583 19.6836 11.7352 19.9188 12.1656 19.9904C12.2548 20.0054 12.3458 20.0129 12.4359 20.0129C13.2373 20.0129 13.9147 19.4385 14.0468 18.647L14.6039 15.3042C14.6902 14.7861 14.5206 14.2546 14.1499 13.8823L13.077 12.8045L14.1059 11.7756L15.1788 12.8484C15.4876 13.1571 15.898 13.3271 16.3347 13.3271C16.7349 13.3272 17.1213 13.1803 17.4204 12.9143L19.9275 10.6857C20.601 10.0869 20.6618 9.05178 20.0632 8.37833ZM15.0046 5.05326C15.6394 5.05326 16.1558 5.5697 16.1558 6.20451C16.1558 6.83935 15.6393 7.35579 15.0046 7.35579C14.3698 7.35579 13.8533 6.83935 13.8533 6.20451C13.8533 5.56974 14.3698 5.05326 15.0046 5.05326ZM19.2363 9.90816L16.7291 12.1367C16.6205 12.2334 16.4801 12.2868 16.3346 12.2868C16.2565 12.287 16.1792 12.2717 16.107 12.2419C16.0349 12.212 15.9694 12.1681 15.9143 12.1128L14.4736 10.6722C14.3761 10.5746 14.2438 10.5198 14.1058 10.5198C13.9679 10.5198 13.8356 10.5746 13.738 10.6722L11.9743 12.436C11.7715 12.6388 11.7712 12.9675 11.9736 13.1708L13.4127 14.6163C13.4792 14.6833 13.5288 14.765 13.5575 14.8549C13.5862 14.9448 13.5931 15.0402 13.5777 15.1332L13.0206 18.476C12.9726 18.7638 12.7267 18.9727 12.4359 18.9727C12.4031 18.9727 12.3699 18.9699 12.3368 18.9644C12.2598 18.9518 12.186 18.924 12.1198 18.8827C12.0536 18.8414 11.9963 18.7874 11.9511 18.7237C11.9055 18.6603 11.873 18.5885 11.8554 18.5125C11.8378 18.4364 11.8355 18.3577 11.8485 18.2807L12.3116 15.5019C12.3252 15.4205 12.3192 15.3369 12.2941 15.2582C12.269 15.1796 12.2255 15.108 12.1672 15.0495L11.135 14.0126C11.0868 13.9641 11.0294 13.9257 10.9663 13.8994C10.9031 13.8731 10.8354 13.8595 10.767 13.8594H10.7664C10.6981 13.8594 10.6304 13.8729 10.5673 13.899C10.5042 13.9252 10.4469 13.9635 10.3986 14.0118L8.95462 15.4558C8.89958 15.5111 8.83411 15.555 8.762 15.5848C8.68989 15.6147 8.61258 15.63 8.53453 15.6298H4.63448C4.30689 15.6298 4.04032 15.3632 4.04032 15.0356C4.04032 14.7079 4.30689 14.4414 4.63448 14.4414H8.0729C8.21089 14.4414 8.34319 14.3866 8.4407 14.2891L11.7836 10.9462C11.8563 10.8735 11.9058 10.7808 11.9259 10.6799C11.946 10.579 11.9357 10.4744 11.8963 10.3793C11.8569 10.2843 11.7903 10.2031 11.7047 10.1459C11.6192 10.0888 11.5186 10.0582 11.4158 10.0582H9.2746C9.20629 10.0582 9.13865 10.0717 9.07554 10.0978C9.01243 10.1239 8.95509 10.1623 8.9068 10.2106L7.28317 11.8342C7.17095 11.9464 7.02173 12.0082 6.86305 12.0082C6.70437 12.0082 6.55515 11.9464 6.44293 11.8342C6.38758 11.7791 6.3437 11.7137 6.31383 11.6415C6.28395 11.5694 6.26868 11.4921 6.26889 11.414C6.26889 11.2554 6.33067 11.1062 6.44293 10.9939L8.39295 9.04393C8.44799 8.98859 8.51346 8.94472 8.58557 8.91486C8.65768 8.885 8.73499 8.86974 8.81304 8.86996H14.1058C14.2646 8.86996 14.4138 8.93174 14.526 9.04393L16.0116 10.5296C16.2064 10.7244 16.5192 10.7336 16.725 10.5506L18.4469 9.02C18.5555 8.92331 18.6958 8.86989 18.8412 8.86989C19.011 8.86989 19.1729 8.94259 19.2856 9.06939C19.5032 9.31421 19.481 9.69051 19.2363 9.90816Z" fill="#EC7D3F"/>
</svg>
