<svg width="24" height="24" viewBox="0 0 24 24" fill="none" xmlns="http://www.w3.org/2000/svg">
<g clip-path="url(#clip0_290_21687)">
<path d="M17.062 9.60352H18.1285V18.1345H17.062V9.60352Z" fill="#EC7D3F"/>
<path d="M17.5952 18.8885L14.2295 15.5226L14.9826 14.7695L17.5952 17.3823L20.2077 14.7695L20.9608 15.5226L17.5952 18.8885Z" fill="#EC7D3F"/>
<path d="M1.86621 22.4008V21.3345C2.30613 21.3345 2.66599 20.9747 2.66599 20.5347V8.53808C2.66599 7.36497 3.62588 6.40527 4.79879 6.40527H20.7944V7.47158H4.79879C4.21224 7.47158 3.73249 7.95152 3.73249 8.53808V20.5347C3.73249 21.561 2.89268 22.4008 1.86621 22.4008Z" fill="#EC7D3F"/>
<path d="M21.8605 22.4007H1.86608C0.839806 22.4007 0 21.5609 0 20.5346V3.73925C0 2.56614 0.959694 1.60645 2.13281 1.60645H5.95831C6.38495 1.60645 6.78483 1.773 7.09139 2.07292L9.13086 4.11903C9.23083 4.219 9.37064 4.27231 9.51064 4.27231H19.2079C20.3811 4.27231 21.3341 5.2322 21.3341 6.40511H21.8672C23.0403 6.40511 24 7.36481 24 8.53792V20.2679C23.9933 21.441 23.0336 22.4007 21.8605 22.4007ZM2.13281 2.67275C1.54625 2.67275 1.06631 3.1527 1.06631 3.73925V20.5346C1.06631 20.9745 1.42636 21.3344 1.86608 21.3344H21.8605C22.4471 21.3344 22.927 20.8544 22.927 20.2679V8.53792C22.927 7.95136 22.4471 7.47142 21.8605 7.47142H20.261V6.40511C20.261 5.81856 19.7879 5.33881 19.2013 5.33881H9.504C9.07756 5.33881 8.67767 5.17206 8.37092 4.87214L6.33164 2.82603C6.23167 2.72606 6.09167 2.67275 5.95167 2.67275H2.13281Z" fill="#EC7D3F"/>
</g>
<defs>
<clipPath id="clip0_290_21687">
<rect width="24" height="24" fill="white"/>
</clipPath>
</defs>
</svg>
