<svg width="24" height="24" viewBox="0 0 24 24" fill="none" xmlns="http://www.w3.org/2000/svg">
<g clip-path="url(#clip0_290_21692)">
<path d="M8.67287 13.5172L7.09104 11.9354L5.50921 13.5172L4.73877 12.7468L7.09104 10.3945L9.44332 12.7468L8.67287 13.5172Z" fill="#EC7D3F"/>
<path d="M12 18.8013C8.99316 18.8013 6.54541 16.3536 6.54541 13.3467V11.165H7.63625V13.3467C7.63625 15.7535 9.59322 17.7105 12 17.7105C12.8044 17.7105 13.5954 17.4854 14.2772 17.0695L14.8705 17.9832C13.9909 18.5219 13.009 18.8013 12 18.8013Z" fill="#EC7D3F"/>
<path d="M16.9092 16.2985L14.5569 13.9462L15.3273 13.1758L16.9092 14.7576L18.491 13.1758L19.2614 13.9462L16.9092 16.2985Z" fill="#EC7D3F"/>
<path d="M17.4545 15.5289H16.3636V13.347C16.3636 10.9402 14.4069 8.98342 12.0001 8.98342C11.1955 8.98342 10.4045 9.20834 9.7227 9.62442L9.12964 8.71076C10.0091 8.17203 10.9977 7.89258 12.0069 7.89258C15.0137 7.89258 17.4613 10.3403 17.4613 13.347V15.5289H17.4545Z" fill="#EC7D3F"/>
<path d="M21.8183 22.6194H2.18189C0.981778 22.6194 0 21.6374 0 20.4375V3.52836C0 2.32846 0.981778 1.34668 2.18189 1.34668H6.64094C7.07719 1.34668 7.48628 1.51707 7.80009 1.82389L9.8863 3.91708C9.98857 4.01935 10.1318 4.07389 10.275 4.07389H21.8183C23.0182 4.07389 23.9999 5.05566 23.9999 6.25577V20.4375C23.9999 21.6374 23.0182 22.6194 21.8183 22.6194ZM2.18189 2.43752C1.58183 2.43752 1.09084 2.92851 1.09084 3.52836V20.4375C1.09084 21.0376 1.58183 21.5284 2.18189 21.5284H21.8183C22.4181 21.5284 22.9091 21.0376 22.9091 20.4375V6.25577C22.9091 5.65572 22.4181 5.16473 21.8183 5.16473H10.2682C9.83177 5.16473 9.42267 4.99434 9.10907 4.68752L7.02266 2.59433C6.92039 2.49205 6.77737 2.43752 6.63414 2.43752H2.18189Z" fill="#EC7D3F"/>
</g>
<defs>
<clipPath id="clip0_290_21692">
<rect width="24" height="24" fill="white"/>
</clipPath>
</defs>
</svg>
