<svg width="20" height="20" viewBox="0 0 20 20" fill="none" xmlns="http://www.w3.org/2000/svg">
<g clip-path="url(#clip0_3159_25511)">
<path d="M11.3686 14.375H8.63107C8.19771 14.3999 7.77001 14.2668 7.4273 14.0004C7.08458 13.734 6.8501 13.3524 6.76732 12.9262L6.25482 8.8275C6.24384 8.73958 6.25167 8.65033 6.2778 8.56566C6.30393 8.481 6.34777 8.40286 6.4064 8.33643C6.46503 8.27 6.53712 8.21679 6.61787 8.18034C6.69863 8.14389 6.78622 8.12503 6.87482 8.125H13.1248C13.2134 8.12503 13.301 8.14389 13.3818 8.18034C13.4625 8.21679 13.5346 8.27 13.5932 8.33643C13.6519 8.40286 13.6957 8.481 13.7218 8.56566C13.748 8.65033 13.7558 8.73958 13.7448 8.8275L13.2323 12.9275C13.1493 13.3534 12.9147 13.7347 12.572 14.0009C12.2293 14.267 11.8018 14.4 11.3686 14.375ZM7.58232 9.375L8.00732 12.7719C8.02857 12.9394 8.28982 13.125 8.63107 13.125H11.3686C11.7098 13.125 11.9711 12.9394 11.9917 12.7725L12.4167 9.375H7.58232Z" fill="#EC7D3F"/>
<path d="M10 20C9.50318 19.9998 9.02061 19.8339 8.6287 19.5286C8.23679 19.2232 7.95793 18.7959 7.83627 18.3142C7.71461 17.8325 7.7571 17.324 7.95701 16.8692C8.15693 16.4143 8.50285 16.0392 8.94 15.8031C9.07831 15.7173 9.19143 15.5964 9.26784 15.4527C9.34425 15.309 9.38122 15.1476 9.375 14.985V13.75C9.375 13.5842 9.44085 13.4253 9.55806 13.3081C9.67527 13.1908 9.83424 13.125 10 13.125C10.1658 13.125 10.3247 13.1908 10.4419 13.3081C10.5592 13.4253 10.625 13.5842 10.625 13.75V14.985C10.633 15.3733 10.5359 15.7566 10.3439 16.0943C10.1519 16.4319 9.87219 16.7114 9.53438 16.9031C9.38157 16.9854 9.25331 17.1068 9.16267 17.2548C9.07203 17.4028 9.02224 17.5722 9.01837 17.7457C9.0145 17.9192 9.0567 18.0907 9.14066 18.2426C9.22462 18.3945 9.34734 18.5214 9.49633 18.6104C9.64531 18.6995 9.81524 18.7474 9.98879 18.7494C10.1623 18.7514 10.3333 18.7073 10.4843 18.6217C10.6353 18.5361 10.7609 18.412 10.8483 18.2621C10.9357 18.1121 10.9818 17.9417 10.9819 17.7681C10.9819 17.6024 11.0477 17.4434 11.1649 17.3262C11.2821 17.209 11.4411 17.1431 11.6069 17.1431C11.7726 17.1431 11.9316 17.209 12.0488 17.3262C12.166 17.4434 12.2319 17.6024 12.2319 17.7681C12.231 18.3598 11.9956 18.927 11.5773 19.3454C11.1589 19.7638 10.5917 19.9992 10 20ZM13.75 9.375H6.25C5.91858 9.37467 5.60083 9.24287 5.36648 9.00852C5.13213 8.77417 5.00033 8.45642 5 8.125V6.875C5.00033 6.54358 5.13213 6.22583 5.36648 5.99148C5.60083 5.75713 5.91858 5.62533 6.25 5.625H13.75C14.0814 5.62533 14.3992 5.75713 14.6335 5.99148C14.8679 6.22583 14.9997 6.54358 15 6.875V8.125C14.9997 8.45642 14.8679 8.77417 14.6335 9.00852C14.3992 9.24287 14.0814 9.37467 13.75 9.375ZM6.25 6.875V8.125H13.7506L13.75 6.875H6.25Z" fill="#EC7D3F"/>
<path d="M11.875 6.875H8.12498C8.02998 6.875 7.93623 6.85334 7.85085 6.81167C7.76547 6.76999 7.69072 6.70941 7.63227 6.63451C7.57383 6.55961 7.53322 6.47238 7.51355 6.37943C7.49387 6.28649 7.49565 6.19028 7.51873 6.09813L7.90686 4.54563C8.0077 4.13966 8.2416 3.77918 8.57126 3.52168C8.90091 3.26419 9.30731 3.12454 9.72561 3.125H10.2744C10.6926 3.1245 11.0989 3.26407 11.4285 3.52144C11.7582 3.77881 11.9922 4.13916 12.0931 4.545L12.4812 6.09813C12.5043 6.19028 12.5061 6.28649 12.4864 6.37943C12.4667 6.47238 12.4261 6.55961 12.3677 6.63451C12.3092 6.70941 12.2345 6.76999 12.1491 6.81167C12.0637 6.85334 11.97 6.875 11.875 6.875ZM8.92498 5.625H11.075L10.8812 4.84875C10.8474 4.71327 10.7693 4.59301 10.6592 4.50715C10.549 4.42128 10.4134 4.37476 10.2737 4.375H9.72561C9.58609 4.3749 9.45054 4.42149 9.34057 4.50734C9.23059 4.59319 9.1525 4.71338 9.11873 4.84875L8.92498 5.625Z" fill="#EC7D3F"/>
<path d="M6.87488 6.87551C6.73271 6.87548 6.59479 6.82698 6.48389 6.73801C6.37299 6.64904 6.29574 6.52492 6.26488 6.38613L5.01488 0.761133C4.97891 0.599185 5.00875 0.429581 5.09783 0.289632C5.18691 0.149683 5.32794 0.0508527 5.48988 0.0148827C5.65183 -0.0210873 5.82143 0.00874949 5.96138 0.0978293C6.10133 0.186909 6.20016 0.327935 6.23613 0.489883L7.48613 6.11488C7.50646 6.20634 7.50597 6.3012 7.4847 6.39245C7.46342 6.48369 7.4219 6.56898 7.36321 6.64202C7.30452 6.71505 7.23016 6.77395 7.14563 6.81437C7.06111 6.85478 6.96857 6.87568 6.87488 6.87551ZM13.1261 6.87551C13.0324 6.87568 12.9399 6.85478 12.8554 6.81437C12.7709 6.77395 12.6965 6.71505 12.6378 6.64202C12.5791 6.56898 12.5376 6.48369 12.5163 6.39245C12.495 6.3012 12.4946 6.20634 12.5149 6.11488L13.7649 0.489883C13.8009 0.327935 13.8997 0.186909 14.0396 0.0978293C14.1796 0.00874949 14.3492 -0.0210873 14.5111 0.0148827C14.6731 0.0508527 14.8141 0.149683 14.9032 0.289632C14.9923 0.429581 15.0221 0.599185 14.9861 0.761133L13.7361 6.38613C13.7053 6.52503 13.6279 6.64923 13.5169 6.73821C13.4059 6.82719 13.2684 6.87563 13.1261 6.87551Z" fill="#EC7D3F"/>
</g>
<defs>
<clipPath id="clip0_3159_25511">
<rect width="20" height="20" fill="white"/>
</clipPath>
</defs>
</svg>
