<svg width="24" height="24" viewBox="0 0 24 24" fill="none" xmlns="http://www.w3.org/2000/svg">
<g clip-path="url(#clip0_2249_20791)">
<path d="M20.4852 3.51469C18.2187 1.24819 15.2052 0 11.9999 0C11.9997 0 12 0 11.9998 0C8.79478 0 5.78109 1.24833 3.51469 3.51469C1.24823 5.78119 0 8.79464 0 12C9.375e-05 14.0404 0.519375 16.0459 1.50431 17.8196L0.0259688 23.1075C-0.042375 23.352 0.0264375 23.6145 0.205969 23.794C0.3855 23.9735 0.647813 24.0423 0.8925 23.974L6.18052 22.4956C7.95408 23.4807 9.95944 24 12 24C15.2053 24 18.2188 22.7518 20.4853 20.4853C22.7519 18.2188 24 15.2053 24 12C23.9999 8.79459 22.7516 5.78119 20.4852 3.51469ZM11.9999 22.5938C10.1087 22.5937 8.2523 22.0888 6.63127 21.1335C6.52209 21.0692 6.39872 21.0362 6.27431 21.0362C6.21084 21.0362 6.14719 21.0448 6.08498 21.0622L1.71652 22.2834L2.9378 17.9151C2.98931 17.7309 2.96353 17.5337 2.86645 17.3689C1.91123 15.7476 1.40634 13.8911 1.40625 12C1.40625 9.17025 2.50819 6.50995 4.50909 4.50905C6.51 2.50814 9.1703 1.40625 11.9999 1.40625C17.8412 1.40625 22.5936 6.15858 22.5938 12C22.5938 17.8414 17.8414 22.5938 11.9999 22.5938Z" fill="#EC7D3F"/>
<path d="M17.1796 12.8988C16.7498 12.469 16.1767 12.2322 15.5658 12.2322C14.955 12.2322 14.3819 12.469 13.9522 12.8987L13.6262 13.2247C13.5458 13.305 13.4378 13.3493 13.322 13.3493C13.2062 13.3493 13.0981 13.305 13.0176 13.2245L10.7736 10.9805C10.6932 10.9001 10.6489 10.792 10.6489 10.6762C10.6489 10.5604 10.6931 10.4524 10.7734 10.3721L11.0994 10.0461C11.9893 9.15625 11.9893 7.70837 11.0995 6.81855L10.4474 6.16628C10.0175 5.73658 9.44443 5.5 8.8336 5.5C8.22277 5.5 7.64968 5.73663 7.21983 6.16647L6.73364 6.65275C5.70572 7.68067 5.3326 9.21142 5.68289 10.9631C6.01257 12.6115 6.9549 14.2801 8.33635 15.6617C10.0772 17.4024 12.2944 18.4417 14.2674 18.4419H14.2678C15.511 18.4419 16.5753 18.0348 17.3454 17.2647L17.8316 16.7785C18.7215 15.8886 18.7215 14.4407 17.8316 13.5507L17.1796 12.8988ZM16.8373 15.7841L16.3511 16.2703C15.8504 16.771 15.1301 17.0356 14.2679 17.0356H14.2676C12.6593 17.0355 10.8137 16.1502 9.3308 14.6674C8.14346 13.48 7.33768 12.0665 7.06191 10.6874C6.80677 9.41158 7.04335 8.33191 7.7281 7.64711L8.21424 7.16087C8.37844 6.99672 8.59838 6.9063 8.83364 6.9063C9.069 6.9063 9.28904 6.99672 9.45315 7.16078L10.1051 7.81291C10.4467 8.15448 10.4467 8.71019 10.1052 9.05172L9.77911 9.37773C9.43313 9.72367 9.24263 10.1849 9.24268 10.6765C9.24272 11.1679 9.43332 11.6291 9.77925 11.975L12.0233 14.2189C12.3693 14.5651 12.8306 14.7557 13.3221 14.7557C13.8135 14.7557 14.2746 14.5651 14.6206 14.2192L14.9466 13.8932C15.1107 13.729 15.3307 13.6386 15.5659 13.6386C15.8011 13.6386 16.0211 13.729 16.1853 13.8932L16.8373 14.5452C17.1788 14.8867 17.1789 15.4425 16.8373 15.7841Z" fill="#EC7D3F"/>
</g>
<defs>
<clipPath id="clip0_2249_20791">
<rect width="24" height="24" fill="white"/>
</clipPath>
</defs>
</svg>
